<?xml version="1.0" encoding="UTF-8"?>
<svg id="Layer_1" data-name="Layer 1" xmlns="http://www.w3.org/2000/svg" version="1.1" viewBox="0 0 594 821">
  <defs>
    <style>
      .cls-1 {
        fill: #1f1f1f;
      }

      .cls-1, .cls-2, .cls-3, .cls-4, .cls-5, .cls-6, .cls-7, .cls-8, .cls-9, .cls-10, .cls-11, .cls-12, .cls-13, .cls-14 {
        stroke-width: 0px;
      }

      .cls-2 {
        fill: #363330;
      }

      .cls-3 {
        fill: #eee;
      }

      .cls-4 {
        fill: #fdfdfd;
      }

      .cls-5 {
        fill: #000;
      }

      .cls-6 {
        fill: #6b645d;
      }

      .cls-7 {
        fill: #82827f;
      }

      .cls-8 {
        fill: #12130e;
      }

      .cls-9 {
        fill: #161616;
      }

      .cls-10 {
        fill: #564f45;
      }

      .cls-11 {
        fill: #050505;
      }

      .cls-12 {
        fill: #0a0a0a;
      }

      .cls-13 {
        fill: #cdc6bd;
      }

      .cls-14 {
        fill: #e9e2d2;
      }
    </style>
  </defs>
  <path class="cls-11" d="M509.3,763.17c-.17-.18-.31-.33-.45-.47-.15.28-.34.55-.41.84-.02.1.26.28.41.42.16-.28.31-.55.45-.79ZM197.36,703.92c-.2.16-.35.3-.51.43.15.15.29.4.45.4.15.01.31-.23.47-.37-.14-.15-.28-.31-.41-.46ZM570.79,675.03c-.29.16-.58.32-.89.48.16.16.34.46.45.43.32-.07.61-.28.92-.43-.14-.15-.3-.3-.48-.48ZM573.33,673.45c-.15.16-.45.34-.42.46.07.32.28.61.43.92.15-.15.45-.33.43-.45-.07-.32-.27-.62-.44-.93ZM576.53,672.8c-.15-.16-.3-.42-.46-.43-.16-.01-.33.24-.5.38.15.15.3.42.46.43.16,0,.33-.25.5-.38ZM260.94,657.48c-.15-.14-.31-.39-.46-.39-.16,0-.32.25-.48.39l.67.46c.08-.14.16-.28.27-.46ZM20.08,434.56c-.15.15-.43.32-.41.43.06.31.24.6.38.9.15-.15.43-.31.41-.43-.05-.31-.24-.61-.38-.9ZM54.85,427.52c-.22-.36-.43-.72-.65-1.08-.18.34-.52.69-.49,1.02.03.4.35.78.56,1.17.19-.36.38-.73.58-1.11ZM235.38,770.8c-1.5-.84-1.45.21-1.88.51.5.35.97.91,1.51.98.41.06.91-.49,1.37-.77-.51-.36-1.02-.72-1-.72ZM272.53,667.98c.44-.98.93-1.64.96-2.32.03-.55-.44-1.12-1.3-.77-.8.34-1.66.67-1.38,1.69.12.43.83.7,1.72,1.4ZM192.35,673.66c-.62-.54-1.21-1.28-1.97-1.64-.68-.32-1.24.26-.93.98.24.56.81,1.03,1.33,1.42.7.54,1.12.03,1.57-.76ZM262.33,658.79c1.77,2.15,1.4,7.97,7.18,4.71-2-2.6-4.3-4-7.18-4.71ZM451.21,772.83c-4.22.87-8.66.8-12.75,4.8,5.18-1.45,9.58-1.57,12.75-4.8ZM79.61,395.89c.15-5.21-.76-10.08-3.54-14.47-.06,5.13,1.53,9.89,3.54,14.47ZM217.25,700.07c3.38,3.06,6.74,6.29,12.17,6.55-3.68-3.55-7.45-5.85-12.17-6.55ZM408.7,700.59c6.21-.92,12.72.12,18.53-3.43-6.1,1.67-12.79-.51-18.53,3.43ZM181.19,661.04c-.35,7.4,3.61,9.12,6.83,11.48.45-.38.9-.76,1.34-1.14-2.33-2.96-4.67-5.93-8.17-10.34ZM207.88,724.16c-.86-3.21-4.25-4.17-4.38-7.17-.05-1.22-.31-2.48-1.78-1.95-1.02.36-1.69,1.61-2.63,2.3-1.84,1.35.22,1.59.62,2.2,1.79,2.67,4.35,4.13,8.17,4.62ZM183.45,705.14c2.71,4.88,8.53,3.98,12.73,6.3-1.76-6.45-8.58-3.93-12.73-6.3ZM187.86,636.66c.61,1.81,5.29,1.56,2.11,5.12-.92,1.03,1.57,2.34,3.01,2.84,1.29.45,2.8.56,3.47-1.01.56-1.32.24-2.71-.77-3.76-2.09-2.15-4.49-3.61-7.82-3.19ZM18.79,496.4c2.19-9.92-2.1-18.45-5.73-27.14.57,9.29,2.29,18.33,5.73,27.14ZM327.23,726.54c-9.62-2.67-18.99-5.96-28.27-9.57-15.27-5.94-28.67-16.04-44.77-20.12-.71-.18-1.45-1.04-1.77-1.77-2.12-4.78-6.54-6.85-10.72-9.14-1.48-.81-3.25-2.47-4.98-.82-1.61,1.54-2.43,3.59-1.06,6.37,1.8-2.8,3.58-3.97,5.86-1.17,8.78,10.76,20.34,16.77,33.61,20.23,3.95,1.04,8.16,2.22,10.53,6.8,2.07,3.98,6.09,5.58,10.91,5.82,4.77.22,9.59.68,14.33,2.04,5.22,1.49,10.68,2.46,16.33,1.33ZM57.52,565.61c-13.32-40.7-29.21-80.51-39.36-122.22,2.79,44.12,12.34,86.04,39.36,122.22ZM200.92,706.13c-.43-.85-1.03-1.4-1.88-.61-.15.14.39,1.02.61,1.55.98,2.54,2.1,6.56,4.51,6.18,4.31-.67,4.44,1.71,5.57,4.31.68,1.57,2.28,2.84,3.69,3.97,9.66,7.77,20.74,12.99,33.07,18.85-2.49-4.97-1.99-6.26,2.41-4.26,8.91,4.05,17.94,7.84,27.02,11.52,1.66.67,4.32,3.8,5.56-.82.09-.35,1.8-.74,2.35-.43,4.65,2.67,10.54,3.27,13.84,8.21.33.49,1.04.73,1.48,1.02,1.93-.87-1.4-3.1,1.15-3.65,4.07,6.17,10.34,9.06,17.11,9.64,14.26,1.21,28.61,1.52,44.99,2.3-7.6-1.96-13.22-3.52-18.88-4.86-20.67-4.94-40.56-12.24-60.38-19.8-3.83-1.46-7.96-1.46-10.18-6.27-1.66-3.59-4.76-4.21-5.35,1.54-1.49-1.38-2.65-2.48-3.85-3.53-2.45-2.12-5.98-3.04-7.26-6.48-6.45,3.89-9.47-3.18-14.26-4.61-3.66-1.09-6.88-3.56-10.49-4.89-1.32-.48-4.59-2.7-4.45,1.78-.49.52-.98,1.03-1.48,1.55-2.04-2.2-4.54-3.67-7.29-4.8-5.87-2.44-11.74-4.94-17.61-7.41ZM270.77,772.2c3.74-.58,7.51-3.32,10.19,2.73,1.23,2.78,7.05,1.77,9.12,5.44-2.64,2.11-5.26-2.51-8.84.68,10.05,4.95,19.94,7.22,30.59,6.36,21.98.32,43.24,10.19,66.03,4.89-26.14-4.61-52.16-8.01-77.31-16.16h16.91c-23.2-7.14-45.69-16.05-69.12-21.95-1.83-.46-5.6-.6-5.05-2.41,2.27-7.4-4.27-6.71-7.38-8.03-7.53-3.17-14.19-7.39-20.46-12.55-3.16-2.6-6.7-5.59-12.84-3.31,6.82,1.96,10.05,6.91,15.01,9.58,4.68,2.52,9.97,4.83,13.86,9.9-3.66.96-5.35-2.79-7.93-.91.17-.25.35-.5.52-.74-.26-.1-.53-.2-.8-.3.15.32.3.64.45.96,13.68,9.88,28.84,16.9,44.47,22.98,1.47.58,3.37.33,2.55,2.81-1.2,2.99-3.51-1.38-5.13,1.17,3.74,3.63,7.68,6.72,14.31,7.3-2.4-5.11-8.02-4.13-9.15-8.44ZM298.75,682.33c-2.11-.74-3.96-3.56-6.47-1.16-.93.89-1.14,2.57-.07,3.68,1.93,2.02,2.79-2.72,4.81-.9,2.66,4.36,13.89,8.48,17.82,6.08-5.55-2.65-10.82-5.18-16.09-7.7ZM471.73,769.2c.92-.46,1.83-.91,2.75-1.37,1.3-.71,2.59-1.43,3.86-2.13-.1-.53-.2-1.05-.29-1.57-.66.27-1.33.55-1.99.82-.93.42-1.87.83-2.8,1.24l-2.75,1.38c-.86.62-3.12.42-2.1,2.18.79,1.32,2.19-.28,3.32-.55ZM160.1,633.09c.53.14,1.43.51,1.53.35.46-.7-.1-1.04-.75-1.23-.38-.53-.78-1.06-1.16-1.58-2.79-4.42-5.7-8.71-12.11-12.3,3.25,6.5,7.34,9.85,11.15,13.43.45.45.9.9,1.34,1.33ZM410.6,736.9c-13.74,2.8-27.64,1.69-41.5,1.58-12.36-.1-24.58-1.8-36.84-3.09-3.04-.32-6.15-.05-9.28.75,19.23,7.05,39.47,5.32,59.42,6.89-7.92,3.13-16.72,2.4-25.94,5.9,8.85,2.77,17.3-.31,25.33,3.76-2.16.29-3.65.48-5.55.73,2.58,2.9,5.17,2.89,7.84,1.08,3.11-2.09,6.56-1.75,9.94-1.51,1.47.11,5.21-.88,1.99,3.05-1.07,1.31,1.34,1.16,2.11,1.09,3.1-.26,6.24-.53,9.28-1.2,9.82-2.2,19.74-3.07,29.78-2.84,2.02.05,1.85-.04,2.94-2.29.95-1.95,3-1.74,4.79-1.54,1.13.12,2.47.69,1.59,2.11-3.1,4.99,1.29,3.44,2.91,3.02,5.78-1.53,11.42-3.55,17.15-5.26,8.02-2.39,16.04-5.23,23.73-8.04,7.79-2.85,16.29-4.9,23.61-9.39,1.29-.79,3.34-2.73,4.59-.18,1.23,2.52-2.67,1.65-2.96,3.52,2.12.03,4.71,1.56,5.12-2.34.18-1.67.41-4.06,2.72-4.11,2.2-.05,2.47,2.34,3.31,3.9,2.66,4.91,6.84,5.01,10.44.23l-.15-.07c1.97,1.31,3.62,1.66,4.17-1.36l.13.24c11.05-3.13,21.25-7.94,30.15-15.31,3.76-2.39,8.18-4.22,8.17-9.77,5.74-.23,8.28-5.19,11.98-8.33,4.99-4.22,8.89-9.7,15.13-13.39.99,8.21-4.85,11.45-9.6,15.1-3.59,2.78-8.11,4.58-10.69,8.39-1.48,2.2-7.36,4.04-2,8.14-2.13,2.34-4.23,4.76-7.24,5.98-11.77,4.79-24.76,7.57-35.53,13.42-33.48,18.18-70.17,23.78-106.48,31.41-1.23.26-4.81-1.09-4.08,2.94.69,3.84,3.47,2.22,5.11,1.83,9.26-2.22,18.85-2.6,27.82-6.77,3.62-1.68,9.49-3.82,12.83-2.47,8.25,3.33,13.72-1.06,19.98-4.26,2.02-1.03,4.16-2.01,6.35-2.45,5.61-1.14,8.43,1.71,6.67,7.42,4.46-1.96,8.33-3.3,11.07,2.41.71,1.49,4.6-1.88,7.32-2.02.6.48,1.21.95,1.81,1.43-17.39,12.71-38.27,17.73-57.59,26.2-4.13,1.81-8.28,3.57-12.29,5.3.68,2.6,3,.37,3.33,2.66-4.91,2.02-10.26,3.53-15.77,4.53-.2-.44-.17-.87.08-1.29,1.05-.36,2.35-.89,2.18-2.04-.25-1.6-1.83-.92-2.67-.66-4,1.22-7.96,2.62-11.93,3.96-2.31.25-2.94,1.78-2.9,3.81-29.03,5.92-58.14,11.29-87.77,13.11-3.84.23-7.72-.11-11.57-.28-1.45-.06-2.78-.62-2.56-2.43.15-1.25,1.07-1.92,2.36-2.04,1.58-.16,3.17-.57,4.75-.51,13.72.53,27.3-.71,40.83-2.87,4.29.3,8.58.6,12.88.9-3.87-2.79-7.97-3.49-12.31-2.82-50.12-5.62-100.1-11.96-147.67-30.07-10.69-4.07-20.93-9.09-29.54-16.8-1.95-1.74-6.33-3.55-4.29-6.43,1.71-2.43,4.53,2.02,5.91,2.22,7.15,1.04,11.9,6.88,18.72,8.22,3.62.71,7.07,2.28,11.74,3.84-1.68-4.49-4.62-5.48-6.87-7.06-21.67-15.21-43.82-29.77-63.43-47.69-6.21-5.68-12.37-11.35-14.44-20.23-1.18-5.07-6.78-6.32-10.52-9.07-2.07-1.52-3.86-2.98-5.02-5.37-4.38-8.99-8.84-17.6-16.11-25.15-6.27-6.51-13.56-12.11-19.06-19.38-.6-.86-1.4-2.35-2.37-1.42-1.14,1.08.27,2.26,1.06,3.22,3.09,8.43,10.28,14.57,13.6,23.93-11.18-7.53-14.32-19.48-20.54-29.3-.39-.89-.77-1.77-1.16-2.66-.59-.96-.6-3.12-2.04-2.43-1.05.51-.55,2.41.78,3.32.34,1.03.69,2.05,1.03,3.08,2.38,5.34,1.9,11.33,4.61,16.8,4.54,9.18,8,18.89,11.15,28.7,1.73,5.39,4.65,10.39,6.97,15.59.96,2.16,3.15,3.96,1.17,7.16-18-31.94-29.28-66.75-41.94-101.41-1.72,1.65-1.12,3.47-1.21,5.08-.09,1.77-.02,3.54-.74,5.51-4.17-16.41-7.93-32.88-20.3-45.47-2.92,4.54,4.14,10.08-1.01,14.97-1.4-1.53-1.86-3.43-1.82-5.3.31-14.22-5.61-26.6-11.25-39.1-3.08-6.86-5.03-14.48-9.26-20.53-15.9-22.78-14.3-50.1-20.59-75.35-.7-2.8-.47-5.91-3.42-7.71-1.93-1.18-.55-2.38.32-3.19,1.26-1.19,2.48-.99,2.91.91.31,1.38.64,3.09,2.4,1.88.86-.6,1.59-2.76,1.17-3.65-4.23-9.14-.54-18.48-1.1-27.66-.36-5.97,5.16-9.32,5.07-15.09-.15-10.51.22-21.03.65-31.53.26-6.38,1.04-12.74,1.58-19.11.66.01,1.31.01,1.96.01,3.99,7.29,4.35,15.21,2.09,22.78-1.39,4.64,4.9,6.97,2.04,11.26-.54.66-1.1,1.31-1.67,1.96-3.14,10.92-2.69,22.09-2.32,33.25.29,8.81.71,17.62,1.11,26.45-1.28,2.44-1.42,4.81,1.01,8.94-.46-4.27,1.7-6.85-1.23-9.02,3.81,2.6,3.19-.2,2.92-2.43-.64-5.41-1.97-10.84-1.77-16.21.14-3.59-3.46-10.19,5.11-10.05.86.02.72-1.86.07-2.89-1.67-2.63-1.99-10.61-.52-13.18,1.81-3.16.36-8.95-.26-8.83-5.83,1.11-2.17-2.85-2.69-4.41.56-1.22,2.78-2.45-.01-3.66,7.88,2.39,13.23,11.42,12.05,20.77-.31,2.5,1,4.3,1.65,6.41,2.16,8.69,1.6,18.17,7.47,25.8-1.67-9.17.29-19.12-5.97-27.27,9.83-13.79,2.1-28.41,1.95-42.66-.05-5.16-.86-10.31-1.02-15.48-.14-4.6-.4-8.93-3.07-13.09-1.65-2.56,1.35-5.43,1.89-8.27.53-2.78,4.82-.15,7.69-3.19-.51,8.91-.93,16.35-1.44,25.34,4.2-5.9,4.24-11.31,4.81-16.66,1.53,5.62,4.26,11.19-.73,16.66-.81.88-.96,2.58-.99,3.91-.68,27.08,2.47,53.79,8.02,80.26.11.55.66,1,2.19,1.29-.91-8.88-1.77-17.76-2.74-26.62-1.33-12.05-2.25-24.1-2.65-36.23-.17-5.27,2.47-9.95,1.69-15.29-.32-2.24,1.82-.38,2.84.02,0,6.67,0,13.34,0,20.02,2.18-6.73,1.61-13.44,1.08-20.15-.97-6.09-.23-12.23-3.35-18.26-3.14-6.04,3.04-11.59,3.67-17.82,1.91,2.63,1.05,5.68,1.48,8.49.79,5.05-2.63,11.15,3.57,14.92.15.09.3.51.22.6-5.95,7.2,3.41,13.52,1.2,20.75-.9,2.95-2.53,6.42-.93,9.86,2.13-.2.41-4.14,3.24-3.2,1.66.54,1.99,2.28,2.36,3.88.31,1.35-1.18,3.24,2.81,2.7,4.39-.59,2.58-3.05,2.3-4.04-2.2-7.74-4.81-15.38-7.21-23.07-1.4-4.46-2.95-8.94-1.34-14.2,3.11,2.75.51,6.64,2.89,9.11.75-5.7,1.49-11.34,2.29-17.44,4.78,3.81,9.67,7.1,9.36,14.01.52,7.12.77,14.31,4.81,20.62-1.17-6.87-2.31-13.72-2.69-20.67-.69-9.28,2.08-18.8-2.21-27.85-.73-1.53-.35-3.64,1.96-4.34.85.32,1.7.63,2.56.94.68,13.83,1.54,27.66,1.94,41.5.15,4.94,2.22,9.66.93,14.79-.56,2.23,2.91,4.94,3.73,4.7,5.81-1.72,3.31,2.71,4.19,4.89,4.46,11.01,5.73,22.88,9.34,34.1-5.01-.74-6.98-4.28-8.25-8.68-1.51-5.23-2.84-10.59-7.2-16.28.09,19.55,7.48,35.09,16.14,50.31-.93-5.61,1.9-11.21-.47-16.81-.46-1.09-2.03-3.58,1.01-4.36.77,2.08,1.55,4.16,2.79,7.51,5.03-10.09,9.55-19.16,14.07-28.23-.07,8.51-1.05,16.6-.66,24.72.03.6-3.24,7.96,3.6,4.02.92-.53.8.84.75,1.19-.67,5.1,2.14,9.78,1.77,14.8-.24,3.4,1.66,6.04,2.74,8.99,1.51,4.14,7.89,7.86,1.36,12.94-.42.33-.22,1.78.04,2.6,1.94,6.01,4.21,11.86,8.86,17.82,1.45-6.83-.35-11.98-3.04-17.1,2.74-1.62,3.63,1.24,5.74,1.79,1.4-7.39.09-15.19,3.19-22.34-.14,13.11,2.44,25.79,4.22,38.39-.09-.05-1.03-.48-1.96-.92-1.28-1.24-3.05-3.3-4.3-1.05-1.04,1.86,1.89,1.8,3.09,2.54,2.33,11.61,5.9,22.6,13.88,31.84,6.3,7.3,11.98,15.12,20.15,20.62,1.31.88,1.73,3.08,2.56,4.68-.65.04-1.3.09-1.95.14-1.92-2.14-4.61-1.17-6.93-1.67-3.01-.66-7.73,0-8.82-1.73-3.19-5.07-7.22-3.98-11.54-3.43-.96-.02-2.01-.19-2.1,1.25-3.22-3.66-3.16-3.63-4.97-.31-.2.38-1.64.08-2.5.09-1.03-3.02-3.59-3.58-6.39-4.14-1.3,4.32-.11,8.57-.55,12.72,0,1.32,0,2.65,0,3.96-.28,5.85,1.06,9.55,8.22,7.14,2.27-.77,4.99-.06,7.47-.36,3.53-.43,7.01,2.88,10.51.05,1.3-.21,2.6-.41,3.91-.62,0,1.15,0,2.29.02,3.44-1.76.22-3.52.43-6.86.85,5.3,2.75,5.51,9.23,11.6,8.34-.07,2.77.12,5.01,4.06,4.15,2.41-.52,4.98-.24,7.48-.32.53,1.57,1.56,2.19,2.99,1.18,4.57-3.22,5.65.16,6.79,3.51-1.69,2.04-4.26,2.18-6.51,2.98-2.2.78-.04,1.57-.1,2.34-1.79,2.53-4.51,1.47-6.88,1.77-10.15,1.26-12.42,3.06-12.88,10.64,8.21-2.71,16.28-5.42,24.39-8.02,2.05-.66,1.94-2.2,2.04-3.77,4.85-1.57,9.7-3.14,14.55-4.71,2.46.95.38,9.32,6.64,4.06,3-.34,5.99-.69,8.99-1.03-.09.39-.1.78-.05,1.17-.88,2.55,1.12,2.74,2.68,3.3,8.05,7,17.67,11.38,26.96,16.33,1.3.69,3.38.71,3.32,2.8-.02.58-1.09,1.29-1.82,1.67-2.98,1.57-1.83-1.19-2.4-2.27-.25-.47-1.25-1.09-1.51-.94-7.28,4.07-12.29-2.27-18.31-3.9-.76-.47-1.47-1.1-2.3-1.36-1.46-.46-3.67-1.19-4.06.67-.46,2.23,1.89,1.81,3.36,1.93.67.05,1.34.17,2.01.26-1.22,5.84,4.62,4.12,6.73,6.38.89.94,5.18-.13,2.56,2.14-1.81,1.57.19,7.94-5.47,5.01-3.02-1.56-6.13-2.98-9.3-4.22-.92-.36-2.65-.26-3.17.35-1.12,1.31.1,2.98,1.14,3.34,7.31,2.52,11.14,11.1,19.71,11.3,2.07.05,1.6.68,1.85,2.49.51,3.61,4.59,4.57,7.54,4.12,3.73-.58,5.46.92,7.64,3.41,2.92,3.32,7.06,4.86,12.35,5.5-6.03,3.09-10.94.71-15.88-.4-2-.45-3.95-1.1-5.95-1.55-1.49-.33-2.85.07-3.12,1.74-.21,1.27.9,1.77,1.88,2.43,14.24,9.67,31.01,14.98,44.3,26.41,7.04,6.06,16.69,6.98,25.38,9.65-.03.53-.05,1.05-.07,1.58-12.05,1.43-21.72-5.74-32.44-9.05-5.44-1.68-10.68-3.99-16.05-5.92-1.16-.42-2.92-1.56-3.59.07-1.17,2.86,1.75,1.61,2.79,2.31.53.35,1.06.85,1.35,1.41,4.59,8.73,14.12,11.23,21.24,16.77.32.26,1.12-.1,1.71-.18l.15-.27c-.77,1.69.83,1.58,1.6,2.11,1.95,2.19,4.44,3.27,7.33,3.52,8.43,4.17,18.11,5.91,26.12,12.71-5,2.11-9.73-5.48-14.09,1.61,8.13-.31,14.21,5.06,21.75,5.06v-.23c.86,2.28,2.83.72,4.2,1.22,1.47.26,2.44-.28,2.83-1.76,5.35,1.07,10.7,2.14,16.19,3.23.29-6.06-4.85-2.42-6.71-4.35,5.81-3.56,11.1-2.13,14.44,3.84,1.02,1.83,2.79.92,4.22,1.05,10.96,1.02,21.88-.42,32.92-.76-9.64-6.84-22.31-2.65-32.09-9.01,43.43,3.08,86.19.57,128.3-10.58,42.84-11.34,78.36-34.92,110.09-65.47-3.08,9.07-8.19,16.71-15.19,22.13-9.45,7.31-18.09,15.36-26.64,23.6-3.46,3.34-7.1,6.05-11.96,7.52-7.22,2.18-13.43,6.71-19.89,10.57-8.92,5.33-17.86,10.6-29.23,14,4.83,2.42,8.01.65,10.82-.38,20.04-7.28,40.68-13.24,58.26-26.12,1.73-1.27,4.84-.65,7.32-.9,1.1.5,2.2,1.01,3.3,1.51.06,1.62-2.04,2.57-1.38,4.38l.03-.09c-.28,4.74-4.99,3.1-7.38,4.53-6.46,3.89-13.39,7.54-21.34,7.81,3.3-3.25,8.51-3.73,12.44-8.77-6.45,1.95-11.1,4.29-15.39,7.42-.69.47-1.39.94-2.08,1.4-2.97.21-2.67,2.07-2.06,4.08-4.17.41-7.7,3.6-12.15,2.81.99-.81,1.97-1.61,2.96-2.42.74-.31,1.48-.61,2.22-.92-.99-1.51-2.05-.6-3.09-.09-2.6.97-5.52,1.22-7.62,3.33-.47-.01-.9.14-1.28.42-1.24.96-5.79.52-1.59,3.77-2.24.48-4.47.97-6.71,1.45-.98-2.1-2.29-1.52-3.86-.44,1.39.32,2.42,1.63,3.81.54-8.11,2.1-16.23,4.21-24.43,6.33.24,1.34,1.42.99,2.44.97-.51.6-.95,1.61-1.57,1.74-3.88.83-7.33,2.4-10.37,4.95-.49.41-1.56.93-1.78.73-6.94-6.18-12.97.04-17.51,2.97-3.88,2.51-7.2,2.89-10.85,2.71-43.31-2.17-86.51-6.02-129.07-14.42-22.62-4.46-42.56-16.48-62.56-27.64-4.22-2.35-8.23-4.93-13.31-4.6-1.68.11-3.14.18-1.67-2.21.15-.25-.89-1.68-1.61-1.94-14.7-5.45-27.51-14.68-41.83-20.86l-.08.22c.28-.67.1-1.33-.61-1.25-.35.04-.6.95-.91,1.47-.49.46-.97.92-1.46,1.37-.45-.42-1.3-.84-1.31-1.27-.07-3.61-3.92-3.88-5.03-3.42-2.59,1.07-1.96,3.64.11,5.4-2.85,1.84-4.48-1.47-6.77-.75,2.42,9.81,26.63,29.82,37.42,30.46-.73,1.7-3.82,2.52-2.31,4.61,1.39,1.93,3.21-.11,4.15-.58,4.66-2.32,8.38-.48,11.91,2.08,11.66,8.45,24.8,13.9,37.64,20.17,9.34,4.56,19.02,8.52,28.25,13.34,5.34,2.79,11.18.99,17.19,1.67-1.53-2.99-4.49-2.38-7.76-4.66,11.8.62,21.88,2.2,32.59,5.86-4.9,3.03-10.31-1.36-14.32,3.63,22.11,4.13,43.92,5.73,65.97,3.3.01.74.01,1.48.01,2.22-3.01.99-7.19.12-8.28,5.43,4.39-1.7,8.24-3.17,12.46-2.39-.76,1.44-1.62,2.92,1.23,2.73.5.07.99.14,1.49.21-.07.54-.09,1.01-.11,1.48Z"/>
  <path class="cls-5" d="M311.43,453.7c-.08.15-.27.34-.23.42.09.18.29.31.45.46.08-.29.17-.58.26-.87-.15,0-.32,0-.48-.01ZM482.04,402.34c.19-.18.34-.33.49-.48-.3-.16-.58-.36-.9-.43-.11-.03-.29.27-.44.42.28.17.58.34.85.49ZM564.65,427.86c-.14-.16-.28-.32-.43-.48-.15.16-.3.31-.45.46.22.16.43.33.65.49.08-.15.15-.31.23-.47ZM526.3,421.15c-.12-.14-.24-.37-.38-.39-.14-.02-.3.19-.45.29.12.14.24.37.38.39.13.01.3-.18.45-.29ZM483.3,404.17c-.14.13-.36.25-.38.39-.02.14.18.31.28.46.13-.14.35-.26.36-.4.03-.15-.17-.31-.26-.45ZM454.52,409.81l-.3.35.51.06-.21-.41ZM457.78,409.46c.39-.17,1.05-.26,1.11-.51.21-.81-.34-1.1-1.06-.91-.4.11-.73.45-1.09.68.34.26.68.51,1.04.74ZM529.29,521.99c.34-.26.69-.51,1.03-.76-.32-.25-.73-.77-.94-.7-.46.16-.82.62-1.22.95.37.18.75.34,1.13.51ZM468.96,401.38c2.26-.52.64-2.95,2.58-4.09,2.09-1.22-.42-3.27-1.42-2.65-2.46,1.53-1.04,4.35-1.16,6.74ZM511.89,445.26c-2.3-2.22-4.83-3.92-7.62-.39,2.83.14,5.22.26,7.62.39ZM519.33,429.37c6.28.4,12.59.31,18.79,1.69-6-3.98-12.46-1.86-18.79-1.69ZM352.96,364.88c.01-2.34,4.38-2.1,3.03-4.95-1.31-2.76-3.78-1.14-5.89-1,.09,2.45,1.02,4.35,2.86,5.95ZM557.57,435.24c1.17.43,2.37.78,3.48,1.31,2.71,1.28,3.34-3.88,6.22-1.96.82-1.54-.26-3.38-1.03-3.45-1.51-.13-4.19-.99-4.53,1.36-.43,2.98-2.05,2.53-4.14,2.74ZM385.28,316.17q-6.72,5.03-2.53,13.27c.86-4.52,1.59-8.34,2.53-13.27ZM367.31,392.48c.37,8.27,1.3,9.99,6.44,12.85-1.09-4.52-2.49-8.69-6.44-12.85ZM477.77,407.04c-3.02.57-5.7-1.03-8.52-1.31-2.58-.25-5.28.74-8.24,1.24,6.03,4.34,11.37,1.47,16.76.07ZM423.22,401.63c-5.89-.98-10.23.01-14.4-1.42-1.84-.64-3.2.48-3.22,2.34-.02,2.07,1.82,1.5,3.02,1.45,4.42-.2,8.84-.47,14.6-2.37ZM381.15,367.65c.43,3.48-1.81,7.3,2.23,9.81.89.55,2.54.47,2.68-1.03.36-3.77-.07-7.29-4.91-8.78ZM373.58,328.23c-2.25.68-4.43,1.67-4.54,4.24-.11,2.54,2.39,3.34,4.19,3.56,1.96.22,4.28-.93,4.38-3.21.09-2.33-1.5-4.06-4.03-4.59ZM407.66,394.3c3.93,1.38,6.51,5.71,11.08,5.08,1.33-.18,3.45-.3,3.25-2.61-.18-1.96-1.84-1.56-3.11-1.66-3.74-.29-7.48-.54-11.22-.81ZM264.82,533.36c.2.35.41.71.61,1.07,3.44-.85,6.9-1.66,10.32-2.57,1.51-.4,1.99-1.55,2.09-3.1.15-2.25-1.78-3.19-2.94-4.25-1.15-1.05-2.08.93-2.96,1.79-2.39,2.33-4.75,4.71-7.12,7.06ZM585.22,571.62c.05-.93.1-1.85.16-2.78-9.31-4.58-19.14.04-28.69-.39-.03.59-.07,1.18-.1,1.77,9.55.47,19.09.94,28.63,1.4ZM413.04,373.41c-4.01-1.84-8.02-1.39-11.89-.49-1.59.37-3.33,1.64-1.36,4.01,3.78,4.56,10.5,5.95,16.65,3.02-2.89-1.68-5.39-3.79-9.05-3.56,1.38-2.59,4.25-.48,5.65-2.98ZM366.18,376.33c-.48-5.62-.94-10.55-1.3-15.49-.14-1.99-.45-3.65-2.99-3.47-1.83.12-3.53.28-4.27,2.5-2.36,7.12.84,13.87,8.56,16.46ZM379.04,371.08c1.26-4.36-.63-7.46-3.48-8.56-1.93-.74-3.11-.73-3.1-3.05.01-1.77-.72-3.07-2.9-2.59-1.81.4-2.66,1.42-2.58,3.34.14,3.41.02,6.83.26,10.23.45,6.23,6.76,3.01,9.91,5.55,1.96,1.57,1.07-3.69,1.89-4.92ZM440.07,461.73c-2.9-1.55-5.9-1.93-8.52.31-3.82,3.26-5.72,16.24-3.31,21.37,2.67-2.72,6.84-3.36,9.06-6.68,11.24.74,18.22,7.49,23.28,17.37,5.95-8.53,13.62-15.06,16.83-24.78,1.12-3.41,1.61-6.96,3.72-10.18,7.34-11.2.3-26.1-13.12-27.71-5.23-.63-11.14-2-15.02,3.55-5.72,8.23-10.91,16.73-12.92,26.75ZM353.37,517.7c3.67-1.02,7.67-.58,11.14-2.58,1.68-.97,5.84,1.25,4.98-2.34-.58-2.41.05-6.9-4.14-7.43-4.99-.64-7.05-5.23-10.85-7.38-5.76-3.25-12.34-5.34-15.86-11.71-.42-.77-1.98-.9-3.02-1.33-5.36-5.05-10.73-10.09-16.1-15.14,1.83-.94,3.44-.29,5.07.64,7.78,4.39,14.53,2.11,20.8-3.25,10.79-11.38,17.47-25.25,24.24-39.15,3.19-6.54,2.67-11.11-3.17-16.12-4.4-3.77-4.91-2.47-7.28,1.66-8.79,15.31-13.27,32.93-25,46.63-6.27,3.66-12.49,4.16-18.73-.11-1.34-.92-2.94-1.68-3.24,1.05-5.44-5.87-9.39-12.67-12.07-20.02-6.41,2.76-8.64,8.12-11.54,13.71-4.95,9.56-.81,20.58-6.29,29.84-2.64,4.46.78,9.91-.73,14.36-3.03,8.97-2.8,17.91-1.86,27.03-.97,4.34,1.12,5.14,4.88,4.44,9.07-1.67,18.16-3.2,27.59-4.85-2.81-3.53-7.01-1.21-10.16-3.19,4.66-.39,8.96-.74,13.25-1.1,2.7,2.82,5.97,2.62,9.37,1.8,9.77-.75,19.2-3.31,28.72-5.46ZM465.69,497.03c-3.49,1.9-5.39,5.39-8.01,8.14-2.37,2.48-.01,4.56,1.19,6.67,1.73,3.03,2.77.23,4.15-.4,1.63-.74,3.35-1.4,5.1-1.77,11.32-2.42,21.48-7.99,32.28-11.83,4.21.42,4.62-1.41,3.01-4.78-4.34-9.05-12.15-14.53-20.14-19.83-2.49-1.66-3.56.68-4.94,2.02-1.56,1.16-3.14,2.31-1.88,4.62-.46.8-.92,1.59-1.39,2.39-4.16,4.14-6.57,9.39-9.18,14.52l-.19.25ZM345.28,528.9c-11.67-1.22-23.01-.23-34.38,4.67,2.51,1.42,4.44,1.81,6.55,1.74,8.04-.26,16.08-.35,24.11-.71,2.15-.1,6.44-.08.98-3.24-.93-.54,1.79-.65,2.64-1.3,4.11.31,6.77-2.21,9.14-4.98.68-.79-.35-1.46-1.3-1.75-5.05-1.54-5.48,3.26-7.74,5.57ZM427.51,575.48c5.45-5.71,5.47-7.7.11-13.82-.56-.44-1.13-.87-1.69-1.31,4.89-6.9,6.37-14.77,7.17-23.02.3-3.07.26-6.29,2.95-9.32,15.7-17.67,17.58-18.44-1.14-33.83-.18-.15-.35-.3-.52-.45-4.18-3.61-7.12-3.12-11.36,1.07-8.61,8.53-14.38,19.84-24.65,26.49-9.41,6.1-16.77,13.92-23.74,22.45-2.82,3.45-4.46,6.71-3.14,11.08l-1.38,4.39c-.17.89-.33,1.77-.51,2.65-.31,1.6-2.12,3.9.44,4.52,2.62.64,1.17-2.11,1.6-3.32.79-2.2,1.93-.79,3.05-.39,2.2.79,4.37.99,6.21-.91,1.16.03,2.32.06,3.48.09-1.2,3.1-5.86,5.36-2.35,9.61,1.57,2.61,4.45,1.62,6.67,2.43.61.09,1.23.18,1.84.27,1.46,6.23,7.85,2.69,11.02,5.55,2.12,1.26,2.8,4.72,6.51,3.62,4.5-1.33-3.52-3.2.34-4.29,5.41-1.44,6.81-6.94,10.34-10.28h-.06c3.71,1.32,6.68,3.59,8.96,6.79-.31.4-.62.8-.94,1.2.31.02.77.18.9.04.44-.4.69-.95-.11-1.31ZM394.01,397.44c2.32.08,5.2,3.55,6.74-.93,1.1-3.19.09-5.77-2.97-7.51-1.4-.79-2.7-1.69-4.4-1.62-2.38-1.69-4.83-2.58-7.18-.11-.51.53-.77,2.23-.48,2.43,2.12,1.47,4.32.71,6.49-.13.28-.1.77.34,1.16.54-.61,5.15-6.09.66-8.11,4.79,2.28.73,4.51,1.44,6.73,2.16-2.57,3.89-.85,5.78,2.93,7.45,2.12.94,3.58,3.82,6.37,1.88.73-.52,1.43-2.25,1.1-2.92-1.13-2.31-3.54-2.78-5.82-2.46-3.45.46-3.22-1.3-2.56-3.57ZM477.51,396.53c.99,1.14,1.99,2.27,3.99,4.55-.87-3.28-1.3-4.78-2.91-5.52-7.01-7.34-16.56-8.89-26.82-4.04,9.25-1.58,18.24-1.93,25.74,5.01ZM496.25,428.62c-1.45-1.27,2.2-4.47-1.43-4.57-2.48-.07-4.14,1.64-3.34,4.66.53,2.02.76,4.12,1.12,6.18.38-2.49,4.67-1.95,3.64-4.88,0-.46,0-.92,0-1.39ZM327.29,454.69c.36.1.65-.01.84-.32,6.9-3.98,10.68-10.54,13.14-17.6,5.1-14.64,13.2-27.99,17.88-42.75.83-2.64,3.78-1.49,3.79-3.11.02-2.78-.23-5.85-3.35-7.51-2.59,9.02-5.97,17.46-9.52,25.84-3.55,8.39-7.02,16.8-10.62,25.17-2.99,6.94-6.69,13.41-12.82,18.14-.6.37-1.21.74-1.82,1.11-3.36,1.46-7.01.94-11.19,1.36,5.11,2.88,9.43,2.47,13.67-.33ZM396.21,379.12c0,.33.01.66.01.98.21-.02.42-.04.64-.06-.27-.28-.53-.56-.79-.84-1.27-2.93-3.94-3.99-6.61-5.05,1.28,2.98,2.47,6.12,6.75,4.97ZM527.34,415.49c-.95.49-3.12.28-2.47,1.71.55,1.22,2.21.07,3.22-.7.42-.34,1.22-.96,1.19-1.01-.6-.89-1.29-.64-1.94,0ZM516.91,446.44c.08.18.12.39.24.54.07.08.26.06.4.09-.24-.18-.48-.36-.71-.55-.46-.36-.93-.73-1.39-1.1-.15.24-.3.48-.45.72.64.1,1.28.2,1.91.3ZM474.24,399.88c-.04-.39-.07-.78-.1-1.17-.25.14-.49.28-.74.41.33.22.65.43.98.65.21.77.42,1.54.63,2.31.23-.27.62-.52.66-.81.12-1.01-.33-1.57-1.43-1.39ZM225.11,560.05c-6.25,5.26-4.17-3.11-6.63-4.06,9.82-4.7,21.12-3.29,31.04-7.74-11.2.5-22.24,1.92-33.17,4.66-4.02,1.01-7.81,4.89-12.48,1.86-1.14-3.35-2.21-6.72-6.79-3.51-1.43,1.01-2.46.39-2.99-1.18,3.85-1.48,6.05-4.14,5.57-9.1,1.5,1.07,2.44,1.64,3.27,2.34,5.15,4.41,14.65,2.68,18.66-2.79,2.57-3.52-.37-6.4.02-9.65.67-5.57-2.89-7.2-7.82-6.17-4.66.98-9.25,2.24-13.88,3.38-.17-1.21-1.44-2.5.25-3.58,2.36-.65,5.2,1.84,7.22-1.1,1.68-.4,2.28-1.57,2.3-3.17,8.11.1,14.17-4.73,20.67-8.55,2.26-1.32.5-3.77,1.72-5.04,2.66-2.76,4.98-6.66,9.83-4.01,4.42-26.54,11-52.39,8.79-79.22,1.95,1.32.96,3.3.98,4.95.12,10.17.18,20.33.09,30.5-.03,3.08.38,5.82,2.76,7.97-1.5.17-3.83-.19-4.33.6-.99,1.59.52,3.32,1.67,4.59,1.8,1.97,3.78,3.83,6.83,3.42.45.33.89.68,1.37.95.05.02.36-.44.56-.68-.58-.16-1.16-.32-1.74-.48,1.63-1.92.92-3.5-1.17-3.96-3.09-.68-1.14-2.8-1.58-4.2-.13-2.2-.26-4.4-.39-6.59.3-2.92,7.61-6.63-.96-8.55.05-2.67.11-5.34.16-8.02,6.86,1.71,3.15-4.05,3.73-6.02,1.61-5.39,7.44-11.11,11.26-9.81.7.23,5.39,12.79,4.81,13.45-3.42,3.95-1.14,9.36-3.57,13.6-.69,1.2-.72,3.58,2.06,2.7,6.64-2.11,9.3-8.46,6.9-15.67-.63-1.89-.61-3.99-.89-6.01,1.44.13,2.88.26,4.31.39,3.09,2.33,5.94,3.28,7.82-1.36.61-.77,3.4-1.39.93-2.51-6.1-2.78-11.62-6.91-18.34-8.31l.06.08c.26-1.26-.64-1.33-1.48-1.45l.09.09c-3.96-1.99-7.66-4.55-12.05-5.61-2.03-2.02-4.04-4.04-6.52-5.1-2.1,2.46,1.19,6.65-3.37,7.7-.25-10.06,3-19.27,6.38-28.58,2.55-7.01,3.44-14.56,5.58-21.77,3.21-10.8,7.34-20.9,15.41-29.02.47-.38.93-.75,1.4-1.13,5.68-2.49,10.09-7.35,16.63-8.38-4.11-1.31-8.29,1.61-11.83-1.66,3.12.71,5.85-1.2,8.85-1.3.99.12,1.31-.39,1.19-1.3,1.9-.04,3.8-.07,5.7-.11,1.08,1.11,2.85.7,3.91,2.31,6.54,10,7.01,9.99,14.41,1.24.38.31.74.61,1.12.92.43,4.34,2.73,5.24,6.3,3.21,2.26-1.29,4.83-2.23,6.19-4.73,2.05.19,3.82-.33,5.15-1.99,1.32-.34,2.64-.69,3.95-1.03,5.91-1.56,4.84,2.02,4.01,5.44-.65.31-2.13.15-1.46,1.32.48.84,1.55.17,2.12-.59,2.31-.91,4.67-1.77,4.85-4.82,3.1-10.2,6.31-20.38,5.84-31.25,2.96,1.71,2.35-5.09,4.61-2.44,5.27,6.19,11.47,9.32,19.39,11.66,6.15,1.82,6.3-1.1,7.08-4.23,1.42-5.7,2.14-11.58,3.15-17.39,1.54-4.55,2.19-9.26,2.82-14,.38-2.89-.43-3.81-3.43-4.28-5.81-.9-11.51-2.53-17.24-3.85-.01-.46-.01-.92-.02-1.39,3.82.21,7.85.58,5.04-5.37-.33-.69-.55-1.25.22-1.46,5.69-1.55,9.69-4.64,11.93-10.44.92-2.36,2.69-1.1,4.09,4.68,1.11.1,1.48-.69,1.97-1.47,1-1.6,2.29-3.21,4.36-1.94,1.65,1.02.98,2.79.53,4.33-1.28,4.34-2.4,8.72-3.82,13.01-1.45,4.36.86,2.92,2.92,2.07,4.1,1.21,2,5.44,3.78,7.82.58.77-4.22,2-.36,2.29,1.76.14,2.48,4.76,5.08,1.04,1.54-2.19,3.89-4.26,8.49-4.53-5.06,3.18-1.01,5.6-.98,8.38,4.33-2.26,8.23-5.79,14.4-3.9-2.54,2.12-4.68,3.91-6.81,5.7,7.02-4.42,18.01-1.53,21.77-11.62.05-.56.09-1.11.14-1.67,2.37,1.05,4.19-1.45,6.58-1.1.06,2.73-3.45,2.91-3.58,5.32-2.65,1.13-3.83,3.26-4.59,6.43,2.96-1.05,5.21-2.22,7.81-2.6,2.02-.29,4.47-1.46,3.11-4.6,1.47.27,2.94.53,4.41.79l-.12-.17c-1.28,6.94-8.43,12.58-14.48,11.43-10.17-1.93-23.02,5.76-27.08,16.21-1.76,2.95-1.39,6.41-2.28,9.57-1.44,3.08-3.4,5.96-3.53,9.53-2.6,6.33-1.29,12.72-.23,19.09.95,6.52,1.34,12.99,10.9,12.8,4.49-.09,8.42,3.51,11.34,6.97,2.57,3.04-.06,5.68-1.79,8.33-.57.88.18,2.61.32,3.95.35,5.61.7,11.22,1.06,17.09,3.14-.8,4.78-2.71,6.69-4.2,6.89-3.21,14.34-4.08,21.75-4.71,7.77-.66,13.91,3.12,19.49,10.82-.09-12.25-3.01-21.58-7.21-30.59-1.14-2.45-2.99-3.95,1.42-6.34,4.81-2.6,4.91-8.76,3.84-14.2-2.33-11.9-7.24-22.88-12-33.91.43-.48.85-.96,1.28-1.44,5.53,8.42,9.73,17.55,13.7,26.73,2.45,5.66,3.5,11.8,1.85,18.1-1.42,5.44-.4,10.95.2,16.38.8,7.3,1.26,14.62.81,21.92-.7,11.36,1.55,22.21,4.33,33.1,1.06,4.15,2.28,4.74,5.61,2.2,11.91-9.08,26.02-12.83,40.28-15.91,8.5-1.83,15.73.91,21.04,8.05-.43.13-.82.34-1.17.61-2.38,1.26-4.77,1.99-7.28.33-5.66-2.49-11.21-2.69-17.18.49,3.82,1.93,7.93-1.57,10.82,2.06-4.29.1-8.79-.84-12.38,2.6-.2.29-1.55-.11-.55.9.16-.32.31-.65.46-.98,4.32,1.18,8.24-1.23,12.42-1.38,3.11,1.5,3.56-3.79,6.56-2.58,3.21,3.07,10.93,3.01,6.66,10.99,5.79-2.01,6.49-4.66,2.67-8.43-.59-.58-.78-1.57-1.15-2.37.33-.48.66-.95.98-1.43,7.35,8.2,15.74,15.89,14.39,28.49-4.66,2.02-1.43-3.61-4.3-3.92,1.7,4.47-1.36,9.36,2.04,13.54-1.15,3.11-2.3,6.22-3.45,9.33-1.92,2.27-3.84,4.53-5.76,6.8-1.11.96-2.23,1.93-3.35,2.9-13.01,12.32-26.28,24.32-42.06,33.11-2.18,1.07-4.31,2.27-6.56,3.18-2.22.9-1.81,2.09-.73,3.54-.22.22-.44.43-.66.65-4.73-2.74-9.07-.39-13.28,1.31-3.82,1.55-3.37,3.57.23,5.14,2.03,7.77,8.11,5.52,13.33,5.41,5.35,1.22,9.61-1.34,13.84-4h-.01c2.71-.73,5.65.73,8.27-.86,1.09-.39,2.72.08,2.83-1.82l-.04.16c2.46-.26,7.79-5.66,5.3,3.01-.42,1.43,1.04,1.44,2.15,1.74,4.96,1.35,9.27.5,12.84-3.34l.94-1.44c.74,1.33,1.86,1.23,3.07.84.19.19.38.39.55.59,1.81,2.78,4.42-1.11,6.35.55-.77,2.21-4.02,1.66-4.22,4.28,4.97.76,9.93,1.89,14.69-.79.89.2,1.66.07,2.17-.79,3.13-1.36,7.15-.33,9.59-3.54,1.74.08,3.48.17,5.22.25.08,1.73.16,3.45.23,5.18-4.76.27-9.37,2.18-11.45,6.01-1.09,2,3.89,3.24,6.07,4.91.24.19.26.69.32.89-6.54,4.1-14.73,4.15-20.95,8.91-2.72-.73-3.47.33-2.61,2.87-3.9.24-8.36-1.17-10.82,3.92,4.58.27,9.04.54,13.18.79,1.1-3.24-5.28-.91-2.51-4.84,1.3-.54,2.39-1.28,2.75-2.75.77.26,2.58.12,2.22.57-3.21,3.95.72,5.07,2.54,7.04-.37.36-.74.73-1.11,1.09-5.46,2.27-12.1.34-17.76,4.9,7.41-.15,14.02-.18,20.54,1.12,3.88.77,6.86,4.78,11.4,3.16,1.14.01,2.3-.15,3.41.04,1.73.29,3.85-1.01,4.74,2.26,1.13,4.14-2.76,2.34-3.73,3.77.43,1.84,2.07,2.41,3.16,3.51,1.47,1.48,1.13,3.48.54,5.12-.62,1.74-2.38.77-3.6.66-3.85-.36-7.63-.14-11.34.95-8.73-2.43-17.52-1.01-26.29-.32-2.16-.05-4.32-.1-6.47-.15-6.08-1.23-12.07-.29-18.06.7-1.92-.07-3.89-.44-5.48,1.09-2.49.08-4.99.33-7.47.19-2.39-.14-4.03.82-4.56,2.97-.83,3.36,3.08,1.44,3.99,3.59-6.12,2.64-4.68,6.89-2.2,11.51,1.03,1.92,2.8,4.31,1.35,6.28-1.51,2.04-3.49.01-5.39-.6-2.99-.96-3.3.79-.94,6.84-9,2.41-11.19,1.11-12.14-8.21-.57-5.5-1.42-10.6-6.2-14.13.91,0,1.84-.15,2.71.03,4.16.84,5.58-1.94,5.52-5.01-.08-3.72-3.45-1.8-5.29-1.92-4-.26-8.11-.6-11.89,1.42-2.26.12-4.52.25-6.78.38-1,.05-2.01.1-3.01.15-2.2-.05-4.41-.11-6.61-.17-5.33-1.46-10.11,1.96-15.59,1.63-4.27-.26-5.04,3.65.05,6.67-5.21,1.48-8.4,1.57-9.35-3.98-.36-2.11-1.97-4.17-4.86-3.76l-6.35,8.24c-.49.91-1.23,1.26-2.23,1-2.7-3.27-4.54-.02-6.41,1.07-1.9,1.1-3.34,3.01-5.9,2.35.11-1.32.22-2.65.34-4.09q-8.63,2.16-10.31,5.49l.04-.05c-2.42,2.55-1.58-3.88-4.58-1.47-5.58,4.48-10.49,9.46-14.61,15.28-1.53-.19-3.48,1.11-4.37-1.28,1.93-.47,3.42-1.82,3.42-3.58,0-.59-2.05-3.07-4.28-1.72-.47-.39-.93-.79-1.4-1.18,1.36-3.48,5.32-5.36,5.82-9.39,1.81-.33,3.41-.92,3.8-3.36h-4.42c-.03-.66-.06-1.32-.08-1.98-6.52,2.35-14.63-4.41-20.26,3.6-.59.84-3.16,1.46-3.71.96-4.82-4.36-7.94,1.59-11.95,1.79-1.16.06-1.55,3.47-3.38,1.23-1.51-1.85.98-2.69,1.84-3.6,1.89-1.99,4.19-3.57,7.59-6.35-3.38.89-5.09,1.33-6.8,1.79-.33-.37-.65-.74-.98-1.11.34-.59,2.79-1.1.21-1.82-2.23-.62-4.73,1.36-7.35-.71,3.89-2.83,8.8-2.62,12.24-6.68,4.85-5.72,2.51-6.35-2.87-6.68-.08-.88-.17-1.74-.25-2.62-.74-1.37-3.13-2.71.03-4.12,2.47-1.11,4.85-.82,7.17.3,1.43.69,3.31,1.94,4.11.19.71-1.54.29-3.89-1.7-5.05-8.03-4.71-16.5-7.56-25.98-6.18-.17-1.05-.92-1.34-1.85-1.64-11.34-3.48-23.21-1.7-34.81-3.01-20.45-2.3-40.59,4.47-60.76,8.09-1.74.4-4.32.27-4.84,3.03Z"/>
  <path class="cls-1" d="M278.46,292.3l.26-.28-.41-.08.15.36ZM276.54,290.41c-.14-.15-.28-.42-.43-.42-.15-.01-.31.26-.46.4.22.15.44.3.65.46.09-.15.16-.3.24-.44ZM293.23,206.44c-.31.18-.61.36-.93.55.17.12.35.38.5.36.4-.05.78-.22,1.16-.35-.24-.18-.48-.37-.73-.56ZM278.09,271.42c-.56-.67-1.01-1.42-1.66-1.92-1.04-.82-1.09.56-.98.75.41.72,1.03,1.32,1.62,1.91.05.04.55-.39,1.02-.74ZM286.53,246.8q1.85-8.22-1.55-11.39c.06,3.86-1.16,7.56,1.55,11.39ZM278.24,273.24c1.7,4.35,4.92,7.19,8.95,9.22-2.39-3.65-4.93-7.17-8.95-9.22ZM282.68,243.43c1.79-7.27-.64-12.17-1.17-17.33-2.83,4.29-2.28,8.91-1.81,13.83,1.62-1.23.26-3.41,2.15-4.14.22,2,.43,3.97.83,7.64ZM251.99,254.3c2.82,3.12.44,7.25,2.66,11.96-.87-7.64,2.34-13.4,2.67-20.64-3.06,2.73-5.53,4.61-5.88,8.11-.87,1.45-2.6,2.71-1.1,4.77,1.71-1.07,1.54-2.68,1.65-4.2ZM273.95,266.56c.16.38.33.76.49,1.14.15-.27.31-.53.46-.79-.35-.07-.71-.15-1.06-.22.44-1.96-.07-3.7-1.25-5.51-1.85,3.34-1.71,6.66-1.5,10.76,2.15-1.84.4-4.66,2.86-5.38ZM305.22,231.2c.82,1.31,2.65,2.05,3.24,1.01,1.07-1.86-1.52-1.29-2.23-2.12-1.52-1.21-3.03-2.42-4.54-3.62l-4.98-6.24c-.75-.65-1.38-2.41-2.51-1.08-.84,1,.45,1.85,1.45,2.35.78,2.82,2.9,4.64,4.92,6.52,1.21,1.57,2.65,2.78,4.65,3.18ZM273.26,287.85c.52.42.9,1.52,1.7.41.08-.11-.59-.78-.91-1.19-.88-1.41-1.76-2.81-2.64-4.22-.78-1.96-1.55-3.92-2.47-6.27-5.21,7.31-2.6,14.73-2.72,21.88.75-3.34.9-6.82,1.94-10.01.47-1.46-2.04-4.77,2.11-4.53,1,1.31,2,2.62,2.99,3.93ZM264.57,255.92c.43-.49.86-.98,1.3-1.46.53-.86,1.07-1.72,1.59-2.58.45-.93.89-1.85,1.33-2.79,2.07.94.11,3.17,1.66,4.97.45-2.21.81-3.93,1.38-6.74,1.44,4.06,4.44,4.85,6.13,6.97.22.72.43,1.45.65,2.17.16-.12.44-.22.47-.38.25-.93-.15-1.55-1.03-1.89-.95-6.17,2.08-13.43-5.16-17.9-1.55-.96.47-2.2,1-2.4,3.93-1.49,3.03-5.02,3.7-7.92-1.78,1.52-2.9,3.69-4.68,4.88-6.14,4.1-10.45,8.47-4.91,16.05.2.27-.08.88-.13,1.34-.51.88-1.01,1.77-1.52,2.65-.41.92-.82,1.83-1.22,2.76-.42.52-.84,1.04-1.25,1.57-.45.44-1.08.88-.22,1.45.1.09.61-.48.91-.75ZM269.99,329.71c-7.27-7.18-13.04-15.78-21-22.27-1.37-1.11.02-1.22-.03-1.78-1.18-12.78-1.38-25.61-2.15-38.38-.71-11.79,3.64-22.48,3.96-33.61.19-6.64,4.97-9.97,6.19-15.58,1.16-5.32,8.03-5.49,12.72-6.04,6.4-.75,12.26-1.63,17.12-6.44,3.45-3.41,7.83-3.24,12.14-1.35-.03.09-.06.28-.08.28-.22-.03-.47-.17-.65-.1-.94.32-2.38-.09-2.56,2.58,8.49-2.01,15.38,2.12,22.48,5.49-1.99,1.16-4.81,3.22-.59,3.98,3.66.66,6.25,3.51,9.92,3.48l-.06-.06c.2.48.39.95.58,1.43.29-.48.57-.96.86-1.44.19-.18.39-.35.59-.52,7.09,5.71,14.19,11.42,21.29,17.13-2.02,4.57.66,8.39,1.99,12.41.39,1.15,2.46,1.75,1.24,3.4-1.4,1.89-2.77-.88-5.83-.03,3.79,2.32,9.77,2.4,8.37,6.43-1.19,3.42.69,6.19-.28,9.14-1.12.56-2.54,2.7-2.85-.65-.1-1.14.51-2.71-1.31-3.2-.16-.62-.31-1.23-.47-1.85-.25.62-.51,1.24-.76,1.86-3.48-1.49-5.28-4.39-6.55-7.72-.41.1-.81.18-1.21.26.04.16.08.31.12.47.37-.3.74-.59,1.11-.89-1.94,1.71,1.01,4.76-1.71,6.25-2.19.3-3.85-2.06-6.14-1.23-6.07-2.91-7.5-2.73-10.48,1.36l.09-.08c-5.01,1.99-5.1,2.62-1.34,9.1.06,1.23.11,2.46.17,3.7,1.32,4.23,2.8,8.47,5.8,11.76,2.26,2.49.64,3.86-.71,5.57-2.93.65-5.3,2.91-8.95,1.24-7.52-3.42-17.1-.61-20.92,6.58-.82,1.54-6.02,5.92-.22,8.24,2.68,1.07,4.68-2.22,7.11-3.26,3.79,2.22-2.3,3.81-.12,6.31,2.41-2.54,6.06-3.94,5.74-8.33.41-.03.67-.24.79-.63,8.55-1.77,3.7,4.77,4.74,7.66-.7,2.68.64,2.95,2.73,2.3,2.08.01,4.17.02,6.24.04,1.69,1.09,2.95-.29,4.39-.73,1.16-.35,2.27-2.21,3.5-.69,1.32,1.65-.32,2.95-1.31,4.01-1.06,1.12-2.67,1.74-3.71,2.89-3.2,3.51-5.99,7.33-7.85,11.76-.91.47-1.81.95-2.72,1.43-.38-.31-.74-.61-1.12-.92.97-1.49,2.66-3.23.74-4.73-1.92-1.51-5.19-1.71-2.8-5.51.47-.76-1.46-1.68-2.55-1.36-4.6,1.31-9.14,2.8-13.71,4.22-6.95-4-15.4-4.76-21.6-10.6-3.57-3.36-.18,4.31-3.73,3.01-.86-.31-.19,1.82.34,2.5,1.85,2.36,4.21,4.07,7.16,4.85,3.22.85,2.69,2.24.8,4.16-1.8,1.82,1.27,1.63,1.31,2.74-4.53.39-7.5-3.91-11.88-3.97.08-.3.16-.6.23-.9-.27.01-.54.01-.81.02.24.27.48.53.73.8.48.89.96,1.77,1.45,2.66-.79,1.88-2.93.05-3.98,1.35Z"/>
  <path class="cls-12" d="M359.63,79.11c-.24.7-.74,1.4-.58,1.9.13.44.98.89,1.53.91.44.02.9-.61,1.34-.96-.46-.37-.93-.75-2.29-1.85ZM475.47,101.37c2.2,1.08,4.38,2.23,6.62,3.23,7.24,3.22,15.48,5.16,21.47,9.93,5.36,4.26,9.61,2.43,14.61,1.84-13.12-7.98-27.24-13.04-42.7-15ZM444.05,85.71c-20.61-3.92-41.14-8.82-62.31-5.96,5.88,3.75,12.45,2.26,18.66,3.51,11.34,2.28,22.74,4.18,34.12,6.24,15.74,4.95,31.53,9.65,48.29,9.25-10.22-5.3-21.02-8.56-32.44-9.23-3.1-.18-4.9-1.4-6.32-3.81ZM597.95,192.38c-.29-.69-.29-2.01-1.51-1.18-1.03.7-.24,1.42.45,1.95.8.55,1.27,2.45,2.36,1.47.94-.83-.36-1.74-1.3-2.24ZM626.86,243.12c.54-4.29-2.44-7.09-4.56-10.12-5.78-8.27-12.28-16.14-19.99-22.48-7.17-5.9-7.13-15.12-12.71-21.53,2.7-1.94,3.25,2.22,5.53,1.25,1.1-.81.45-1.86-.23-2.72-12.09-15.42-26.52-28.33-42.4-39.7-21.29-15.25-44.69-26.46-68.94-36.05-4.97-1.96-10.31-1.83-15.52-2.27-2.49-.2-5.11.35-6.85-3.02-1.27,8.65-3.54,9.35-10.49,5.76-6.76-3.49-13.4-7.86-21.78-6.66-1.41.2-3.06-1.66-4.68-2.39-5.1-2.33-10.54-2.73-16.06-2.76-2.37-.01-5.05.53-7.81-2.64,7.89-.46,15.06-1.51,21.71.51,5.47,1.67,11.55-.82,16.63,3.31,1.87,1.51,4.59-.66,6.9-2.21-1.4-2.54-3.98-2.67-6.24-3.34-20.89-6.17-42.32-9.43-63.87-12.03-3.61-.44-7.24-.42-10.46-2.57-1.54-1.03-3.38-1.29-5.21-.32-3.76,1.98-7.29,1.74-10.81-.82-2.65-1.93-4.52,1.51-7.36,1.4-13.49-.53-26.94.21-39.9,4.76-1.67.59-3.22.81-4.74-1.23-1.83-2.46-4.36-1.24-6.64-.08.44,2.31,3.04.73,3.52,2.54-2.13.79-4.16,1.14-6.14-.76-3.85-3.7-9.97-2.38-11.8-.21-3.52,4.16-7.82,3.86-11.82,4.92-18.77,4.97-37.09,11.23-55.33,17.79-2.26.81-4.37,2.63-7.29,1.64,2.67-3.19,6.71-3.89,9.79-6.12,1.61-.71,3.22-1.43,4.82-2.15,14.38-5.78,29.06-10.89,43.06-17.48,20.55-9.68,42.68-9.8,64.42-11.71,19.95-1.76,39.64-6.61,59.94-4.86,24.59,2.12,49.31,4.07,72.94,11.23,15.7,4.76,30.86,11.57,45.24,19.97,24.22,14.16,48.67,27.92,71.37,44.52,5.35,3.91,10.36,8.2,14.67,13.26l.15.02c-3.05,2.78-4.31-.83-5.88-1.95-15.04-10.78-30.04-21.6-46.74-29.74-4.6-2.25-9.09-5.05-14.88-5.21,1.52,3.39,4.52,4.28,6.91,5.82,32.01,20.6,62.41,43.16,86.94,72.69,18.45,22.2,31.38,46.94,34.04,77.29-5.8-8.65-11.8-16.12-14.54-25.45-1.11-3.79-3.87-5.91-6.8-8.02-.03,0-.11-.08-.11-.08Z"/>
  <path class="cls-1" d="M344.01,571.14c5.38.33,7.72.96,2.87,6.68-3.44,4.06-8.35,3.85-12.24,6.68,2.62,2.07,5.12.09,7.35.71,2.58.72.14,1.22-.2,1.81-.89.54-1.78,1.08-2.67,1.62-.12.48-.24.96-.37,1.43.49-.12.98-.24,1.47-.36,1.07-.17,2.07-.44,2.54-1.58,1.71-.45,3.42-.9,6.8-1.79-3.4,2.78-5.71,4.36-7.59,6.35-.86.91-3.35,1.75-1.84,3.6,1.82,2.24,2.22-1.17,3.38-1.23,4.02-.2,7.13-6.16,11.95-1.79.55.49,3.12-.12,3.71-.96,5.62-8.02,13.74-1.25,20.25-3.6.03.66.06,1.32.09,1.98l.14-.12c-1.31.07-1.53,1.11-1.73,2.07-.02.07.97.36,1.5.55.24.28.48.57.71.86-.49,4.03-4.45,5.9-5.81,9.39-3.07,2.21-6.07,4.51-8.24,7.68-4.18-.35-8.55,1.22-12.52-1.22,2.2-4.28,7.21-5.18,10.21-8.47.93-1.02,2.99-2.15,1.17-3.64-.95-.78-3.06-1.5-4.3.08-1.74,2.22-4.04,3.56-6.48,4.74-3.33-2.84-6.67-3.96-10.06-.1-.3.34-.68,1.06-.83,1.01-6.08-1.86-7.44,4.76-11.24,6.08-2.6.91-6.68,2.6-9.73.35-1.5-1.1-2.58-1.55-4.23-.97-1.46.52-3.26,1.53-3.94-.79-.58-1.98.81-4.3,2.27-4.41,4.52-.34,6.47-4.46,10.06-5.95,2.04-.84,3.89-1.66,3.59-4.23-.28-2.46-1.59-3.97-4.13-4.79-2.97-.96-8.12-1.77-1.5-5.71,2.19-1.3,1.91-3.11-.96-3.44-1.8-.21-3.65-.05-5.47-.05.77-.42,1.49-.95,2.3-1.22,1.6-.54,3.52-1.44,2.47-3.16-1.34-2.19-3.63-1.24-5.23.15-1.62,1.41-4.14,3.22.29,4.38-1.72,4.47-5.15,4.02-8.82,3.33-.32-3.59,3.56-1.17,4.11-3.71-1.68-2.1-4.42-.74-6.57-1.44,1.47-5.19,5.03-6.65,10.19-6.53,9.05.21,18.17-.15,27.28-.27Z"/>
  <path class="cls-9" d="M674.16,385.11c-2.52.58-1.33,2.3-1.14,3.7,1.18,8.22,3.05,16.36,3.07,24.72-.39.01-.79,0-1.18-.03-10.34-47.38-28.01-91.94-51.94-134.04-5.4-9.5-10.73-19.16-20.36-25.38-1.42-.92-2.3-2.78-3.24-4.32-5.89-9.55-12.95-18.18-20.72-26.84,4.06-.74,5.6,2.47,7.61,4.38,26.16,24.7,44.49,54.78,59.6,87.06,9.76,20.88,18.83,42.01,24.74,64.36.23.86.24,1.8,1.44,1.88.01,0-.11-.11-.11-.11-.95,1.37-1.58,2.82-.35,4.3.78.93,1.76,1.49,2.58-.06l-.05.33.05.05Z"/>
  <path class="cls-13" d="M411.54,337.81c-1.05-6.38-2.36-12.77.23-19.1,4.69-.42,5.93,4.97,10.11,6.12.12-2.19.23-4.15.34-6.1,1.83.01,3.67.01,5.51.02l-.07-.05c.4.43.8.86,1.2,1.29,1.65,7.7,5.41,13.25,14.05,13.92.62.05,1.76.55,1.74.77-.61,9.1,9.99,12.67,10.41,21.21-8.29,1.57-20.02-3.21-23.88-9.74-5.17-8.75-11.4-11.4-19.64-8.34Z"/>
  <path class="cls-9" d="M693.22,203.17c-27.7-47.35-61.32-89.17-108.98-119.89,25.04,1.76,107.99,93.69,108.98,119.89Z"/>
  <path class="cls-7" d="M411.54,337.81c8.24-3.06,14.46-.41,19.64,8.34,3.86,6.53,15.59,11.31,23.88,9.74,4.7,11.24,1.61,15.68-10.42,14.92-1.57-.1-3.15-.27-4.72-.41-2.43-1.64-5.06-.54-7.61-.55-.15-1.34-.89-3.08-.32-3.95,1.73-2.65,4.35-5.29,1.79-8.33-2.93-3.46-6.86-7.06-11.34-6.97-9.56.19-9.95-6.28-10.9-12.79Z"/>
  <path class="cls-1" d="M4.62,413.69c2.66,43.4,12.32,85.43,25.81,126.69-2.93.65-1.68-2.39-3.52-2.01l.02.1c-.01-1.01-.02-2.02-.02-3.03-.73-1.59-.77-3.6-2.74-4.41.2-1.47.4-2.94-1.4-3.63l.08.03c-3.94-14.64-8.21-29.2-11.74-43.93-5.48-22.86-8.54-46.08-8.42-69.65.64-.05,1.28-.11,1.93-.16ZM455.06,147.29c43.65,13.96,83.73,34.18,117.12,66.25-1.35,2.18-2.71.65-3.86.9-.78-4.95-5.88-5.05-8.62-7.72-23.28-22.75-52.2-35.79-81.71-47.85-7.6-3.11-15.2-6.19-22.8-9.29-.04-.77-.09-1.53-.13-2.29Z"/>
  <path class="cls-8" d="M246.7,786.85c16.83,4.81,33.64,9.69,50.5,14.38,4.82,1.34,9.76,2.7,14.7,3,3.89.23,3.89,3.97,3.87,4.93-.04,2.5-2.89,1.29-4.41,1.16-23.59-2.16-45.18-10.16-64.66-23.47ZM27.66,327.05c-.66,0-1.31-.01-1.96-.01.72-9.13,1.93-18.19,5.73-26.6,1.88-4.17,1.23-6.88-2.92-8.73h0c4.98-1.18,7.96-2.94,2.79-7.89-1.1-1.05-.82-3.23.45-4.36,1.16-1.02,2.59-.33,3.66.68,4.17,3.94,7.15,7.48,6.01,14.56-1.62,10.04-6.95,18.55-9.08,28.21-.47.01-.95.01-1.42.02-3.11-.23-2.28,2.66-3.26,4.12Z"/>
  <path class="cls-9" d="M422.09,726.88c.02-.47.04-.94.05-1.41,1.41.32,2.94,1.19,3.91-1.08-1.96-.56-3.93-2.08-5.4.88-2.84.19-1.99-1.3-1.22-2.73,6.06-1.32,12.11-2.65,18.17-3.96l-.19-.12c4.6,3.08,9.14.13,13.47-.62,11.78-2.03,23.41-4.91,35.59-7.56-17.13,10.91-36.51,12.6-55.12,16.89-3.26.74-6.19-.02-9.26-.29Z"/>
  <path class="cls-1" d="M519.61,579.49c1.59-1.54,3.57-1.16,5.48-1.09.41,3.24-.71,8.68,5.4,3.74,2.16-1.74,3.98-.01,5.39,1.12,3.33,2.67,6.57,2.32,9.99.51,3.16,3.74,8.92,4.52,10.85,9.75.86,2.32.69,2.78-1.83,4.24-7.64,4.45-13.63-.3-19.29-3.23-6.43-3.36-13.79-6.73-15.99-15.04ZM422.97,594.79c.43,1.18-.1,1.88-.82,2.9-4.08,5.79-3.26,8.4,3.81,13.32-9.09-.06-18.19-.11-27.29-.17.2-2.79-.79-5.94,2.43-7.78,1.16-.59,2.06-1.34,1.8-2.83.24-.19.47-.39.71-.59-.15.02-.36-.01-.42.07-.12.16-.15.39-.22.59-.51.47-1.03.95-1.55,1.42-.5-.17-1-.33-1.5-.49.06-1.28.13-2.55.2-3.82l-.04.05c3.35-.31,6.99,1.46,9.97-1.41,2.56.66,4.01-1.24,5.9-2.35,1.87-1.09,3.71-4.34,6.41-1.07-.01.01-.14,0-.14,0-.36.92-.67,1.84.75,2.16ZM114.59,395.71c-3.04.78-1.47,3.26-1.01,4.35,2.36,5.6-.46,11.2.47,16.82-8.66-15.22-16.05-30.77-16.14-50.31,4.35,5.69,5.69,11.04,7.2,16.28,1.27,4.41,3.24,7.94,8.25,8.69l-.09-.11c-.92,1.9.49,1.53,1.5,1.54.73.39,2.03.69,2.09,1.18.26,1.65-1.25,1.37-2.27,1.56Z"/>
  <path class="cls-10" d="M356.24,267.84c.97-2.95-.91-5.71.28-9.14,1.4-4.03-4.58-4.1-8.37-6.43,3.06-.84,4.43,1.92,5.83.03,1.22-1.65-.86-2.25-1.24-3.4-1.34-4.02-4.02-7.84-1.99-12.41,3.81,2.4,8,4.41,10.78,8.03,1.7,2.22,5.98,3.87,2.34,8.21-1.01,1.2,2.02,3.17,3.17,4.8-.45.38-.91.76-1.37,1.13-1.86,4.4-3.13,9.37-9.43,9.18Z"/>
  <path class="cls-2" d="M313.49,8.47c2.72-5.92,8.07-6.33,13.05-6.92,18.15-2.12,36.17.14,54.19,2.11-3.7.38-7.4.75-11.11,1.13.03,2.04,2.68-.06,2.85,3.14-19.78-4.29-39.45-7.04-58.98.54Z"/>
  <path class="cls-9" d="M610.24,232.28c-3.64-3.42-7.21-6.9-10.93-10.22-2.24-2.01-3.59-5.46-8.16-3.72-1.22.46-7.81-1.44-3.48-6.56,1.47-1.75-.38-2.18-.98-3.08-1.72-2.58-4.63-4.35-5.7-9.71,13.56,9.58,23.87,19.83,31.02,33.18-.58.03-1.18.07-1.77.11Z"/>
  <path class="cls-1" d="M606.34,318.94c1.18,5.21,2.15,10.48,6.79,15.28-.68-6.55-3.1-11.2-6.79-15.28ZM606.04,314.45c6.27,5.04,8.25,11.9,8.34,19.59.02,1.52-.33,2.89-1.67,3.42-1.9.74-3.08-.82-3.66-2.19-2.45-5.8-6.34-11.01-7.38-17.36-.31-1.91-1.94-1.56-2.84-2.41-4.54-4.3-7.53-9.59-9.95-15.26.3-.23.58-.49.85-.77,1.68,2.06,3.23,4.23,5.08,6.14,1.85,1.9,1.92,7.15,7.05,3.75.7-.46,4.15,2.18,4.2,5.11-.34.73-.68,1.46-1.02,2.19.29.08.58.15.86.22.04-.81.08-1.62.14-2.43Z"/>
  <path class="cls-3" d="M254.51,466.85c-2.38-2.16-2.79-4.9-2.76-7.97.09-10.17.04-20.33-.09-30.5-.02-1.65.97-3.64-.98-4.95,0-1.1,0-2.21,0-3.31,4.56-1.05,1.27-5.24,3.37-7.7,2.47,1.06,4.49,3.08,6.52,5.09-2.56,2.43-2.43,5.68-2.7,8.8-.99,5.88-1.97,11.75-2.95,17.62-.05,2.67-.11,5.34-.16,8.02-2,3.11-1.53,5.95.96,8.56.13,2.19.26,4.39.39,6.59-.54-.08-1.07-.16-1.61-.25Z"/>
  <path class="cls-1" d="M427.58,271.32c-6.65-4.2-14.35-3.11-22.72-3.87,1.72-2.29,2.61-4.12,4.06-5.19,1.12-.82,3.74-3.14,3.76,1.26.01.9,1.04,2.44,1.8,2.57,1.61.28,1.59-1.9,2.36-2.49,3.88-2.97,4.28-8.93,9.41-10.68.78,1.99,3.59,3.21,1.68,6.23-1.26,1.97-.16,3.82,2.27,4.49.47.25.94.5,1.42.75-1.1,1.71-2.2,3.43-3.3,5.15-.26.6-.5,1.19-.74,1.78ZM481.25,187.55c14.32,4.82,28.31,10.21,38.46,22.25-12.4-8.15-25-15.95-38.46-22.25Z"/>
  <path class="cls-2" d="M351.28,661.72c11.99,3.66,24.79,1.34,36.75,5.62-12.79,3.01-24.94.32-36.75-5.62Z"/>
  <path class="cls-1" d="M300.35,570.45c4.39.45,8.33-.87,12.01-3.15,3.18,5.79,8.32,1.41,12.43,2.41,1.77-.02,3.54-.03,5.31-.04,4.65.72,9.19.24,13.66-1.15.08.88.17,1.74.25,2.62-9.11.12-18.23.48-27.33.27-5.16-.12-8.72,1.34-10.19,6.53-2.57,1.05-3.92,4.17-7.44,4.48,1.19-4.07,4.92-5.86,6.63-9.04-2.76-1.74-4.73,1.15-7.13.74l.15.11c-.07-.79-.55-1.11-1.27-.92-.14.04-.15.61-.22.94l.13-.16c-.46-1.86-3.07.03-3.51-2.01,1.85-1.87,4.71.29,6.52-1.63Z"/>
  <path class="cls-9" d="M30.92,322.91c.47-.01.95-.01,1.42-.01,2.91,2.31,3.93,5.45,3.93,9.02,0,7.06-.03,14.12,2.38,20.9.73,2.07.21,3.99-1.69,4.51-2.61.71-2.87-2.05-2.98-3.53-.38-5.21-.53-10.45-.39-15.67.15-5.31.11-10.48-2.67-15.22ZM496.65,651.37c3.31-1.75,5.75-5.07,10.64-3.56,2.35.73,5.55-1.53,7.95-3.39,1.06-.82,2-3.24,3.71-1.1,1.34,1.67-.19,3.2-1.44,3.95-8.76,5.22-18.26,7.88-28.48,7.81-.1,0-.3-.43-.28-.44.33-.26.68-.48,1.03-.7,2.29-.86,4.58-1.71,6.87-2.57ZM592.36,112.44c1.63-1.57,4.42.03,5.34-2.3.82-2.07,2.43-2.1,3.78-.96,1.69,1.42-.66,2.12-.9,3.16-1.34,5.64,3.68,7.07,6.75,6.85,6.89-.48,3.74,5.12,5.53,7.59.47.65-.55,1.94-1.51,1.7-1.72-.43-4.3-.85-4.84-2.04-2.91-6.44-9.64-8.89-14.15-14Z"/>
  <path class="cls-1" d="M541.54,755.22c-.6-.47-1.2-.95-1.81-1.43,5.99-3.16,12.08-6.13,17.91-9.56,2.35-1.38,5.22-1.55,6.32-5.83,1.14-4.47,7.12.21,10.74-1.73-10.4,7.48-21.73,13.1-33.16,18.55Z"/>
  <path class="cls-2" d="M540.95,51.65c-14.3-6.28-28.6-12.56-42.9-18.84,15.4,3.8,29.81,9.89,43.76,17.08-.28.59-.57,1.17-.86,1.76Z"/>
  <path class="cls-7" d="M427.74,318.75c-1.84-.01-3.68-.02-5.51-.02-.09-1.59-.44-3.22-.21-4.77.9-6.13-1.35-7.57-6.71-4.78.9-3.16.52-6.62,2.28-9.57,2.46,1.12,4.96,2.17,7.38,3.39,1.66.84,3.56,2.22,2.38,4.18-2.45,4.09-.27,7.75.39,11.57Z"/>
  <path class="cls-2" d="M315.7,56.25c13.79-4.1,27.95-4.56,44.1-3.34-15.83,1.82-29.88,3.43-43.93,5.04-.05-.57-.11-1.13-.17-1.7ZM400.23,164.63c-14.26-2.28-28.52-4.56-42.77-6.83,14.7-1.28,28.77,2.12,42.88,5.12-.03.56-.07,1.14-.11,1.71Z"/>
  <path class="cls-1" d="M545.88,583.77c-3.43,1.81-6.66,2.17-9.99-.51-1.41-1.12-3.23-2.86-5.39-1.12-6.11,4.94-4.99-.5-5.4-3.74,5.99-.98,11.98-1.93,18.06-.7-2.29,3.45.9,4.45,2.72,6.07ZM282.85,160.03c11.53-3.62,23.44-1.78,35.31-.84-11.71.86-23.42,1.71-35.13,2.57-.06-.58-.12-1.16-.18-1.73Z"/>
  <path class="cls-13" d="M432.31,369.85c2.55.01,5.19-1.09,7.61.55-2.52,4.14.9,8.21.14,12.34-1.91,1.49-3.55,3.4-6.69,4.2-.36-5.86-.71-11.48-1.06-17.09Z"/>
  <path class="cls-9" d="M333.24,813.11c-4.96.17-8.94-.53-12.69-2.25-1.2-.55-2.73-1.33-2.18-2.89.28-.79,1.71-1.42,2.73-1.66,5.96-1.4,11.27.79,16.45,3.36.79.39,1.36,1.15,1.06,2.2-.32,1.11-1.27,1.18-2.15,1.22-1.35.07-2.71.02-3.22.02Z"/>
  <path class="cls-1" d="M593.85,298.54c-5-7.54-10.06-15.05-14.92-22.68-.6-.94-3.08-2.38-.55-3.72,1.68-.89,2.89.35,3.76,1.92,4.37,7.87,8.81,15.71,13.21,23.55-.5.31-1,.62-1.5.93ZM548.6,722.7c-.03-1.24-.97-1.28-1.84-1.36-.2-.02-.42.15-.63.24.06.02.15.07.17.05,1.11-1.06,2.11-2.27,3.34-3.16,7.29-5.26,16.29-7.91,22.53-14.8.69-.77,1.65-.7,2.36.01.78.78.6,1.71-.2,2.33-1.7,1.3-2.27,3.4-4.77,4.36-5.45,2.1-10.52,5.2-15.71,7.94-1.29.68-3.18,1.3-1.1,3.2l-.13-.23c-2.3-2.34-3.41-1.03-4.17,1.36l.15.06ZM400.23,164.63c.04-.57.07-1.15.11-1.71,6.95,1.3,13.86,2.98,20.87,3.76,4.18.46,5.01,4.25,7.88,6.13-9.77-2.48-19.13-6.01-28.86-8.18Z"/>
  <path class="cls-10" d="M468.64,302.38c-.43.48-.85.96-1.28,1.44-2.06-2.96-4.02-6.01-6.22-8.87-3.75-4.89-3.81-4.84,1.78-8.67,1.55,2.06-2.55,3.42-.3,5.84,4.32-.24,6.31-5.39,10.62-6.88.78,2.68-.42,3.81-1.81,4.37-7.26,2.93-6.91,7.41-2.79,12.77Z"/>
  <path class="cls-1" d="M595.03,124.71c-.72,4.76,12.21.12,6.66,9.56-2.03,3.45-3.32,1.31-4.96.66-5.76-2.3-5.61-6.07-1.7-10.22Z"/>
  <path class="cls-2" d="M158.27,389.2c1.35,9.39-2.06,18.22-3.13,27.33-.85-9.32.12-18.44,3.13-27.33Z"/>
  <path class="cls-1" d="M521.86,698.3c-8.36,4.67-17.07,8.46-26.64,9.96,8.55-4.18,16.51-9.91,26.64-9.96ZM24.16,531.03c1.97.81,2.02,2.82,2.74,4.41-1.1-.4-1.7.11-1.55,1.15.11.82-.36,2.45,1.57,1.88l-.02-.1c-1.71,5.74,3.04,10.25,3.2,17.1-3.31-4.05-3.79-7.95-5.03-11.46-1.44-4.06-2.31-8.42-4.36-12.14-1.83-3.31.47-3.44,2.12-4.43,0-.01-.08-.04-.08-.04-1.54,1.99.14,2.73,1.41,3.63ZM354.12,602.61c2.45-1.18,4.74-2.52,6.48-4.74,1.24-1.58,3.35-.86,4.31-.08,1.82,1.49-.24,2.62-1.17,3.64-3,3.3-8,4.2-10.21,8.47-1.5.13-2.65,1.73-5.02.77,2.64-2.33,2.33-6.25,5.61-8.06Z"/>
  <path class="cls-9" d="M435.91,171.87c-3.39-4.5-6.73-9-1.79-14.8.9,5.17,3.88,8.83,8.68,10.84-1.32,2.28-3.95.42-4.76,2.54-.71.47-1.42.94-2.13,1.42Z"/>
  <path class="cls-2" d="M478.39,185.9c-8.35-.08-14.69-4.02-21.43-7.51,2.98-.38,5.69-1.13,8.2-3.14-1.05,10.97,10.37,3.82,13.23,10.65ZM528.66,54.76c-8.39-2.32-16.98-4.26-23.92-10.03,8.75,1.46,16.2,6.04,23.92,10.03Z"/>
  <path class="cls-1" d="M93.23,291.56c-.85-.32-1.7-.62-2.56-.94.7-5.58-3.18-10.63-1.7-17.15,6.49,5.26,4.93,11.79,4.26,18.09ZM330.09,658.38c.02-.53.04-1.06.06-1.58,4.38,1.05,8.77,2.05,13.12,3.17,1.01.26,1.92.92,3.34,1.64q-7.12,1.11-16.52-3.23Z"/>
  <path class="cls-9" d="M128.79,654.93c.58,3.67-1.01,7.16,2.56,9.18,1.14.65,1.12,2.01-.05,2.73-.66.41-1.8.55-2.5.27-4.62-1.85-4.95-8.46,0-12.18Z"/>
  <path class="cls-1" d="M354.98,687.76c-.39,1.48-1.35,2.03-2.83,1.76-1.09-1.44-2.15-3.04-4.19-1.22l-.02.23c.96-2.44-1.56-2.03-2.46-2.83-1.3-1.15-3.4-1.75-3.03-3.91.29-1.7,2.6-1.95,3.19-1.29,1.16,1.29,5.85-2,4.03,3.46-.78,2.36,3.92,1.84,5.31,3.8ZM575.71,689.72c-4.58,4.59-8.94,9.43-15.29,11.82,3.54-5.87,9.02-9.34,15.29-11.82Z"/>
  <path class="cls-2" d="M600.51,721.94c-4.24,5.08-9.34,8.97-15.6,11.26,4.19-5.14,9.13-9.27,15.6-11.26Z"/>
  <path class="cls-1" d="M314.17,669.15c-2.89-.25-5.38-1.33-7.33-3.52.14-1.21-.21-2.06-1.6-2.11l-.14.28c6.21-4.99,9.35,2.66,15.22,2.39-2.06,3.55-5.39-.17-6.15,2.96Z"/>
  <path class="cls-2" d="M186.55,160.33c3.08-2.39,5.25-6.73,9.55-2.72.86.8,2.01,2,1.15,2.75-3.42,2.97-7.08,2.12-10.7-.03Z"/>
  <path class="cls-1" d="M415.24,719.49c-.01-.74-.01-1.48-.01-2.22,3.73-.94,7.45-1.93,11.19-2.81,1.1-.26,2.39-.33,2.82,1.09.51,1.65-1.07,1.97-1.96,2.14-3.98.73-8.02,1.22-12.04,1.8Z"/>
  <path class="cls-10" d="M435.91,171.87c.71-.47,1.42-.95,2.14-1.42,1.97,2.87,4.56,1.78,7.06,1.05.16-.05.32-.93.14-1.18-.41-.59-.39-.36-.48.36-.17,1.4.24,3.58-1.68,3.74-2.43.22-3.39,4.44-6.95,1.9-2.69-1.92.61-3.08-.23-4.45ZM471.37,351.16c-6.42-8.34.64-16.87-.88-25.34,3.77,8.34-3.44,16.92.88,25.34Z"/>
  <path class="cls-2" d="M496.65,651.37c-2.29.86-4.58,1.71-6.88,2.57-.89-4.79-4.74.84-6.09-2.35,2.58-1.81,6.18-2.14,9.36-3.48,4.02-1.7,3.07,1.46,3.61,3.26Z"/>
  <path class="cls-1" d="M90.93,322.8c.38,6.95,1.52,13.81,2.68,20.68-4.03-6.32-4.28-13.51-4.8-20.62.71-.02,1.41-.04,2.12-.06Z"/>
  <path class="cls-10" d="M380.55,94.1c6.14-.87,9.99.24,13.77,1.71,1.36.53,2.36,1.64,1.69,3.15-.89,2.02-2.11.52-3.23.06-3.54-1.44-7.08-2.85-12.23-4.92Z"/>
  <path class="cls-1" d="M582.09,250.16c-3.81-3.39-7.61-6.79-11.43-10.19,6.08.86,9.42,4.95,11.43,10.19ZM581.08,701.53c-.44.11-.89.38-1.31.32-1.72-.21-.88-1.14-.29-1.65,3.26-2.78,6.58-5.49,9.88-8.22.49.35.97.71,1.46,1.06-.84,1.11-1.68,2.22-2.52,3.33.12,4.17-3.45,5.65-5.82,7.99-.08-.78-.17-1.56-.25-2.34.06-.38.3-.97.17-1.08-.67-.51-1.03.03-1.32.59ZM83.7,300.4c-1.24-4.93-.98-9.8.9-16.46,1.69,6.83.84,11.65-.9,16.46Z"/>
  <path class="cls-2" d="M427.58,271.32c.24-.59.48-1.18.72-1.77,4.53,3.4,5.02-4.89,8.99-3.11-2.96,3.12-2.44,6.12,1.71,9.67-5.34-.53-8.26-2.95-11.42-4.79Z"/>
  <path class="cls-9" d="M402.16,712.77c2.41-1.64,4.81-2.19,6.42-4.27.84-1.09,2.39-2.19,3.32-1.29.94.92,1.24,2.83,1.25,4.31.02,2.21-1.96,1.1-2.96,1.18-2.66.21-5.35.07-8.03.07Z"/>
  <path class="cls-1" d="M354.94,676.94c-1.86-.76-4.98-.23-4.94-3.28.02-2.01,2.33-2.62,4.15-2.66,1.97-.05,3.46.95,3.68,3.12.21,2.02-.91,2.82-2.89,2.82ZM435.99,713.42c-3.15-1.3-6.4-1.86-9.84-1.4-.98.13-2.37.8-2.6-.98-.23-1.71.73-2.61,2.37-2.51,3.87.24,7.57.96,10.07,4.89ZM4.62,413.69c-.65.06-1.29.11-1.94.17-1.27-5.78-.38-11.58-.11-17.69,1.5,5.94,2.82,11.6,2.05,17.52ZM492.57,256.99c-3.01,3.55-6.53,6.47-12.27,7.93,3.02-5.68,8.23-5.84,12.27-7.93Z"/>
  <path class="cls-2" d="M51.13,585.91c-2.04-4-3.31-8.15-2.84-14.2,3.2,5.31,3.7,9.61,2.84,14.2Z"/>
  <path class="cls-13" d="M569.45,451.9c-3.4-4.18-.33-9.06-2.04-13.54,2.88.31-.36,5.93,4.3,3.92.41,3.48.1,6.79-2.26,9.62Z"/>
  <path class="cls-2" d="M445.38,269.58c-3.03-1.67-4.24,1.79-6.64,2.64-2.46-6.03,6.44-6.12,5.39-11.07.65-.29,1.29-.58,1.94-.88.34.36.68.71,1.02,1.07-.53,2.19-1.05,4.38-1.57,6.57-.05.55-.09,1.11-.14,1.67Z"/>
  <path class="cls-1" d="M366.06,611.14c2.18-3.18,5.17-5.47,8.24-7.68.46.39.93.79,1.4,1.18-1.34,1.77-1.72,3.56-.08,5.37-2.97,2.22-6.33,1.12-9.56,1.13ZM585.49,516.63c-.78-4.06-.24-6.98,5.02-5.8.88,2.4.52,4.83.19,7.27-1.74-.08-3.48-.17-5.22-.25.03-.41.03-.81,0-1.22Z"/>
  <path class="cls-10" d="M455.06,147.29c.04.76.09,1.53.14,2.29-4.82-1.81-9.65-3.62-14.47-5.43.16-.5.31-1,.46-1.49,4.61,1.53,9.24,3.08,13.87,4.63Z"/>
  <path class="cls-1" d="M83.06,609.1c4.21,3.61,5.59,7.19,2.92,13-.66-4.94-4.04-7.81-2.92-13Z"/>
  <path class="cls-7" d="M327.47,219.95c-3.67.03-6.27-2.82-9.92-3.48-4.22-.76-1.4-2.82.59-3.98l-.18.28c.11,1.98,1.69,1.34,2.79,1.57l-.16-.11c.54,1.96,2.21,1.34,3.53,1.55,1.84-.58,2.71.49,3.33,1.96.01.74.02,1.48.02,2.21Z"/>
  <path class="cls-1" d="M402.74,634.69c4.05-2.16,8.21-1.59,14.04-1.19-5.58,2.66-9.77,2.6-14.04,1.19ZM394.7,611.25c-.12-4.31,1.01-7.97,5.22-10.03.5.16,1,.33,1.5.49-.11.44-.21.89-.32,1.34-3.22,1.84-2.23,4.99-2.43,7.78-1.32.14-2.65.28-3.97.42Z"/>
  <path class="cls-2" d="M349.76,638.01c-5.91,3.29-9.08,1.11-13.56-1.39,5.06-1.44,8.37.34,13.56,1.39Z"/>
  <path class="cls-10" d="M395.76,111.5c5.5-.31,9.27.48,13.16,2.5-4.02,1.68-4.96,1.51-13.16-2.5Z"/>
  <path class="cls-1" d="M272.72,573.43c4.06-.48,7.9-2.71,13.37-1.23-5.01,2.29-9.12,2.33-13.37,1.23ZM312.32,648.36c5.35-.81,10.16.79,14.71,3.55-5.12-.14-10.12-.81-14.62-3.64l-.09.09ZM467.32,582.98c1-.05,2.01-.1,3.01-.15.26,2.99,2.18,5.75,1.29,9.41-3.98-2.23-3.06-6.27-4.3-9.26ZM202.33,762.86c-3.1-2.18-6.2-4.36-9.3-6.54,4.38.27,8.14,1.45,9.3,6.54ZM66.26,336.55c.53,6.71,1.09,13.42-1.08,20.15v-20.02c.33-.34.68-.38,1.08-.13Z"/>
  <path class="cls-2" d="M459.25,590.75c-.45-.06-.91-.11-1.36-.18-2.17-.33-4.53,1.09-6.49-.64-.24-.21-.06-1.41.31-1.74,2.27-2.08,4.72-.69,7.11-.2-.11.96,1.89,1.59.43,2.76Z"/>
  <path class="cls-10" d="M372.76,260.99c.01.46.01.93.02,1.39-2.86-.3-5.34-1.32-7.11-3.71.46-.38.91-.76,1.37-1.13,1.9,1.15,3.8,2.3,5.72,3.45Z"/>
  <path class="cls-1" d="M596.99,687.28c-.88,1.94-2.59,2.94-4.38,3.86-.38-.36-.76-.73-1.13-1.09,1.62-1.15,3.24-2.29,4.86-3.44.22.22.43.45.65.67ZM203.56,762.79c1.73-.9,3.32-1.03,4.3.97.2.42-.29,1.67-.41,1.67-1.76-.12-3.28-.7-3.89-2.64ZM312.41,648.28c-.56-.17-1.12-.34-1.69-.52.15-.13.29-.35.45-.38.71-.08,1.16.19,1.15.98l.09-.08Z"/>
  <path class="cls-11" d="M381.26,680.64l-.67-.11.68.05v.06Z"/>
  <path class="cls-1" d="M589.36,691.98l2.12-1.94c.38.36.76.73,1.13,1.09-.6.64-1.2,1.27-1.8,1.91-.48-.35-.96-.7-1.45-1.06ZM587.08,254.77l-.63.12.58.26.05-.38ZM324.12,215.79c-1.31-.2-2.98.41-3.53-1.55,1.74-.77,2.7.26,3.53,1.55Z"/>
  <path class="cls-1" d="M320.75,214.35c-1.09-.23-2.68.41-2.79-1.57,1.69-.82,2.49-.07,2.79,1.57Z"/>
  <path class="cls-10" d="M279.46,339.61c-.47.38-.93.76-1.4,1.12-.47-.45-.94-.91-1.41-1.36l-.05.06c.96.06,1.91.13,2.86.18Z"/>
  <path class="cls-1" d="M556.46,412.95c.41.16.7.44.87.83-.33.48-.66.95-.98,1.43-.35-.55-.7-1.1-1.06-1.66.35-.26.74-.47,1.17-.6Z"/>
  <path class="cls-2" d="M543.45,51.97l-.17-.42.46.07-.29.35Z"/>
  <path class="cls-11" d="M114.78,392.96c-1.02-.02-2.43.36-1.5-1.54.5.51,1,1.03,1.5,1.54Z"/>
  <path class="cls-12" d="M587.76,157.76c-.26.41-.52.82-.78,1.23-.14-.12-.28-.25-.41-.38.42-.28.85-.55,1.3-.83.04,0-.11-.02-.11-.02Z"/>
  <path class="cls-1" d="M327.47,219.95c-.01-.73-.01-1.47-.02-2.2.67.55,1.33,1.09,1.99,1.63-.2.16-.4.33-.58.51h-1.44l.05.06ZM431.65,262.37c.2-.58.55-1.16,1.11-.52.21.25-.16,1.02-.27,1.55-.25-.36-.53-.71-.84-1.03Z"/>
  <path class="cls-1" d="M430.19,263.65c.49-.43.97-.85,1.46-1.28.31.32.59.67.84,1.04-.17.44-.47.77-.89.99-.47-.25-.94-.5-1.41-.75Z"/>
  <path class="cls-10" d="M298.54,574.13c-.12.47-.24.94-.37,1.41-.28-.48-.57-.96-.85-1.44l-.13.16c.5-.01,1-.01,1.5-.02l-.15-.11Z"/>
  <path class="cls-1" d="M459.26,272.14c.24-.29.48-.59.72-.88.05.21.2.46.14.64-.24.63-.59.64-.97.07l.11.17Z"/>
  <path class="cls-8" d="M28.52,291.7c.35-.31.71-.61,1.06-.92.02.12.08.34.03.36-.35.21-.73.38-1.09.56h0Z"/>
  <path class="cls-1" d="M588.88,300.23c-.47-.66-.92-1.32-.05-2.02.3.42.6.84.9,1.26-.27.27-.55.53-.85.76Z"/>
  <path class="cls-9" d="M437.6,718.57c-.12-.32-.25-.65-.38-.97.32-.01.64-.03.96-.04-.27.29-.53.58-.79.89.01,0,.21.12.21.12Z"/>
  <path class="cls-7" d="M428.86,319.99c-.4-.43-.8-.86-1.19-1.29,1.14-.26,1.06.61,1.19,1.29Z"/>
  <path class="cls-1" d="M577.04,735.35c-.15.26-.31.53-.47.81-.15-.15-.43-.32-.41-.43.07-.3.27-.58.42-.86.14.16.28.3.46.48Z"/>
  <path class="cls-3" d="M183.21,542.44c4.33-6.22,7.84-13.39,16.7-14.34,4.62-1.14,9.22-2.4,13.88-3.38,4.93-1.03,8.49.6,7.82,6.17-.39,3.25,2.55,6.14-.02,9.65-4.01,5.47-13.51,7.19-18.66,2.79-.83-.71-1.78-1.28-3.27-2.34.48,4.96-1.71,7.62-5.57,9.1-2.49.08-5.07-.2-7.47.32-3.94.85-4.13-1.38-4.06-4.15.21-1.28.43-2.55.65-3.82Z"/>
  <path class="cls-9" d="M197.26,560.09c2.22.2,4.45.4,6.67.61-.1,1.57,0,3.11-2.05,3.77-8.11,2.59-16.18,5.31-24.39,8.02.46-7.57,2.74-9.38,12.88-10.63,2.36-.3,5.09.76,6.89-1.77Z"/>
  <path class="cls-1" d="M234.11,559.02c13.75-4.23,28.06-5.05,42.19-6.85,5.77-.73,11.59-2.3,17.64-.41-19.96,2.81-39.92,5.62-59.88,8.43-.05-.39-.04-.78.05-1.17Z"/>
  <path class="cls-1" d="M282.26,762.18c1.13,4.3,6.74,3.32,9.16,8.45-6.63-.58-10.57-3.67-14.32-7.3,1.62-2.55,3.94,1.83,5.14-1.17-.01,0,.02.02.02.02ZM420.19,690.57c5.74-3.95,12.43-1.77,18.52-3.43-5.8,3.56-12.31,2.51-18.52,3.43Z"/>
  <path class="cls-3" d="M376.07,551.44c.36-.56.74-1.11,1.1-1.67.61-.8,1.21-1.59,1.81-2.39.47-.64.96-1.29.08-1.94-.04-.02-.65.73-.98,1.12-.67.74-1.33,1.47-2,2.21-.35.54-.7,1.07-1.05,1.61-.69.58-1.3,1.23-.35,2,.13.1.91-.6,1.39-.94ZM371.5,554.83c-1.32-4.37.32-7.62,3.14-11.08,6.97-8.53,14.33-16.35,23.75-22.45,10.26-6.66,16.04-17.97,24.65-26.49,4.24-4.2,7.18-4.68,11.36-1.07.17.15.34.3.52.45,18.71,15.39,16.83,16.16,1.14,33.83-2.7,3.04-2.66,6.25-2.95,9.32-.8,8.24-2.28,16.11-7.17,23.02-.36-.16-.7-.11-1.01.12-.37-.05-.74-.08-1.11-.09-4.35-5.14-12.25-5.68-15.74-12.2-.46-.86-4.72-3.11-5.52,1.47-.95.82-1.91,1.65-2.86,2.47-6.23,1.86-13.6,11.33-12.8,16.9.39,2.76-.88,1.98-2.07,1.3-1.56-.89-2.51-.85-2.75,1.15-3.51-4.26,1.15-6.51,2.35-9.61,2.73-3.56,5.45-7.12,8.19-10.68,2.24-2.92-1.28-5.62-.3-8.48-3.17-.66-4.34,1.88-5.77,3.78-3.39,4.52-6.42,9.21-5.61,15.29-1.83,1.9-4,1.7-6.2.91-1.12-.4-2.26-1.81-3.05.39-.43,1.21,1.02,3.96-1.6,3.32-2.56-.62-.76-2.92-.44-4.52.18-.88.34-1.77.51-2.65,2.23-.59,2.91-2.13,2.61-4.27.42-.26.83-.52,1.24-.78-.13-.17-.26-.34-.38-.51-.29.43-.57.86-.85,1.3-.46.08-.88.04-1.28-.14Z"/>
  <path class="cls-3" d="M365.66,258.67c1.77,2.39,4.25,3.41,7.11,3.71,5.74,1.33,11.44,2.96,17.24,3.85,3.01.47,3.81,1.39,3.43,4.28-.62,4.74-1.29,9.45-2.82,14-4.83-3.26-9.71-6.45-14.49-9.78-1.81-1.26-3.92-2.23-5.54-.75-1.82,1.67.26,3.34,1.34,4.55,1.91,2.13,2.74,5.38,6.05,6.11-2.03,2.83-.26,6.26-1.42,9.22-4.53,4.19-4.3,3.79-10.71.16-5.84-3.31-11.04-7.16-15.36-12.25-4.02-5.91-5.94-12.67-7.89-19.41,2.72-1.49-.22-4.54,1.71-6.25v.14c1.25,3.36,3.05,6.26,6.53,7.75l-.11-.19c-.94,1.74-.91,3.29,1.49,5.11v-5.11l-.15.17c1.82.49,1.2,2.07,1.31,3.21.31,3.35,1.73,1.21,2.85.65,6.31.18,7.58-4.78,9.43-9.17ZM307.02,305.35c-2.44,1.04-4.43,4.33-7.11,3.26-5.81-2.33-.6-6.7.22-8.24,3.82-7.19,13.41-10,20.92-6.58,3.65,1.67,6.02-.59,8.95-1.24,1.93.98,1.04,4.03,3.88,4.84.55-3.23,3.36-5.65,2.86-9.27,1.81-5.21,6.76-5.79,12.62-1.47,2.35,3.42,4.7,6.84,7.05,10.26.46,10.87-2.75,21.05-5.85,31.24-2.9-3.62,1.27-7.23.03-10.85.17-3.59-.48-6.82-3.88-8.85-1.14-4.49-3.68-5.59-7.87-3.53-1.76.86-3.78,1.18-5.69,1.74-2.51.08-3.94-1.44-5.52-3.2-4.88-5.46-8.1-5.53-14.21-.76-.12.39-.39.6-.8.63-1.85.67-3.73,1.34-5.6,2.02Z"/>
  <path class="cls-13" d="M334.17,460.19c11.73-13.71,16.21-31.32,25-46.64,2.37-4.13,2.88-5.43,7.28-1.66,5.84,5.01,6.37,9.58,3.18,16.12-6.77,13.9-13.45,27.78-24.24,39.15-5.41.37-6.28-6.58-11.22-6.97Z"/>
  <path class="cls-3" d="M475.06,482.26c.46-.8.93-1.59,1.39-2.39,1.68-1.11,2.35-2.64,1.88-4.62,1.38-1.33,2.45-3.67,4.94-2.02,7.99,5.3,15.79,10.79,20.14,19.83,1.62,3.37,1.2,5.2-3.01,4.78-6.01-4.01-11.22-.66-16.31,2.02-7.07,3.73-10.55,1.66-11.18-6.53-.3-4.02,2.42-7.21,2.15-11.07Z"/>
  <path class="cls-7" d="M356.4,296.9c-2.34-3.42-4.69-6.84-7.04-10.26.67-1.56-.39-3.51,1.14-4.86,4.32,5.09,9.52,8.94,15.36,12.24,6.41,3.63,6.19,4.03,10.71-.16.64.71.14,3.49,2.25,1.56,2.1-1.93,2.53-4.45,1.03-7.08.88-2.72,1.96-5.45-.41-8.01-1.48,1.1-1.03,2.85-1.44,4.31-3.31-.74-4.14-3.99-6.05-6.12-1.09-1.21-3.16-2.89-1.34-4.55,1.61-1.48,3.73-.51,5.54.75,4.78,3.33,9.65,6.53,14.49,9.78-1.01,5.8-1.72,11.68-3.15,17.39-.78,3.13-.94,6.05-7.08,4.23-7.91-2.34-14.11-5.46-19.39-11.65-2.26-2.66-1.66,4.14-4.62,2.43ZM350.59,317.29c1.24,3.62-2.93,7.23-.03,10.85-.19,3.05-2.55,3.91-4.85,4.82-.22-.24-.44-.48-.66-.73.83-3.41,1.9-6.99-4.01-5.43-.07-1.11.2-2.41-.28-3.29-1.1-2.02-2.02-5.66-4.95-4.21-3.73,1.85.89,3.34,1.08,5.17.11,1.11.14,2.24.21,3.36-1.33,1.66-3.1,2.18-5.15,1.99-3.28-2.02-6.52-.56-9.77.09,1.86-4.42,4.65-8.24,7.85-11.76,1.04-1.14,2.65-1.76,3.71-2.89.99-1.06,2.64-2.36,1.31-4.01-1.23-1.52-2.34.34-3.5.69-1.44.44-2.69,1.82-4.38.72.57-3.43,5.31-2.71,6-6.03,1.9-.57,3.93-.88,5.69-1.74,4.19-2.06,6.74-.96,7.87,3.53-3.53,8.21-3.49,8.28,3.86,8.87ZM475.06,482.26c.27,3.86-2.46,7.05-2.15,11.08.63,8.19,4.11,10.27,11.18,6.53,5.08-2.68,10.3-6.03,16.31-2.02-10.8,3.83-20.96,9.41-32.28,11.83-1.75.37-3.47,1.03-5.1,1.77-1.39.62-2.42,3.42-4.15.4-1.2-2.1-3.56-4.18-1.19-6.67,2.62-2.75,4.51-6.24,8.01-8.14,1.21,2.03-.63,6.18,2.44,6.26,3.22.09,2.68-3.76,3.49-6.77-2.27,1.01-4.18,3.85-5.74.24,2.61-5.13,5.03-10.37,9.18-14.51ZM254.93,443.94c.98-5.88,1.97-11.75,2.95-17.62,5.11-.15,9.28-4.73,14.76-3.19l-.09-.09c.5.48.99.97,1.49,1.45l-.06-.08c1.41,4.09.64,9.15,5.28,11.8.28,2.01.25,4.11.89,6,2.4,7.21-.26,13.56-6.9,15.67-2.79.89-2.75-1.5-2.06-2.7,2.44-4.24.15-9.65,3.57-13.6.57-.66-4.12-13.22-4.81-13.45-3.82-1.3-9.65,4.42-11.26,9.81-.62,1.95,3.1,7.7-3.76,6Z"/>
  <path class="cls-10" d="M402.54,549.66c.8-4.58,5.06-2.33,5.52-1.47,3.49,6.52,11.39,7.06,15.74,12.2-.3,3.65-4.95,4.66-5.09,8.41h.06c-1.04-2.11.6-5.07-2.14-6.84-2.17,2.14-4.42,4.06-6.33,6.29-2.71,3.16-5.32,6.51-1.88,10.82-3.85,1.09,4.16,2.96-.34,4.29-3.71,1.1-4.39-2.36-6.51-3.62-.47-5.21,3.84-8.54,5.12-13.02,1.01-3.5,3-7.96-3.74-8.1,1.43-2.36,4.85-3.65,3.99-7.23-.61-2.59-2.76-1.59-4.4-1.73Z"/>
  <path class="cls-7" d="M334.17,460.19c4.94.39,5.81,7.33,11.21,6.98-6.27,5.36-13.02,7.64-20.8,3.24-1.63-.92-3.24-1.57-5.07-.63-2.87-2.52-5.91-4.9-7.32-8.66.3-2.73,1.9-1.97,3.24-1.05,6.25,4.28,12.48,3.77,18.74.12Z"/>
  <path class="cls-14" d="M326.63,452.54c6.13-4.73,9.83-11.2,12.82-18.14,3.6-8.36,7.07-16.78,10.62-25.17s6.92-16.83,9.52-25.84c3.12,1.66,3.37,4.73,3.35,7.51-.01,1.62-2.95.48-3.79,3.11-4.68,14.76-12.78,28.11-17.88,42.75-2.46,7.06-6.24,13.62-13.14,17.6-.49-.6-1-1.21-1.5-1.82Z"/>
  <path class="cls-13" d="M300.01,323.05c4.56-1.42,9.11-2.91,13.7-4.22,1.09-.31,3.03.6,2.55,1.36-2.39,3.8.88,4,2.8,5.51,1.91,1.5.22,3.24-.74,4.73-7.41,8.75-7.87,8.77-14.41-1.24-1.06-1.61-2.82-1.2-3.91-2.31.01-1.28.01-2.56.01-3.83Z"/>
  <path class="cls-14" d="M292.48,324.67l-.24.38.38.05-.14-.43ZM300.01,323.05v3.83c-1.9.03-3.8.07-5.7.1-.4.43-.8.86-1.19,1.3-3,.11-5.73,2.01-8.85,1.3.01,0,.01.12.01.12-.04-1.11-3.1-.92-1.31-2.74,1.89-1.92,2.42-3.31-.8-4.16-2.94-.78-5.31-2.49-7.16-4.84-.53-.68-1.19-2.82-.34-2.51,3.55,1.3.17-6.38,3.74-3.01,6.2,5.85,14.65,6.61,21.6,10.61Z"/>
  <path class="cls-13" d="M440.07,461.74c.14,5.19-5.51,9.32-2.77,15-2.22,3.31-6.39,3.95-9.06,6.68-2.41-5.13-.51-18.11,3.31-21.37,2.63-2.24,5.62-1.87,8.52-.31ZM402.96,558.61c6.74.14,4.75,4.6,3.74,8.1-1.28,4.48-5.59,7.81-5.12,13.02-3.16-2.86-9.55.68-11.02-5.55,1.08-.63,2.03-1.32,1.44-2.8l-.1.11c1.26.27,1.34-.64,1.5-1.48l-.12.12c1,.01,1.34-.64,1.49-1.48l-.09.13c.48-.96.97-1.93,1.46-2.9l-.11.14c2.32-2.47,4.63-4.94,6.93-7.41ZM379.04,371.08c-.82,1.23.07,6.49-1.9,4.91-3.15-2.54-9.46.69-9.91-5.55-.24-3.4-.12-6.82-.26-10.23-.08-1.92.78-2.94,2.58-3.34,2.18-.47,2.91.82,2.9,2.59-.01,2.32,1.18,2.31,3.1,3.05,2.86,1.11,4.75,4.2,3.49,8.57Z"/>
  <path class="cls-13" d="M382.05,571.48c.24-2.01,1.19-2.04,2.75-1.15,1.2.68,2.46,1.45,2.07-1.31-.8-5.56,6.57-15.03,12.8-16.9-2.03,4.41-4.32,8.76-3.64,13.89l.11-.14c-2.19.1-2.03,1.4-1.46,2.9,0,0,.09-.12.09-.13-1.49-.51-1.73.25-1.49,1.48l.12-.12c-1.16-.18-1.63.35-1.49,1.48l.1-.11c-1.85-.14-2.34,1.49-3.28,2.54-2.23-.81-5.11.18-6.68-2.43Z"/>
  <path class="cls-6" d="M380.91,561.77c-.81-6.08,2.22-10.77,5.61-15.29,1.43-1.9,2.6-4.44,5.77-3.78-.98,2.86,2.55,5.57.3,8.48-2.74,3.55-5.46,7.11-8.19,10.68-1.16-.03-2.32-.06-3.49-.09Z"/>
  <path class="cls-13" d="M366.18,376.33c-7.72-2.59-10.93-9.34-8.56-16.46.73-2.22,2.44-2.38,4.27-2.5,2.54-.18,2.85,1.47,3,3.47.35,4.94.81,9.87,1.29,15.49ZM279.24,436.19c-4.64-2.65-3.86-7.71-5.28-11.8,6.72,1.41,12.23,5.53,18.34,8.31,2.47,1.12-.32,1.74-.93,2.51-2.58.61-5.47-.57-7.82,1.36-1.44-.12-2.87-.25-4.31-.38Z"/>
  <path class="cls-3" d="M415.3,309.18c5.36-2.79,7.61-1.35,6.71,4.78-.23,1.54.12,3.17.21,4.77-.11,1.95-.22,3.91-.34,6.1-4.19-1.15-5.42-6.54-10.11-6.12.14-3.56,2.09-6.45,3.53-9.53Z"/>
  <path class="cls-13" d="M413.04,373.41c-1.4,2.51-4.27.39-5.65,2.97,3.66-.23,6.16,1.89,9.05,3.57-6.15,2.92-12.88,1.53-16.65-3.03-1.97-2.37-.23-3.64,1.36-4.01,3.87-.89,7.88-1.34,11.89.5Z"/>
  <path class="cls-14" d="M408.43,579.06c-3.45-4.31-.83-7.66,1.88-10.82,1.91-2.23,4.16-4.16,6.33-6.29,2.74,1.77,1.1,4.72,2.14,6.83-3.55,3.33-4.94,8.83-10.35,10.28ZM391.99,397.05c-2.22-.71-4.45-1.43-6.73-2.16,2.02-4.14,7.5.35,8.11-4.79l-.12.07c.59.34,1.2.23,1.16-.45-.02-.4-.72-.76-1.12-1.13-.01-.41.02-.81.09-1.21,1.69-.07,3,.82,4.39,1.62,3.06,1.74,4.07,4.32,2.97,7.51-1.54,4.48-4.42,1.02-6.74.93-.66-.13-1.33-.26-2.01-.39Z"/>
  <path class="cls-7" d="M264.82,533.36c2.37-2.35,4.72-4.73,7.12-7.06.88-.85,1.81-2.84,2.96-1.79,1.16,1.06,3.08,2,2.94,4.25-.1,1.55-.59,2.7-2.09,3.1-3.42.91-6.88,1.72-10.32,2.57-.2-.36-.4-.72-.61-1.07Z"/>
  <path class="cls-13" d="M477.51,396.54c-7.49-6.94-16.49-6.6-25.74-5.02,10.26-4.85,19.81-3.3,26.81,4.04-.36.32-.72.65-1.07.98ZM272.64,423.12c-5.48-1.54-9.64,3.04-14.76,3.19.27-3.12.15-6.38,2.7-8.8,4.4,1.06,8.09,3.62,12.06,5.61ZM391.99,397.05c.68.13,1.35.26,2.02.39-.66,2.27-.89,4.04,2.57,3.56,2.27-.32,4.68.16,5.81,2.46.33.67-.37,2.4-1.1,2.92-2.79,1.94-4.25-.93-6.38-1.88-3.77-1.67-5.49-3.56-2.92-7.45ZM407.66,394.3c3.74.27,7.48.53,11.22.82,1.27.1,2.93-.3,3.11,1.66.2,2.31-1.92,2.43-3.25,2.61-4.57.62-7.16-3.72-11.08-5.09ZM322.16,329.92c3.25-.66,6.49-2.1,9.77-.09-1.35,2.5-3.93,3.45-6.19,4.73-3.57,2.03-5.87,1.12-6.3-3.21.91-.47,1.82-.95,2.72-1.43ZM555.29,413.56c.35.55.7,1.1,1.06,1.65.37.8.56,1.8,1.15,2.38,3.82,3.77,3.12,6.42-2.67,8.43,4.27-7.99-3.44-7.92-6.66-10.99.07-.14.23-.3.2-.41-.07-.25-.23-.48-.36-.71,2.51,1.64,4.9.91,7.28-.35Z"/>
  <path class="cls-7" d="M373.58,328.23c2.53.52,4.11,2.26,4.02,4.59-.09,2.28-2.41,3.43-4.37,3.21-1.81-.21-4.3-1.02-4.19-3.56.11-2.56,2.29-3.56,4.54-4.24Z"/>
  <path class="cls-6" d="M254.51,466.85c.54.08,1.07.16,1.61.24.44,1.41-1.51,3.53,1.58,4.2,2.09.46,2.8,2.04,1.17,3.96l-.19.21c-3.05.41-5.03-1.45-6.83-3.43-1.15-1.27-2.66-2.99-1.66-4.59.49-.77,2.82-.42,4.32-.59Z"/>
  <path class="cls-13" d="M381.15,367.65c4.83,1.49,5.27,5.02,4.91,8.78-.14,1.5-1.79,1.58-2.68,1.03-4.04-2.51-1.8-6.33-2.23-9.81Z"/>
  <path class="cls-7" d="M541.65,416.45c-2.89-3.64-7-.14-10.82-2.06,5.97-3.18,11.53-2.98,17.18-.49.12.23.28.46.35.71.03.11-.12.27-.2.41-3-1.21-3.45,4.08-6.56,2.58-.04-.39-.02-.77.05-1.15Z"/>
  <path class="cls-3" d="M423.22,401.63c-5.76,1.9-10.18,2.17-14.6,2.37-1.2.05-3.03.62-3.01-1.44.01-1.86,1.37-2.98,3.22-2.35,4.15,1.43,8.5.44,14.39,1.42Z"/>
  <path class="cls-7" d="M477.77,407.04c-5.39,1.4-10.72,4.27-16.76-.07,2.95-.49,5.66-1.49,8.23-1.24,2.83.28,5.51,1.88,8.53,1.31Z"/>
  <path class="cls-13" d="M367.31,392.47c3.95,4.16,5.35,8.33,6.44,12.85-5.15-2.85-6.07-4.57-6.44-12.85ZM496.24,430.02c1.03,2.92-3.27,2.38-3.65,4.88-.36-2.06-.59-4.16-1.12-6.18-.8-3.03.86-4.73,3.34-4.66,3.64.1-.02,3.3,1.43,4.57l.08-.05c-.72-.29-1.3-.09-1.3.7s.56,1.04,1.31.79l-.09-.05Z"/>
  <path class="cls-6" d="M385.28,316.17c-.94,4.93-1.67,8.76-2.53,13.27q-4.19-8.24,2.53-13.27Z"/>
  <path class="cls-13" d="M557.58,435.24c2.08-.21,3.7.24,4.14-2.74.34-2.35,3.02-1.49,4.53-1.36.77.07,1.85,1.91,1.03,3.45-2.88-1.92-3.51,3.23-6.22,1.96-1.12-.52-2.32-.88-3.48-1.31ZM337.08,327.84c-.07-1.12-.09-2.24-.21-3.36-.19-1.83-4.81-3.32-1.08-5.17,2.93-1.45,3.85,2.19,4.95,4.21.48.89.21,2.18.29,3.29-1.31.34-2.63.68-3.95,1.03ZM352.96,364.88c-1.83-1.6-2.77-3.51-2.86-5.95,2.11-.14,4.57-1.76,5.89,1,1.34,2.85-3.02,2.61-3.03,4.95ZM327.29,454.69c-4.24,2.8-8.56,3.21-13.67.32,4.18-.43,7.82.1,11.19-1.36.83.34,1.66.69,2.48,1.04Z"/>
  <path class="cls-7" d="M519.33,429.37c6.32-.17,12.79-2.29,18.79,1.69-6.2-1.38-12.51-1.29-18.79-1.69Z"/>
  <path class="cls-3" d="M393.38,387.38c-.07.4-.1.81-.09,1.21-.15.17-.43.36-.41.51.05.37.24.71.37,1.07l.12-.07c-.39-.19-.88-.64-1.16-.54-2.18.84-4.38,1.6-6.5.13-.29-.2-.03-1.9.48-2.43,2.36-2.46,4.82-1.58,7.19.12Z"/>
  <path class="cls-6" d="M255.73,460.51c-2.49-2.6-2.96-5.44-.96-8.55,8.57,1.92,1.26,5.62.96,8.55Z"/>
  <path class="cls-1" d="M585.49,516.63c.02.41.02.81-.01,1.21-2.45,3.21-6.46,2.18-9.59,3.54,1.77-4.46,5.24-5.5,9.6-4.75Z"/>
  <path class="cls-6" d="M541.65,416.45c-.07.38-.08.76-.04,1.15-4.17.15-8.09,2.56-12.42,1.38l.08.08c3.58-3.46,8.09-2.51,12.38-2.61Z"/>
  <path class="cls-13" d="M396.21,379.12c-4.28,1.14-5.46-1.99-6.76-4.96,2.67,1.05,5.34,2.11,6.61,5.05l.15-.09Z"/>
  <path class="cls-7" d="M283.55,436.58c2.35-1.94,5.24-.74,7.82-1.36-1.88,4.64-4.73,3.69-7.82,1.36Z"/>
  <path class="cls-6" d="M511.89,445.26c-2.39-.12-4.79-.24-7.62-.39,2.79-3.54,5.31-1.84,7.62.39Z"/>
  <path class="cls-13" d="M468.96,401.38c.12-2.39-1.3-5.22,1.17-6.74.99-.61,3.51,1.42,1.42,2.65-1.95,1.14-.33,3.57-2.59,4.09Z"/>
  <path class="cls-6" d="M372.74,554.95c.3,2.14-.39,3.68-2.61,4.27l1.38-4.39c.4.18.82.22,1.24.14v-.02Z"/>
  <path class="cls-13" d="M478.58,395.56c1.61.74,2.05,2.24,2.92,5.52-1.99-2.28-2.99-3.41-3.99-4.55.35-.32.71-.65,1.07-.97Z"/>
  <path class="cls-7" d="M478.33,475.24c.47,1.99-.2,3.51-1.88,4.62-1.26-2.3.32-3.45,1.88-4.62Z"/>
  <path class="cls-10" d="M427.62,561.66c-.21.92-.76,1.49-1.73,1.31-1.58-.3-.8-1.6-.96-2.49.31-.24.65-.28,1.01-.12.55.43,1.12.86,1.68,1.3Z"/>
  <path class="cls-7" d="M528.09,416.49c-1.02.77-2.68,1.92-3.22.7-.65-1.43,1.52-1.22,2.47-1.71.18.4.43.73.75,1.01Z"/>
  <path class="cls-2" d="M388.72,573.91c.94-1.05,1.43-2.67,3.28-2.54.59,1.48-.36,2.17-1.44,2.8-.61-.08-1.22-.17-1.84-.26Z"/>
  <path class="cls-13" d="M427.51,575.48c.81.36.55.91.14,1.34-.14.14-.59-.02-.9-.04.31-.41.62-.8.94-1.2l-.18-.1Z"/>
  <path class="cls-6" d="M258.86,475.26c.58.16,1.16.32,1.74.48-.19.23-.51.7-.56.68-.48-.28-.92-.62-1.37-.95.01,0,.19-.21.19-.21Z"/>
  <path class="cls-14" d="M327.29,454.69c-.82-.35-1.65-.7-2.48-1.04.6-.37,1.21-.74,1.82-1.11.51.61,1.01,1.22,1.51,1.83-.2.32-.48.42-.85.32Z"/>
  <path class="cls-6" d="M516.91,446.44c-.64-.1-1.27-.2-1.91-.31.15-.24.3-.48.44-.72.46.37.93.74,1.39,1.1l.08-.07Z"/>
  <path class="cls-13" d="M474.23,399.88c1.11-.19,1.56.38,1.43,1.39-.04.29-.43.54-.66.81-.21-.77-.42-1.54-.63-2.31l-.14.11Z"/>
  <path class="cls-7" d="M345.7,332.97c-.58.77-1.65,1.43-2.12.59-.67-1.17.81-1.01,1.46-1.32.22.24.44.49.66.73ZM457.77,409.47c-.34-.24-.69-.48-1.03-.73.36-.23.69-.57,1.09-.68.72-.2,1.28.09,1.06.91-.07.24-.73.33-1.12.5ZM454.52,409.81l.21.42-.51-.06.3-.36ZM527.34,415.49c.66-.64,1.34-.89,1.94,0,.03.04-.78.66-1.19,1.01-.32-.29-.57-.62-.75-1.01Z"/>
  <path class="cls-6" d="M529.19,418.97c-.15.33-.31.66-.46.98-1-1.01.35-.61.55-.9l-.09-.08Z"/>
  <path class="cls-13" d="M483.3,404.16c.09.15.29.31.28.46-.01.14-.23.27-.36.4-.11-.16-.3-.32-.28-.46,0-.14.23-.26.36-.4Z"/>
  <path class="cls-6" d="M526.3,421.15c-.16.1-.32.31-.45.29-.14-.01-.26-.24-.38-.39.15-.1.32-.31.45-.29.14.02.26.25.38.39Z"/>
  <path class="cls-13" d="M292.97,264.54c-.49-.48-.99-.97-1.49-1.45.85.11,1.74.19,1.49,1.45ZM564.65,427.86c-.08.16-.15.31-.23.47-.21-.17-.43-.33-.65-.49.15-.16.3-.31.45-.46.14.16.29.32.43.48ZM496.25,428.62c-.01.46-.01.93-.01,1.39.01.01.1.06.1.06v-1.49l-.09.04ZM482.04,402.34c-.27-.16-.56-.32-.85-.49.15-.15.33-.45.44-.43.31.08.6.28.89.44-.14.15-.3.3-.48.48ZM474.37,399.77c-.33-.22-.65-.43-.98-.65.25-.14.5-.27.74-.41.04.39.07.78.1,1.17,0,0,.14-.11.14-.11Z"/>
  <path class="cls-6" d="M516.83,446.53c.23.18.47.36.71.54-.14-.03-.33-.01-.4-.09-.12-.15-.17-.35-.24-.54l-.07.09Z"/>
  <path class="cls-13" d="M311.43,453.7c.16.01.32.01.48.01-.09.29-.18.58-.26.87-.16-.15-.36-.28-.45-.46-.04-.08.15-.28.23-.42ZM396.06,379.21c.27.28.53.56.79.84-.21.02-.43.04-.64.06,0-.33-.01-.66-.01-.98l-.14.08ZM293.11,328.28c.4-.43.8-.86,1.19-1.3.13.91-.19,1.42-1.19,1.3Z"/>
  <path class="cls-2" d="M340.92,269.45c-.22-.29-.44-.59-.66-.88-.11.36-.27.71-.31,1.07-.02.16.21.35.34.52.2-.23.41-.47.63-.71ZM338.39,266.62c-4.66-3.67-7.56-3.66-11.04,0h11.04ZM350.5,281.77c-1.52,1.36-.47,3.31-1.14,4.87-5.86-4.32-10.81-3.74-12.62,1.47-.37-4.15-3.38-6.42-6.44-8.45,1.09-1.67,4.06-.18,3.69-2.38-.19-1.14-2.35-2.46-3.81-2.76-1.65-.33-3.51.41-5.27.69-.06-1.23-.12-2.46-.18-3.7-1.1-3.27.52-6.12,1.34-9.1l-.09.08c3.49-.46,6.99-.91,10.48-1.36,2.29-.82,3.95,1.54,6.14,1.23,1.96,6.74,3.88,13.51,7.9,19.41Z"/>
  <path class="cls-6" d="M277.97,254.31c-1.7-2.12-4.7-2.91-6.14-6.97-.57,2.81-.93,4.52-1.38,6.74-1.54-1.81.41-4.04-1.66-4.97-.3-.28-.6-.55-.91-.82.06-.45.34-1.07.14-1.34-5.54-7.58-1.23-11.96,4.91-16.05,1.78-1.19,2.9-3.36,4.68-4.88-.67,2.9.23,6.42-3.7,7.91-.53.2-2.55,1.44-1,2.4,7.24,4.47,4.2,11.73,5.16,17.9l-.1.08Z"/>
  <path class="cls-13" d="M333.16,306.66c-.69,3.32-5.43,2.6-6,6.04-2.08-.02-4.17-.03-6.24-.04-.13-1.7-1.3-2.17-2.74-2.3-1.05-2.89,3.8-9.42-4.74-7.66,6.11-4.77,9.33-4.7,14.21.76,1.57,1.76,2.99,3.28,5.51,3.2ZM324.91,275.21c1.76-.28,3.62-1.02,5.27-.69,1.46.3,3.62,1.61,3.81,2.76.37,2.2-2.6.71-3.69,2.38,3.06,2.03,6.07,4.31,6.44,8.45.49,3.62-2.31,6.03-2.86,9.27-2.84-.81-1.95-3.86-3.88-4.84,1.35-1.7,2.97-3.08.71-5.57-3-3.29-4.49-7.53-5.8-11.76ZM270.27,283.92c-4.16-.24-1.64,3.06-2.11,4.53-1.04,3.19-1.19,6.67-1.94,10.01.12-7.15-2.49-14.57,2.72-21.88.93,2.35,1.7,4.31,2.47,6.27-.37.36-.76.71-1.14,1.07ZM282.68,243.43c-.4-3.67-.61-5.64-.83-7.64-1.89.73-.52,2.91-2.14,4.14-.48-4.92-1.03-9.54,1.8-13.83.53,5.17,2.96,10.06,1.17,17.33Z"/>
  <path class="cls-7" d="M251.43,253.72c.36-3.49,2.83-5.36,5.89-8.1-.33,7.25-3.53,13-2.67,20.64-2.21-4.71.17-8.83-2.66-11.96-.18-.19-.37-.39-.56-.58Z"/>
  <path class="cls-13" d="M278.24,273.24c4.02,2.05,6.56,5.57,8.95,9.22-4.03-2.03-7.25-4.87-8.95-9.22ZM307.02,305.35c1.87-.68,3.74-1.35,5.61-2.02.32,4.39-3.33,5.79-5.74,8.33-2.17-2.5,3.92-4.09.13-6.31ZM286.53,246.8c-2.71-3.83-1.49-7.54-1.55-11.39q3.4,3.17,1.55,11.39ZM273.95,266.56c-2.45.71-.7,3.54-2.85,5.38-.21-4.09-.36-7.41,1.5-10.76,1.17,1.81,1.69,3.55,1.24,5.51l.11-.13ZM326.08,262.41c-.82,2.98-2.45,5.84-1.34,9.1-3.76-6.48-3.67-7.11,1.34-9.1Z"/>
  <path class="cls-13" d="M336.47,261.12c-3.49.45-6.99.91-10.48,1.35,2.98-4.07,4.41-4.26,10.48-1.35ZM296.71,220.23l4.98,6.24-1.11,1.55c-2.02-1.89-4.14-3.7-4.92-6.52.36-.43.7-.85,1.05-1.27Z"/>
  <path class="cls-7" d="M251.99,254.3c-.11,1.52.06,3.13-1.65,4.19-1.5-2.05.24-3.32,1.09-4.77.19.19.38.39.56.58Z"/>
  <path class="cls-13" d="M301.69,226.47l4.54,3.62c-.34.37-.68.74-1.01,1.11-2-.4-3.45-1.61-4.65-3.18.38-.52.75-1.04,1.12-1.55ZM273.26,287.85c-.99-1.31-1.99-2.62-2.99-3.94.38-.35.77-.71,1.14-1.06.88,1.41,1.76,2.81,2.64,4.22-.27.25-.53.51-.79.78Z"/>
  <path class="cls-7" d="M318.17,310.35c1.44.14,2.61.6,2.74,2.3-2.1.65-3.44.38-2.74-2.3Z"/>
  <path class="cls-13" d="M278.09,271.42c-.46.34-.97.78-1.01.74-.6-.59-1.21-1.2-1.62-1.91-.11-.19-.06-1.57.98-.76.64.52,1.09,1.27,1.65,1.93ZM306.23,230.09c.71.83,3.3.25,2.23,2.12-.59,1.04-2.42.3-3.24-1.01.34-.37.67-.74,1.01-1.11Z"/>
  <path class="cls-3" d="M350.85,264c.26-.62.51-1.24.76-1.86.16.61.32,1.23.47,1.84l.15-.17h-1.49l.11.19Z"/>
  <path class="cls-6" d="M278.07,254.22c.87.34,1.27.96,1.03,1.89-.04.16-.31.26-.47.38-.22-.72-.43-1.45-.65-2.17l.09-.1ZM265.15,253.67c.41-.92.82-1.83,1.23-2.75.36.32.73.64,1.09.96-.54.86-1.07,1.72-1.6,2.58-.24-.27-.48-.53-.72-.79Z"/>
  <path class="cls-6" d="M266.38,250.92c.51-.89,1.01-1.77,1.51-2.65.3.27.6.54.91.82-.44.93-.88,1.86-1.32,2.79-.38-.32-.74-.64-1.1-.96Z"/>
  <path class="cls-13" d="M295.66,221.49c-1.01-.49-2.3-1.35-1.45-2.35,1.12-1.32,1.76.44,2.51,1.08-.36.43-.7.85-1.06,1.27Z"/>
  <path class="cls-4" d="M293.24,206.44c.24.19.48.38.72.56-.39.12-.77.29-1.16.34-.15.02-.33-.23-.51-.35.32-.18.63-.37.95-.55Z"/>
  <path class="cls-7" d="M327.42,219.9h1.44c-.29.48-.57.96-.86,1.44-.19-.49-.39-.96-.58-1.44Z"/>
  <path class="cls-6" d="M263.9,255.24c.42-.52.84-1.04,1.26-1.56.24.26.48.52.72.78-.43.49-.86.97-1.3,1.46-.23-.23-.46-.46-.68-.68Z"/>
  <path class="cls-6" d="M264.57,255.92c-.31.27-.81.83-.9.78-.86-.58-.23-1.02.22-1.45.23.21.46.44.68.67Z"/>
  <path class="cls-3" d="M344.32,256.11c-.37.3-.74.59-1.11.89-.04-.16-.08-.31-.11-.47.4-.07.8-.15,1.21-.26,0-.02,0-.16,0-.16Z"/>
  <path class="cls-13" d="M273.84,266.69c.35.07.71.15,1.06.22-.15.27-.31.53-.46.79-.16-.38-.33-.76-.49-1.14l-.11.13ZM274.05,287.07c.32.41.99,1.07.91,1.19-.8,1.11-1.18.01-1.7-.41.26-.27.52-.52.79-.78ZM276.54,290.41c-.08.14-.16.29-.23.43-.22-.16-.43-.31-.65-.46.15-.15.31-.4.46-.4.14,0,.28.28.42.43ZM278.46,292.3l-.15-.36.41.08-.26.28ZM272.55,325.65c-.24-.27-.48-.53-.72-.8.27-.01.54-.02.81-.02-.08.3-.16.6-.23.9l.14-.08Z"/>
  <path class="cls-3" d="M434.53,89.5c-11.38-2.06-22.79-3.96-34.12-6.24-6.21-1.25-12.78.24-18.66-3.52,21.17-2.85,41.7,2.04,62.31,5.96-3.18,1.27-6.36,2.53-9.53,3.8Z"/>
  <path class="cls-14" d="M434.53,89.5c3.17-1.27,6.35-2.53,9.52-3.79,1.42,2.42,3.22,3.63,6.33,3.81,11.43.67,22.22,3.93,32.44,9.23-16.76.4-32.55-4.3-48.29-9.25Z"/>
  <path class="cls-3" d="M475.47,101.37c15.46,1.96,29.58,7.01,42.7,15-5.01.59-9.26,2.42-14.61-1.84-5.99-4.76-14.23-6.71-21.47-9.93-2.25-1-4.42-2.15-6.62-3.23Z"/>
  <path class="cls-4" d="M359.63,79.11c1.36,1.1,1.83,1.47,2.29,1.85-.45.34-.91.97-1.34.96-.55-.02-1.4-.46-1.53-.91-.16-.5.34-1.2.58-1.9Z"/>
  <path class="cls-1" d="M549.58,513.33c2.91-1.91,5.54-2.56,10.16-1.58-4.33.37-6.53,3-10.16,1.58ZM561.6,514.24c.92-.55.69-3.35,2.44-1.78.93.84-.47,2.25-1.8,2.75-.22-.32-.43-.65-.64-.97ZM543.82,514.49c1.38-1.06,2.82-.91,4.47-.47-1.02,1.6-2.47,1.14-3.64,1.49-.28-.34-.56-.68-.83-1.02Z"/>
  <path class="cls-1" d="M544.65,515.51c-1.26,1.16-2.61,1.52-4.17.49.71-1.47,2.26-.97,3.34-1.51.27.34.55.68.83,1.02ZM559.61,516.7c-.49,1.27-1.56,1.43-2.71,1.43-.18-.2-.36-.4-.55-.59.82-.56,1.65-1.13,2.47-1.69.25.29.52.58.79.85ZM552.33,518.14c-.77-.16-2-.37-1.64-1.21.39-.89,1.61-1.2,2.57-.22-.3.47-.61.95-.93,1.43Z"/>
  <path class="cls-1" d="M558.81,515.85c.93-.54,1.86-1.07,2.79-1.61.21.32.43.65.64.97-.41,1.33-1.51,1.44-2.63,1.49-.27-.27-.54-.56-.8-.85ZM379.64,590.58c1.2.99-.35,1.73-.23,2.62-.52-.19-1.51-.47-1.49-.55.19-.95.41-2,1.72-2.07ZM339.11,588.65c.89-.54,1.78-1.08,2.67-1.62.32.37.65.74.97,1.11-.46,1.14-1.47,1.41-2.54,1.58-.36-.36-.73-.71-1.1-1.07Z"/>
  <path class="cls-1" d="M340.22,589.72c-.49.12-.98.24-1.47.36.12-.48.25-.95.37-1.43.36.36.73.71,1.1,1.07ZM322.02,559.05c-.69,1.02-1.24,2.33-2.88,1.42.6-1.2,1.32-2.16,2.88-1.42ZM327.5,553.53c-.49.49-.98.99-1.47,1.48-.12-1.09.66-1.3,1.47-1.48Z"/>
  <path class="cls-1" d="M326.13,554.92c-.49.49-.99.98-1.47,1.47-.1-1.08.39-1.57,1.47-1.47Z"/>
  <path class="cls-1" d="M324.76,556.29c-.49.49-.98.98-1.47,1.48-.28-1.26.42-1.55,1.47-1.48Z"/>
  <path class="cls-1" d="M323.39,557.67l-1.47,1.47c-.27-1.25.22-1.74,1.47-1.47ZM319.24,560.39c.39,1.36-.04,1.91-1.46,1.46.49-.48.98-.97,1.46-1.46Z"/>
  <path class="cls-1" d="M317.87,561.78c.49,1.46-.02,1.93-1.45,1.45.05-.91.51-1.43,1.45-1.45Z"/>
  <path class="cls-1" d="M316.49,563.15c.49,1.45-.01,1.92-1.44,1.45,0-.98.54-1.39,1.44-1.45Z"/>
  <path class="cls-1" d="M315.11,564.53c.55,1.5.02,1.92-1.42,1.43-.1-1.04.42-1.48,1.42-1.43Z"/>
  <path class="cls-1" d="M313.74,565.92c.5,1.44.03,1.9-1.41,1.41-.11-1.05.37-1.51,1.41-1.41ZM572.59,554.18c.7.66,1.41,1.32,2.12,1.98-.29.39-.58.78-.87,1.17-.71-.77-1.41-1.55-2.12-2.32.31-.25.6-.53.87-.83ZM569.68,551.58c.53.42,1.05.84,1.58,1.26-.35.28-.68.58-.99.9-.57-.35-1.14-.71-1.7-1.06.36-.37.73-.73,1.11-1.1Z"/>
  <path class="cls-1" d="M571.26,552.84c.44.45.88.9,1.32,1.34-.27.29-.55.57-.86.83-.48-.43-.97-.85-1.45-1.28.3-.31.64-.61.99-.89ZM574.71,556.17c.71.26,1.19.76.74,1.44-.12.18-1.05-.17-1.61-.27.29-.39.58-.78.87-1.17ZM422.97,594.79c-1.42-.32-1.1-1.23-.74-2.17.98.47,1.22,1.19.74,2.17ZM425.88,593.8c-.06.14-.13.28-.2.42-.21-.13-.43-.26-.64-.39.13-.15.27-.4.41-.4.13,0,.28.23.43.37ZM417.9,257.92c-.89,2.44-3.27,1.6-5.44,3.37.05-3.76,1.98-4.18,3.88-4.63.52.42,1.04.85,1.56,1.26ZM420.09,273.21c-1.45,2.45-2.73,3.28-5.66,4.18,1.51-2.93,2.74-3.82,5.66-4.18Z"/>
  <path class="cls-1" d="M416.34,256.66c.38-1.19,1.52-2.48,2.35-1.89,1.52,1.08.52,2.33-.79,3.15-.52-.42-1.04-.84-1.56-1.26ZM270.08,724.91c5.31,1.51,10.16,4.05,14.95,6.71-.12.75-.23,1.51-.34,2.26-5.18-2.64-10.37-5.27-15.56-7.91.32-.36.63-.71.95-1.06Z"/>
  <path class="cls-11" d="M245.88,713.49c-2.11-2.96-8.78,1.64-8.56-5.18.49-.52.98-1.03,1.47-1.55,2.18,2.83,7.45.65,8.54,5.26-.48.49-.96.98-1.45,1.47Z"/>
  <path class="cls-11" d="M247.33,712.03c1.08.19,2.17.34,3.23.61.81.21,2.27-1.59,2.38.59.05.96-.47,2.07-1.03,2.93-.81,1.25-1.36-.06-1.99-.42-1.35-.76-2.69-1.5-4.04-2.25.49-.49.97-.98,1.45-1.46ZM284.69,733.88c.11-.76.23-1.51.34-2.27,1.41.51,3.79.89,3.26,2.49-.68,2.11-2.39.57-3.6-.22ZM256.18,724.8c-.24.51-.23,1.35-1.19.98-.82-.32-1.62-.69-2.43-1.04.46-.29.88-.74,1.38-.83.86-.14,1.77-.12,2.24.89Z"/>
  <path class="cls-1" d="M265.01,723.64c-.39-.16-.77-.33-1.15-.5.18-.12.37-.36.52-.34.38.07.73.26,1.09.39-.15.14-.31.29-.46.45ZM269.13,725.97c-.59-.67-2.69-.38-1.76-1.84.62-.98,1.96-.12,2.71.78-.32.35-.63.7-.95,1.06Z"/>
  <path class="cls-11" d="M290.18,735.32c-.16.29-.32.58-.49.88-.15-.15-.45-.34-.43-.45.07-.32.28-.62.43-.92.16.15.31.31.49.49ZM309.7,773.19c-3.34.78-6.12-.13-8.31-2.8,3.34-.77,5.92.72,8.31,2.8Z"/>
  <path class="cls-11" d="M312.43,773.25c.27,1.26-.42,1.52-1.45,1.37-.83-.11-1.84-.12-1.38-1.47.95.03,1.89.06,2.83.1ZM316.4,774.69c-.35.43-.83,1.27-1.04,1.21-.74-.22-.74-.87-.31-1.48.45.09.9.18,1.35.27Z"/>
  <path class="cls-2" d="M396.04,566.02c-.68-5.12,1.61-9.47,3.64-13.89.95-.83,1.91-1.65,2.86-2.47,1.64.15,3.79-.85,4.42,1.72.86,3.58-2.57,4.87-3.99,7.23-2.31,2.47-4.62,4.94-6.93,7.41Z"/>
  <path class="cls-6" d="M378.99,547.38c-.6.8-1.21,1.59-1.82,2.39-.36-.33-.72-.67-1.09-1,.67-.74,1.33-1.47,2-2.21.28.29.59.57.91.82Z"/>
  <path class="cls-6" d="M378.08,546.56c.34-.39.95-1.14.98-1.12.88.65.39,1.31-.08,1.94-.31-.25-.62-.53-.9-.82ZM377.17,549.77c-.36.56-.73,1.11-1.1,1.67-.35-.35-.69-.7-1.04-1.05.35-.54.7-1.08,1.05-1.61.37.32.73.66,1.09.99Z"/>
  <path class="cls-6" d="M376.07,551.44c-.48.34-1.27,1.05-1.39.95-.95-.77-.34-1.42.35-2,.35.34.69.7,1.04,1.05ZM372.75,554.96c.28-.43.57-.86.85-1.3.13.17.26.34.39.51-.42.26-.83.52-1.24.79h0Z"/>
  <path class="cls-1" d="M377.99,284.65c.42-1.46-.04-3.21,1.44-4.31.14,2.67.28,5.34.41,8.01,1.51,2.63,1.08,5.15-1.03,7.08-2.11,1.94-1.61-.84-2.25-1.55,1.17-2.98-.59-6.4,1.43-9.23ZM350.74,263.81h1.49v5.11c-2.4-1.82-2.43-3.36-1.49-5.11Z"/>
  <path class="cls-2" d="M350.59,317.29c-7.35-.59-7.39-.66-3.88-8.85,3.39,2.03,4.05,5.26,3.88,8.85Z"/>
  <path class="cls-3" d="M379.85,288.34c-.14-2.67-.28-5.34-.41-8.01,2.37,2.56,1.28,5.29.41,8.01Z"/>
  <path class="cls-1" d="M519.34,518.18c-.65-.37-1.29-.73-1.94-1.1.15-.15.29-.38.45-.41.91-.17,1.58.18,1.97,1.02l-.48.49ZM509.17,511.88c.56.3,1.14.56,1.66.92.06.04-.18.83-.41.91-1.02.36-1.63-.19-1.98-1.12.24-.24.49-.47.73-.71Z"/>
  <path class="cls-1" d="M508.44,512.59c-.52-.4-1.04-.79-1.55-1.19.21-.21.43-.43.66-.65.54.38,1.08.76,1.62,1.13-.24.24-.49.47-.73.71ZM521,519.26c-.55-.36-1.1-.72-1.66-1.08,0,.01.48-.48.48-.48.76.25,1.42.57,1.17,1.57h.01Z"/>
  <path class="cls-13" d="M465.89,496.77c1.56,3.61,3.47.77,5.74-.24-.81,3.01-.27,6.85-3.49,6.77-3.07-.08-1.24-4.23-2.44-6.26-.01,0,.19-.27.19-.27ZM292.48,324.67l.14.43-.38-.05.24-.38Z"/>
  <path class="cls-2" d="M394.69,568.78c-.57-1.49-.73-2.79,1.46-2.9-.49.96-.98,1.93-1.46,2.9Z"/>
  <path class="cls-2" d="M393.29,570.13c-.24-1.23-.01-1.99,1.49-1.48-.16.84-.5,1.49-1.49,1.48Z"/>
  <path class="cls-2" d="M391.91,571.49c-.14-1.14.33-1.66,1.5-1.48-.16.84-.25,1.75-1.5,1.48Z"/>
  <path class="cls-1" d="M393.25,390.17c-.13-.35-.32-.7-.37-1.07-.02-.15.27-.34.41-.51.4.38,1.11.73,1.12,1.13.04.68-.57.79-1.16.45ZM496.34,428.58v1.49c-.75.24-1.31-.03-1.31-.79.01-.8.58-.99,1.31-.7Z"/>
  <path class="cls-13" d="M338.39,266.62h-11.04c3.47-3.65,6.37-3.66,11.04,0ZM340.91,269.45c-.21.24-.41.47-.62.71-.12-.17-.35-.36-.33-.52.04-.36.19-.71.3-1.07.22.29.44.59.65.88Z"/>
</svg>