<?xml version="1.0" encoding="UTF-8"?>
<svg id="Layer_1" data-name="Layer 1" xmlns="http://www.w3.org/2000/svg" xmlns:xlink="http://www.w3.org/1999/xlink" version="1.1" viewBox="0 0 962.91 190.49">
  <defs>
    <style>
      .cls-1 {
        fill: url(#linear-gradient);
        stroke-width: 0px;
      }
    </style>
    <linearGradient id="linear-gradient" x1="481.41" y1="6221.43" x2="481.41" y2="6400.83" gradientTransform="translate(0 6400.83) scale(1 -1)" gradientUnits="userSpaceOnUse">
      <stop offset="0" stop-color="#e4782b"/>
      <stop offset=".51" stop-color="#e36c2b"/>
      <stop offset=".73" stop-color="#e3662b"/>
    </linearGradient>
  </defs>
  <path id="Bottom_of_Value_Proposition_Background" data-name="Bottom of Value Proposition Background" class="cls-1" d="M962.91.07C643.07.07,323.22.07,3.37,0,.56,0-.2.62-.08,3.45c.26,5.61.08,11.24.08,16.86v158.17c34.42,1.51,68.87.73,103.3.6,17.94-.07,35.89-.87,53.83-1.51,12.57-.45,25.16-.61,37.72-1.36,17.15-1.02,34.3-1.95,51.45-3.03,14.28-.9,28.58-1.68,42.81-3.05,14.98-1.45,29.98-2.72,44.96-4.06,9.29-.83,18.61-1.67,27.85-2.77,11.72-1.39,23.56-1.73,35.18-3.97,3.03-.58,6.22-.32,9.33-.44.04-.16.09-.31.14-.45-.05.14-.1.29-.14.45.5-.23,1.01-.45,1.51-.68,6.07.35,11.87-2.49,17.99-1.58.62.03,1.13-.18,1.5-.7,5.04-.12,9.88-2.21,15-1.54h0c.5-.23,1-.46,1.51-.69-.12-.11-.24-.19-.34-.25.1.06.22.14.34.25,1.75-.03,3.5-.05,5.24-.08,1.11.13,2.02-.08,2.31-1.36,2.98-.04,5.96-.08,8.94-.12.5-.23,1.01-.45,1.51-.68,1.25-.24,2.5-.48,3.76-.72.51.61,1.01.61,1.5-.03-.06-.08-.13-.15-.19-.2.06.06.13.13.19.2,2.75-.26,5.49-.53,8.24-.79.04-.16.08-.31.13-.45-.05.14-.09.29-.13.45.5-.23,1.01-.47,1.51-.7,7.17-1.46,14.46-1.84,21.74-2.34.92,0,1.39-.51,1.55-1.37.49,0,.97,0,1.46-.02.76.79,1.51.8,2.24-.04,1.25-.02,2.5-.04,3.74-.06.85.09,1.66.05,2.25-.69.75-.02,1.49-.04,2.24-.06,1.36-.16,2.68-.46,3.78-1.37,2-.03,3.99-.06,5.99-.09,2.85-1.36,6.44.34,9.02-2.18.75,0,1.5-.02,2.24-.02,1.76-.2,3.65.54,5.25-.77,1.5-.25,3-.5,4.5-.74,10.08-1.51,20.15-3.07,30.24-4.5,12.31-1.75,24.53-4.07,36.92-5.28,7.05-.69,14.05-1.83,21.08-2.7,9.01-1.11,18.02-2.19,27.04-3.21,8.89-1.01,17.78-2.17,26.7-2.8,6.58-.46,13.14-1.16,19.71-1.7,12.27-1.01,24.53-2.25,36.82-2.83,8.46-.4,16.89-1.01,25.34-1.57,14.04-.92,28.14-.87,42.19-1.72,19.55-1.17,39.12-1.38,58.69-1.46,15.19-.07,30.37-1.11,45.56-.67,16.52.48,33.03.77,49.55.71.04-1.37.12-2.74.12-4.11,0-35.85,0-71.71,0-107.56Z"/>
</svg>