<?xml version="1.0" encoding="utf-8"?>
<!-- Generator: Adobe Illustrator 27.9.2, SVG Export Plug-In . SVG Version: 6.00 Build 0)  -->
<svg version="1.1" id="Layer_1" xmlns="http://www.w3.org/2000/svg" xmlns:xlink="http://www.w3.org/1999/xlink" x="0px" y="0px"
	 viewBox="0 0 963 189.64" style="enable-background:new 0 0 963 189.64;" xml:space="preserve">
<style type="text/css">
	.st0{fill:url(#Top_of_Value_Proposition_Background_00000173841569391320681760000002221249810002277536_);}
</style>
<linearGradient id="Top_of_Value_Proposition_Background_00000070079412762938073030000017217280679937028234_" gradientUnits="userSpaceOnUse" x1="481.4589" y1="12.4623" x2="481.4589" y2="191.8571">
	<stop  offset="0" style="stop-color:#F8D99C"/>
	<stop  offset="0.1507" style="stop-color:#F7D493"/>
	<stop  offset="0.4188" style="stop-color:#F4C77A"/>
	<stop  offset="0.7337" style="stop-color:#F0B655"/>
</linearGradient>
<path id="Top_of_Value_Proposition_Background_00000155143044260888007230000004609896152093914303_" style="fill:url(#Top_of_Value_Proposition_Background_00000070079412762938073030000017217280679937028234_);" d="
	M964.51,84.22c0-1.37-0.08-2.74-0.12-4.11c-16.58-0.06-33.14,0.24-49.71,0.71c-15.24,0.44-30.47-0.61-45.71-0.67
	c-19.64-0.08-39.26-0.29-58.88-1.46c-15.1-0.9-30.27-0.78-45.35-1.93c-6.81-0.52-13.62-0.99-20.45-1.27
	c-12.98-0.54-25.93-1.85-38.88-2.91c-6.59-0.54-13.17-1.24-19.77-1.7c-8.95-0.63-17.87-1.79-26.79-2.8
	c-9.05-1.02-18.09-2.1-27.12-3.21c-7.05-0.87-14.08-2.02-21.14-2.7c-12.43-1.21-24.69-3.52-37.04-5.28
	c-9.8-1.39-19.58-2.9-29.37-4.36c-1.78-0.4-4.67-1.05-6.45-1.44c-1.37-0.5-2.87-0.06-4.29-0.21c-0.75-0.01-1.5-0.02-2.25-0.02
	c-2.58-2.52-6.18-0.81-9.05-2.18c-2-0.03-4-0.06-6.01-0.09c-1.1-0.9-2.42-1.2-3.79-1.37c-0.75-0.02-1.5-0.04-2.24-0.06
	c-0.6-0.74-1.41-0.78-2.26-0.69c-1.25-0.02-2.5-0.04-3.76-0.06c-0.75-0.87-1.52-0.83-2.31,0.02c-0.64-0.13-0.81-0.16-1.46-0.29
	c-0.2-0.73-0.67-1.15-1.51-1.15c-7.3-0.5-14.61-0.88-21.81-2.34c-0.5-0.23-1.01-0.47-1.51-0.7c0.04,0.16,0.08,0.31,0.13,0.45
	c-0.05-0.14-0.09-0.29-0.13-0.45c-2.76-0.26-5.51-0.53-8.27-0.79c-0.06,0.08-0.13,0.15-0.19,0.2c0.06-0.06,0.13-0.13,0.19-0.2
	c-0.32-0.42-0.65-0.57-0.98-0.44c-1.37-0.14-3.35-0.36-4.72-0.5c-0.36-0.16-0.72-0.32-1.08-0.49c-2.99-0.04-5.98-0.08-8.97-0.12
	c-0.28-1.28-1.2-1.49-2.31-1.36c-1.75-0.03-3.51-0.05-5.26-0.08c-0.12,0.11-0.24,0.19-0.34,0.25c0.1-0.06,0.22-0.14,0.34-0.25
	c-0.5-0.23-1.01-0.46-1.51-0.69v0c-5.14,0.66-9.99-1.42-15.05-1.54c-0.37-0.52-0.88-0.72-1.51-0.7c-6.14,0.91-11.95-1.93-18.05-1.58
	c-0.5-0.23-1.01-0.45-1.51-0.68c0.04,0.16,0.09,0.31,0.14,0.45c-0.05-0.14-0.1-0.29-0.14-0.45c-3.12-0.12-6.32,0.14-9.36-0.44
	c-11.67-2.24-23.54-2.58-35.3-3.97c-9.27-1.1-18.62-1.94-27.94-2.77c-15.03-1.33-30.08-2.61-45.11-4.06
	c-14.28-1.37-28.63-2.15-42.95-3.05c-17.2-1.08-34.41-2.01-51.61-3.03c-12.6-0.75-25.23-0.91-37.85-1.36
	c-17.99-0.64-36.01-1.44-54.01-1.51c-34.54-0.13-69.1-0.91-103.63,0.6c0,51.47,0,102.95,0,154.42c0,0.75,0,1.5,0,2.25
	c0,0.5,0,1,0,1.5c0,5.62,0.18,11.25-0.08,16.86c-0.13,2.83,0.64,3.45,3.46,3.45c320.88-0.07,641.76-0.07,962.63-0.07
	C964.51,155.93,964.51,120.08,964.51,84.22z"/>
</svg>
