<?xml version="1.0" encoding="utf-8"?>
<!-- Generator: Adobe Illustrator 27.9.2, SVG Export Plug-In . SVG Version: 6.00 Build 0)  -->
<svg version="1.1" id="Layer_1" xmlns="http://www.w3.org/2000/svg" xmlns:xlink="http://www.w3.org/1999/xlink" x="0px" y="0px"
	 viewBox="0 0 962.91 191.95" style="enable-background:new 0 0 962.91 191.95;" xml:space="preserve">
<style type="text/css">
	.st0{fill:url(#Top_of_Value_Proposition_Background_00000074434716128974759890000003819977426213988509_);}
</style>
<linearGradient id="Top_of_Value_Proposition_Background_00000137114296223864075650000000974949153728691848_" gradientUnits="userSpaceOnUse" x1="481.8538" y1="-11820.0713" x2="481.8538" y2="-11636.7148" gradientTransform="matrix(1 0 0 -1 0 -11640.6768)">
	<stop  offset="0" style="stop-color:#F8D99C"/>
	<stop  offset="0.1507" style="stop-color:#F7D493"/>
	<stop  offset="0.4188" style="stop-color:#F4C77A"/>
	<stop  offset="0.7337" style="stop-color:#F0B655"/>
</linearGradient>
<path id="Top_of_Value_Proposition_Background_00000059293527156623166670000009013119102224179854_" style="fill:url(#Top_of_Value_Proposition_Background_00000137114296223864075650000000974949153728691848_);" d="
	M967.2-3.89c-322.4,0-644.81,0-967.21-0.07c-2.83,0-3.61,0.63-3.48,3.52C-3.23,5.3-3.41,11.05-3.41,16.8c0,0.51,0,1.02,0,1.53
	c0,0.77,0,1.53,0,2.3c0,52.61,0,105.22,0,157.83c34.7,1.55,69.42,0.75,104.12,0.61c18.08-0.07,36.18-0.89,54.26-1.54
	c12.67-0.46,25.36-0.63,38.03-1.39c17.29-1.04,34.58-1.99,51.86-3.1c14.39-0.92,28.81-1.71,43.16-3.12
	c15.1-1.48,30.22-2.79,45.32-4.15c9.37-0.84,18.76-1.71,28.07-2.83c11.81-1.42,23.74-1.76,35.47-4.06c3.05-0.6,6.27-0.32,9.4-0.45
	c0.04-0.16,0.09-0.32,0.14-0.46c-0.05,0.14-0.1,0.3-0.14,0.46c0.51-0.23,1.01-0.46,1.52-0.69c6.12,0.36,11.96-2.54,18.13-1.62
	c0.63,0.03,1.14-0.18,1.51-0.71c5.08-0.12,9.96-2.25,15.12-1.58v0c0.51-0.24,1.01-0.47,1.52-0.7c-0.13-0.11-0.24-0.19-0.34-0.25
	c0.1,0.06,0.22,0.14,0.34,0.25c1.76-0.03,3.52-0.05,5.29-0.08c1.12,0.13,2.04-0.09,2.33-1.39c3-0.04,6.01-0.08,9.01-0.13
	c0.36-0.17,0.72-0.33,1.09-0.5c1.37-0.15,3.37-0.36,4.74-0.51c0.33,0.13,0.66-0.02,0.98-0.45c-0.06-0.08-0.13-0.15-0.19-0.21
	c0.06,0.06,0.13,0.13,0.19,0.21c2.77-0.27,5.54-0.54,8.31-0.81c0.04-0.16,0.08-0.32,0.13-0.46c-0.05,0.14-0.09,0.3-0.13,0.46
	c0.51-0.24,1.01-0.48,1.52-0.72c7.23-1.5,14.58-1.88,21.91-2.39c0.85,0,1.32-0.43,1.52-1.18c0.65-0.13,0.82-0.17,1.46-0.3
	c0.79,0.87,1.56,0.9,2.32,0.02c1.26-0.02,2.52-0.04,3.77-0.07c0.86,0.09,1.67,0.05,2.27-0.7c0.75-0.02,1.5-0.04,2.25-0.06
	c1.38-0.17,2.7-0.47,3.81-1.4c2.01-0.03,4.02-0.06,6.03-0.09c2.87-1.39,6.49,0.35,9.09-2.23c0.75-0.01,1.51-0.02,2.26-0.03
	c1.42-0.16,2.94,0.29,4.31-0.22c1.79-0.41,4.7-1.07,6.49-1.48c9.84-1.49,19.66-3.04,29.51-4.46c12.41-1.79,24.73-4.16,37.22-5.39
	c7.1-0.7,14.16-1.87,21.24-2.76c9.08-1.14,18.16-2.24,27.25-3.28c8.96-1.03,17.92-2.22,26.92-2.86c6.64-0.47,13.24-1.18,19.86-1.74
	c13.02-1.09,26.02-2.43,39.07-2.98c6.86-0.29,13.7-0.77,20.54-1.3c15.16-1.17,30.39-1.05,45.57-1.97c19.71-1.2,39.43-1.41,59.16-1.5
	c15.31-0.07,30.61-1.13,45.93-0.69c16.65,0.49,33.3,0.79,49.95,0.73c0.04-1.4,0.12-2.8,0.12-4.2C967.2,69.4,967.2,32.76,967.2-3.89z
	"/>
</svg>
