<svg width="90" height="67" viewBox="0 0 90 67" fill="none" xmlns="http://www.w3.org/2000/svg">
<path d="M44.8541 6.10935C31.7291 6.10935 18.6093 6.11977 5.48426 6.09373C3.21343 6.08852 0.218633 6.54685 0.067592 3.28122C-0.104283 -0.442734 3.09884 0.0260157 5.52593 0.0208077C31.7707 -0.00523365 58.0155 -2.59811e-05 84.2603 0.0155994C86.5311 0.0208074 89.5259 -0.432318 89.677 2.83331C89.8489 6.55206 86.6509 6.08331 84.2186 6.09373C71.0988 6.12498 57.9738 6.10935 44.8541 6.10935ZM44.7655 36.0937C31.8072 36.0937 18.8541 36.1198 5.90093 36.0677C3.53113 36.0625 0.22905 36.7916 0.083217 33.1771C-0.0678243 29.4791 3.20822 30.0104 5.61968 30.0052C31.8645 29.9791 58.1041 29.9844 84.3488 30C86.6301 30.0052 89.6145 29.6041 89.6822 32.901C89.7551 36.6146 86.5416 36.0677 84.1301 36.0729C71.0103 36.1146 57.8853 36.0937 44.7655 36.0937ZM45.3853 59.9739C58.3384 59.9739 71.2916 59.9583 84.2499 59.9844C86.5207 59.9896 89.5155 59.5312 89.677 62.7916C89.8593 66.5104 86.6613 66.0573 84.2291 66.0625C57.9843 66.0833 31.7395 66.0833 5.49988 66.0625C3.22384 66.0625 0.229051 66.5208 0.067592 63.2552C-0.109491 59.5364 3.08843 59.9948 5.52072 59.9896C18.8072 59.9583 32.0936 59.9739 45.3853 59.9739Z" fill="#E3652E"/>
</svg>
