<?xml version="1.0" encoding="UTF-8"?>
<svg id="Layer_1" data-name="Layer 1" xmlns="http://www.w3.org/2000/svg" viewBox="0 0 720.15 720.91">
  <defs>
    <style>
      .cls-1 {
        stroke-width: 0px;
      }
    </style>
  </defs>
  <path class="cls-1" d="M365.59,0c63.93,1.38,123.61,17.27,178.37,50.49,42.66,25.88,78.64,59.16,108.55,99.1,28.01,37.4,48.13,78.53,59.34,123.94,5.48,22.21,8.45,44.74,8.3,67.67-.34,49.71-8.61,98-26.13,144.58-20.87,55.52-52.57,103.96-96.52,143.9-51.54,46.83-111.88,76.05-180.77,86.63-86.57,13.29-168.03-2.05-243.04-47.42-72.89-44.09-123.66-106.86-152.87-186.98-8.81-24.16-14.72-49.06-18.01-74.5-3.21-24.81-3.5-49.74-1.68-74.75,3.83-52.83,18.68-102.33,44.63-148.37,32.29-57.29,77.02-102.5,133.98-135.51C222.26,24.11,267.96,8.83,316.76,3.2c16.18-1.87,32.55-2.18,48.83-3.2ZM141.11,86.08c.29.37.58.75.88,1.12,1.2-.5,2.43-.91,3.59-1.5,31.17-15.76,64.11-22.07,98.83-18.02,62.8,7.34,109.08,39.66,139.05,94.72,18.08,33.22,23.71,69.24,18.18,106.9-3.96,26.99-13.17,51.89-28.95,74.16-8.47,11.95-18.24,23-26.31,35.19-26.17,39.5-35.22,82.67-26.93,129.54,8.4,47.52,32.63,84.87,71.19,113.31,1.34.99,2.83,1.78,5.49,3.44-1.99-7.42,1.27-11.58,4.85-15.68,8.11-9.27,18.99-14.51,29.58-20.04,3.55-1.85,7.94-2.45,12.02-2.85,6.46-.62,9.18,3.22,6.27,9.03-1.74,3.48-4.28,6.82-7.2,9.39-12.16,10.71-24.94,20.42-43.4,21.51,2.61,1.82,4.21,3.13,5.98,4.15,45.78,26.51,94.05,31.65,144.51,16.34,15.7-4.76,30.9-11.2,43.3-22.16,20.26-17.91,38.53-37.71,54.16-59.91,39.13-55.55,61.17-117.16,64.94-184.97,2.16-38.77-1.84-77.1-12.72-114.52-25.64-88.17-77.56-156.52-155.75-204.53C475.47,19.46,402.15,3.56,323.88,11.35c-59.68,5.94-114.34,26.31-163.73,60.46-6.52,4.51-12.7,9.5-19.04,14.26ZM181.18,377.47c-.69.98-1.36,1.83-1.92,2.74-4.31,7.06-9.42,13.78-12.72,21.29-7.66,17.42-12.79,35.65-14.96,54.66-1.69,14.81-1.8,29.53,1.34,44.17,1.46,6.81,4.78,12.28,11.09,15.85,1.22.69,2,3.06,2.07,4.7.5,10.76-.34,21.71,1.41,32.24,1.7,10.19,5.28,20.25,9.35,29.8,3.15,7.39,11,8.88,16.49,3.5,3.6-3.53,6.91-8.53,7.84-13.36,1.53-7.92,1.69-16.27,1.23-24.37-.87-15.21-3.03-30.21-13.48-42.55-.78-.92-.46-3.41.17-4.8,2.26-5,5.14-9.72,7.3-14.76,8.78-20.52,14.39-41.92,15.19-64.25.37-10.23-.69-20.58-1.99-30.77-.6-4.74-3.31-9.22-5.19-14.14h36.04c-1.21,9.03-3.14,17.52-3.27,26.04-.14,8.92,1.16,17.91,2.34,26.8,3.08,23.19,10.02,45.17,22.15,65.26,4.12,6.82,9.3,13.01,17.76,15.3,1.06.29,2.12,3.47,1.9,5.14-1.76,13.64-2.18,27.27,1.43,40.62,2.5,9.25,6.07,18.21,9.25,27.54-5.35,4.75-5.7,4.96-2.1,12.6,5.63,11.96,14.45,21.52,24.6,29.8,4.1,3.35,8.47,6.57,13.2,8.86,2.28,1.1,6.36.9,8.32-.52,1.63-1.18,2.48-5.39,1.71-7.56-1.79-5.04-4.1-10.18-7.39-14.34-6.16-7.79-13.17-14.91-19.05-21.45,2.27-5.36,5-9.68,5.94-14.37,4.59-22.96-.12-44.68-10.57-65.19-1.86-3.66-6.02-6.55-9.74-8.73-2.73-1.6-3.27-2.64-2.72-5.68,1.32-7.33,2.98-14.8,2.75-22.16-.35-11.07-1.43-22.25-3.56-33.12-4.48-22.86-11.32-44.93-26.55-63.38-.36-.44-.36-1.17-.66-2.2,6.35.69,6.31-3.2,6.19-7.54-.19-6.83-.34-13.68.13-20.49.15-2.2,1.77-5.36,3.6-6.23,17.66-8.4,32.3-20.39,44.51-35.59,1.34-1.67,4.12-2.79,6.35-3.04,7.93-.89,11.98-4.09,13.92-11.92,2.37-9.56,1.64-19.12.1-28.71-3.42-21.26-11.01-40.77-24.37-57.8-2.52-3.21-5.45-5.89-2.03-10.55h-172.72c2.62,4.38-.14,5.42-2.84,7.23-4.23,2.83-8.57,5.96-11.73,9.87-11.25,13.95-18.22,30.15-22.93,47.31-3.65,13.31-5.42,26.73-.78,40.28,1.34,3.92,3.8,6.3,7.55,8.05,2.86,1.33,5.72,3.38,7.68,5.83,11.05,13.79,24.23,25.23,40.71,31.35,10.99,4.08,15.42,9.56,13.87,21.3-1.16,8.78-.23,8.9,7.74,11.41ZM228.79,104.16c-9.22-.07-16.8,3.56-22.89,10.37-13.3,14.88-14.84,42.37-3.35,58.73,14.46,20.58,39.93,19.79,53.11-1.69,6.97-11.37,8.08-23.71,5.77-36.59-3.32-18.56-16.31-30.84-32.64-30.82ZM137.29,625.13c15.67-1.78,30.04-7.61,43.3-16.27,2.13-1.39,3.78-3.75,5.18-5.96,3.92-6.16,2.12-10.83-4.91-12.76-1.87-.51-4.05-.74-5.9-.29-9.34,2.28-18.84,4.19-27.84,7.47-7.87,2.87-15.92,6.23-20.82,13.89-4.28,6.7-2.09,11.79,5.78,13.39,1.62.33,3.3.34,5.19.53Z"/>
  <path class="cls-1" d="M597.37,275.58c-6.84,2.03-12.83.28-18.12-3.34-4.78-3.28-8.74-7.78-13.56-10.98-4.05-2.69-8.66-4.97-13.34-6.16-3.72-.95-4.67-2.21-3.98-5.7,2.53-12.88,5.41-25.72,7.22-38.71,1.48-10.6,1.63-21.39,2.36-32.1l-2.64-.4c-.44,2.4-1.15,4.78-1.29,7.2-.8,14.67-5.2,27.85-16.23,38.03-9.23,8.52-20.01,13.3-32.88,10.85-11.98-2.28-20.64-12.46-22.26-24.56-1.7-12.68-.58-24.94,4.32-36.7,5.15-12.37,14.76-19.81,27.55-23.32,1.39-.38,2.79-.73,4.18-1.09-1.84-7.2-2.47-7.77-9.08-6.99-22.34,2.64-44.54,2.89-66.35-3.75-.58-.18-1.25-.02-2.75-.02.63,2.06,1.01,3.74,1.65,5.3,6.95,16.99,10.3,34.73,11.03,52.99.23,5.58,2.13,9.88,6.86,13.07,23.47,15.85,46.33,32.68,70.52,47.32,11.42,6.91,21.21,15.38,31.37,23.58,9.31,7.52,14.02,18.48,19.26,28.87,2.69,5.34,4.78,10.99,7.19,16.48.64,1.45,1.44,2.83,2.37,4.65,4.1-2.66,7.56-5.25,11.32-7.26,4.67-2.5,9.62-4.47,14.39-6.79,2.06-1,4.14-2.11,5.93-3.53,6.02-4.75,12.86-5.62,19.84-3.52,2.51.76,5.49,3.37,6.27,5.78,1.86,5.75,3.22,11.84,3.51,17.86.3,6.26-4.92,10.02-11.12,8.77-3.73-.75-7.45-1.89-10.94-3.38-3.4-1.45-5.62-.97-8.27,1.77-6.01,6.22-12.18,12.35-18.83,17.87-12.39,10.28-22.03,9.55-33.21-1.92-18.92-19.42-32.05-42.01-37.16-68.87-.78-4.1-2.58-4.4-5.86-2.58-21.84,12.11-43.85,23.93-65.53,36.3-11.66,6.65-11.1,4.24-6.32,18.07,4.95,14.32,10.36,28.48,15.28,42.81,1.83,5.34,5.06,8.94,9.65,12.17,22.39,15.77,37.98,37.05,48.6,62.06,1.58,3.72,1.96,8.07,2.27,12.17.18,2.36-.07,5.76-1.55,7.05-4.85,4.22-2.39,8.05-1.5,12.97,1.35,7.49,1.14,15.55,0,23.13-2.83,18.65-10.03,35.79-20.21,51.68-6.87,10.72-10.31,13.81-21.65,18.69,1.74,3.92,3.74,7.76,5.17,11.79,2.55,7.18,4.82,14.46,7.05,21.74.47,1.54.45,3.32.29,4.95-.59,6.04-5.61,8.48-10.19,4.55-3.47-2.97-6.93-6.52-8.91-10.55-4.97-10.09-9.91-20.34-13.34-31.01-3.41-10.59.52-14.56,10.69-12.71,1.88-34.23,12.43-64.93,36.38-90.13-6.98-4.76-14.17-9.82-21.51-14.65-19.35-12.71-31.35-30.66-36.73-52.86-1.87-7.74-5.87-11.04-13.29-12.11-6.57-.95-13.02-2.8-19.53-4.19-1.56-.33-3.18-.44-5.76-.77,1.28,2.1,1.95,3.37,2.78,4.53,12.68,17.53,17.31,37.3,15.6,58.55-.37,4.6-3.4,8.94-4.81,13.53-.67,2.18-1.32,5.15-.38,6.92,7.44,14.04,9.56,29.39,11.08,44.78,1.46,14.75,1.94,29.6-.93,44.29-.69,3.56-1.74,7.18-3.36,10.41-3.93,7.83-11.58,8.6-17.36,2.05-7.46-8.46-10.71-18.93-12.31-29.59-3.33-22.3-4.05-44.7,1.07-66.98.39-1.68-.79-4.67-2.21-5.66-21.03-14.71-27.67-36.24-28.56-60.3-.4-10.67,1.65-20.95,10.1-28.99-.97-1.16-1.78-2.13-2.88-3.45,1.17-1.35,2.27-2.76,3.52-4.03,14.36-14.62,28.73-29.21,43.11-43.81,1.99-2.02,4.46-3.73,5.89-6.08,1.8-2.98,3.66-6.4,3.95-9.76,1.76-20.88,3.1-41.8,4.56-62.71.16-2.33.33-4.66.36-6.99.13-7.78-.14-7.23-6.88-10.25-3.68-1.65-7.12-5.05-9.35-8.51-7.9-12.24-10.9-26.37-14.26-40.28-4.22-17.44-5.7-35.16-3.7-53.02.54-4.86,1.99-9.8,3.97-14.28,2.26-5.1,6.24-6.21,11.63-4.78,1.43.38,3.93.66,4.46-.08,5.61-7.8,14.14-9.14,22.56-10.14,20.37-2.41,40.6-1.61,60.25,4.87,5.34,1.76,10.19,4.15,16.23,3.96,5.47-.17,8.63,4.64,10.61,9.39,2.94,7.06,1.73,13.98-2.29,21.13,5.99,1.44,10.93.65,15.43-2.66,11.08-8.15,21.52-6.19,29.11,5.49,4.78,7.35,6.8,15.38,6.67,24.15-.23,15.99-.55,32-.11,47.98.44,15.97,2.01,31.87,7.1,47.2.3.91.43,1.87.73,3.25Z"/>
  <path class="cls-1" d="M162.74,233.04c17.37,29.02,34.56,57.75,52.3,87.39-2.39.42-3.88.89-5.37.91-9.32.08-18.66.28-27.97-.07-2.54-.1-5.57-1.38-7.44-3.12-9.55-8.96-19.97-16.6-31.92-21.97-3.97-1.78-3.67-3.58-1.65-6.79,9.85-15.65,16.9-32.4,19.46-50.86.18-1.3.67-2.58,1.11-3.83.15-.41.61-.71,1.47-1.66Z"/>
  <path class="cls-1" d="M229.82,321.29c18.9-27.54,36.85-53.71,55.56-80.97,1,2.56,1.55,3.97,2.09,5.38,4.77,12.39,9.37,24.86,14.42,37.13,1.39,3.38,1.23,5-2.19,6.56-15.05,6.84-28.26,16.2-39.02,28.89-1.12,1.32-2.93,2.82-4.47,2.87-8.25.28-16.51.13-26.39.13Z"/>
</svg>