<?xml version="1.0" encoding="UTF-8"?>
<svg id="Layer_1" data-name="Layer 1" xmlns="http://www.w3.org/2000/svg" xmlns:xlink="http://www.w3.org/1999/xlink" version="1.1" viewBox="0 0 962.91 190.49">
  <defs>
    <style>
      .cls-1 {
        fill: url(#linear-gradient);
        stroke-width: 0px;
      }
    </style>
    <linearGradient id="linear-gradient" x1="481.64" y1="6222.83" x2="481.64" y2="6401.51" gradientTransform="translate(0 6400.83) scale(1 -1)" gradientUnits="userSpaceOnUse">
      <stop offset="0" stop-color="#e4782b"/>
      <stop offset=".51" stop-color="#e36c2b"/>
      <stop offset=".73" stop-color="#e3662b"/>
    </linearGradient>
  </defs>
  <path id="Bottom_of_Value_Proposition_Background" data-name="Bottom of Value Proposition Background" class="cls-1" d="M964.18-.62c-320.53,0-641.06,0-961.59-.07-2.82,0-3.59.61-3.46,3.43.26,5.59.08,11.2.08,16.8v157.53c34.5,1.51,69.01.73,103.52.6,17.98-.07,35.97-.86,53.95-1.5,12.6-.45,25.21-.61,37.8-1.35,17.19-1.01,34.38-1.94,51.56-3.02,14.31-.9,28.64-1.67,42.91-3.04,15.01-1.44,30.04-2.71,45.06-4.04,9.31-.82,18.65-1.67,27.91-2.76,11.74-1.39,23.61-1.72,35.26-3.95,3.03-.58,6.23-.32,9.35-.44.04-.16.09-.31.14-.45-.05.14-.1.29-.14.45.5-.23,1.01-.45,1.51-.68,6.09.35,11.89-2.48,18.03-1.57.62.03,1.14-.18,1.51-.69,5.05-.12,9.9-2.2,15.03-1.54h0c.5-.23,1.01-.46,1.51-.69-.12-.1-.24-.19-.34-.25.1.06.22.14.34.25,1.75-.03,3.5-.05,5.25-.08,1.11.13,2.03-.08,2.31-1.36,2.99-.04,5.97-.08,8.96-.12.5-.23,1.01-.45,1.51-.68,1.25-.24,2.51-.48,3.76-.72.51.61,1.01.61,1.5-.03-.06-.08-.13-.15-.19-.2.06.06.13.13.19.2,2.75-.26,5.51-.53,8.26-.79.04-.16.08-.31.13-.45-.05.14-.09.29-.13.45.5-.23,1.01-.47,1.51-.7,7.19-1.46,14.49-1.83,21.78-2.33.92,0,1.39-.5,1.56-1.36.49,0,.98,0,1.46-.02.76.79,1.51.8,2.25-.04,1.25-.02,2.5-.04,3.75-.06.85.09,1.66.05,2.26-.69.75-.02,1.49-.04,2.24-.06,1.37-.16,2.69-.46,3.78-1.36,2-.03,4-.06,6-.09,2.86-1.36,6.46.34,9.04-2.17.75,0,1.5-.02,2.25-.02,1.76-.2,3.66.53,5.26-.77,1.5-.25,3-.49,4.51-.74,10.1-1.5,20.19-3.06,30.3-4.49,12.33-1.74,24.58-4.05,37-5.26,7.06-.68,14.08-1.83,21.12-2.69,9.03-1.11,18.06-2.18,27.1-3.2,8.91-1,17.82-2.16,26.76-2.79,6.6-.46,13.16-1.15,19.75-1.69,12.29-1.01,24.58-2.24,36.9-2.82,8.48-.4,16.93-1.01,25.39-1.56,14.07-.92,28.2-.87,42.28-1.71,19.6-1.17,39.2-1.37,58.82-1.46,15.22-.07,30.43-1.1,45.66-.67,16.55.47,33.1.77,49.66.71.04-1.37.12-2.73.12-4.1,0-35.71,0-71.42,0-107.13Z"/>
</svg>