<?xml version="1.0" encoding="UTF-8"?>
<svg id="Layer_1" data-name="Layer 1" xmlns="http://www.w3.org/2000/svg" version="1.1" viewBox="0 0 424 533">
  <defs>
    <style>
      .cls-1 {
        fill: #1f1f1f;
      }

      .cls-1, .cls-2, .cls-3, .cls-4, .cls-5, .cls-6, .cls-7, .cls-8, .cls-9, .cls-10 {
        stroke-width: 0px;
      }

      .cls-2 {
        fill: #070707;
      }

      .cls-3 {
        fill: #1f2020;
      }

      .cls-4 {
        fill: #000;
      }

      .cls-5 {
        fill: #575046;
      }

      .cls-6 {
        fill: #0c0c0c;
      }

      .cls-7 {
        fill: #171717;
      }

      .cls-8 {
        fill: #363431;
      }

      .cls-9 {
        fill: #fff;
      }

      .cls-10 {
        fill: #6b655e;
      }
    </style>
  </defs>
  <g id="Kali">
    <path class="cls-2" d="M348.51,273.04c-.41-1.33-.81-2.66-1.55-5.1-3.25,6.42-6.06,11.99-8.88,17.56-.11-5.1.83-10.03.44-14.99-.08-1.02,1.94-4.5-2.21-3.08-.8.27-.46-.79-.51-1.24-.35-3.09-.78-6.18-.93-9.28-.17-3.7-3.94-5.9-3.8-9.87.03-.89-1.66-1.64.5-2.26,1.7-.48.85-1.95.6-2.87-.96-3.53-2.47-6.82-5.04-10.32-1.13,4.18.16,7.34,1.58,10.36-1.5,1.34-2.33-1.3-3.38-.4-1.04.89-.59,2.39-.66,3.64-.1,1.56-.18,3.13-.27,4.69-.45,0-.9-.02-1.35-.03.3-5.08-2.35-9.92-1.19-15.1.35-1.58-1.37-2.32-2.2-3.4h-.09c1.09-1.1,1.83.08,2.71.39.53.63,1.11,1.28,2.02.88.24-.11.28-.67.41-1.03-.6-.22-1.19-.44-1.79-.66-1.72-7.5-3.8-14.76-9.13-20.74-3.75-4.21-7.22-8.55-11.64-12.21-2.84-2.34-3.68-6.63-6.14-9.64-7.49-9.14-16.52-16.51-26.21-23.11-3.98-2.71-8.31-4.91-12.48-7.34.15-.19.31-.38.47-.56,3.44-1.97,6.49-.52,9.53,1.08,2.06,1.08,3.96,2.74,7.11,2.31-2.1-3.46-5.37-4.55-8.2-6.2-.63-.37-2.85-.16-1.35-1.21,1.29-.91-.1-4.53,3.1-3.06,1.93.89,3.81,1.9,5.78,2.71.71.29,1.81.6,2.23-.36.19-.45-.25-1.66-.67-1.82-4.38-1.68-6.8-6.56-11.8-7.22-.48-.06-1.81.79-1.49-.95.43-2.3-1.89-2.94-2.95-2.79-4.3.61-6.39-2.51-9.06-4.7,0-.7.17-1.32.84-1.69,2.45.59,4.9,1.21,7.35,1.77.84.19,1.8.27,2.17-.72.49-1.28-.46-1.65-1.46-2.03-1.57-.6-3.08-1.36-4.61-2.04,3.13-3.07,7.15-4.87,10.6-7.48,1.25-.95,3.3-1.36,3.09-3.61,1.97-.23,1.93-1.59,1.7-3.05,4.3,1.55,8.01,4.23,12.04,6.29,1.01.52,2.39,3.19,3.65-.01.18-.46,1.38-.24,1.42.77.08,2.35,2.31,2.35,3.24,1.96,2-.83.17-2.38-.39-3.57,1.97-.5,2.97.98,4.36,1.07-.79-5.64-15.92-18.76-22.64-19.51.05-1.03,2.04-1.23,1.21-2.56-.65-1.05-1.67-.51-2.26-.14-3.51,2.25-6.27.34-8.86-1.65-6.7-5.14-14.37-8.32-21.95-11.85-5.24-2.44-10.46-5-15.64-7.55-4.2-2.07-8.15-1.59-12.4-2.22.43,2.07,2.7,1.25,3.36,3.28-6.59-1.02-12.95-1.77-19.76-4.23,3.8-.72,7.24.41,10.35-1.78-8.8-2.11-17.57-3.07-26.36-2.86-2.2.05-4.38,2.68-7.24,1.43-.13-1.1,1.75-.15,1.68-1.56-4.19-.12-8.36.17-12.51.89,0-.46,0-.92,0-1.39,2.64-.85,5.97.08,8.71-3.92-6.77,2.89-13.07,2.99-18.94,3.75-5.06.65-10.43,1.39-15.67,1.85-2.96.26-5.85,1.2-8.81,1.49-.6.06-1.68,1.96-2.19-.07-.37-1.47.81-1.54,1.77-1.78,6.48-1.63,12.9-3.57,19.45-4.85,19.93-3.9,39.94-3.09,59.94-.53,2.88.37,5.75.73,8.65-.14-11.96-4.72-24.76-3.03-37.13-4.99,5.43-.85,10.86-1.7,16.28-2.55v-1.06c-4.85-.57-9.91.31-14.97-1.61,1.11-.32,1.87-.55,2.85-.83-1.65-1.81-3.28-1.44-4.97-.45-1.96,1.15-5.07,1.88-6.06.68-2.98-3.65-6.08-2.12-9.32-1.32-3.74.92-7.61.16-11.42,1.3-2.43.73-5.34-.21-8.04-.29-.56-.02-1.56.15-1.27,1.13.09.32.89.42,1.37.63-2.71.62-2.56.59-2.94-1.71-.34-2.04-2.13-1.09-3.03-.81-5.29,1.65-10.54,3.47-15.77,5.3-8.15,2.86-16.52,5.14-24.39,8.77-2.8,1.29-2.06-1.17-2.17-2.39-1.37-.02-1.2.82-1.41,1.46-.33,1.02-.36,2.5-1.78,2.52-1.08,0-1.48-1.19-1.8-2.13-.84-2.46-2.02-3.19-4.77-2.05-8.03,3.32-16.3,6.1-23.29,11.5-.46.35-1.42.54-.93,1.53,0,0,.11-.12.11-.12-.88-.25-1.48-.21-1,.96l.12-.12c-1.03-.46-1.35-.15-.99.91l.07-.07c-.96-.36-1.27-.05-.93.91l.08-.07c-.42-.46-.82-.44-1.19.07-.93.53-.71,1.14-.11,1.77-.28.24-.29.48-.01.73l-.21-.17c-2.47-.88-3.47,1.36-4.87,2.47-4.09,3.26-7.28,7.55-11.71,10.62-.41-4.01.96-6.47,5.31-9.14,2.79-1.72,5.6-3.39,7.73-5.94.8-.95,2.08-1.89,1.64-3.23-.44-1.32-2.13.02-2.97-.86,0,0,.06.04.06.04,9.03-5.88,19.81-7.88,29.15-12.6,12.34-6.23,25.26-9.76,38.36-13.09,8.95-2.27,18.13-3.67,27.19-5.52.91-.19,2.62.4,2.39-1.48-.22-1.84-1.62-1.6-2.95-1.35-5.82,1.1-11.83,1.28-17.3,4.07-1.27.65-3.05.3-4.6.41.14-.58-1.33-1.28.33-1.81,1.49-.48,3.2-.87,4.02-2.54.18-.17.37-.33.55-.5-.14-.03-.3-.11-.41-.07-.39.15-.4.38-.05.63-3.45-.36-6.02,1.67-8.76,3.22l-.04.02c-.66-.03-1.28.04-1.59.76-5.66.76-10.17,4.63-15.69,5.8-1.27.27-2.44.7-3.67.03h0c.89.37,1.17-.56,1.76-.84.41-.33.81-.66,1.22-.99-.74-.56-1.23-.26-1.59.47-2.66-1.45.82-1.92.48-2.99.08-.34.15-.68.23-1.02-.34.08-.69.17-1.03.25-2.29.54-5.06,3.16-6.1-1.56-.17-.78-1.26-.13-1.81.13-5.77,2.74-12.31,4.61-16.99,8.64-2.91,2.5-4.8,3.05-7.98,2.29,19.33-10.86,38.91-21.03,59.92-28.21.95-.33,4.73.14,2.49-3.3-.37-.58.66-.62,1.16-.74,2.48-.61,4.96-1.23,7.44-1.84-.05.31-.1.63-.14.94-1.24,1.54-.05,1.6.95,1.35,2.81-.7,5.68-1.31,8.13-3,2.28.03.54-1.01.43-1.62,18.17-3.61,36.41-6.8,54.94-7.87,2.13-.12,4.28-.03,6.41.04,1.1.04,2.64-.09,2.72,1.39.1,1.8-1.67,1.69-2.84,1.84-1.55.19-3.14.14-4.7.08-8.15-.29-16.22.3-24.98,2.31,15.31,1.83,29.84,3.67,44.22,6.42,19.72,3.77,39.37,7.84,57.51,17,4.48,2.27,8.63,4.99,12.09,8.67.61.64,1.83,1.41.67,2.4-.77.66-2.42.63-2.77-.09-1.48-3.12-4.93-2.89-7.31-4.35-4.01-2.46-8.8-3.64-13.81-4.49,1.49,1.08,2.96,2.18,4.46,3.24,13.12,9.34,26.51,18.33,38.54,29.1,4.54,4.06,9.24,8.01,10.74,14.48.69,2.97,4,3.77,6.23,5.37,1.71,1.23,2.74,2.56,3.52,4.55,2.85,7.3,7.79,13.28,13.3,18.68,2.91,2.85,5.81,5.71,8.57,8.71.37.29.74.58,1.1.87.31-.63.35-1.21-.35-1.62-1.95-5.72-6.46-10.01-8.17-16.07,2.4,2.85,4.8,5.7,7.2,8.55.8,5.11,4.6,8.67,6.4,14.19,1.15-2.93.03-4.76-.67-5.83-1.89-2.87.24-6.86-2.91-9.16-.26-.49-.17-1.35-1.15-1.06l.06-.23c-2.91-10.61-6.93-20.83-12.03-31.46,2.95.74,3.47,2.59,4.17,4.1,8.38,17.93,15.01,36.55,21.33,55.28.4,1.18.73,2.39,1.92,3.62.17-2.05.33-4.1.5-6.15,2.48,10.39,5.57,20.34,12.72,28.45,1.97-2.92-2.51-6.48.44-9.57,1.16.48.98,1.5.98,2.18.08,10.91,5.34,20.18,8.98,30.03,2.6,7.04,7.94,12.56,9.66,19.94,2.53,10.84,4.22,21.82,5.99,32.79.36,2.23.34,4.7,1.9,6.46.9,1.01,1.69,1.67.22,2.5-1.42.81-1.55-.53-1.87-1.46-.12-.35-.44-.63-.66-.92-1.25.75-1.62,1.94-1.23,3.03,1.95,5.46,1.97,11.49.24,16.37-4.88,13.75-2.14,28.07-4.58,41.92-.9,5.13-1.25,10.38-3.46,15.22-.84,1.84-1.8,3.69.25,5.42.21.18.18.65.26.99-5,.8-1.72,2.84-.73,4.61.42.76.46,1.75-.25,2.37-.77.68-1.76.29-2.34-.27-2.44-2.38-4.35-4.52-3.7-8.78.97-6.28,4.59-11.54,5.59-17.69.06-.37.24-.51.81-.44,3.14.39,2.53-2.71,1.98-3.37-1.89-2.29-1.49-4.83-1.41-7.25.15-4.32.88-8.65-1.28-12.72,2.52-.41,2.25-2.54,2.52-4.24,1.06-6.56.93-13.17.75-19.77.02-.99.1-1.99.06-2.98-.09-1.85-.2-3.69-.39-5.53-.08-.82.05-1.41.92-1.6.16-.03.37.17.56.27-.07.11-.12.31-.21.33-1.2.31-1.68-.5-1.49-1.38.28-1.33-1.52-2.17-.64-3.52.5-.77.89-1.75-.43-1.83-1.23-.07-.97,1.2-.9,1.95.47,4.8,1.01,9.6,1.52,14.4-.64,1.33-.12,3.47-1.97,3.9-1.8.42-.66-2.06-1.73-2.47-1.13,2.25,1.41,4.15,1.1,5.55-.61,2.77.89,5.82-1.26,8.43-.53.64-.03,2.62.59,3.61,1.55,2.46,1.69,2.37.54,4.52-2.61.79-2.23-1.91-3.33-2.88-3.24-2.85-3.86-6.44-2.81-10.46-2.45-6.14-1.28-13.29-5.32-19.04-.15,2.25.12,4.45.23,6.66.22,4.16,2.02,7.97,2.58,12.05-2.92,2.2-2.71,5.22-2.35,8.39.49,4.39.4,8.87,1.24,13.18.97,4.95.55,9.87.78,14.8.09,1.86.39,3.73,1.54,5.25,1.91,2.51-1.2,4.17-1.11,6.4,0,.17-2.6.83-3.84.55-.98-.22-.49-1.75-.45-2.68.16-3.66.42-7.31.7-11.99-2.46,3.57-2.47,6.67-2.68,9.88-1.97-3.8-2-6.42,0-9.48,1.02-1.56.92-3.31.95-4.94.29-16.59-1.54-32.97-4.87-49.21-.13-.66-.51-1.26-1.4-1.77.71,7.14,1.46,14.28,2.11,21.42.64,7.09,1.49,14.17,1.21,21.31-.07,1.86-.13,3.7-1.38,5.24-2.52-.99-1.18-3.07-1.27-4.7-.09-1.67.79-3.49-1.53-5.82.09,5.2-.78,9.41.73,13.59.34,3.89-.11,7.8,1.87,11.57.91,1.73,1.17,4.3-1.16,6.22-.87.72-.6,2.83-.93,4.79-1.47-2.19-.93-4.18-1.05-6.14-.16-2.72,1.36-5.93-1.77-8.02-.18-.89-1.05-1.88.39-2.51,1.44-.63,1.48-1.95.68-2.77-2.98-3.08-1.92-6.83-2-10.39-.03-1.49,1.53-2.86.34-4.45-1,.25-.73,2.11-1.93,1.81-1.29-.33-1.59-1.75-1.42-2.81.4-2.39-1.54-1.29-2.29-1.52-1.74-.54-1.02,1.13-1,1.71.04,1.54.09,3.19.65,4.58,2.38,5.9,4.32,11.81,2.21,18.24-.39,2.38-.79,4.75-1.12,6.74-5.03-2.64-5.67-7.63-6.05-12.72-.13-3.19-.49-6.31-2.8-8.92.67,2.96,1.35,5.92,2.02,8.89-.24,11.33.1,22.64.79,33.97-2.06-1.08-2.54-2.83-2.55-4.9-.07-13.22-.42-26.43-1.64-39.61-.21-2.25-.31-4.4-3.34-3.66-1.56.38-1.18-.6-1.32-1.25-1.59-7.78-3.45-15.48-5.86-23.05-.17-.55.07-.73.32-1.03,6.34,3.11,4.9,10.87,9.45,16.24-.11-12.16-4.49-21.85-9.93-31.24.66,3.82-1.08,7.7.48,11.45.3.73.35,1.73-.87,1.96ZM341.24,260.67c.73.26,1.33,1.87,2.12.63.52-.82-.68-1.21-1.49-1.35l-.38-5.41c-1.2,2.11-2.6,4.18-.24,6.13ZM315.39,132.62c-.32-.07-.86-.3-.94-.19-.39.56,0,.9.5,1.14,1.66,2.5,3.21,5.09,6.96,7.12-1.83-3.9-4.13-6.01-6.52-8.06ZM402.45,226.79c-.08,2.72.63,5.19,2.39,7.7.53-2.93-.54-5.3-.95-7.75-.75-3.33-.96-6.83-2.81-9.86-.12,3.4-1.31,6.93,1.37,9.9ZM220.95,35.08c-2.96-2.15-6.18.3-9.35-.63-4.7-1.37-9.63-1.93-14.41-3.06-6.09-1.44-12.21.34-18.34-.27,16.39,3.77,33.22,5.58,49.23,11.25-2.81.13-5.61.27-8.42.4,13.82,4.9,27.7,9.23,41.59,13.53.95.29,2.13.26,2.37,1.44.35,1.75-1.83.57-2.28,1.92,4.4,2.01,8.99,3.64,13.09,6.11,3.97,2.39,7.44,5.63,11.12,8.5.64,4.81,2.84,6.57,5.94,4.79-1.54-2.2-3.65-3.69-6.06-4.79.4-1.4,2.2.35,2.65-1.18-5.66-4.48-11.68-8.41-18.18-12.37,2.1-1.33,2.85.41,3.99.03.41.72.94,1,1.7.48-.36-.37-.72-.75-1.09-1.12-1.68-1.04-3.29-2.2-5.04-3.12-5.76-3.04-11.56-5.98-17.35-8.97-4.69-2.43-10.46-2.33-14.51-6.27-.66-.64-1.96-.42-2.28-1.59,1.07-1.99,3.07,1.48,4.11-.69-3.49-2.91-12.38-5.02-18.48-4.38ZM228.52,55.53c.36-.22.36-.45-.01-.62-.11-.05-.27.03-.4.05.17.17.35.33.52.5-.26.54.12,3.02-1.1,1.02-2.14-3.51-5.75-4.48-8.8-5.11-8.92-1.83-18.11-.96-27.19-1.53,4.36,1.37,8.75,2.48,13.13,3.65,10.72,2.87,21.21,6.43,31.41,10.82,3.33,1.43,7.76,1.04,9.41,5.51.22.6,1.7,1.9,2.19.28.86-2.79,1.75-.85,2.47-.17,1.6,1.5,4.36,4.28,4.76,4.18,5.83-1.41,8.55,4.24,13.12,5.4,1.68.43,3.18,1.77,5.23,1.1-.35-3.42-5.61-1.73-5.38-5.6,3.23.53,5.3,2.25,7.81,4.34,3.95,3.29,9.44,4.72,14.49,7.03-.19-5.34-5.81-5.03-7.66-8.86-1.77-3.66-6.5-5.34-10.28-7.31-3.78-1.97-7.28-4.67-12.09-5.45,1.07,1.66,2.85,1.74,3.53,3.67-2.81-.2-4.82-1.89-7.1-2.73-4.73-1.75-8.88-5.12-14.25-5.05q-3.96-2.67-5.22-.61c-3.24-.79-5.73-3-8.59-4.52ZM400.72,250.15c2.04-1.17,1.68-2.34,1.33-3.66-.55-2.06-1.13-4.16-1.25-6.26-1.09-19.21-6.7-37.2-14.9-54.43-2.07-4.36-4.09-8.93-8.57-11.88,8.24,25.26,18.08,49.95,23.4,76.23ZM268.19,94.72c-1.77,2.32-2.85,2.39-4.29.49-4.74-6.26-11.73-9.37-18.72-12.01-3.13-1.18-6.3-1.47-8.31-4.67-1.2-1.92-3.11-3.35-5.66-3.36-3.5-.01-6.88-.76-10.27-1.57-3.05-.72-6.17-1.61-10.34-.64,10.19,2.42,18.88,6.16,27.43,10.32,5.98,2.91,11.45,7,18.21,8.18.79.14,1.15.62,1.42,1.37,1.09,2.94,3.84,4.06,6.26,5.5,3.27,1.95,4.27.43,4.27-3.6ZM369.15,218.2c-.97-4.21,1.82-8.11-2.61-10.76-.08,3.57-.16,6.92,2.61,10.76ZM300.7,87.12c-1.28-2.73-3.66-2.93-5.78-3.55-.84-.24-1.72-2.29-2.51-.33-.62,1.52.71,2.07,2.15,2.32,1.91.34,3.77.94,6.14,1.56ZM241.53,40.26c2.19,2.06,4.51,3.85,8.27,4.12-2.6-2.59-4.81-4.54-8.27-4.12ZM372.82,291.82c-.21-3-.38-6.06-2.93-9.25.86,3.68.82,6.75,2.93,9.25ZM301.82,114c-.83-5.15-3.67-6.69-7.08-7.67,2.09,2.27,4.18,4.53,7.08,7.67ZM365.51,289.04c-.3-4.82-1.45-8.46-3.07-11.99.52,3.8.68,7.69,3.07,11.99ZM294.64,128.59c.09-1.05,1.28-2.17,1.25-2.6-.1-1.36-1.44-1.99-2.82-1.96-1.11.03-1.32.97-1.24,1.84.14,1.44,1.07,2.24,2.8,2.71ZM295.93,129.14c.24-.09.47-.18.71-.26-.22-.2-.42-.48-.69-.58-.13-.05-.38.23-.58.36.18.16.37.32.56.48ZM313.6,131.22c-.05.08-.09.16-.14.24.17,0,.34.01.51.02-.04-.08-.06-.19-.13-.24-.06-.04-.17,0-.25-.02Z"/>
    <path class="cls-6" d="M266.35,122.86c.21,2.25-1.83,2.66-3.09,3.61-3.45,2.61-7.47,4.41-10.6,7.48-1.73.34-3.6.53-3.45,3.02-.67.37-.83.99-.84,1.69-2.44-1.4-4.02.32-5.54,1.69-14.27,12.86-29.06,25.11-43.96,37.21-9.91,8.05-20.08,15.78-30.13,23.65-.65.11-1.6.12-1.28,1.08.32.96,1.34.66,2.13.63,3.6-.67,7.24-1.16,10.5-3.07,1.23-.72,2.64-1.02,4.05-.27.02.87.04,1.74.06,2.61-.21,1.76-2.59,2-2.68,3.85l-.1.1c-2.05.1-3.1,2.11-4.96,2.56-.11-1.19-.8-1.6-1.92-1.42-2.09.11-3.89-.8-5.61-1.78-2.57-1.45-4.75-1.43-6.84.89-1.23,1.36-2.73,2.47-4.12,3.69-1.34,1.05-2.69,2.06-4,3.14-4.99,4.1-4.9,4.02-.53,8.19,1.88,1.79,2.24.87,3.21-.82,1.79-3.12,1.55-6.52,1.98-9.84,3.37-1.4,6.67,1.09,10.03.18.03.43.06.86.09,1.3-2.45,1.78-5.38,3.02-6.94,5.86-.57,1.04-1.7,2.38.85,2.33,0,0-.03-.12-.03-.12-2.82-1.61-1.87,1.82-3.11,2.32-1.32-.19-2.18.47-2.82,1.53-.07.11-.21.23-.2.34.02.23.12.46.19.69l.08-.07c-.83-.22-1.26-.03-.93.93,0,0,.05-.07.05-.07-2.3.04-2.49,2.14-3.41,3.51,0,.87,0,1.73.01,2.6-3.79,1.23-7.07,3.22-9.99,5.96-3.3,3.09-7.26,5.24-11.4,7.03-3.06,2.41-6.75,3.12-10.42,4-8.98,2.14-17.42,5.29-22.89,13.44-.48.71-1.91,1.3-.75,2.41.78.74,1.63-.07,2.26-.51,5.56-3.99,11.74-6.76,17.83-9.79,4.41-2.19,8.36-5.28,13.43-6.04.39-.06.68-.82,1.02-1.25,3.33,2.57,7.4,4.33,9.25,8.51.4.9.99,1.3,2,.76,2.07-1.09,4.68-1.14,6.7-3.5-4.63-1.8-7.97-4.79-11.62-9.28,7.66.97,11.64,7.98,18.56,7.42,1.59,1.46,1.98,5.44,5.6,2.68,5.82,1.23,11.69.71,17.56.62,1.78-.03,2.86-.97,3.12-2.77.52.04,1.04.07,1.56.11,1.86.61,3.3-.89,5.01-1.02.48,2.59,1.79,1.81,3.17.78,2.1-.57,4.2-2.11,6.28.02-.02.79-.03,1.59-.05,2.38-3.3.53-6.81-1.13-9.95,1-.94.44-1.34.98-.37,1.81-.49,2.41,1.75,1.92,2.74,2.24,5.49,1.77,11.22,2.48,16.91,3.36.03.41.06.82.09,1.23h-.04c-1.02.19-2.61-.59-2.82.96-.14,1.05,1.22.77,2.02.8,2.33.76,1.09,2.21.41,3.18-.77,1.1-1.54.22-2.34-.41-.95-.74-2.11-1.22-3.18-1.81-.78-1.28-1.64-1.27-2.58-.17-6.85-.47-12.91-3.22-18.67-6.68-2.96-1.77-5.97-2.43-9.3-1.68-.48,1.54,2.62,1.98.94,3.53-1.25,1.16-2.28-.68-3.51-.56-.65-.35-1.09-1.66-2.09-.48.29-.35.22-.6-.2-.73-.09-.03-.22.08-.34.13.22.17.43.35.65.52-.12.82.58,1.01,1.04,1.39,1.14,1.96,2.29,3.93,3.43,5.89-.35.9-1.06,1.25-1.97,1.32-2.26-2.31-4.52-4.62-6.78-6.93-.1-1.6.44-3.52-1.86-4.08-.77-.19-1.34.26-1.64.97-.86,2.02,1.19,1.69,1.96,2.4.09.4-.18,1.11.71.81l-.05-.1c1.52,6.3,6.46,9.72,11.26,13.22,1.26.91,2.68,1.83,4.66,1.21-1.64-1.29-3.06-2.4-4.48-3.51.34-.63.68-1.27,1.03-1.9,1.3.76,2.61,1.53,3.91,2.29.96,1.35,2.32.56,3.51.67,3.35,2.13,6.71,4.26,10.06,6.39.58,3.73,2.72,4.73,6.04,2.82,1.37-1.09,2.73-2.18,4.1-3.27.8-.62,1.97-.94,1.88-2.29,2.48-.98,5.07-1.19,7.71-1.09.04.99.08,1.99.12,2.98-.82.77-1.79,1.44-2.41,2.35-.91,1.36-.9,2.49,1.28,2.15,1.03,2.77,3.98,2.52,5.96,3.78.79.22,1.58.45,2.38.67.37.05.73.11,1.1.16-.06,1.25-.39,2.38-1.29,3.23-2.82-1.76-5.48-4.32-8.57-.58-.19.15-.3.34-.35.58l.12.38c-.83-.43-2.38-.11-2.48-1.18-.36-3.86-2.44-1.03-4.12-2.04.68,1.82,1.87,2.25,1.6,3.42-.07.43-.13.86-.2,1.29-2.99-.75-5.86-2.38-9.25-1.4.96,2.7,3.62,3.62,4.99,5.67,0,.8,0,1.6,0,2.4-.43.16-.87.31-1.3.47-3.77,1.89-7.53,3.78-11.3,5.68.16.35.32.71.49,1.06,4.01-1.03,8.3,1.29,12.17-1.32l-.05-.11c1.32-1.25-.44-1.79-.62-2.7,1.79-.32,2.91.84,4.09,1.86,1.27,1.1,2.52,2.24,3.86,3.26.66.5,1.64.96,2.3.15.77-.93-.11-1.57-.82-2-1.01-.61-1.91-1.25-1.99-2.56,1.43-.32,2.68-.95,3.65-2.08-.56,2.26,1.02,2.95,2.65,3.47,1.94.61,3.54,1.53,4.14,3.64l-.3.81c-.47.36-.95.71-1.42,1.07-3.34.57-6.69,1.14-10.03,1.71,4.35,1.33,8.76,2.13,13.15,3.01,4.28.85,8.71,1.24,12.63,3.48-16.11.28-32.25,1.79-47.96-3.34-5.25-1.71-10.84-2.4-15.58-5.57-4.63-3.1-9.6-5.52-14.88-7.32,0-.44,0-.88,0-1.32.88.08,1.76.16,2.65.24,2.2.9,3.5.45,3.33-2.21h0c.72-.27.7-.56.02-.87-.86-.29-1.72-.57-2.59-.86-.08-.62-.16-1.24-.24-1.86.43-1.94-1.1-4.26,1.17-5.83h.4s.4-.02.4-.02c3.03,3.5,6.24,4.15,10.55,2.13.68-.32,1.36-.64,2.02-.97-.17-.32-.33-.63-.48-.94-.11.09-.21.18-.32.28.3.22.59.43.89.65-1.1-1.25-1.78-.3-2.5.47-1.4.01-2.79.02-4.19.04.03-.21.03-.43,0-.64.57-3.09-.43-5.94-1.26-8.83-2.2-7.72-10.06-11.09-13.58-17.81-.5-.96-1.61-1.12-2.54-.2-.52.07-1.04.15-1.56.22-4.36,1.02-8.73,2.02-13.08,3.07-2.58.63-4.85.55-6.15-2.24-.55-1.16-1.25-1.76-2.68-1.31-9.23,2.91-18.49,5.74-27.72,8.64-.65.21-1.19.76-1.79,1.16l-1.7.06c-.28-.29-.56-.58-.84-.87,2.66-.41,1.75-1.96,1-3.33-.56-1.02-.72-2.78-2.34-2.48-1.73.33-.97,2-1.11,3.15-3.14,1.88-6.87,3.23-6.9,7.84l.07-.11c-3.63-3.84-3.42-6.09.94-9.83v.08c.83-3.04,4.06-3.66,5.82-5.77,4.31-3.65,8.61-7.3,12.92-10.96,2.7-2.45,6.56-3.75,7.73-7.73l-.04.04c1.16.88,1.6.28,1.75-.87h0c2.28-1.16,4.69-2.18,5.15-5.15l-.02.02c1.04.46,1.34.16.88-.88l-.04.03c1.17.89,1.55.2,1.75-.87h0c4.24-2.25,7.15-6.09,10.76-9.08.64-.55,1.29-1.09,1.93-1.64.31-.37.63-.73.93-1.1.06-.33.28-.86.16-.97-.55-.45-.96-.02-1.31.41-.29.29-.57.57-.86.86-.46.38-.91.77-1.37,1.15-1.27.73-2.1-.16-2.98-.83-1.01-1.83-2.19-3.53-3.84-4.86-2.8-.61-5.74-.83-8.07-2.81-.74-.74-1.49-1.47-2.23-2.21-.66-.56-.71-1.93-2.26-1.54.34,3.89,3.27,7.08,3.03,11.08-4.03-.88-4.1-4.43-5-7.43-.27-1.75-.91-3.28-2.58-4.17-.61,0-1.21,0-1.82,0-1.72-2.06-2.75-4.28-1.6-7-.2-1.57.63-3.5-1.53-4.38.8-1.64,1.59-3.28,2.39-4.93.63-.61,1.26-1.22,1.89-1.83.43.02.85.03,1.28.05,3.36,2.62,3.22-2.6,5.48-2.44.21.68.42,1.36.63,2.04-.06,3.18,2.39,4.11,4.75,5.38-.13-2.27-.24-4.35-.36-6.43.65-.15,1.22-.39,1.26-1.18.73-2.09-1.06-2.5-2.23-3.31-.01-.54-.02-1.09-.03-1.63.85-.41,1.69-.82,2.54-1.22,3.16,2.06,6.64,3.89,6.55,8.47-.38-1.14-1.23-1.66-2.2-.97-.91.64-.15,1.08.55,1.33,1.23,2.74,3.8,3.89,6.24,5.12.61.31,2.53,1.27,1.66-1.15.07-.41.15-.81.22-1.22.8-.31,1.88.54,2.58-.6-1.37-1.54-3.04-2.6-4.86-3.29-3.62-1.38-7.76-8.47-7.16-12.52.53-.28,1.07-.56,1.6-.83,1.05.83,2.09,1.67,3.14,2.5.74,0,1.48,0,2.22,0,2.04,1.48,4.09,2.96,6.13,4.46.7.51,1.38,1.13,2-.08,1.14.06,2.56,1.67,3.31.1.6-1.25-.87-1.75-2.05-1.89l-.05-.02-.05-2.44c1.72-.16,3.38.08,4.99.72,1.1.12,2.43.6,3.14-.43.6-.89-.13-2.24-.91-2.52-3.42-1.24-3.82-5.06-6.33-7.02,1.45,0,2.89-.02,4.34-.02,2.23,1.18,1.43-.74,1.66-1.61,1.68-.44,3.39-.61,5.12-.32l.34.15.36-.1c.35.04.69.09,1.04.13,1.1,1.3,2.68,1.75,4.16,2.38,1.78,4.06,6.66,6.15,7.04,11.1-2,1.83-2.92,3.93-1.7,6.59.8,1.16.81,2.45.62,3.77-1.12.86-.54,1.37.38,1.79.48-.05.96-.1,1.44-.16-.33.8-.66,1.6-.98,2.39-1.03.34-2.13.64-2.14,2.03,0,.16.34.47.51.47,1.36-.05,1.73-1.07,1.98-2.16,2.55-.51,4.3-2.12,5.75-4.15.05-.67,1.65-.86.58-1.88.01,0-.12.08-.12.08,2.56.63,3.4-1.84,4.9-2.93,3.07-2.22,5.78-4.92,8.64-7.43,2.16-.92,3.43-2.81,4.9-4.48,1.21-1.11,2.42-2.22,3.63-3.34.31-.05.51-.22.59-.53,1.43-1.25,2.87-2.51,4.3-3.76,1.71-.48,3.02-1.41,3.64-3.15l-.11-.13c.86.25,1.22,0,.87-.91l-.06.06c1.6.39,2.09-.99,2.92-1.82,10.99-8.52,21.95-17.07,33-25.51,1.35-1.03,1.49-2.27,1.68-3.65,3-2.25,6.01-4.5,9.81-7.35-8.76-1.69-13.51-8.16-20.16-11.55,0,0-.02-.02-.02-.02-5.67-3.2-12.1-4-18.22-5.79-1.58-.46-3.3-.6-4.61-2.08q4.01-.32,8.19,1.7c.25.12.55.21.82.21,10.49,0,18.98,6.32,28.6,9.04,1.48.42,2.89,1.97,5.15.5-2.6-1.32-5.14-2.48-4.91-5.71.53-.61,1.06-1.21,1.6-1.82.16-.21.32-.42.48-.63-.38-.03-.76-.07-1.14-.1-1.42-.08-1.38,1.03-1.6,1.94-1.39,1.09-2.43.14-3.27-.74-2.76-2.88-6.21-4.73-9.58-6.7-1.25-.76-2.43-1.68-3.96-1.83-5.45-2.57-11.63-3.74-16.58-8.1,2.88-1.28,4.74,2.4,7.15.39,4.26,2.17,8.51,4.36,12.78,6.5.83.42,1.87,1.12,2.55-.11.3-.55.32-1.44.11-2.04-.56-1.59-1.25-.02-1.88.05-.72.08-1.2-.05-1.8-.58-3.37-2.95-7.4-4.47-11.79-5.11-4.6-1.41-9.2-2.81-13.81-4.22-.57-.62-1.45-.69-1.82-.14-.28.4.12,1.27.21,1.93-3.66-.98-7.25-2.29-11.12-2.23-1.51-1.46-3.35-.85-5.1-.81-6.53.04-13.06.08-19.59.12-5.66-.16-11.22.43-16.63,2.22,5.51-.31,10.98-1.08,16.5-.62,3.31,2,7.2,1.91,10.73,2.08,2.94.15,5.04,1.11,7.8,2.85-6.97-.39-13.36-.87-19.77-1.08-28.2-.91-55.67,2.67-81.87,13.7-13.09,5.51-24.9,13.07-35.4,22.68-3.98,3.64-8.27,6.94-12.43,10.4,0,0,.03.02.03.02-1.13-1.8.34-2.98,1.17-4.13,3.31-4.6,6.48-9.37,11.61-12.28.73-.42,1.45-.95,2-1.59,11.05-12.87,26.72-18.7,40.9-26.77,2.4-1.36,5.1-2.18,7.53-3.66-6.01-.36-11.17,2.69-16.73,4.11-.1-.11-.21-.22-.32-.32.29-1.11.59-2.21.88-3.32.28,0,.56,0,.84,0,2.3,1.72,4,1.85,4.32-1.64,4.45-1.76,9.24-2.43,13.79-3.93,3.36-1.11,5.39-3.92,8.73-4.58,1.2-.24,1.92-1.95,3.15.35.65,1.21,10.88-2.29,10.76-3.8-.17-2.22,1.11-.8,1.4-.82,8.99-.57,17.89.69,26.78,1.55,18.83,1.83,37.67,3.7,56.21,7.61,14.46,3.04,27.02,10.65,39.76,17.7,2.63,1.45,5.09,3.19,8.28,2.88,1.41-.14,1.52.04.97,1.46-.25.64,1.26,2.14,2.42,1.41,2-1.26,2.4.51,3.34,1.36.33,3.37,2.14,5.71,5.02,7.33ZM134.92,221.25c-.3.26-.59.52-.89.78-.3.39-1.05.7-.53,1.3.56.65.89-.08,1.26-.4.31-.27.61-.54.92-.81.21-.32.67-.79.59-.93-.41-.68-.91-.32-1.35.07ZM135.34,231.2c.99-.33,1.93,1.37,2.85.1.14-.2-.32-1.11-.71-1.37-1.4-.9-1.96-.08-2.15,1.26-.06.12-.13.25-.19.37.07-.12.14-.24.21-.36ZM152.33,201.14c1.61-.14,2.1,4.11,4.43,1.13.41-.1.98-.06,1.21-.32,1.19-1.36.06-2.39-.75-3.21-1.32-1.32-3.06-1.64-4.67-.65-1,.62-2.22,1.54-1.67,3.05.24.65.96.12,1.46,0ZM184.77,312.77c4.2,1.25,8.44,1.86,13.47,1.27-4.58-2.7-8.75-3.35-13.18-2.26-2.02-.66-4.03-1.32-6.05-1.98-5.51-2.44-10.06-6.86-16.22-7.99,3.69,4.66,8.99,6.59,14.22,8.62,2.43,1.3,5.04,1.99,7.76,2.33ZM149.04,207.16c-.63,1.08-4.36-2.5-3.02,2.16.3,1.06-1.49,4.78-5,3.29-1.01-.43-2.22-.46-3.35-.5-.72-.03-1.4.34-1.16,1.3.12.48,6.4,2.81,6.82,2.54,4.35-2.7,8.24-5.91,11.32-10.22-1.65.67-3.57-2.11-4.95.62-.23.27-.45.54-.68.81ZM196.5,298.99c-.11-1.33-1.57-.63-1.9-1.18-1.81-3.1-3.84,1.33-5.63-.24-.09.52-.43,1.23-.21,1.53,1.42,1.98,3.33.84,5.07.62.91-.11,2.03.41,2.67-.74ZM152.28,260.24c-.35-1.14-1.06-2.03-2.26-2.13-.89-.07-1,.81-.96,1.52.06,1.04.42,1.99,1.59,2.12.98.11,1.5-.53,1.63-1.51ZM142.7,263.21c.34-.63.83-1.28,1.05-2.01.21-.69,0-1.51-.94-1.42-.93.09-1.38.87-1.4,1.77-.01.71.24,1.36,1.28,1.66ZM151.02,179.06c-1.81-1.13-3.08-1.89-5.2-1.56,1.44,1.63,2.66,2.56,5.2,1.56ZM154.26,178.97c-.72,0-1.58.14-1.38.99.11.48.97.89,1.58,1.14.86.34,1.33-.21,1.27-1.01-.06-.8-.7-1.1-1.47-1.12ZM190.99,294.78c-.09.06-.18.12-.27.19.16.08.33.15.49.23.03-.09.1-.22.07-.27-.06-.08-.19-.1-.29-.14Z"/>
    <path class="cls-4" d="M278.11,344.37c3.03,3.02,3.78,6.63,2.41,10.73,2.83-.32,1.27-5.9,5.46-3.93,2.64,2.31,1.93,4.51-.12,6.78-.77.85-2.33,1.93-.86,3.13,1.33,1.1,2.11-.66,3.11-1.29,2.27-1.4,3.24-4.69,6.57-4.54,1.38,4.91,2.77,9.81,4.15,14.72-.27-.02-.54-.02-.81-.01-1.16-.96-.74-3.62-2.72-3.33-1.39.2-.61-2.19-1.69-1.09-1.84,1.88-4.22,2-7.21,2.06,3.17,2.3,6.33,2.22,9.07,3.34l-.05,1.32c.07,4.08,4.65,5.78,5.11,9.66-2.18.88-.05,3.86-2.69,4.86-.32-3.37-2-5.95-4.46-7.93-1.58.73,2.29,3.31-1.35,3.14-.1-.19-.21-.39-.31-.58-.06.15-.12.31-.18.46.19,0,.38.02.57.02,1.91,5.33,3.82,10.66,5.73,15.98,1.34-3.05,5.08-3.05,5.97-5.82.32.07.64.15.96.22,1.04,3.85,3.37,6.25,7.44,6.88,1.15.18,2.55.16,3.03,1.68-1.79-.04-3.58-.09-3.4,2.52-.5.04-1.23-.12-1.44.15-.37.47.18.87.6,1.16,1.72,1.96,3.7,3.52,6.92,4.8-.88-1.98-1.41-3.17-1.95-4.37-.66-1.37-.98-2.81-.81-4.34,3.45,1.15,3.47,5.72,6.88,6.9-.29,1.84,2.05,4.01-.27,5.47-2.32,1.45-4.58.49-6.69-1.09-2.13-1.59-4.76-2.41-7.3-1.78-10.79,2.65-21.9.74-32.75,2.59-6.41,1.09-12.92,1.66-19.42,2.47.31,1.53,1.85.48,2.21,1.49-.74.2-1.48.39-2.22.59.03.3.06.59.08.89h19.74c-1.47,1.56-2.49,1.22-3.37,1.24-3.28.08-6.56.04-9.84.14-8.02.25-15.9.68-23.91,2.4-12.29,2.64-24.99-.26-37.51.22-17.24.66-34.47-1.75-51.7.13-2.91.32-5.89.04-8.9-.7,2.2-.25,4.4-.49,7.07-.79-.97-2.63-2.45-4.3-4.87-4.4-5.91-.26-11.44-2.31-17.17-3.39-.56-.1-1.12-.25-1.69-.27-8.05-.25-16.09-.74-24.18-1.93,11.44,6.78,23.81,11.42,35.93,16.57-.32.29-.64.57-.97.86-12.74-3.88-24.93-9.08-36.55-15.56-3.08-1.71-6.1-2.87-9.61-2.6-.98-.38-1.81-.18-2.45.67-2.93-.92-5.74,1.12-8.66.36-.48-1.34,2.06-1.4,1.29-3.02-1.59.19-3.11.38-4.62.56-.02-.39-.05-.79-.07-1.18,2.3-1.52,4.5-3.13,6.04-5.36-.28-.31-.55-.62-.83-.92-2.11,1.64-4.22,3.28-6.79,5.28.06-4.09,1.65-6.45,4.31-8.15,2.29-1.46,4.38-3.15,6.2-5.15,1.47-1.62,1.71-2.79-1.14-2.45-.29-1.03-.38-2.27-2.01-1.75-8.76-.55-9.39-1.39-9.05-12.1.83-.09,1.66-.18,2.49-.26.96.59,2.12,1,2.84,1.8,6.95,7.72,16.04,12.76,24.04,19.15,2.55,2.04,4.99,3.63,2.13,7.11,5.45,1.98,10.35.89,15.4-.63-3.12-2.76-7.72-2.58-10.18-6.02,3.34.88,6.88,1.59,9.58,3.73,2.27,1.8,4.43,1.76,7.03,1.72,2.48-.03,5.35-1.94,7.58.9.21.26,1.09,0,1.65-.02,18.73-.82,37.45-1.64,56.18-2.46.03.42.06.84.1,1.26-2.35.3-4.79.2-7.16,1.61,25.64.05,50.87-3.06,76.21-3.58,1.79-.04,4.47.14,5.16-1.36.89-1.92,1.8-1.39,2.8-.92,5.14,2.42,10.54,3.17,16.17,3.26,4.21.07,4.76-.31,3.72-4.56-.59-2.42-1.88-4.41-3.62-6.18-3.33-3.38-7.37-5.83-11.14-8.62-1.86-1.38-3.71-2.84-4.45-5.06-1.69-5.07-4.87-7.05-10.15-5.71-2.25.57-4.64-.08-5.52-2.22-1.23-2.99-3.45-3.36-6.09-3.57-1.84-.14-3.66-.75-5.49-.79-4.01-.09-6.29-1.96-7.14-5.88-.55-2.54-1.69-4.73-3.9-6.41-8.78-6.66-18.09-12.33-28.3-16.59-10.2-4.25-20.05-4.62-29.97.91-3.4,1.9-7.33,2.84-11.02,4.22-2.39-.43-4.53-2.18-7.23-1.08-4.49,1.82-9.04,3.49-13.6,5.13-.69.25-1.68,1.2-2.24.29-3.08-4.99-3.44,0-4.24,1.31-1.24,2.06-1.84,4.47-1.9,6.95,0,.22-.02.43-.03.64-.08-.05-.23-.13-.22-.15.08-.2.18-.39.28-.59,2.31-.4.07,4.48,2.53,2.68,3.83-2.78,8.79-3.38,12.12-6.89l.15,1.17c-5.06,5.78-10.29,11.43-17.41,14.7-3.39,1.56-6.5,3.41-9.36,5.75.61-10.61,4.65-19.93,10.62-28.54.4-.57,1.09-1.62,1.33-1.54,4.75,1.67,7.97-2.7,12.2-3.06,1.21-.1,2.98-.14,3.35-2.02.28-.23.56-.47.83-.7,2.41-.05,4.82-.08,7.23-.15,3.79-.1,6.19-1.72,6.25-5.84-.16-.66.57-1.5-.41-1.99-4-.81-8.5-.21-11.57-4.31,1.98.24,3.79.65,5.59.64,2.32-.02,2.53-.93.62-2.28,0-.42,0-.85-.01-1.27,2.79.67,5.58,1.34,8.36,2-5.92-4.67-13.41-6.04-19.57-10.07.37-2.14,1.83-1.63,3.1-1.17,1.46.53,2.83,1.32,4.29,1.86,1.26.46,1.47.29,1.66-.7.36-1.94.35-1.85,2.15-1.53,9.84,1.74,19.22,4.94,28.53,8.48,17.63,6.72,36.4,3.39,54.57,5.41,4.31.48,5.44,2.68,8.6,4.76-4.61.23-8.28-.13-11.93-.66-3.13-.5-6.24-1.52-9.46-.57,3.06,1.08,6.12,2.06,9.38,2.03,1.94.42,3.9.75,5.8,1.29,4.73,1.34,10.72.26,12.91,6.62.1.28.73.37,1.11.55-1.16,3.92-3.95,2.4-6.35,1.82-2.62-.64-5.18-1.48-7.76-2.25-5.73-1.72-11.44-3.51-17.59-2.93,10.17,3.37,20.2,7.14,30.67,9.52.72,1.44,3.53.1,3.46,2.6-.13.05-.29.08-.38.17-.05.05-.02.21,0,.32.92,5.21,5.55,5.99,9.32,7.77,1.28.61,2.75.95,3.86,1.77,3.31,2.46,5.77-.59,8.5-1.31,1.4-.37,1.42-3.44.87-3.69-3.49-1.58-2.19-5.11-3.49-7.51.51-2.56,2.28-.27,3.3-.86ZM156.07,418.57c.76-1.11,2.48,0,3.24-1.36-3.19-.35-6.28-.71-9.38-.99-.5-.05-1.63-.29-.98.95.17.34.66.51,1,.76.41.87-1.7,2.97.86,2.62,3.25-.44,6.67.11,10.55-1.6-2.26-.16-3.78-.27-5.29-.38ZM226.44,407.63c17.5-.51,33.94,1.17,49.8-2.11-10.5-4.01-36.34-3.19-49.8,2.11ZM88.13,407.68c4.45-.39,8.49.6,12.3-1.2-3.03-2.73-5.89-5.31-9.41-8.49.04,3.94-2.05,6.27-2.89,9.69ZM175.31,319.7c-6.95-2.7-13.98-5.11-21.49-5.73,6.57,4.01,13.74,5.89,21.49,5.73ZM287.38,384.07c.99,3.56,2.77,5.8,4.66,7.99.26-3.36-1.09-5.85-4.66-7.99ZM290.76,404.09c2.9,1.3,5.8,1.21,8.72.59-2.82-1.96-5.79-1.38-8.72-.59ZM173.7,417.66c-2.92-1.55-6.06-1.73-9.72-1.19,3.22,2.48,6.53,1.14,9.72,1.19Z"/>
    <path class="cls-6" d="M92.92,443.1c-14.55-9.75-29.01-19.63-41.73-31.78-13.72-13.09-25.63-27.45-31.83-45.78-1.9-5.62-2.83-11.42-3.73-18.39,3.82,5.9,6.9,10.86,9.32,16.38,2.12,4.82,5.48,9.11,8.47,13.52,1.43,2.11,3.16,4.05,4.94,5.88,5.52,5.69,11.14,11.28,13.6,19.14v-.02c-.99,1.5-2.26-.97-3.5.49,1.01,2.73,3.92,4.46,4.71,7.43.41.53.7.42.9-.17,0,0-.03-.39-.03-.39.36.04.73.07,1.09.11l.03-.02c.18.52.37,1.03.55,1.55.08,1.65.91,2.54,2.59,2.59,6.14,7.45,14.05,12.79,21.92,18.12,11.47,7.78,23.97,13.61,36.82,18.69,2.94,1.16,6.07,1.45,9.21,1.57,1.54.06,3.19-.28,4.4,1.17,1.24-4.46,2.74-4.88,6.74-2.8,4.22,2.2,8.31,4.55,13.55,4.51,2.6-.02,5.2,2.57,8.3,2.73,2.87.15,5.73.52,8.96.83-1.41,1.91-2.94,1.39-4.25,1.42-6.14.12-12.16-.8-18-2.67-2.03-.65-2.95.88-5.38,1.77,6.94,2.97,13.28,4.16,19.59,5.38,9.97,1.94,19.9,4.16,30.16,4.11-.48.26-1.17.8-.79,1.19.72.73,1.73,1.31,2.85.55,4.28-2.19,8.6.21,12.95-.05,8.11-.48,16.23-.41,24.03-3.07,1.62-.55,2.41-.03,3.52,1.17.68.74,2.67.81,3.38-.38.53-.9-1.29-.72-1.63-1.6,1.39-.64,2.33-.08,3.64.64,2.85,1.55,5.96,2.07,8.28-1.17.51-.71,1.16-.63,1.82-.77,14.64-3.1,28.72-8.04,42.75-13.12.5-.18,1-.33,1.6-.29-4.03,3.47-8.95,5.27-13.71,7.28-6.54,2.76-13.41,4.8-19.78,7.89-14.35,6.96-29.88,7.22-45.19,8.36-9.23.69-18.27,3.07-27.57,2.79-18.13-.55-35.97-3.12-53.57-7.52-5.67-1.42-10.92-4.19-15.87-6.71-19.76-10.08-38.84-21.48-56.62-34.86-2.82-2.12-5.53-4.43-7.25-7.76,12.44,8.14,23.98,17.76,38.11,23.03.97.42,2.18,1.45,2.95.6.71-.78-.72-1.11-1.3-1.57ZM47.3,399.77c-.25-.37-.36-1.15-1.02-.67-.61.44.04.86.27,1.26.38.49.81,1.19,1.41.44.38-.48-.21-.82-.66-1.03ZM179.85,470.94c-2.88-2.46-6.31-1.52-9.47-2.01-12.1-1.85-23.88-5.15-35.85-7.55-.39-.08-1.32.49-1.13-.46.64-3.26-2.1-2.13-2.85-1.74-1.78.93-3.31.27-4.94.05-1.41-.19-2.82-.38-4.23-.56-1.4-.18-2.81-.84-4.48-.01,8.1,4.14,16.65,5.6,25.96,6.59-1.39.52-2.1.79-3.57,1.34,13.94,2.59,26.99,5.96,40.57,4.36ZM121.48,456.6c-5.52-2.47-11.16-4.72-16.54-7.46-4.48-2.29-4.35-2.54-9.87-1.61,8.4,4.97,17.06,8.08,26.41,9.07ZM141.66,458.95c-.42-.57-.6-.96-.91-1.19-.64-.5-1.6-1.05-1.66.26-.04.74,1.06,1.18,2.56.93ZM201.15,470.48c-.11-.11-.21-.21-.31-.3-.1.19-.22.37-.27.57-.02.07.17.19.27.28.1-.19.21-.37.31-.55Z"/>
    <path class="cls-4" d="M68.5,269.73c-.01-2.47,2.64-1.9,3.65-3.2,0,0-.13-.1-.13-.1.41.43.8.42,1.18-.04.42-.02.84-.03,1.27-.05.66,1.12,1.31,2.24,1.97,3.36-.17.51-.34,1.02-.5,1.53-1.87-1.97-2.04-.33-2.2,1.08-.22,1.87,6.12,7.36,8.01,6.91.24-.06.36-.63.53-.97,0,0-.07.11-.07.11,3.2-.17,4.65-2.71,6.47-5.35,1.11,2.34-.02,4.32.51,6.13-1.9,0-2.29.82-1.03,2.19.72.78,1.7,1.32,2.57,1.97-3.47,1.45-7.26,1.56-10.73,2.3-6.17,1.31-13.36,1.49-18.18,7.1-2.01,2.34-4.51,4.32-7.01,6.18-2.83,2.11-6.91,1.12-8.3-2.03-.94-2.12-.62-4.21,2.12-5.03.39.38.79.77,1.18,1.15.19,1.09-2.09,1.2-1.06,2.57.48.64,1.2.68,1.84.13,4.04-3.48,8.12-6.92,12.07-10.5,1.23-1.12.87-2-.93-1.92-.01-.52-.03-1.03-.04-1.55-.07-1.24-.2-2.48-.21-3.72-.04-4.07,2.58-7.19,6.24-7.5-.26,4.37.17,8.62,2.46,12.52-.75-4.41-1.38-8.83-1.66-13.28Z"/>
    <path class="cls-4" d="M87.42,260.31c-.26-5.28-.39-10.53,2.16-15.42,1.33-2.54,3.11-4.21,6.17-4.59,2.36-.29,4.88-.79,6.91-1.93,3.39-1.92,7.8-2.45,10.35-4.82,2.85-2.65,6.22-4.14,9.16-6.41.88-.68,2-1.06,3.01-1.58-.26,3.26-1.82,5.72-4.31,7.82-.79.66-2.79,1.08-1.77,2.99,0,0,0,0,0,0-1.18-.9-1.58-.25-1.75.87,0,0,.04-.03.04-.03-.74-.15-1.09.08-.88.88,0,0,.02-.02.02-.02-2.39,1.04-4.5,2.37-5.15,5.16,0,0,0,0,0,0-1.15-.84-1.59-.26-1.75.87,0,0,.04-.04.04-.04-3.42,1.6-5.95,4.35-8.75,6.76-5.58.8-9.43,3.97-12.14,8.77-.22.38-.91.49-1.38.73Z"/>
    <path class="cls-3" d="M403.36,194.06c9.38,27.04,15.01,54.64,12.56,79.45-1.28-24.57-5.6-52.63-14.14-79.99.52.18,1.05.36,1.57.54Z"/>
    <path class="cls-7" d="M267.44,33.5c-6.91-2.13-13.82-4.24-20.72-6.38-6.53-2.03-13.07-4.05-19.87-4.86-2.31-.28-2.4-2.14-2.47-3.08-.14-1.76,1.66-.96,2.63-.86,14.68,1.49,28.07,6.63,40.44,15.19Z"/>
    <path class="cls-4" d="M58.3,413.65c-1.68-.05-2.51-.95-2.59-2.59,1.79-.12,3.02-1.07,2.7-2.86-.41-2.32-2.95-.62-4.09-1.79.32-.73-1.85-2.89.39-2.12,4.74,1.64,6.96-1.83,10.02-3.73.22-.14.39-.44.48-.69.9-2.82,6.15-1.9,5.4-5.05-.54-2.26-3.64-3.92-5.61-5.84v.08c3.87.49,6.44,3,8.87,5.72.11.68,1.12,1.34-.35,1.94-3.14,1.29-5.28,3.77-7.18,6.5-.54.78-1.44,1.82-2.22,1.85-5.59.23-3.25,4.89-4.55,7.68,2.04-3.34,5.05-5.28,8.56-4.7,2.09.35,3.71-.04,5.53-.48.02.39.05.79.07,1.18-2.06,1.02-4.3,1.15-6.54,1.41-1.4.17-3.42-.88-4.15,1.09-.62,1.68,2.13,1.68,2.13,3.26-2.41.71-4.51-1.04-6.86-.86Z"/>
    <path class="cls-3" d="M152.46,244.93c-1.87-.86-4.07-1.04-6.15-3.14,3.76-.13,6.72-1.62,10.11.19,2.08,1.11,4.74.37,7.14-.05,5.04-.88,10.08-1.71,15.13-2.5.96-.15,1.98-.14,2.94,0,.78.12,1.91.16,1.92,1.28.02,1.09-1.06,1.22-1.84,1.37-5.17.98-10.34,1.92-15.52,2.87-4.58.3-9.16.63-13.73-.03Z"/>
    <path class="cls-6" d="M48.86,108.8c2.06-2.09,4.86-2.96,7.4-4.16,3.45-1.63,7.12-2.78,10.7-4.14.03,1.91-1.79,1.8-2.81,2.56-2.4,1.79-5.61,2.31-7.56,4.82-.43.16-.85.33-1.28.49.11.07.23.19.35.19.52.02,1.1.08.85-.76,5.23-.96,9.5-4,14.06-6.44,1.13-.61.36-1.42.3-2.15,2.07-.66,4.15-1.33,6.22-1.99,0,1.8,1.13,2.16,2.61,2.09.11.11.21.21.32.32-7.33,3.36-15.05,5.87-22.06,9.94-1.3.76-3.5.96-3,3.4-.28,0-.57-.02-.85-.03-1.76-1.06-3.5-.07-5.25.03-.25-.27-.51-.55-.76-.82-.62-1.37,1.42-2.09.85-3.44l-.08.1Z"/>
    <path class="cls-4" d="M238.09,136.97c-.19,1.38-.33,2.61-1.68,3.65-11.05,8.44-22.01,16.99-33,25.51-.62.1-1.25.2-1.87.3-.24-.28-.49-.55-.73-.83,12.25-9.77,24.26-19.86,37.28-28.63Z"/>
    <path class="cls-4" d="M134.44,165.17c-1.47,1.07-3.26,1.76-4.39,3.67,1.99,1.19,4.11.42,6.08.65,1.01.12,2.14.09,1.83,1.61-.18.89-6.71,4.58-7.69,4.35-1.8-.41-3.59-.87-5.38-1.33-1.1-.28-2.55-.47-2.47-1.88.1-1.78,1.68-.97,2.69-1.06.7-.06,1.41-.01,2.33-.01-.48-2.15-2.6-3.94-1.05-6.34,1.32.82.43,2.49,1.69,3.61,1.39-2.58,3.46-4.35,6.41-4.85-.01.52-.02,1.04-.04,1.56Z"/>
    <path class="cls-3" d="M39.76,321.69c-1.74-2.83-2.94-5.84-2.82-9.23.04-1.01.19-2.16,1.3-2.43,1.15-.28,1.83.7,2.25,1.6,1.55,3.37,3.14,6.74,4.45,10.2.28.74.59,1.1,1.12,1.51,3.62,2.81,5.18,6.93,7.47,11.26-2.02-.6-2.29-2.08-3.17-2.94-1.69-1.65-1.75-5.41-5.81-4.21-.66.19-2.05-2.1-3.1-3.25.22-.17.43-.35.62-.56.76-.1.78-.65.7-1.21-.06-.45-.3-.71-.8-.48l.07.09c.1-3.77-1.78-6.68-3.94-9.49-.25,3.14,1.83,5.5,2.51,8.31-.28.28-.56.56-.84.83Z"/>
    <path class="cls-4" d="M48.08,112.15c.25.27.51.55.76.82-1.63,2.71-1.63,2.69-5.22,2.05-.99-.18-1.25.86-1.88,1.29-.68.47-1.88,1.44-1.92,1.4-5.19-6.23-1.92,1.2-2.84,1.77-.46.28-.81.74-1.25,1.15-1.64-5.09-.38-8.06,5.36-12.8.11-.09.23-.17.34-.25.07.26.14.52.21.77-.08.34-.16.68-.23,1.02l.99-.05c2.16-1.63,4.31-3.27,6.47-4.9l.08-.03c-2.92,1.41-.83,2.92-.09,4.4,0,0,.08-.1.08-.1-3.15-.6-5.2,1.48-4.89,3.87.47,3.53,1.8-2.53,3.05-.16.04.07.64-.17.98-.26ZM38.86,115.24c.93.23,2.34.79,2.41-1.26.04-1.17-.29-1.86-1.62-1.79-1.55.08-2.25.94-2.32,2.4-.05.96.09,1.77,1.53.65Z"/>
    <path class="cls-4" d="M150.6,172.15l-.36.1-.34-.15c1.53-1.36-.02-1.51-.77-1.83-3.51-1.51-7.07-2.82-10.99-2.83-.62,0-2.22.89-1.77-1.1.41.01.78-.03.73-.59.96-.22,2.12-.02,2.59-1.26l.03.14c3.87.33,7.9-1.19,11.67.92-.79,1.25-2.18.14-3.18,1.16,2.39,1.67,5.38,2.53,7.35,4.81.79.91,2.57,1.91.26,3.15-1.48-.63-3.06-1.08-4.16-2.38.1-.35.41-.76-.21-.92-.69-.18-.99.07-.82.79Z"/>
    <path class="cls-7" d="M188.43,516.16c11.07,2.48,22.12,3.43,33.69-1.26-1.31,3.31-3.46,3.81-5.6,4.18-9.91,1.74-19.8.62-29.69-.28.52-.89,1.78-1.33,1.6-2.65Z"/>
    <path class="cls-4" d="M308.26,382.68c-1.69,1.62-3.27,2.34-3.13-1.02.1-2.19-.89-3.09-2.73-3.57-1.9-2.46-2.2-6.84-6.99-5.84l.05-1.32c.89-.22,2.15.51,2.56-.98.27,0,.54,0,.81.01.17,2.34,2.31,1.82,3.57,2.19,7.32,2.15,8.04,3.33,5.86,10.52Z"/>
    <path class="cls-4" d="M217.59,254.96c1.04,3.98,2.05,7.96,3.13,11.92.37,1.36.53,2.68-1.1,3.13-2.22.62-1.65-1.47-1.84-2.4-.71-3.32-1.3-6.69-1.67-10.06-.27-2.44-.92-4.32-4.22-4.54,3.26-2.52,2.54-5.63,2.34-8.95,3.05,2.23.82,5.9,3.16,7.83,0,0,.05-.13.05-.13-.79.73-.26,1.42.06,2.12-.41.4-.21.74.1,1.06Z"/>
    <path class="cls-7" d="M56.51,395.17c-7.68-4.65-13.13-11.46-18.57-19.01,4.07.73,16.15,13.08,18.57,19.01Z"/>
    <path class="cls-4" d="M184.26,251.91c-.52-.04-1.04-.07-1.56-.11-.56-1.83.11-4.09-1.88-5.42.28-.4.56-.8.85-1.2,2.46-1.03,4.78-2.22,7.61-2.43,3.49-.26,4.49-3.81,6.43-6.61.32,7.92-.35,7.77-5.92,8.33-4.66.47-5.91,3.31-5.53,7.44Z"/>
    <path class="cls-4" d="M177.27,262.16c3.16.52,5.76,2.09,8.24,4.05,3.88,3.08,8.09,5.64,13.12,7.15-1.33,1.09-2.73.39-3.75.89-.58.29-3.49-1.71-1.82,1.57.38.74-1.14.37-1.47.06-1.44-1.37-2.79-2.43-3.77-4.66-1.52-3.48-5.1-6.46-9.49-7.31-.35-.58-.7-1.17-1.04-1.75Z"/>
    <path class="cls-4" d="M178.21,106.28c7.98-.91,15.19-.2,22.09,2.89.51.23,1.65.24.82,1.26-.28.35-1.17.68-1.4.51-4.69-3.51-10.38-1.54-15.47-2.87-1.82-.48-3.86-.1-6.03-1.79Z"/>
    <path class="cls-4" d="M220.1,287.68c-.6-6.04,4.26-2.98,6.68-4.09.3,1.38-.66,2.16-1.3,3-1.64,2.17-1.06,3.38,1.37,4.4,3.56,1.5,3.52,2.72.08,5.28-2.23.04-2.15,1.85-2.53,3.31-3.94-.27-4.19-.4-4.33-2.44,2.86-1.15,5.94-1.87,9.64-4.96-4.76.53-5.99-1.9-6.82-4.49-1.09-3.41-1.89.19-2.82.02l.04-.03Z"/>
    <path class="cls-3" d="M116.23,114.02c-4.16.75-6.94,4.92-11.75,4.25-1.71-.24-3.5,1.01-4.87,2.31-.51.48-.96,1.26-1.68.65-.75-.65-.55-1.58.06-2.28.46-.52,1.03-1.01,1.65-1.31,5.21-2.53,10.69-3.89,16.58-3.62Z"/>
    <path class="cls-4" d="M156.69,224.17c.64-1.06,1.5-1.72,2.82-1.53,1.89,1.57,3.8.03,5.67-.05,3.48-.15,6.35.59,8.74,4.34-4.4-1.25-8.37-.2-12.16-1.49-1.67-.57-3.01.31-4.19,1.42-.56.08-.98.27-.8.97l.03-.02c-.79-.37-.82-1.12-.92-1.83l-.05.07c.64.02.89-.35.93-.93l-.08.07c.32-.16.64-.32.96-.47-.32-.18-.63-.37-.95-.55Z"/>
    <path class="cls-3" d="M49.77,449.62c-1.3.4-2.38.46-3.05,1.01-.83.69-1.29,2.17-2.63,1.02-1.3-1.12.64-1.57.69-2.27.2-2.95-2.35-4.06-4.3-3.93-4.14.3-2.42-3.15-3.54-4.7-.23-.32.01-1.16.78-1.23,1.38-.13,2.92.43,3.35,1.45,1.69,4.02,5.79,5.46,8.69,8.65Z"/>
    <path class="cls-7" d="M208.1,263.7c-.03-.41-.06-.82-.09-1.23,2.02-1.27,1.82-2.14-.41-2.86-6.26-2.02-12.7-2.66-19.23-2.74-.97-.83-.56-1.38.37-1.81,5.04.3,10.08.59,15.12.89,1.45.53,2.97.94,4.34,1.63,1.11.56,2.96,1.53,2.9,2.19-.14,1.66-.55,3.75-3,3.93Z"/>
    <path class="cls-4" d="M74.47,266.35c-.42.02-.84.03-1.27.05-.24-.25-.45-.66-.71-.7-.45-.07-.64.28-.47.74,0,0,.13.1.13.1.1-1.13-2.64-.16-1.48-1.63,4.48-5.7,6.01-13.08,10.8-18.56,1.01-1.15,2.17-2.16,3.27-3.24.19.2.41.37.65.51-4.11,5.12-7.2,10.85-10.18,16.66-1.02,2-1.49,3.92-.74,6.06Z"/>
    <path class="cls-7" d="M138.78,174.05c2.51,1.96,2.91,5.78,6.33,7.02.78.28,1.52,1.63.91,2.52-.71,1.03-2.04.55-3.14.43,1.81-1.19.36-1.4-.54-1.77-3.21-1.32-6.69-2.03-10.27-4.58,2.87-.22,5-.39,7.09-.55,1.26-1.23-4.12-1.52-.39-3.07Z"/>
    <path class="cls-6" d="M156.97,250.01c-1.21-1.13-2.42-2.26-3.62-3.4,3.23.02,6.47.17,9.69,0,2.46-.12,4.72,0,6.54,1.88,0,.19,0,.39,0,.58-2.69,2.12-5.65-.82-8.48.37.25,1.44,1.65,2.51.93,4.03-2.41-.09-2.51-3.57-5.06-3.47Z"/>
    <path class="cls-4" d="M217.35,20.96c-1.32-.46-3.45.35-4.79-1.78-.5-.8-3.05.03-2.43-1.95.42-1.34,2.23-1.07,3.46-.91,2.25.29,4.49.69,6.69,1.24,1.03.25,2.53.54,2.39,1.98-.15,1.5-1.74,1.13-2.76,1.4-.67.17-1.42.03-2.57.03Z"/>
    <path class="cls-4" d="M111.41,178.2c1.89-1.29,3.89-2.21,7.43-2.11-5.13,4-9.32,7.74-12.48,12.42-.28-.19-.57-.38-.85-.57-.02-.29.08-.54.29-.74.71-1.32,2.2-2.86-.88-3.12,2.16-1.96,4.32-3.92,6.48-5.88Z"/>
    <path class="cls-1" d="M197.01,487.44c7.95-.95,15.9-1.91,23.84-2.86-7.65,3.55-15.71,3.77-23.84,3.45,0-.2,0-.39,0-.59Z"/>
    <path class="cls-4" d="M403.36,194.06c-.52-.18-1.05-.36-1.57-.54-.97-2.75-1.93-5.5-2.91-8.28,1.45-.52,1.55,1.67,2.62.86.81-.62.13-1.59-.02-2.37-.37-1.86-1.74-3.5-1.26-6.1,3.08,5.08,3.74,10.52,5.61,15.5,1.1,2.93-2.25-1.15-2.46.94ZM402.64,188.93c-.07-1.31-.15-2-.85-2.34-.08-.04-.67.56-.61.75.17.63.49,1.24.86,1.78.06.08.68-.22.6-.19Z"/>
    <path class="cls-4" d="M111.41,178.2c-2.16,1.96-4.32,3.92-6.48,5.88-.83.59-1.67,1.17-2.5,1.76-2.46-3.62,1.81-4.12,2.87-6.09.62-1.16,3.22-.76,2.76-2.69-.44-1.83-2.56-.4-3.45-1.06,2.85-1.57,5.74-2.39,6.8,2.2Z"/>
    <path class="cls-2" d="M397.16,320.46c-2.17-1.15-1.85-3.09-1.91-4.81-.14-3.96-.13-7.92-1.25-11.78-.35-1.19-.83-2.96.77-3.27,2.12-.41,1.64,1.71,1.91,2.94,1.21,5.58-1.17,11.26.48,16.91Z"/>
    <path class="cls-4" d="M217.59,254.96c-.32-.33-.52-.67-.1-1.06.64.1.98-.2.97-.82-.01-.66-.12-1.31-1.02-1.3,0,0-.05.13-.05.13.21-.63.41-1.25.67-2.03,2.79,3.92,4.13,8.37,5.45,12.84.48,1.63.69,3.47,1.61,4.81,2.17,3.19,1.64,6.09-.21,9.07,0,0-.22.08-.22.08,1.11-2.11,1.1-4.15.2-6.44-1.54-3.92-2.65-8.01-4.1-11.97-.54-1.48-.83-3.47-3.18-3.32Z"/>
    <path class="cls-1" d="M105.08,499.46c-8.14-3.06-16.11-6.48-23.81-10.54.16-.37.32-.74.48-1.11,7.91,3.53,15.82,7.06,23.73,10.59-.14.35-.27.71-.41,1.06Z"/>
    <path class="cls-7" d="M114.45,217.5c2.32,1.98,5.27,2.2,8.07,2.81-1.78,1.8-3.31,2.98-6.12,1.04-1.13-.78-3.21,1.11-2.73,3.46,0,.03-.18.15-.27.14-.14,0-.27-.08-.4-.13.24-4-2.69-7.19-3.03-11.08,1.55-.39,1.6.98,2.26,1.54-.94,2.44-.15,3.13,2.23,2.21Z"/>
    <path class="cls-4" d="M169.58,248.5c-1.82-1.88-4.08-2-6.54-1.88-3.22.16-6.46.01-9.69,0-.86-.26-.8-1.01-.89-1.68,4.58.66,9.16.33,13.73.03.65.95,1.74.55,2.6.84,3.07,1.15,6.14,2.29,9.47.99.32.98,2.52,2.53-.77,2.37-1.83-.09-3.66-.05-5.49-.08-.56-1.23-1.59-.49-2.43-.59Z"/>
    <path class="cls-4" d="M110.39,167.74c4.07-.86,8.1-1.91,12.1-.32.95.38,2.58.79,1.89,2.21-.68,1.41-1.66.07-2.39-.39-1.45-.93-3.44-1.13-4.45-.36-2.95,2.26-4.92.21-7.16-1.14Z"/>
    <path class="cls-4" d="M137.09,165.74c.05.56-.32.61-.73.59-.17-1.17-1.11-1.05-1.92-1.16.01-.52.02-1.04.04-1.56,3.72-1.6,7.66-1.63,11.61-1.69,3.22-.05,6.45-.06,9.66-.73-2.36,2.43-5.34,2.2-8.33,2.17-2.62-.03-5.47-1.12-7.71,1.27,0,0-.03-.14-.03-.14-1.38-.64-2.5-.77-2.59,1.26Z"/>
    <path class="cls-3" d="M50.24,336.82c3.78,3.03,5.91,7.59,8.6,11.72.37.56.63,1.79.33,2.07-1.01.96-1.66.14-2.18-.82-2.38-4.36-5.26-8.46-6.75-12.98Z"/>
    <path class="cls-7" d="M216.52,287.76c-1.99-1.26-4.93-1.01-5.96-3.78,1.89-2.13,4.22-3.6,6.86-4.61.1.57.2,1.14.3,1.71-.31,2.24.97,4.76-1.19,6.67Z"/>
    <path class="cls-4" d="M102.42,185.84c.84-.59,1.67-1.17,2.5-1.76,3.08.25,1.59,1.8.88,3.12-.21-.44-.13-1.24-.99-.96-.52.17-1.15.5-.86,1.14.25.54.69,1.35,1.55.57.28.19.57.38.85.57-.2,1.29-.57,2.49-1.64,3.35-.96-.32-1.81-1.15-2.95-.62-1.48-.51-1.92,1.39-3.41,1.5.01-3.23,2.15-5,4.06-6.9Z"/>
    <path class="cls-4" d="M274.81,345.23c-1.39-.55-1.29-2.94-3.32-2.7-.3-1.47-1.01-2.5-2.69-2.45,0,0,.02,0,.02,0,.27-1.46-.59-2.16-1.79-2.62,0,0,.11.08.11.08-.3-.32-.6-.63-.9-.95,0,0,.08.07.08.07-.3-.32-.6-.64-.9-.96,0,0,0,.16,0,.16.02-.32.04-.64.07-.96.59-.07,1.17-.14,1.76-.21,3.03,5.11,8.32,6.49,13.55,7.51-.31,2.28-2.77.02-2.67,2.16-1.02.58-2.79-1.71-3.3.86Z"/>
    <path class="cls-3" d="M48.17,442.41c-.56-2.92-5.81-1.16-4.93-5.1.19-.88.87-3.43,3.64-1.92,3.54,1.93,3.3,4.13,1.29,7.02Z"/>
    <path class="cls-4" d="M209.27,250.14c1.24-4.65,1.77-8.37-.47-12.23,5.35,2.21,5.76,7.59.47,12.23Z"/>
    <path class="cls-7" d="M152.47,232.09c0-.87,0-1.73-.01-2.6,1.77.28,3.41.21,4.33-1.68,0,0-.03.02-.03.02.25.04.49.08.74.12,1.52-.24,3.04-.51,4.83.05-.42,1.35-5.68,1.01-1.21,4.1h-8.65Z"/>
    <path class="cls-4" d="M112.64,80.72c-5.27,2.68-10.3,5.94-16.46,6.17,5.06-3.18,10.6-5.13,16.46-6.17Z"/>
    <path class="cls-4" d="M78.65,73.59c-4.01,4.08-9.98,5.27-13.78,9.68-.2.23-.9.32-1.13.16-.47-.34-.67-.98-.27-1.5.65-.84,1.26-2.04,2.13-2.33,4.57-1.5,8.51-4.32,13.05-6.01Z"/>
    <path class="cls-1" d="M103.6,491.92c-5.9-1.19-11.1-3.99-16.23-6.97,5.62,1.83,11.38,3.34,16.23,6.97Z"/>
    <path class="cls-4" d="M53.26,87.82s.21.17.21.17c.44,1.04,1.39.59,1.47.11.17-.99-.9-.63-1.45-.83-.6-.63-.82-1.24.11-1.77.22.26.45.52.67.77.17-.28.35-.56.52-.84,0,0-.08.07-.08.07.8.19,1.02-.21.93-.91,0,0-.07.07-.07.07.75.15.92-.33.99-.91,0,0-.12.12-.12.12.33-.32.67-.64,1-.96,0,0-.11.12-.11.12,2.23.86,4.22,1.76,1.15,4.14-2.3,1.79-4.52,3.67-6.89,5.6-1.01-2.55,3.63-2.39,1.66-4.95Z"/>
    <path class="cls-4" d="M184.16,91.57c1.75-.04,3.59-.66,5.1.81.16,3.14,3.35.95,4.78,2.85-3.11,1.65-5.9.51-8.67-.23-2.05-.55-.61-2.35-1.21-3.42Z"/>
    <path class="cls-4" d="M321.5,263.13c1.09,5.78.16,11.38-1.64,16.9-1.14-5.78,1.99-11.19,1.64-16.9Z"/>
    <path class="cls-4" d="M147.08,264.46c2.13,5.07,4.86,9.98,4.51,15.75-.08,1.32.48,3.03-1.73,3.24,1.86-4.05-.23-7.72-1.25-11.42-.7-2.54-2.03-4.9-3.08-7.35.52-.07,1.04-.15,1.56-.22Z"/>
    <path class="cls-4" d="M162.62,220.31s.03.13.03.12c1.44-1.53,3.44-2.08,5.21-3.02,2.04.32,4.08.65,6.12.97-3.4,2.9-7.31,2.82-11.35,1.93Z"/>
    <path class="cls-7" d="M123.23,180.68c-.53.28-1.07.56-1.6.83-3.69-.24-3.07,2.71-3.58,4.82-.85.41-1.69.82-2.54,1.22-.52-2.81,1.38-4.81,2.55-6.97,2.21-4.08,2.86-4,5.18.09Z"/>
    <path class="cls-4" d="M72.48,84.28c-2.37,3.94-6.06,6.22-10.23,7.9,3.14-2.97,6.11-6.15,10.23-7.9Z"/>
    <path class="cls-1" d="M153.28,294.59c1.28.09,1.75,1.89,3.23,1.55.08.62.16,1.24.24,1.86-4.05-.48-7.82.28-11.4,2.33-.91.52-2.13,1.77-3.34.24,2.59-1.63,5.25-3.07,8.32-3.61,1.37-.24,2.52-.88,2.93-2.36Z"/>
    <path class="cls-4" d="M157.81,238.82c3.93-2.68,7.76-2.76,11.7,0h-11.7Z"/>
    <path class="cls-7" d="M100.46,201.84c2.16.88,1.34,2.81,1.53,4.38-2.81-.11-3.98,3.19-7.43,3.23,3.19-2.03,3.9-5.26,5.9-7.61Z"/>
    <path class="cls-4" d="M339.43,115.31c-.79-1.81.68-4.35-1.83-5.58-.42-.2-.43-1.1.09-1.45.41-.28,1.16-.55,1.5-.36,1.64.94,2.43,2.71,2.83,4.34.38,1.52-.47,2.97-2.59,3.06Z"/>
    <path class="cls-7" d="M111.49,192.69c-2.26-.16-2.12,5.06-5.48,2.44.98-1.5,1.97-3,2.93-4.51.95-1.51,1.27-3.39,3.07-4.92-.8,2.53-.46,4.76-.52,6.99Z"/>
    <path class="cls-3" d="M322.42,405.46c-2.03-.27-2.4-2-2.78-3.48-.33-1.27-.74-2.32-1.89-2.99,0-.34,0-.68,0-1.03,5.13.14,5.65.96,4.66,7.49Z"/>
    <path class="cls-4" d="M200.38,94.61c-.1-.66-.49-1.53-.21-1.93.38-.54,1.25-.48,1.82.14,0,2.36,2.42,1.63,3.46,2.69.68.69,1.75,1.09,1.79,2.2.03.98-.88,1.01-1.54.94-1.2-.13-3.55-.08-3.2-1.11.87-2.55-1.45-1.99-2.13-2.92Z"/>
    <path class="cls-1" d="M83.22,268.44c-2.29-2.27-3.29,2.23-5.37,1.03-.2-1.66,2.91-3.03.3-4.85,3.51-.89,3.44,2.55,5.06,3.89,0,0,.01-.08.01-.08Z"/>
    <path class="cls-4" d="M116.51,193.69c.12,2.08.23,4.16.36,6.43-2.36-1.28-4.81-2.2-4.75-5.38,1.46-.35,2.93-.69,4.39-1.04Z"/>
    <path class="cls-1" d="M245.84,312.54c-2.05.09-1.89-1.86-2.65-2.93-.77-1.08-.66-2.87-2.53-3.03-1.05-1.31,2.19-1.85.58-3.26.23-.12.39-.3.48-.54,1.58.73,3.29.9,2.47,3.76-.49,1.7,1.03,3.98,1.65,6Z"/>
    <path class="cls-4" d="M187.62,179.7c-1.47,1.67-2.75,3.56-4.9,4.48-.73-2.48-2.45.8-3.43-.94,1.87-1.37,4-2.71,5.85-4.36,1.58-1.4,1.54.99,2.49.82Z"/>
    <path class="cls-4" d="M170.4,78.33c-1.25,1.63-3.54,1.41-4.54,3.14-.33.57-1.18,1.07-1.75.28-.38-.52-.29-1.35-.55-1.99-.42-1.03.17-1.19.95-1.29,1.9-.23,3.79-.62,5.89-.14Z"/>
    <path class="cls-1" d="M30.91,411.24c4.08,1.41,7.19,3.96,9.67,7.31-3.89-1.59-6.98-4.22-9.67-7.31Z"/>
    <path class="cls-4" d="M55.62,364.01c3.67,1.52,5.82,4.76,9.05,7.67-4.65-1.29-7.28-3.97-8.96-7.73l-.09.06Z"/>
    <path class="cls-4" d="M300.04,52.31c-4.31.15-6.05-3.34-9.05-4.33-.1-.03-.13-.82.05-1.09.45-.68.98-.22,1.43.09,2.38,1.66,4.76,3.34,7.57,5.32Z"/>
    <path class="cls-4" d="M225.26,106.03c1.53.15,2.71,1.08,3.96,1.83-.2,1.35.21,3.31-2.36,1.92-1.7-.91-3.76-1.15-5.22-2.87,1.1-1.04,2.97,1.25,3.62-.89Z"/>
    <path class="cls-4" d="M47.42,71.76c2.43-2.99,5.55-5.03,9.21-6.35-2.66,2.67-5.21,5.5-9.21,6.35Z"/>
    <path class="cls-4" d="M105.41,213.23c1.67.89,2.31,2.41,2.58,4.17-1.82,1.24-.36,3.12-.89,4.63-.5,1.43-.59,3.07-2.66,4.17.6-4.02,3.7-7.75.09-11.29.82-.29.73-1.05.88-1.68Z"/>
    <path class="cls-1" d="M224.4,299.58c.38-1.46.3-3.27,2.53-3.31-.42,1.54,1.12,1.23,1.72,1.81-.14,1.99,3.15,1.39,2.72,3.6-2.44-.32-4.94-.42-6.96-2.1Z"/>
    <path class="cls-3" d="M301.11,421.61c-1.73,1.23-2.57,4.5-5.47,2.09-.62-.52-1.67-1.26-.87-1.96,1.96-1.72,4.16-.75,6.35-.13Z"/>
    <path class="cls-4" d="M386.48,156.19c1.36,3.36,2.8,6.71,2.3,11.41-2.18-4.12-2.31-7.75-2.3-11.41Z"/>
    <path class="cls-8" d="M180.55,462.15c-3.71-.01-6.22-.25-8.53-1.48-.68-.36-1.05-1.02-.73-1.77.47-1.07,1.19-.4,1.65-.03,1.89,1.53,4.53,1.3,7.61,3.28Z"/>
    <path class="cls-7" d="M192.45,251.66c-1.37,1.03-2.68,1.81-3.17-.78,2.07-1.86,4.62-2.74,7.24-3.91-.41,2.67-4.25,1.84-4.08,4.69Z"/>
    <path class="cls-4" d="M181.52,206.05c.49,1.93,1.39.64,2.07.21,1.24-.79,2.14-2.23,4.18-1.55-2.72,2.4-5.36,4.89-9.56,6.43.84-2.41,4.48-2.15,3.2-4.99,0,0,.1-.1.1-.1Z"/>
    <path class="cls-1" d="M118.5,496.71c2.61-1.5,4.96-.22,8.33.47-3.51,1.84-5.93.79-8.33-.47Z"/>
    <path class="cls-7" d="M202.98,254.32c-1.43-.09-2.86-.18-4.3-.26.02-.79.03-1.59.05-2.38,2.31.58,4.67.69,7.18.19-.32,2.11-2.04,1.72-2.93,2.45Z"/>
    <path class="cls-4" d="M189.09,233.67c-1.48-3.56.94-5.39,3.42-7.2-1.14,2.4-2.28,4.8-3.42,7.2Z"/>
    <path class="cls-4" d="M177.29,226.1c3.7.88,6.26,2.87,7.15,7.8-2.82-3.08-5-5.46-7.18-7.84l.03.04Z"/>
    <path class="cls-1" d="M68.62,414.46c1.91-3.48,5.12-3.64,8.52-3.32-2.41,2.21-5.38,2.99-8.52,3.32Z"/>
    <path class="cls-4" d="M101.77,191.24c1.14-.53,1.99.3,2.95.62-.31,1.08-.51,2.15,0,3.22-.63.61-1.26,1.22-1.89,1.83-.29-1.9-1.51-3.63-1.08-5.68Z"/>
    <path class="cls-7" d="M197.87,283.15c-3.32,1.91-5.46.9-6.04-2.82,2.69-.51,3.57,2.85,6.04,2.82Z"/>
    <path class="cls-4" d="M99.18,237.75c-3.47.82-6.93,1.63-11.19,2.63,3.65-3.46,7.3-3.55,11.19-2.63Z"/>
    <path class="cls-4" d="M178.26,246.79c-3.33,1.31-6.4.16-9.47-.99,4.3-.21,8.59-.42,12.89-.63-.28.4-.56.8-.85,1.2-.86.14-1.72.28-2.57.42Z"/>
    <path class="cls-7" d="M161.14,192.35c-1.22-2.66-.3-4.76,1.7-6.59,1.07,1.5-.28,3.17.44,4.83.97,2.22-1.99.44-2.14,1.77Z"/>
    <path class="cls-4" d="M149.11,77.51c1.89,1.55,4.07,1.12,6.17,1.19.68.02,1.89-.43,1.61,1.06-.14.73-.55,1.32-1.45,1.15-2.43-.45-4.97-.71-6.33-3.4Z"/>
    <path class="cls-2" d="M200.53,104.42c-1.96.04-2.75-.72-2.87-2.01-.14-1.46.95-1.52,2.01-1.42,1.14.11,2.54.24,2.66,1.6.12,1.4-1.15,1.76-1.8,1.83Z"/>
    <path class="cls-4" d="M134.32,428.34c.32-.29.64-.57.97-.86,3.13,1.32,6.68,1.74,9.25,4.28l.08-.02c-3.53-.85-7.07-1.65-10.3-3.4Z"/>
    <path class="cls-7" d="M168.71,196.33c-1.46,2.02-3.21,3.64-5.75,4.15-.14-.09-.26-.2-.35-.33.33-.8.66-1.6.98-2.39,1.48-1.3,2.54-4.12,5.12-1.42Z"/>
    <path class="cls-1" d="M61.68,281.72c.01.52.03,1.03.04,1.55-2.51,1.85-5.03,3.69-7.54,5.54-.24-.25-.49-.5-.73-.76,2.74-2.11,5.49-4.22,8.23-6.33Z"/>
    <path class="cls-1" d="M188.43,516.16c.18,1.32-1.09,1.75-1.6,2.65-2.44.55-4.43-1.47-5.96-.95,2.37,1.75,4.29-3.8,7.56-1.69Z"/>
    <path class="cls-1" d="M89.18,279.15c1.33,1.03,2.72.26,4.09.13-1.02,1.24-.24,3.61-2.55,4.04-.87-.65-1.85-1.19-2.57-1.97-1.27-1.38-.87-2.19,1.03-2.19Z"/>
    <path class="cls-1" d="M309.24,393.87c-1.9.6-2.45-2.58-4.48-1.61-.32-.07-.64-.15-.96-.22.71-2.15,1.3-4.38,3.22-5.87-1.66,3.26,1.05,5.26,2.22,7.7Z"/>
    <path class="cls-1" d="M217.72,281.09c-.1-.57-.2-1.14-.3-1.71,2.08-1.8,5.32-.48,7.26-2.69,0,0,.22-.08.22-.08.2,1.46,1.92,3.79-1.87,2.71-1.94-.55-3.78.42-5.3,1.77Z"/>
    <path class="cls-1" d="M317.77,397.97c0,.34,0,.68,0,1.03-3.36-.87-6.48-2.11-8.54-5.14,3.32.38,5.5,3.15,8.55,4.11Z"/>
    <path class="cls-4" d="M227.72,118.04s.01.02.02.02c-3.98,2.06-7.5-.27-12.15-.98,3.48-.68,3.45-.58,7.54.52,1.45.39,2.93,1.84,4.59.44Z"/>
    <path class="cls-4" d="M204.28,230.81c-2.32-2.24-4.25-4.75-5.37-7.83,2.58,1.92,4.39,4.46,5.98,7.18-.2.22-.4.43-.6.65Z"/>
    <path class="cls-7" d="M156.97,250.01c2.55-.1,2.65,3.37,5.06,3.47l.16.23-.16.23c-3.61,2.77-4-1.22-5.6-2.68.18-.42.35-.83.53-1.25Z"/>
    <path class="cls-4" d="M365.85,137.13c.49,1.23.93,2.48,1.48,3.69.46,1,1.34,2.13-.12,2.77-.35.15-1.61-1.15-2.07-2-.75-1.38-.44-2.91.7-4.45Z"/>
    <path class="cls-1" d="M120.82,317.37c-2.2,3.54-6.04,3.69-9.5,4.61,2.56-2.79,6.44-2.85,9.5-4.61Z"/>
    <path class="cls-4" d="M189.61,203.55c2.54,3.32,2.18,4.6-2,6.22-.23-2.28,3.22-3.53,1.64-5.95.11-.1.23-.19.36-.27Z"/>
    <path class="cls-4" d="M194.53,217.23c-1.25-1.95-2.49-3.89-3.74-5.84,3.67.34,3.66,3.19,3.74,5.84Z"/>
    <path class="cls-4" d="M159.35,74.61c0,.46,0,.92,0,1.39-1.92.7-3.81,1.69-6.29.54,1.92-1.92,4.13-1.85,6.29-1.93Z"/>
    <path class="cls-4" d="M143.96,25.72c.11.61,1.85,1.65-.43,1.62-2.77-.5-5.31.64-7.93,1.16-.24-.26-.48-.51-.72-.77,2.96-.96,5.97-1.74,9.08-2.01Z"/>
    <path class="cls-7" d="M137.89,183.3l.05,2.44c-1.84-.41-3.19-1.62-4.81-2.96,1.85-.65,3.31-.04,4.77.52Z"/>
    <path class="cls-1" d="M231.36,301.69c.43-2.21-2.86-1.61-2.72-3.6,1.74.48,3.64.44,5.2,1.53-.04,1.56-1.15,1.88-2.37,2.09,0,0-.11-.01-.11-.01Z"/>
    <path class="cls-1" d="M94.23,343.36c-.95,2.32-.92,5.33-4.24,5.97,1.72-1.78,1.59-4.86,4.24-5.97Z"/>
    <path class="cls-1" d="M49.81,292.99c-.39-.38-.79-.77-1.18-1.15,1.33-1.62,3.08-2.69,4.82-3.79.24.25.49.5.73.76-1.46,1.4-2.92,2.79-4.37,4.19Z"/>
    <path class="cls-4" d="M85.74,94.35c-.33,3.49-2.03,3.36-4.32,1.64,1.17-1.27,2.86-1.15,4.32-1.64Z"/>
    <path class="cls-1" d="M235.73,300.22c1.56.3,3.11.66,4.41,1.66-.2.25-.41.5-.61.76-.63.15-2.24-1.7-1.72.96.15.77-.94.38-1.48.03-.2-1.14-.4-2.27-.6-3.4Z"/>
    <path class="cls-4" d="M79.69,99.3c-1.48.07-2.62-.29-2.61-2.09,1.03-.79,2.22-1.12,3.49-1.23-.29,1.11-.59,2.21-.88,3.32Z"/>
    <path class="cls-1" d="M111.36,321.94c-1.19,1.7-2.54,3.24-4.33,4.35.07-2.82,1.47-4.31,4.33-4.35Z"/>
    <path class="cls-4" d="M321.41,253.41c.45,0,.9.02,1.35.03.38,1.98-.49,3.66-1.81,5.36.15-1.8.31-3.59.46-5.39Z"/>
    <path class="cls-1" d="M81.43,390.81c-.55,1.32-1.07,2.67-2.66,3.12-1.13-1.8,2.69-2.95.64-4.87,1.63-.52,1.73.72,2.02,1.75Z"/>
    <path class="cls-7" d="M115.54,189.19c1.17.81,2.96,1.22,2.23,3.31-2.68.2-2.74-1.36-2.23-3.31Z"/>
    <path class="cls-4" d="M54.74,363.21c-1.63-.23-2.46-1.4-4.05-3.15,2.7.22,3.63,1.4,4.47,2.71-.14.15-.28.29-.42.44Z"/>
    <path class="cls-7" d="M137.98,185.76c1.17.14,2.64.64,2.05,1.89-.75,1.57-2.17-.04-3.31-.1-.74-1.41,2.07-.33,1.26-1.79Z"/>
    <path class="cls-1" d="M235.73,300.22c.2,1.14.4,2.27.6,3.4-1.62-.64-3.24-1.28-4.87-1.92,1.22-.2,2.34-.53,2.38-2.09.63.2,1.26.4,1.89.6Z"/>
    <path class="cls-4" d="M189.25,203.81c-1.19-.74-2.37-1.49-3.56-2.23.04-.39.09-.77.13-1.16,1.6.63,2.97,1.54,3.78,3.12-.12.08-.24.17-.35.26Z"/>
    <path class="cls-6" d="M177.27,262.16c.35.58.7,1.17,1.04,1.75-2.73,2.32-4.16-.59-5.82-1.7-.74-.5.11-1.93,1.37-1.62,1.19.3,2.28,1.03,3.41,1.57Z"/>
    <path class="cls-7" d="M168.63,210.96c1.49-.4,2.97-.8,4.46-1.21-.92,1.77-2.58,2.24-4.37,2.5-.03-.43-.06-.86-.09-1.3Z"/>
    <path class="cls-2" d="M255.68,161.44c-.97-.42-2.41-.45-2.3-1.87.04-.44,1.37-1.17,1.99-1.07,1.36.23.32,1.62.77,2.38-.16.18-.32.37-.47.56Z"/>
    <path class="cls-4" d="M199.78,168.92c-.66-.11-1.32-.22-1.98-.33,0-2.01,1.97-2.04,3.01-3,.24.28.49.55.73.83-.35.51-.7,1.02-1.05,1.53,0,0,.06-.06.06-.06-.61,0-.98.22-.87.91l.11.13Z"/>
    <path class="cls-7" d="M181.77,273.94c-1.19-.1-2.56.68-3.51-.67q.57-1.77,3.51.67Z"/>
    <path class="cls-7" d="M169.54,268.9c.91-.07,1.62-.42,1.97-1.32.32.47.64.94.97,1.41-.13.88-.26,1.76-.39,2.65-1.06-.71-1.98-1.56-2.55-2.74Z"/>
    <path class="cls-7" d="M203.85,277.59c.09,1.35-1.08,1.66-1.88,2.29.4-.95-.04-2.59,1.88-2.29Z"/>
    <path class="cls-7" d="M207.27,265.46c-.8-.04-2.16.25-2.02-.8.21-1.55,1.8-.77,2.82-.95-.35.54-1.43.76-.8,1.75Z"/>
    <path class="cls-1" d="M85.71,410.84c.64-.85,1.47-1.05,2.45-.67-1.01.72-.29,1.16.26,1.63l.1-.06c-1.19.47-2.04-.09-2.81-.91Z"/>
    <path class="cls-7" d="M128.59,183.18c-.74,0-1.48,0-2.22,0-.38-.73-.82-2.03-.06-2.04.75-.01,1.52,1.31,2.29,2.05Z"/>
    <path class="cls-2" d="M377.72,313.38c.22-.66-.42-1.76.93-1.85.7.57,1,1.26.34,1.99-.35.39-.91.48-1.27-.15Z"/>
    <path class="cls-1" d="M152.46,291.96c.62.78,1.09,1.6.84,2.65-1.49-.5-2.12-1.27-.84-2.65Z"/>
    <path class="cls-7" d="M144.78,172.41c-.22.88.57,2.8-1.66,1.61.87-.21.04-2.17,1.66-1.61Z"/>
    <path class="cls-1" d="M78.8,393.89c-.74,1.51-1.53,2.87-3.27.96,1.29.36,1.78-2,3.27-.96Z"/>
    <path class="cls-7" d="M199.58,266.25c.93-1.1,1.8-1.12,2.58.17-.88.3-1.74.22-2.58-.17Z"/>
    <path class="cls-7" d="M185.83,200.43c-.04.39-.09.77-.13,1.16-.5.21-1,.41-1.5.62-.02-.87-.04-1.74-.06-2.61.56.28,1.12.56,1.69.84Z"/>
    <path class="cls-7" d="M169.6,202.92c-.79.04-1.81.34-2.13-.63-.32-.96.62-.97,1.28-1.08-.42.92.03,1.4.85,1.71Z"/>
    <path class="cls-3" d="M41.43,324.2c-.56-.84-1.12-1.68-1.67-2.51.28-.28.56-.56.84-.83.59.26.46,1.37,1.42,1.18,0,0-.07-.09-.07-.09.03.56.07,1.13.1,1.69-.19.21-.39.39-.62.56Z"/>
    <path class="cls-6" d="M172.08,271.63c.13-.88.26-1.76.39-2.65.63.66,1.25,1.33,1.88,1.99-.34.63-.68,1.27-1.03,1.9-.41-.42-.83-.83-1.24-1.25Z"/>
    <path class="cls-1" d="M95.94,340.79c.08,1.32-.42,2.25-1.75,2.62-.5-1.6.12-2.44,1.75-2.62Z"/>
    <path class="cls-7" d="M211.68,279.49c-.04-.99-.08-1.99-.12-2.98.53.13,1.06.26,1.59.38l-.03.02c-.88.64.58,2.58-1.44,2.58Z"/>
    <path class="cls-1" d="M97.59,338.18c0,1.23-.43,2.2-1.63,2.7-.52-1.54-.07-2.5,1.63-2.7Z"/>
    <path class="cls-1" d="M197.01,487.44c0,.2,0,.39,0,.59h-2.9c0-.2,0-.39.01-.59h2.88Z"/>
    <path class="cls-1" d="M248.42,316c-1.4.23-1.62-.74-1.79-1.77,1.32-.15,1.48.89,1.79,1.77Z"/>
    <path class="cls-7" d="M162.14,197.91c-.92-.43-1.5-.93-.38-1.79.13.6.25,1.2.38,1.79Z"/>
    <path class="cls-7" d="M105.41,213.23c-.15.63-.06,1.4-.88,1.68-.31-.56-.63-1.12-.94-1.68.61,0,1.21,0,1.82,0Z"/>
    <path class="cls-4" d="M54.1,112.94c.28,0,.57.02.85.03,1.13.21.93.68.26,1.26-.57.49-1.25.73-1.76.13-.14-.16.41-.93.65-1.42Z"/>
    <path class="cls-4" d="M206.35,233.05c-.19-.17-.38-.34-.56-.51.16-.13.3-.3.48-.38.05-.03.31.17.3.24-.03.22-.13.43-.21.65Z"/>
    <path class="cls-1" d="M251.85,319.43c-1.44.26-1.95-.42-1.78-1.78.89.29,1.42.95,1.78,1.78Z"/>
    <path class="cls-7" d="M94.12,274.7c-.88.63-1.7,1.09-1.72-.63.57-.02,1.13-.04,1.7-.06.02.23.03.46.02.69Z"/>
    <path class="cls-7" d="M174.69,208.52c-.06-.41-.11-.82-.17-1.23,1.12-.18,1.81.23,1.92,1.42-.6.09-1.23.41-1.76-.19Z"/>
    <path class="cls-4" d="M196.96,169.46c-.26.91-1.1.99-1.81,1.26.05-1.22.55-1.78,1.81-1.26Z"/>
    <path class="cls-8" d="M398.66,182.65c.14.22.3.42.39.66.16.45-.04.71-.5.6-.14-.03-.28-.42-.26-.63.02-.22.23-.42.37-.63Z"/>
    <path class="cls-7" d="M172.96,209.84c.6-.47,1.19-.94,1.79-1.41.49,1.85-.84,1.39-1.79,1.41Z"/>
    <path class="cls-2" d="M48.66,83.41c-.66.11-1.31.22-1.97.33.03-.24.06-.48.09-.71.64.12,1.28.24,1.92.37h-.03Z"/>
    <path class="cls-1" d="M240.14,301.88c.53.3,1.06.61,1.58.91-.09.24-.25.42-.48.54-.57-.23-1.14-.46-1.71-.69.2-.25.41-.5.61-.76Z"/>
    <path class="cls-1" d="M246.7,314.31c-.86-.31-1.66-.66-.87-1.78.88.3,1.27.85.87,1.78Z"/>
    <path class="cls-1" d="M98.52,336.5c.57,1.04.15,1.57-.9,1.77-.65-1.07.2-1.38.9-1.77Z"/>
    <path class="cls-5" d="M144.53,431.76c.25.04.49.08.74.11-.1-.04-.19-.1-.29-.12-.12-.02-.24-.02-.36-.02,0,0-.08.02-.08.02Z"/>
    <path class="cls-1" d="M107.08,500.16c-.23-.11-.63-.18-.66-.32-.1-.49.23-.65.66-.51.24.08.44.28.65.43-.22.14-.43.27-.65.4Z"/>
    <path class="cls-1" d="M80.3,488.09c-.22-.06-.44-.13-.66-.2.1-.14.18-.31.32-.42.07-.05.33,0,.33.02.03.19.02.39.02.6Z"/>
    <path class="cls-1" d="M86.4,484.47c-.23.08-.54.28-.64.21-.17-.13-1.01-.02-.37-.61.15-.14.49-.19.7-.13.14.04.2.34.3.53Z"/>
    <path class="cls-1" d="M41.98,419.66c.2.13.4.26.59.39-.19.05-.37.1-.56.15.01-.21.03-.43.04-.64l-.07.1Z"/>
    <path class="cls-1" d="M42.05,419.56c-.33-.02-.67-.04-1-.06.08-.21.16-.42.24-.63.23.26.46.53.68.79,0,0,.07-.1.07-.1Z"/>
    <path class="cls-1" d="M88.42,411.81c.11.22.22.45.33.67-.18-.04-.37-.08-.55-.11.1-.2.21-.4.32-.61,0,0-.1.05-.1.05Z"/>
    <path class="cls-6" d="M51.95,402.08c-.04.2-.09.39-.13.59-.64-.34.16-.39.12-.61,0,0,0,.02,0,.02Z"/>
    <path class="cls-4" d="M55.71,363.95c-.32-.25-.64-.49-.96-.74.14-.15.28-.29.42-.44.41.32,1.01.57.46,1.24,0,0,.09-.06.09-.06Z"/>
    <path class="cls-10" d="M99.38,335.65c-.08.53-.1,1.13-.92.91.31-.3.61-.61.92-.91Z"/>
    <path class="cls-1" d="M107.1,326.22c-.07.74-.51,1-1.2.94.31-.43.35-1.2,1.2-.94Z"/>
    <path class="cls-1" d="M255.18,322.83c-.5-.09-.84-.32-.83-.89.28.3.56.59.83.89Z"/>
    <path class="cls-1" d="M254.41,322.01c-.62,0-.93-.31-.93-.93.31.31.62.62.93.93Z"/>
    <path class="cls-1" d="M253.56,321.16c-.62,0-.96-.28-.93-.93.31.31.62.62.93.93Z"/>
    <path class="cls-1" d="M252.7,320.3c-.65.03-1.16-.09-.92-.93.31.31.61.62.92.93Z"/>
    <path class="cls-1" d="M250.14,317.72c-.79.17-1.1-.14-.92-.93.56.06.87.37.92.93Z"/>
    <path class="cls-1" d="M249.28,316.86c-.83.21-1.14-.1-.92-.92.54.08.91.32.92.92Z"/>
    <path class="cls-7" d="M220,288.59c-.37-.05-.73-.11-1.1-.16.23-.53.6-.82,1.2-.75,0,0-.04.02-.04.02.05.1.15.21.14.31-.04.2-.13.39-.2.58Z"/>
    <path class="cls-2" d="M346.57,278.36c.15-.26.3-.53.45-.79.25.26.51.52.76.77-.4.37-.8.38-1.21.02Z"/>
    <path class="cls-7" d="M213.15,276.89c-.29-.2-.58-.4-.86-.6.85-.54.5.47.82.63.01,0,.04-.02.04-.02Z"/>
    <path class="cls-1" d="M84.74,243.11c.29-.16.58-.33.86-.49-.07.33-.14.67-.21,1-.24-.14-.46-.31-.65-.51Z"/>
    <path class="cls-2" d="M318.02,234.9c.09-.24.18-.49.27-.73.09.04.23.05.25.11.13.48-.15.61-.59.6-.02,0,.07.01.07.01Z"/>
    <path class="cls-4" d="M204.88,230.16c.44.3.87.64.29,1.13-.09.08-.58-.31-.89-.48.2-.21.4-.43.6-.65Z"/>
    <polygon class="cls-10" points="177.26 226.06 177.19 225.96 177.29 226.1 177.26 226.06"/>
    <path class="cls-4" d="M173.9,218.41c-.5-1.01.49-.9.91-1.22.14.74-.18,1.13-.91,1.22Z"/>
    <path class="cls-7" d="M169.95,193.74c-.25.26-.51.52-.77.78,0,0,.12-.08.11-.07-.31-.22-.73-.43-.36-.88.46-.55.85-.39,1.14.21,0,0-.12-.04-.12-.04Z"/>
    <path class="cls-7" d="M170.07,193.78c-.19-.23-.37-.47-.56-.7.19-.12.39-.24.58-.36-.06.34-.12.67-.16,1.02.02,0,.14.05.14.05Z"/>
    <path class="cls-7" d="M191.84,175.84c-.08.3-.28.48-.59.53-.14-.55,0-.8.59-.53Z"/>
    <path class="cls-4" d="M197.78,168.62c.08.65-.26.88-.85.86-.39-.95.09-1.05.85-.86Z"/>
    <path class="cls-8" d="M48.87,104.43l.08-.14s-.02.12-.01.11c0,0-.07.03-.07.03Z"/>
    <path class="cls-4" d="M50.08,93.67c-.31.09-.86.33-.91.26-.28-.46.1-.6.46-.72.15.15.29.31.44.46Z"/>
    <path class="cls-4" d="M49.63,93.21c.19-.4.31-1.15.92-.6.57.51-.13.78-.48,1.05-.15-.15-.3-.3-.44-.46Z"/>
    <path class="cls-2" d="M48.69,83.39c-.87-.42-.46-1.02-.23-1.6,0-.01-.06-.05-.07-.05.08.55.16,1.11.26,1.67,0,0,.04-.02.04-.02Z"/>
    <polygon class="cls-8" points="57.52 64.59 57.77 64.52 57.76 64.71 57.52 64.59"/>
    <path class="cls-2" d="M95.38,57.77c.13.22.28.43.4.65.02.03-.08.12-.12.18-.09-.27-.18-.55-.27-.82,0,0,0,0,0,0Z"/>
    <path class="cls-4" d="M134.44,28.99c.05-.31.1-.63.14-.94,0-.2.1-.3.3-.32.24.26.48.51.72.77-.39.16-.77.33-1.16.49Z"/>
    <path class="cls-4" d="M251.6,71.23c-5.61-2.05-10.92-4.74-16.13-7.63q1.25-2.06,5.22.61c3.84,2.12,7.68,4.23,11.53,6.35-.2.22-.41.45-.61.67Z"/>
    <path class="cls-9" d="M354.09,124.14"/>
    <path class="cls-4" d="M210.92,302.06c4.6-1.19,7.9,2.64,12.45,2.77-1.03,1.03-3.1.8-1.83,2.64.72,1.04,1.61.65,2.35.05.65-.53,1.16-1.21,1.74-1.83,1.08.1,2.17.21,3.25.31.04,1.62,1.3,1.3,2.28,1.44-4.24,2.45-8.83,2.16-13.44,1.72-.6-2.11-2.2-3.02-4.14-3.64-1.64-.52-3.22-1.21-2.65-3.47Z"/>
    <path class="cls-4" d="M217.42,309.98c-.36,1.47.18,1.94,1.7,1.91,4.53-.09,9.07-.03,13.63.31-5.94,3.5-12.21,1.7-18.56,1.09.46-1.08,2.53-.53,1.82-2.24.47-.36.95-.71,1.42-1.07Z"/>
    <path class="cls-7" d="M200.44,297.96c3.53.68,3.76,5,6.84,6.18.08,1.31.98,1.94,1.99,2.56.71.43,1.58,1.07.82,2-.67.81-1.64.35-2.3-.15-1.34-1.02-2.58-2.16-3.86-3.26-1.18-1.02-2.3-2.18-4.09-1.86,0,0-.01-.08,0-.08.84.15,1.23-.37,1.52-1.02-.3-.66-.6-1.32-.9-1.97,0-.8,0-1.6,0-2.4Z"/>
    <path class="cls-7" d="M196.5,298.99c-.65,1.15-1.76.63-2.67.74-1.74.22-3.65,1.36-5.07-.62-.22-.3.13-1.01.21-1.53,1.79,1.57,3.82-2.86,5.63.24.32.55,1.79-.15,1.9,1.18Z"/>
    <path class="cls-7" d="M91.56,273.2c-1.24-.5-2.71-.78-2.45-2.66.14-1.15-.63-2.82,1.11-3.15,1.63-.31,1.79,1.46,2.34,2.48.75,1.37,1.67,2.93-1,3.33Z"/>
    <path class="cls-7" d="M162.76,261.97c-.29,0-.58,0-.87,0,0,0,.05.1.05.1-.24-.27-.48-.54-.71-.81-.77-.71-2.82-.38-1.96-2.4.3-.7.87-1.15,1.64-.97,2.3.56,1.76,2.48,1.86,4.08Z"/>
    <path class="cls-7" d="M152.28,260.24c-.12.98-.65,1.62-1.63,1.51-1.17-.14-1.53-1.08-1.59-2.12-.04-.71.07-1.59.96-1.52,1.2.1,1.91.99,2.26,2.13Z"/>
    <path class="cls-7" d="M152.33,201.14c2.41-3.29,2.83,1.22,4.43,1.13-2.33,2.98-2.82-1.27-4.43-1.13Z"/>
    <path class="cls-7" d="M142.7,263.21c-1.04-.31-1.3-.95-1.28-1.66.02-.9.47-1.68,1.4-1.77.93-.09,1.14.73.94,1.42-.22.73-.71,1.38-1.05,2.01Z"/>
    <path class="cls-7" d="M151.02,179.06c-2.54,1-3.75.08-5.2-1.56,2.11-.33,3.39.42,5.2,1.56Z"/>
    <path class="cls-7" d="M155.98,301.93c.48-.24,1.35-.47,1.36-.72.04-1.62-.02-1.62,1.97-1.49.16,2.66-1.13,3.11-3.33,2.21Z"/>
    <path class="cls-7" d="M154.25,178.97c.77.01,1.41.31,1.47,1.11.06.8-.41,1.36-1.27,1.01-.6-.24-1.47-.65-1.58-1.14-.2-.85.66-1,1.38-.99Z"/>
    <path class="cls-7" d="M135.33,231.19c.19-1.33.75-2.15,2.15-1.26.39.25.85,1.17.71,1.37-.92,1.27-1.86-.43-2.85-.1l-.02-.02Z"/>
    <path class="cls-7" d="M153.33,303.01c-1.45-.33-2.9-.65-4.97-1.11,2.11-.65,3.54-.57,4.98-.2,0,.44,0,.88,0,1.32Z"/>
    <path class="cls-7" d="M162.95,200.48c-.26,1.1-.62,2.11-1.98,2.16-.17,0-.51-.3-.51-.47,0-1.39,1.11-1.69,2.14-2.03.09.14.21.25.35.33Z"/>
    <path class="cls-7" d="M124.59,194.81c-.55.12-1.1.24-1.65.35-.7-.24-1.46-.68-.55-1.33.97-.68,1.82-.17,2.2.97Z"/>
    <path class="cls-7" d="M164.46,291.94c-.95.47-1.62.06-2.14-.71-.12-.17-.14-.64-.06-.67.94-.43,1.5.4,2.21.74.03.21.03.43,0,.64Z"/>
    <path class="cls-7" d="M130.84,199.13c-.5-.35-1.58-.32-1.28-1.2.22-.65.98-.12,1.5-.01-.07.41-.15.81-.22,1.22Z"/>
    <path class="cls-7" d="M190.99,294.78c.1.05.23.07.29.14.03.05-.04.18-.07.27-.16-.08-.33-.15-.49-.23.09-.06.18-.12.27-.19Z"/>
    <path class="cls-7" d="M200.5,306.24c-.18.03-.37.05-.55.08.17-.06.34-.13.5-.19l.05.11Z"/>
    <path class="cls-7" d="M159.32,299.72l.02-.87c.68.31.7.59-.02.87Z"/>
    <path class="cls-7" d="M204.89,292.39c.24.31.48.62.72.92-.3.12-.61.24-.91.37.07-.43.13-.86.2-1.29Z"/>
    <path class="cls-7" d="M210.13,291.24c.56.61.19.64-.35.58.05-.24.17-.43.35-.58Z"/>
    <path class="cls-7" d="M157.68,290.3c.07-.23.09-.63.22-.66.51-.14.57.26.59.65,0,0-.4.02-.4.02h-.4Z"/>
    <path class="cls-7" d="M135.34,231.2c-.07.12-.14.24-.21.36.06-.12.13-.25.19-.37,0,0,.02.02.01.02Z"/>
    <path class="cls-7" d="M149.72,206.36c.22.64.05.96-.68.81.23-.27.45-.54.68-.81Z"/>
    <path class="cls-1" d="M159.96,329.86c-5.72-.63-11.38.54-17.08.61-.93.01-2.07.49-2.67-.68-.1-.2.19-.77.46-.95.83-.59,1.71-.18,2.6-.16,5.43.11,10.95,1.09,16.29-.8.97.49.24,1.33.41,1.99Z"/>
    <path class="cls-4" d="M189.09,401.97c4.4-.91,8.86-.81,13.5-.87-4.45,1.5-8.95,1.66-13.4,2.13-.03-.42-.06-.84-.1-1.26Z"/>
    <path class="cls-1" d="M144.76,350.08c1.95-1.8,3.23-5.05,6.88-3.19,0,.42,0,.84.01,1.25-2.25,1.03-4.49,2.07-6.74,3.1l-.15-1.17Z"/>
    <path class="cls-1" d="M142.99,318.55c3.94-.39,7.49,1.24,11.19,2.09,0,.42,0,.85.01,1.27-3.84-.78-7.8-1.15-11.2-3.36Z"/>
    <path class="cls-1" d="M145.64,336.54h-12.53c0-.46,0-.92.01-1.39,4.45.23,8.91.46,13.36.69-.28.23-.56.47-.83.7Z"/>
    <path class="cls-4" d="M113.24,378.44c-.71,5.62-4.07,10.26-5.71,15.55-.45,1.44-1.03,2.72-.39,4.2-2.5,1.23-4.8-.52-5.18-2.04-1.09-4.37-5.08-5.25-7.79-7.6-1.52-1.31-2.94-2.22-1.25-4.39.65-.84,1.31-2.07-.96-1.96-.74.03-1.46-1.25-2.32-1.65-1.7-.8-2.38-4.12-5.22-2.21-.86-1.48-3.84-2.09-1.87-4.73.67-.9,1.15-1.94,1.72-2.91.9-1.34,1.8-2.69,2.7-4.03.18-.31.35-.61.53-.92,2.45-2.73,4.91-5.45,7.36-8.18.79-1.2,3.54-2.03,1.97-3.58-1.21-1.18-2.75.9-3.8,2.12-.09.1-.12.25-.18.37-.82.26-1.06,2.78-2.51.66.04-.29.07-.59.11-.88,3.13-4.67,4.39-10.26,11.16-12.62,5.87-2.05,10.21-7.85,16.06-10.8.1-.05.29-.04.36.03.09.09.1.26.15.39.03.55.08,1.16.73,1.29.67.13.92-.4,1.05-.96,2.92-.1.79,3.17,2.56,3.84.53,1.01.27,1.63-.69,2.33-1.55,1.13-2.3,2.79-2.8,5.61,1.7-1.96,2.84-3.06,3.72-4.34,1.11-1.62,2.05-.81,3.07-.02-7.17,9.54-7.31,21.82-12.42,32.18-.64,1.29-.29,3.06-.4,4.6-.06.09-.19.24-.17.27.12.15.28.27.42.4Z"/>
    <path class="cls-4" d="M106.21,333.03c.48-1.43.7-2.41,1.12-3.28.79-1.62,1.15-3.53,4-1.95,1.49.83,3.89.02,5.88-.03,1.18-.03,2.41-.08,1.95,1.75-.25.98.1,2-1.79,2.06-3.51.11-7.01.87-11.16,1.45Z"/>
    <path class="cls-1" d="M135.16,313.83c-3.13,6.51-4.19,7.14-9.53,5.34,2.66-2.49,5.54-4.36,8.6-5.99.31.22.62.43.93.65Z"/>
    <path class="cls-7" d="M143.08,312.51c.42,2.04.44,4.07,0,6.11-1.59-.44-3.07-.24-3.29-3.03-.27-3.31,2.4-1.93,3.3-3.08Z"/>
    <path class="cls-4" d="M235.47,309.12c1.46-.58,2.92-1.16,4.38-1.73-.31,2.31,1.83,3.35,2.64,5.08l-.48.84c-2.15-1.43-4.89-1.96-6.54-4.18Z"/>
    <path class="cls-1" d="M257.81,345.71c-1.67-.74-3.4-.93-5.19-.55-.22-1.36-2.42-.63-2.36-2.33,2.18.23,4.38.47,6.59.71q2,1.36.97,2.17Z"/>
    <path class="cls-1" d="M155.81,307.94c-3.21.91-4.93-.6-6.82-3.13,2.9.36,4.92,1.24,6.82,3.13Z"/>
    <path class="cls-1" d="M268.8,340.08c1.69-.05,2.39.97,2.69,2.45-2.04.44-2.47-.88-2.69-2.45Z"/>
    <path class="cls-1" d="M267.03,337.46c1.2.46,2.05,1.16,1.79,2.62-1.28-.41-2.47-.88-1.79-2.62Z"/>
    <path class="cls-1" d="M119.94,333.56c-.13.57-.38,1.09-1.05.96-.64-.12-.69-.74-.73-1.29.59.11,1.18.22,1.77.33Z"/>
    <path class="cls-1" d="M113.24,378.44c-.15-.13-.3-.25-.42-.4-.02-.03.11-.18.17-.27.61-.33,1.23-.66,1.84-.99-.08.98-.32,1.81-1.58,1.66Z"/>
    <path class="cls-1" d="M232.24,307.34c-.12-.43-.24-.86-.36-1.29.43,0,.86-.02,1.29-.02-.09.4-.18.8-.28,1.2-.22.05-.44.09-.66.11Z"/>
    <path class="cls-1" d="M233.72,308.26c.82-.09,1.61-.12,1.86.93-.97.39-1.54,0-1.86-.93Z"/>
    <path class="cls-7" d="M132.56,340.43c-.34.23-.6.48-.92.6-.11.04-.34-.23-.52-.35.25-.23.48-.51.77-.66.11-.05.38.22.67.41Z"/>
    <path class="cls-1" d="M116.53,373.36c.26.88-.13,1.43-.91,1.78-.04-.77-.04-1.51.91-1.78Z"/>
    <path class="cls-1" d="M115.67,375.06c-.3.6-.6,1.19-.91,1.79.11-.7-.01-1.5.91-1.79Z"/>
    <path class="cls-1" d="M117.38,372.55c.11.71-.09,1.1-.9.87-.01-.61.11-1.08.9-.87Z"/>
    <path class="cls-7" d="M118.28,371.65c-.33.31-.65.63-.98.94.19-.45-.09-1.4.98-.94Z"/>
    <path class="cls-1" d="M266.24,336.59c.3.32.6.63.9.95-.97.31-1.27,0-.9-.95Z"/>
    <path class="cls-1" d="M265.41,335.71c.3.32.6.64.9.96-1.04.38-1.12-.15-.9-.96Z"/>
    <path class="cls-1" d="M265.47,334.91c-.02.32-.04.64-.07.96-.69.3-.87-.26-1.14-.67.2-.2.4-.39.6-.59.26-.02.46.08.6.31Z"/>
    <path class="cls-1" d="M264.27,335.19c-.3-.34-1.03-.65-.43-1.17.61-.54.81.16,1.04.58-.2.2-.4.4-.6.59Z"/>
    <path class="cls-8" d="M243.27,313.35c.08.1.18.2.24.31.02.04-.04.12-.06.18-.04-.2-.08-.4-.12-.59l-.07.1Z"/>
    <path class="cls-1" d="M243.34,313.25c-.42.59-.88.33-1.33.05.16-.28.32-.56.48-.84.26.3.52.6.78.89,0,0,.07-.1.07-.1Z"/>
    <path class="cls-1" d="M134.23,313.18c.22-.49.57-.71,1.11-.6l-.07-.1c.7.51.15.92-.12,1.35-.31-.22-.62-.43-.93-.65Z"/>
    <path class="cls-1" d="M135.35,312.58c.14-.17.28-.35.42-.52.03.17.06.34.09.52-.19-.03-.38-.06-.57-.09,0,0,.06.1.06.1Z"/>
    <path class="cls-1" d="M239.79,307.47c.07-.55.15-1.09.93-.92-.12.5-.31.93-.93.92Z"/>
    <path class="cls-1" d="M55.13,409.52c-.01-.21-.02-.43-.03-.64.55.15.18.4.07.62,0,0-.03.02-.03.02Z"/>
    <path class="cls-1" d="M77.13,373.44c-.11-1.83,2.07-1.3,2.57-2.5.52-.09,1.03-.18,1.55-.27.24.19.49.37.73.56-.7,2.76-2.97,2.06-4.85,2.21Z"/>
    <path class="cls-1" d="M73.06,375.38c.76-1.9,2.2-2.41,4.09-1.96-.94,1.54-1.75,3.34-4.09,1.96Z"/>
    <path class="cls-7" d="M100.09,394.25c-.1.16-.2.32-.3.48-.09-.09-.27-.19-.25-.25.05-.18.17-.34.26-.51.09.09.18.17.29.27Z"/>
    <path class="cls-1" d="M81.25,370.67c.21-.16.49-.51.62-.46.61.23.28.65.11,1.02-.24-.19-.49-.37-.73-.56Z"/>
    <path class="cls-7" d="M172,249.09c-.81,0-1.61,0-2.42,0,0-.19-.01-.39,0-.58.83.1,1.87-.65,2.43.59Z"/>
    <path class="cls-2" d="M263.84,76.7c.75.61,1.88,1.09,1.93,1.66.11,1.2-1.16.82-1.9.96-1.06.2-1-.55-1.01-1.27,0-.71.09-1.27.98-1.35Z"/>
    <path class="cls-3" d="M252.21,70.56c.39.34.77.67,1.16,1.01-.71.53-1.28.32-1.77-.33.2-.22.41-.45.61-.67Z"/>
    <path class="cls-2" d="M261.09,75.6c-.1.18-.2.37-.3.55-.1-.1-.28-.21-.27-.28.04-.2.17-.38.27-.57.1.1.19.19.3.31Z"/>
    <path class="cls-2" d="M259.17,75.1c-.1-.05-.2-.09-.3-.14.1-.14.2-.27.3-.41.1.09.2.18.3.27-.1.09-.2.18-.3.27Z"/>
    <polygon class="cls-2" points="246.32 71.37 246.39 71.69 246.12 71.64 246.32 71.37"/>
    <path class="cls-2" d="M229.49,41.96c1.93-.68,3.41-.24,4.29,1.72-1.75.22-3.15-.41-4.29-1.72Z"/>
    <path class="cls-2" d="M226.9,41.08c1.24-.76,2.16-.61,2.63.9-1.1.35-1.95-.02-2.63-.9Z"/>
    <path class="cls-2" d="M225.29,41.01c-.1-.77.38-.83.94-.77.51.05,1.07.1.74.87-.56-.03-1.12-.07-1.68-.1Z"/>
    <path class="cls-7" d="M233.18,306.03c-.43,0-.86.02-1.29.02-1-.01-2-.03-3-.04-1.08-.1-2.17-.21-3.25-.31,1-1.28.88-4.17,3.46-3.17,1.57.61,4.43.4,4.08,3.5Z"/>
    <path class="cls-1" d="M210.7,294.54c1.44,0,2.87.01,3.44,1.73-1.43,0-2.93.12-3.44-1.73Z"/>
    <path class="cls-1" d="M214.12,296.26c1-.38,1.73-.09,2.18.89-.9.12-1.83.32-2.18-.89Z"/>
    <path class="cls-1" d="M209.85,293.47c.29.36.58.72.87,1.08-.63.38-1.18.25-1.53-.37-.05-.09.43-.47.66-.72Z"/>
    <path class="cls-1" d="M216.23,297.12c.43.02.85.04,1.28.06-.47,1.02-.88.63-1.28-.06Z"/>
    <path class="cls-7" d="M126.31,195.33c.46.42,1.54.75,1.06,1.41-.5.7-1.12-.07-1.52-.6.16-.27.31-.54.47-.81Z"/>
    <path class="cls-7" d="M125.84,196.14c-.37-.22-1.13-.23-.72-.93.36-.61.82-.25,1.18.12-.16.27-.31.54-.47.81Z"/>
    <path class="cls-6" d="M199.73,301.61c.54.24,1.08.48,1.62.72-.3.65-.68,1.17-1.52,1.02-.92-.53-.12-1.16-.1-1.74Z"/>
    <path class="cls-1" d="M151.65,348.14c0-.42,0-.84-.01-1.25,2.57-1.59,5.14-3.18,7.72-4.77-.82,4.25-4.88,4.34-7.71,6.02Z"/>
    <path class="cls-7" d="M311.99,403.96c-.09-.22-.18-.45-.26-.67,1.04-.71,1.22.26,1.62.83l-1.36-.15Z"/>
  </g>
</svg>