<?xml version="1.0" encoding="utf-8"?>
<!-- Generator: Adobe Illustrator 27.9.2, SVG Export Plug-In . SVG Version: 6.00 Build 0)  -->
<svg version="1.1" id="Layer_1" xmlns="http://www.w3.org/2000/svg" xmlns:xlink="http://www.w3.org/1999/xlink" x="0px" y="0px"
	 viewBox="0 0 462.18 510.55" style="enable-background:new 0 0 462.18 510.55;" xml:space="preserve">
<style type="text/css">
	.st0{fill:#070707;}
	.st1{fill:#0C0C0C;}
	.st2{fill:#171717;}
	.st3{fill:#151612;}
	.st4{fill:#1F2020;}
	.st5{fill:#1F1F1F;}
	.st6{fill:#363431;}
	.st7{fill:#010101;}
	.st8{fill:#575046;}
	.st9{fill:#E37626;}
</style>
<g id="Shaolin_Kung_Fu_00000070830399003152469950000015999063296062089369_">
	<path class="st0" d="M57.61,359.74c-0.62-0.18-1.65-0.66-1.79-0.48c-0.43,0.57-0.08,1.12,0.72,1.19l0.01-0.01
		c-2.05,1.77-2.71-1.2-4.45-1.24c-0.78,1.57,0.73,2.68,0.95,4.03c0.11,0.67,1.25,1.53,0.26,1.96c-6.1,2.7-1.03,5.89-0.45,8.85
		c0.17,0.88,0.67,1.7,1.02,2.55c-0.32,0.34-0.64,0.69-0.96,1.03c-10.56-15.31-15.23-33.37-22.79-49.95
		c-1.35,0.21-1.07,0.87-1.02,1.43c0.06,0.61,0.1,1.23,0.22,2.8c-2.25-4.21-3.13-7.88-3.92-11.58c0.18-0.9,1.95-0.6,1.49-1.75
		c-0.14-0.34-1.41-0.22-2.16-0.31c-0.11-0.29-0.13-0.58-0.05-0.88c1.21-0.35,3.88,0.44,1.99-2.39c-1.2-1.79,0.79-5.99-3.87-5.18
		c-4.36-19.99-7.66-40.15-9.27-60.56c-0.19-2.47-0.38-5,0.44-7.44c0.24-0.73,0.35-1.61,1.41-1.51c0.87,0.09,1.39,0.72,1.52,1.52
		c0.17,1.07,0.28,2.17,0.26,3.26c-0.2,8.76,0.24,17.47,1.89,26.09c-0.36,3.04-0.36,6.07,0.71,9.06c0.28-3.06,0.56-6.11,0.84-9.17
		c3.44-31.25,7.72-62.34,18.09-92.22c2.98-8.58,6.61-16.87,12.61-23.87c1.23-1.44,2.65-4.44,4.47-3.15
		c2.43,1.74-1.16,2.79-1.59,4.14c-2.06,6.45-6,12.15-7.38,18.84c-0.5,0.71-1.13,1.69-0.41,2.26c0.71,0.56,0.99-0.6,1.38-1.1
		c9.54-13,18.25-26.6,28.44-39.12c3.76-4.62,7.63-9.15,12.08-13.12c1.28-1.14,2.69-2.62,4.22-2.88c5.34-0.92,7.94-4.63,10.2-8.92
		c0.67-1.26,1.74-2.05,3.1-2.69c6.1-2.87,11.91-5.91,16.92-10.88c4.06-4.04,7.8-8.5,12.32-12.11c0.56-0.36,0.8-0.95,0.25-1.32
		c-0.61-0.41-1.36-0.22-1.88,0.4c-5.11,2-8.87,6.44-15.16,8.47c2.84-3.53,6.2-5.17,8.01-8.26c6.13-0.42,10.29-5.25,15.79-7.06
		c-0.18-0.2-0.36-0.41-0.53-0.62c-0.07,0.12-0.14,0.24-0.21,0.36c0.25,0.08,0.51,0.16,0.76,0.24c-1.14-1.2-2.33-0.46-3.46-0.04
		c-2.24,0.83-4.92,2.96-6.59,2.33c-3.18-1.19-4.18,0.63-5.73,2.23c-11.67,3.73-23.15,7.95-34.52,12.55
		c21.19-12.32,44.42-19.87,67.6-28.36c-2.44-1.45-5.06,0.15-7.62-1.77c11.82-2.04,22.62-5.21,31.19-13.26
		c-3.09-2.06-6.89,3.02-10.92-0.95c4.78-0.59,8.91-0.8,12.9-1.65c6.77-1.44,12.9-4.69,19.19-7.46c4.14-1.83,8.85-2.83,12.4-5.45
		c14.4-10.62,31.91-9.19,48.02-13.13c1.81-0.44,3.61-0.99,5.4-1.5c1.08-0.31,1.73-3.03,3.17-0.86c1.39,2.1-1.7,1.6-2.08,2.93
		c0.56,1.31,1.81,1.77,2.94,1.27c5.96-2.65,12.75-2.29,17.93-0.34c14.26,5.34,29.08,1.57,43.35,4.43c0,0.46-0.01,0.92-0.01,1.39
		c-2.71,2.31-6.05,2.5-9.21,1.98c-4.62-0.77-8.95,0.1-13.34,1.15c-0.93-3.41-3.97-2.49-6.15-2.69c-7.95-0.71-15.93-0.46-23.91-0.17
		c-5.04,0.18-10.01,1.74-15.13,0.32c2.12,2.27,4.4,2.58,7.18,2.01c3.66-0.75,7.44-0.98,11.18-1.28c1.86-0.15,3.85-0.16,5.29,1.33
		c1.2,1.24,0.12,1.46-0.89,1.6c-0.84-0.27-1.7-0.46-2.48,0.12c-0.09,0.07,0,0.59,0.16,0.75c0.7,0.71,1.44,1.01,2.12-0.05
		c1.33,0.09,2.65,0.17,3.98,0.26c0.33-0.17,0.66-0.33,0.99-0.5c0.6,0.26,1.2,0.52,1.8,0.79c1.81,0.21,3.65,1.12,5.4-0.21
		c2.04-0.95,5.01,1.12,6.4-1.96c0.24-0.29,0.47-0.57,0.71-0.86c1.07,0.22,2.14,0.43,3.22,0.65c-0.06,0.9,0.74,2.22-0.17,2.65
		c-4.03,1.91-6.91,5.22-12.44,5.32c-7.07,0.14-14.63,1.21-21.2,5c5.79,0.3,11.6-0.09,16.69-2.69c2.07-1.06,3.63,0.06,3.8,0.5
		c1.22,3.21,3.76,2.18,5.88,2.04c10.66-0.73,21.24-2.84,31.95-2.56c3.22,0.08,5.3-2.73,9.01-1.84c3.7,0.88,4.41,2.39,4.2,5.55
		c-4.64,0-9.29,0-14.41,0c2.92,2.71,6.23,2,9.33,2.66c-3.13,1.46-6.68,2.37-9.68,0.46c-1.76-1.12-3.4-1.52-5.12-1.54
		c-17.92-0.27-35.61,1.78-53.11,5.53c-0.72,0.15-1.4,0.52-1.95,1.56c7.54-0.8,15.07-1.62,22.62-2.39
		c7.32-0.75,14.64-1.35,22.01-1.62c3.37-0.12,6.2,2.1,9.73,1.34c0.97-0.21,0.08,1.41-0.99,1.69c-4.24,0-8.47,0-12.71,0
		c0.02,0.46,0.04,0.92,0.07,1.38c4.2,0.71,8.39,0.68,12.58-0.52c4.6-0.2,9.1-0.28,13.48-2.43c4.2-2.05,7.46,2.43,11.58,2.28
		c-0.04,0.42-0.07,0.85-0.11,1.27c-3.3,0-6.61-0.04-9.91,0.02c-1.82,0.03-3.82-0.36-5.02,1.67c-0.22,0.37-0.9,0.9-1,0.83
		c-4.93-3.55-9.24,2.24-14.1,0.91c-1.84-0.5-3.82-1.43-6.27-0.74c2.58,1.72,2.73,2.92-0.22,3.79c-0.78,0.23-2.69-0.99-2.18,1.65
		c0.48,2.49,2.07,2.12,3.41,1.75c4.74-1.32,9.41-2.87,14.11-4.34c1.34,1.57,3.05,1.05,4.71,0.85c3.53,0.39,7.06,0.79,11.58,1.29
		c-3.38,1.14-2.99,4.67-6.08,5.5c-2.46,0.66-5.21,0.01-7.42,1.69c-1.83-0.63-3.47-0.03-5.08,0.77c1.66-0.49,3.63,1.02,5.1-0.75
		c6.72-0.26,13.52,2.07,20.2-0.69c1.34-0.55,3.11-1.07,4.38,0.31c2.07,2.27,4.12,0.29,6.04-0.08c1.71-0.33,3.33-0.56,5.2-0.35
		c-1.07,1.82-2.36,2.72-4.52,2.75c-14.66,0.2-29.29,1.01-43.92,1.87c-2.25,0.13-3.85,2.12-3.72,2.54c1.27,4.05-1.74,2.91-3.41,2.86
		c-4.85-0.13-8.26,4.36-13.19,3.88c-3.22-0.31-6.11,0.94-8.9,2.4c-0.24,0.13-0.38,0.46-0.56,0.7c-0.08-3.59,2.27-5.03,5.22-6.04
		c3.56-1.22,7.32-2,10.32-4.59c-11.83-0.39-22.02,4.37-31.87,10.47c4.2,0,8.41,0,12.61,0c-0.98,0.66-1.95,1.32-3.42,2.3
		c6.27,3.11,12.26,6.07,18.24,9.04c-0.05,0.21-0.1,0.42-0.15,0.64c-4.61-0.39-9.22-0.85-13.84-1.14c-3.03-0.19-3-0.06-5.28,2.84
		c-0.26,0.33-1.15,0.14-1.72,0.27c-5.54,1.27-11.81-0.29-16.44,4.62c-0.91,0.97-3.45-0.8-4.48,1.38c-0.53-0.09-1.07-0.18-1.6-0.28
		c-0.02-2.03-1.27-2.27-2.81-1.79c-1.76,0.54-3.48,1.24-5.22,1.86c-1.09-0.19-1.7,0.4-2.13,1.29c-6.85,2.08-13.92,3.81-17.27,11.26
		c-0.51,1.13-1.73,0.36-2.41,0.98c-6.02,2.03-10.49,6.65-14.37,10.98c-5.08,5.67-11.54,9.16-17.09,13.95
		c-13.3,11.48-23.74,25.26-31.48,41.06c-0.46,0.94-0.59,2.2-1.77,2.57c-0.78,0.24-0.97-0.59-1.27-1.11c-1.38-2.37,1-1.38,1.68-1.94
		c0.28-0.23,0.53-0.95,0.38-1.2c-2.54-4.34,1.06-7.34,2.32-10.82c0.63-1.75,2.14-3.32,0.8-6.27c-1.93,2.7-3.77,4.71-4.91,7.06
		c-0.75,1.55-0.72,3.94-2.95,3.44c-2.84-0.64-3.73-2.49-1.78-5.33c1.25-1.82,2.76-3.88,1.43-7.05c-5.31,4.39-7.89,10.48-11.21,15.79
		c-3.42,5.48-5.63,11.75-9,17.25c-1.31-1.26-0.88-2.96-0.46-4.65c0.72-2.88,1.52-5.74,2.19-8.63c0.22-0.95,0-2-1.12-2.24
		c-0.4-0.09-1.29,0.45-1.4,0.85c-1.7,6.38-8.48,10.06-9.05,17.07c-0.08,0.99-0.84,2.03-1.52,2.87
		c-6.07,7.54-11.56,15.38-13.29,25.21c-0.5-0.01-1.01-0.02-1.51-0.03c-0.04-2.15-0.53-4.3,0.5-6.41c3.6-7.42,6.15-15.26,9.02-22.97
		c0.44-1.19,1.37-2.41,0.42-3.83c-6.23,5.44-10.84,12-14.85,19.02c-0.1,1.36-0.37,2.83,1.69,2.96c-0.53,1.15-1.05,2.31-1.58,3.46
		c-0.1-0.84,0.2-2.04-1.23-1.89c-1.19,0.13-1.97,0.83-1.76,2.2c-2.48,5.19-3.44,11.21-8.21,15.24c0.6-2.83,2.13-5.42,0.99-8.35
		c2.85-3.9,4.61-8.38,6.65-12.7c0.38-0.8,1.09-1.77,0.08-2.46c-0.55-0.38-1.54-0.43-2.22-0.24c-1.83,0.54-0.11,1.3-0.02,1.96
		c0.14,0.99-0.79,1.52-1.01,2.09c-1.41,3.59-4.89,6.49-3.92,10.91c-0.46,0-0.92,0-1.38-0.01c0.42,5.98-3.7,10.81-4.18,16.55
		c-0.56,1.61-0.18,2.56,1.72,2.43c-0.64,3.6-2.45,7.09-1.58,11.27c2.71-1.09,0.82-3.5,2.82-4.96c1.37,3.75,0.87,8.75-1.2,9.53
		c-4.61,1.73-2.57,4.77-2.71,7.19c-0.28,4.84,0.01,9.72,0.06,14.58c-0.32,6.22,0.73,12.24,2.48,18.18
		c-0.14-6.06-1.3-12.05-0.58-18.11c1.13-1.97,0.91-4.25,1.43-6.34c1.07-4.37-0.77-9.65,3.74-12.89c-1.22,13.51-1.8,27.1-0.97,40.75
		c2,32.7,9.43,63.71,27.89,91.37c-0.76,0.37-1.53,0.74-2.29,1.12c-4.56,0.89-7.61-2.07-8.72-5.39c-3.18-9.48-9.46-17.21-13.68-26.05
		c-1.47-3.08-2.79-6.22-4.73-10.6c-0.59,6.44,2.15,10.68,3.08,15.3c-0.43,0.82-1.21,1.04-2.03,1.19c-3.09-2.18-1.13-6.04-2.37-8.19
		c-2.66-4.6-3.34-9.45-4.27-14.38c-0.03-0.15-0.41-0.22-0.65-0.34c-0.19,0.85-0.39,1.7-0.64,2.84c-1-2.43-1.32-5.26-2.9-6.6
		c-2.72-2.31,0.41-3.81,0.03-5.5c-0.83-3.65-1.87-7.33-4-10.44c-1.31-1.91-1.68-3.71-1.58-5.98c0.98-21.77,3.55-43.38,6.08-65
		c1.9-16.18,5.37-31.84,13.32-46.28c6.23-11.31,11.54-23.09,17.78-34.42c3.6-6.54,6.63-13.43,10.48-19.87
		c0.43-0.71,1.49-1.59-0.01-2.15c-2.29-0.86-1.37-1.33,0.05-2.1c2.11-1.14,3.16-2.6,0.8-4.59c1.79-1.39,5.6-0.9,4.56-4.92
		c0.9,0.17,0.91-0.48,0.89-1.05c-0.01-0.19-0.3-0.36-0.46-0.54c-0.11,0.56-0.23,1.12-0.34,1.68c-4.33-0.99-5.26,1.21-4.6,4.9
		c-1.2-0.23-1.48,1.67-2.97,1.14c0.16-0.7,0.26-1.45,0.52-2.14c0.33-0.84,0.99-1.61-0.24-2.71c-9.33,6.15-15.22,15.02-20.09,25
		c-0.56-0.11-0.83-1.81-2.18-1.35c-0.65,0.22-0.89,0.9-0.56,1.48c3.5,6.15-0.97,9.97-4.12,14.17c-1.83-1.15-0.25-2.08,0.23-3.04
		c0.84-1.67,1.85-3.27,2.61-4.98c0.43-0.96-0.04-1.88-1.06-2.26c-0.84-0.32-1.72-0.89-2.65-0.2c-0.58,0.43-0.2,0.67,0.18,0.98
		c2.01,1.62,0.49,2.45-0.73,3.45c-6.52,5.35-9.93,12.78-12.74,20.38c-1.23,3.32-1.4,6.84-4.99,8.88c-2.07,1.17-3.22,3.29-3.52,5.83
		c-0.46,3.98-0.9,7.98-1.7,11.9c-0.67,3.3-0.94,6.58-0.6,10c2.88-12.44,8.38-23.78,14.02-35.07c2.16-4.32,4.61-8.48,5.74-13.31
		c0.51-2.2,2.64-3.56,5.31-2.69c-0.89,1.29-1.96,2.48-2.63,3.87c-4.47,9.27-9.08,18.48-13.2,27.91c-2.85,6.54-5.84,13.22-4.17,20.97
		c0.99-2.55,1.91-4.93,2.83-7.3c-0.76,8.38-1.29,16.75-5.02,24.45c-0.1-2.18-0.21-4.42,0.39-6.45c0.72-2.43-0.61-4.2-1.22-6.26
		c-3.44,17.87-4.84,35.78-1.43,53.91c-3.22-4.5-1.11-10.72-5.86-15.71c3.21,17.4,4.06,33.97,7.98,50.1
		c-0.95-0.08-1.31-0.21-1.41-0.45c-4.4-11.28-6.68-23.09-8.7-34.96c-0.1-0.58-0.1-1.57,0.65-1.48c3.97,0.46,1.05-2.24,2.34-3.51
		c-1.75,0.45-1.01,2.04-2.65,2.16c-2.76-19.8-0.04-39.56,0.81-59.36c-4.6,11.92-3.65,24.55-5.07,36.91
		c-1.95-4.65-1.62-9.74-3.78-14.26c-0.54,3.74-0.7,7.45-0.95,11.16c-0.06,0.88-0.29,2.46-0.59,2.5c-5.02,0.63-2.19,3.32-1.53,5.45
		c0.81,2.6,1.38,5.46-0.12,7.74c-1.56,2.37-1.91,2.12-1.6,4.33c1.08,7.82,2.95,15.57,2.02,23.56c-0.11,0.92-0.13,1.96,0.81,2.54
		c1.63,1,1.65,0.97,1.43,2.92c-0.97-0.46-1.91-0.89-3.05-1.43c-0.15,3.05,1.29,5.37,1.93,7.85c3.24,12.68,8.26,24.71,12.81,36.9
		c0.95,2.55,1.33,4.26-2.47,5.6c2.54,0.33,4.69,0.16,5.02,1.83c0.3,1.52-1.65,2.01-2.94,2.55c-2.1,0.87-2.73,1.97-1.64,4.33
		c2.46,5.32,4.28,10.93,6.88,16.17c1.91,3.85,3.88,7.82,7.4,10.62c1.71,1.3,1.95,4.13,4.63,4.41c2.68,5.7,8.11,9.02,11.88,13.78
		c0.95,1.2,2.41,2.03,2.72,3.95c-5.07,0.57-7.19-3.32-9.77-6.31c-1.72-2-2.97-4.4-4.67-6.42c-1.9-2.26-2.06-1.59-5.9-1.85
		c-1.83-0.12-3.48-2.92-4.42-5.16c-3.28-7.89-5.1-16.64-9.04-23.89c-11.84-21.83-15.61-45.71-20.46-69.42
		c-0.16-0.76-0.34-1.54-0.62-2.26c-0.3-0.76,0.4-2.21-1.58-1.86c-1.69,0.3-1.6,1.31-1.41,2.35c0.9,5.04,1.05,10.27,3.06,15.03
		c1.61,3.79,1.56,7.87,2.69,11.71c0.1,0.33-0.16,1.08-0.39,1.14c-0.99,0.28-0.5-0.87-0.97-1.16c-0.31-0.63-0.63-1.26-0.94-1.89
		c-0.32-0.62-0.6-1.81-1.29-1.43c-1.39,0.77,0.01,1.65,0.29,2.48c0.31,0.63,0.62,1.26,0.93,1.89c2.37,5.78,4.81,11.52,7.06,17.35
		c0.59,1.52,1.44,3.13,0.85,4.92L57.61,359.74z M138.89,126.79c-0.1,0.33-0.2,0.67-0.29,1c0.29-0.2,0.58-0.39,0.88-0.59
		c0.36-0.27,0.72-0.54,1.07-0.8c2.87-1.9,5.91-3.64,8.02-8.03c-4.18,2.21-6.45,4.84-8.77,7.4
		C139.49,126.12,139.19,126.45,138.89,126.79z M78.53,158.55c1.48-0.03,1.7-1.84,2.93-2.14c3.3-0.82,2.92-2.45,0.92-4.63
		c-1.57,2.04-4.16,3.3-4.24,6.35c-0.54-0.03-1.07-0.06-1.61-0.09c-0.04-0.86,1.01-1.63-0.05-2.94c-4.15,5.58-8.17,11.06-11.46,17.07
		c-0.51,0.93-0.94,2.25-2.24,2.04c-1.22-0.2,0.21-2.06-1.47-2.65c-4.82,8.69-9.62,17.39-13.17,26.7c-1.98,5.18-3.64,10.5-7.44,14.75
		c-0.95-1.56,1.37-3.16-0.53-5.35c-3.06,6.76-5.13,13.22-4.22,20.39c-0.23,14.98-6.78,29.46-3.36,44.85
		c3.1-17.69,5.45-35.44,10.86-52.63c0,3.59,0,7.19,0,10.92c1.4-0.56,1.18-1.71,1.42-2.48c4.55-14.63,9.03-29.27,13.5-43.92
		c0.35-1.14,0.17-2.96,1.88-2.64c1.73,0.32,0.42,1.93,0.92,3.18c3.85-9.46,9.22-18,15.21-26.16C77.13,159.09,78,159.41,78.53,158.55
		z M229.95,67.94c-3.23,0.06-6.96-2.75-9.69,1.88c3.51-0.02,6.85,0.7,9.58-1.95c0.57-0.05,0.77-0.41,0.67-0.92
		c-0.01-0.06-0.54-0.15-0.6-0.07C229.66,67.22,229.31,67.63,229.95,67.94z M45.33,197.82c-3,1.97-4.32,4.81-4.72,8.7
		c3.41-3.04,4.25-4.68,4.7-8.74c0.2,0,0.41,0,0.61,0c-0.06-0.18-0.12-0.36-0.17-0.54C45.6,197.44,45.46,197.63,45.33,197.82z
		 M90.52,142.28c-3.39,1.86-2.42,5.78-3.95,8.51c4.28-1.51,3.51-5.32,3.87-8.62c0.24,0.02,0.48,0.04,0.71,0.06
		c-0.06-0.21-0.12-0.42-0.18-0.63C90.83,141.83,90.68,142.06,90.52,142.28z M61.34,208.57c-1.03,0.75-1.5,1.53-0.11,2.38
		c0.35,0.02,0.7,0.04,1.06,0.05c-0.97,2.89-1.92,5.75-4.6,7.67c-0.89,0.64-0.92,1.55,0.62,1.54c0.2,0.2,0.4,0.39,0.6,0.59
		c-1.34,1.39-5.05,1.56-2.52,4.93c-2.77,1.21-3.35,3.67-3.46,6.3c-0.31,7.42-0.55,14.85-0.82,22.27c-0.57,2.07-0.32,4.11,0.3,6.62
		c0.44-2.52,0.8-4.59,1.16-6.66c0.9-3.48,1.8-6.96,2.69-10.45c3.06-11.99,7.47-23.52,11.84-35.06c0.94-2.48,0.52-5.7,4.16-6.6
		c0.87-0.22,2.19-2.13,1.48-2.5c-4.64-2.41,0.33-3.24,0.66-4.75c0.49-2.24,3.39-2.9,2.93-6.38c-0.34-2.58,2.9-5.57,4.35-8.48
		c1.33-2.66,3.41-5.16,2.73-8.57c-2.14,0.11-2.03,1.89-2.82,2.91c-1.61,2.06-1.4,5.28-4.18,6.57c-0.39-0.03-0.78-0.06-1.16-0.08
		c2.37-4.12,3.52-8.62,7.08-12.47c3.68-3.98,4.89-10.24,7.09-15.3c-5.71-0.53-4.84,5.78-8.84,7.77c-4.05,2.02-5.87,7.13-8.11,11.26
		c-2.17,4.02-4.2,8.11-6.27,12.14c1.77,1.15,2.02-1.86,3.89-0.89c-2.6,6.14-5.14,12.14-7.68,18.14c-1.04,2.29-2.41,4.49-2.16,7.17
		L61.34,208.57z M265.44,32.58c-1.55-1.87-2.8-1.52-3.93-1.1c-3.13,1.17-6.39,1.3-9.67,1.63c-23.06,2.31-44.55,9.45-64.4,21.41
		c-1.47,0.89-4.3,1.88-3.45,3.67c0.85,1.79,3.3,0.23,4.96-0.39c8.55-3.17,16.74-7.19,25.56-9.74c8.69-2.51,17.11-5.93,25.76-8.59
		C248.44,36.97,256.76,34.94,265.44,32.58z M228.6,32.69c8.01,1.37,13.71-1.67,19.57-4.08C241.93,29.34,235.7,30.05,228.6,32.69z
		 M119.15,141.35c-4.47,0.1-6.11,3.16-7.33,6.64C114.26,145.77,116.71,143.56,119.15,141.35z M306.23,71.02
		c-3.54-0.37-6.72,0.77-9.81,2.3C299.9,73.47,303.1,72.43,306.23,71.02z M302.52,64.68c2.95,0.45,5.63-0.35,8.04-2.05
		C307.67,62.4,305.04,63.13,302.52,64.68z M45.57,320.89c-0.15-3-0.31-5.98-3.16-8.84C43.04,315.7,43.48,318.58,45.57,320.89z
		 M116.24,199.7c-0.14,0.86-0.33,1.33-0.26,1.76c0.17,1.1,1.13,1.88,1.84,1.05C118.8,201.37,117.23,200.79,116.24,199.7z
		 M328.55,73.96c-0.87-0.95-1.66-0.4-2.48,0.09C326.94,74.91,327.74,74.54,328.55,73.96z M47.49,330.5
		c-0.23,0.38-1.01,0.31-0.61,0.98c0.22,0.37,0.47,0.73,0.71,1.09c0.23-0.29,0.94-0.3,0.59-0.94
		C47.98,331.26,47.74,330.9,47.49,330.5z M59.97,187.31c0.12-0.12,0.21-0.21,0.31-0.3c-0.18-0.1-0.35-0.24-0.55-0.3
		c-0.06-0.02-0.18,0.17-0.28,0.27C59.63,187.09,59.8,187.2,59.97,187.31z"/>
	<path class="st1" d="M311.79,267.81c1.87,0.26,3.75,0.52,5.62,0.78c3.87,0.46,7.75,0.92,11.62,1.39l-0.13-0.06
		c1.76,1.42,4.7,0.85,5.9,3.61c-3.49-0.25-6.81-1.94-10.26-0.49c1.01,1.5,7.77-0.38,2.56,4.54c-0.71,0.67,0.15,1.33,0.54,1.97
		c3.06,5.01,4.43,5.44,9.6,2.82c2.08-1.05,4.05-2.28,5.65-4.01c2.41-0.57,3.45,1.41,4.89,2.65c1.35,1.17,2.41,2.77,4.42,2.94
		c-0.08,2.33-0.45,2.86-3.76,5.65c-0.56,0.47-1.29,0.93-0.88,2.7c7.37,0,14.95,0,22.52,0c0.62,0.04,1.25,0.08,1.87,0.12
		c-0.56,1.42-1.84,0.8-2.81,0.94c-8.53,1.24-17.18,1.9-25.2,5.47l0.13-0.11c-1.44,0.23-1.13,2.78-3.08,2.33
		c-1.11-0.17,0.4-2.62-1.58-1.92c-3.09,1.1-6.6,1.07-9.28,3.64c3.62-2.99,7.26,1.41,10.85-0.34c5.65-1.2,11.3-2.37,16.94-3.59
		c10.08-2.18,12.57-2.33,17.02-0.91c-5.24,1.3-10.86,0.72-16.9,4.37c6.15,1.28,11.24-0.17,16.24,1.37
		c-8.56,1.31-17.12,2.62-25.68,3.93c-3.04,0.32-6.14,0.43-8.67,2.8c2.9-0.43,5.81-0.87,8.71-1.3c9.84-0.68,19.58-3.91,30.99-1.17
		c-7.14,2.37-13.39,0.67-19.22,2.48c-5.78,1.79-11.7,3.14-17.56,4.68c-6.27,1.31-12.54,2.63-18.81,3.94
		c0.09,0.37,0.19,0.75,0.28,1.12c6.4-0.36,12.23-3.29,18.5-4.23c1.41,2.09,3.13,1.77,5.3,1.14c9.8-2.87,19.4-6.9,30.06-4.93
		c2.51,0.46,5.07-0.27,5.17-3.84c0.02-0.65,0.61-1.52,1.19-1.87c3.39-2.04,3.14-5.04,2.36-8.23c0.22-0.3,0.44-0.6,0.66-0.89
		c5.55,3.13,7.94,7.85,8.27,14.24c0.41,7.81,5.24,14.29,7.58,21.56c1.87,5.8,4.03,11.51,6.08,17.25c0.75,2.12,0.99,3.45-1.97,4.43
		c-8.66,2.89-8.63,3.09-8.14,12.39c0.16,2.94,0.54,5.87,0.87,8.8c0.88,7.84,7.9,9.25,13.16,12.5c0.02,0.53,0.04,1.05,0.06,1.58
		c-2.53-0.47-5.75-1.77-6.89,1.45c-1.05,2.99,1.87,4.62,4.21,5.86c7.31,3.88,15.35,2.88,23.17,3.26c0.67,0.03,1.37-0.65,2.05-1
		c-0.09,0.67,0.18,1.07,0.88,1.12c0.25,0.19,0.52,0.34,0.81,0.46c0.24,1.86,2.74,0.78,3.15,2.42c0.06,0.78,0.73,1.83-0.55,2.15
		c-6.66,1.65-9.92,7.6-14.64,11.64c-14.89,12.74-31.11,22.58-50.92,25.3c-1.08,0.15-2.16,0.26-4.52,0.54
		c6.26-4.06,11.07-8.13,17.3-9.79c2.42-0.65,3.75-2.63,5.29-4.36l0.08-0.07c3.79-0.41,6.51-2.88,9.18-5.16
		c6.39-5.47,12.57-11.18,18.84-16.8c2.52,2.34,3.29-0.22,5.63-1.94c-2.65,0.21-4.14,0.34-5.64,0.46c-3.05-0.47-5.29,0.69-7.34,2.99
		c-3.75,4.2-8.38,7.33-12.93,10.52c-0.35-0.39-0.71-0.78-1.06-1.16c2.95-2.97,5.71-6.15,8.9-8.83c2.37-1.98,1.07-2.9-0.45-4.12
		c-1.91-2.42-8.61-3.77-10.71-1.97c-2.06,1.76,1.3,1.35,1.13,2.44c-1.46,3.73-4.86,5.66-7.72,7.97
		c-26.52,21.41-56.8,35.34-89.37,44.66c-0.43-0.15-0.78-0.12-0.89,0.41c-1.16,0.76-2.91-0.04-3.82,1.41c0,0,0.01-0.1,0.01-0.11
		c-4.37,0.45-8.73,0.91-13.1,1.36c-0.01-0.36-0.02-0.72-0.02-1.08c29.01-6.94,56.5-17.84,82.55-32.31
		c7.2-3.99,14.57-7.88,19.46-15.06c1.2-1.77,3.64-2.7,6.16-4.47c-7.59,0-14.39,0-21.31,0c0.22,2.02,1.63,1.62,2.46,2.07
		c-0.01,0.42-0.03,0.85-0.04,1.27c-5.45,0.05-10.94,0.55-16.33,0c-4.29-0.44-7.83-0.16-10.65,3.33c-0.41-0.05-0.83-0.09-1.24-0.14
		c0.05-0.6-0.28-0.79-0.78-0.63c-0.1,0.03-0.09,0.44-0.13,0.67l0.11-0.08c-4.38,0.17-8.21,1.63-11.34,4.78
		c-0.12,0.22-0.14,0.46-0.05,0.69c-0.99,0.4-1.91,0.25-2.4-0.72c-0.57-1.12,0.38-1.84,1.13-2.22c4.02-2.04,8.11-3.96,12.35-6
		c-6.13-1.05-12.32,0.19-18.45-1.01c1.64-0.1,3.28-0.21,4.92-0.31c0.01-0.26,0.01-0.51,0.02-0.77c-4.13-0.29-8.27-0.87-12.4-0.81
		c-9.17,0.14-18.37,0.15-27.45,1.79c-5.6-0.03-11.22-0.52-16.75,1.38c5.61,0,11.22,0,16.83,0c5.3,0,10.6,0,15.89,0
		c-19.06,2.98-38.24,0.96-57.38,2.51c7.89,2.35,15.98,3.58,25.14,4.68c-4.51,1.87-8.06,1.13-11.51,0.58
		c-6.94-1.09-13.8-2.78-20.76-3.67c-13.16-1.67-26.38-2.59-39.67-2.02c-0.35-2.03-1.8-2.37-3.48-2.13
		c-1.16,0.17-2.14-0.38-3.03-0.55c-5.46-1.05-11.1-2.25-16.51,0.5c-11.95,1.9-23.99,2.66-37.25,1.86c3.4,5.13,7.41,8.04,9.93,13.71
		c-6.5-3.37-11.35-6.92-15.24-11.47c-1.57-1.83-3.1-2.83-5.23-3.33c-0.32-0.82-0.84-1.36-1.8-1.26c-1.32-0.32-2.64-0.65-3.96-0.97
		c0-0.61,0-1.22,0-1.83c0.74-0.17,1.48-0.36,2.23-0.52c2.81-0.6,5.79,4.74,8.48-0.25c0.48,0.31,0.94,0.7,1.46,0.93
		c5.66,2.43,8.2,0.71,8.45-5.71c0.06-1.41-0.21-2.86,0.05-4.22c0.36-1.87,0.39-4.03,3.58-3.63c1.79,0.23,3.86-6.75,2.74-8.73
		c1.62-1.31,2.78,1.92,5.21-0.1c-5.16-2.12-5.41-9.91-12.69-9.04c-0.69,0.08-0.44-0.96-0.49-1.52c1.65-0.64,3.86-0.62,4.43-2.73
		c2.35-8.72,9.93-16.07,6.89-26.22c-0.13-0.44,0.47-1.1,0.72-1.66c0.8,0.03,1.6,0.07,2.39,0.1c0.11,4.65,2.98,7.72,8.32,8.62
		c-0.75-5.05-5.24-6.2-8.46-8.55c-0.7-0.34-1.39-0.69-2.08-1.03c0.3-0.87,0.65-1.7,1.73-1.83c4.36-1.44,7.8-0.51,10.21,3.66
		c0.6,1.04,1.8,1.73,2.7,2.59c1.25,1.19,2.84,2.31,1.12,4.26c-0.88,0.99-0.53,1.69,0.47,2.21c1.08,0.56,2.38,0.72,2.69-0.69
		c0.73-3.26,3.03-2.6,5.14-2.26c6.6,1.06,13.12,0.15,19.66-0.63c1.84-0.22,3.78-0.85,5.11,1.17c2.16,3.28,4.84,2.07,6.73,0.15
		c3.38-3.45,7.18-5.94,11.71-7.49c1.19-0.41,3.08-1.22,1.94-2.98c-0.84-1.29-2.72-1.15-3.77-0.11c-2.4,2.37-5.39,2.13-8.31,2.32
		c-6.72,0.45-13.4,1.19-20.04,2.4c-5.56,1.01-11.17,1.79-16.8,0.45c-3.84-0.91-7.39-2.32-9.03-6.42c1.52-0.46,3.38-0.44,4.09-1.33
		c3.2-4.08,7.52-2.95,11.63-2.99c2.19-0.02,4.39,0.03,6.58-0.1c0.89-0.05,2-0.32,2.19-1.42c0.25-1.51-1-1.77-2.08-1.96
		c-3.53-0.6-6.81-2.53-10.53-2.09c-1.77,0.21-3.71,0.62-3.7-2.06c0-2.77,2.19-2.92,4.04-2.52c3.52,0.76,6.78,0.12,10.15-0.76
		c2.58-0.68,5.3-0.64,7.88,0.31c1.22,0.45,2.8,1.06,3.6,0.27c3.49-3.42,8.46-3.91,12.27-6.59c0.7-0.49,2.56-0.92,0.9-2.65
		c-1.24-1.29-1.06-1.53,0.71-2.07c4.56-1.39,9.83-0.49,13.52-4.5c1.67,7.4,7.67,3.77,12.04,5.8c-1.44-2.75-3.47-2.62-5.25-3.06
		c-1.03-0.25-2.81-0.67-2.57-1.56c1.14-4.17-2.65-6.71-3.03-10.63c1.89,0.63,4.28,2.29,5.43,1.67c6-3.24,10.89-0.22,16.04,1.98
		c1.12,0.48,2.49,0.99,3.59,0.75c3.16-0.69,5.83,0.36,8.58,1.6c4.92,2.23,9.23-1.22,8.81-6.99c-6.8,2.59-13.5,4.15-19.68-1.56
		c-1.3-1.21-3.14-1.25-4.84-1.58c-1.41-0.27-3.25,0.18-4.09-1.92c3.24-1.98,6.82-2.08,10.34-1.75c6.97,0.66,13.76,1.1,18.48-6.49
		c1.06,5.05,2.48,9.09,2.62,13.17c0.15,4.49-0.88,9.02-1.39,13.53c-7.28-0.05-14.15-2.57-21.31-3.47
		c6.44,4.23,13.51,5.73,21.11,4.98c-1.66,7.7-5.73,13.03-14,14.21c-0.46,0.07-0.98,0.02-1.38,0.21
		c-18.82,9.19-36.51,19.92-50.21,36.24c-3.11,3.7-6.17,7.54-10.3,10.22c-4.11,2.67-8.49,4-13.27,1.87c-0.2-0.09-3.24-0.39-0.46-1.69
		c-0.63-0.67-1.18-1.8-1.91-1.94c-4.4-0.81-4.5-0.8-6.66-5.12c-4.12,3.87-9.28,6.71-12.77,11.42c-1.47,1.98-3.8,3.35-1.7,6.36
		c0.78,1.12-0.26,2.59-1.58,2.86c-3.52,0.73-3.42,4.13-4.85,6.35c-0.86,1.34-0.05,2.34,1.71,2.2c9.08-0.73,17.91,1.11,26.79,2.51
		c1.98,0.31,4.08-0.33,6.8,0.94c-2.43,0.27-4.05,0.44-5.66,0.62c30.37-0.68,60.7,0.39,91.12,0.69c-0.3-2.14-2.71-0.96-2.9-3.07
		c3.93-0.29,7.8-0.62,11.69-0.84c0.81-0.05,2.15-0.08,1.12,1.47c-2.55-1.22-3.54,2.03-5.68,1.98c1.86,0,3.71,0,5.57,0
		c1.57,0.04,3.14,0.08,4.71,0.12c8.07,0.52,16.15,0.46,24.22,0.05c1.41,0.22,2.85,0.51,3.11-1.56c4.82-0.08,9.65,0.08,14.45-0.3
		c8.98-0.71,18.02,1.02,26.95-0.76c4.29,2.16,8.73,0.56,13.12,0.59c-4.37-0.79-8.68-2.07-13.19-1.51c-2.51-0.21-5.02-0.42-7.52-0.63
		c0.09-0.63,0.17-1.27,0.26-1.9c4.98,0.22,10,0.94,14.92,0.51c3.71-0.33,7.23-2.29,11.16-0.8c0.87,0.33,3.02,0.77,3.02-1.03
		c-0.01-6.16,2.37-12.48-1.02-18.47c-0.42-0.75-0.55-1.48-1.55-0.83c-3.3,2.16-4.06-0.75-5.1-2.68c-1.55-2.88-2.6-6.11-5.38-8.12
		c-3.48-2.52-5.69-5.75-6.21-10.06c-0.39-3.22-2.27-5.06-5.42-5.59c-6.71-1.12-10.01-5.21-10.49-11.85c-0.22-3.04-1.8-4-4.77-3.3
		c-4.78,1.13-9.64,1.49-14.35-0.27c-5.85-2.19-11.58-4.68-17.43-6.88c-3.22-1.21-6.32-5.25-10.06-0.78c-0.22,0.26-0.9,0.12-1.37,0.2
		c-5.4,0.88-10.8,1.85-16.22,2.63c-3.21,0.46-5.23,1.31-2.91,4.93c1.33,2.07,0.51,2.99-1.71,3.57c-5.11,1.34-4.48-2.77-5.39-5.45
		c-0.29-0.59-0.58-1.17-0.87-1.76c5.71-4.41,11.34-8.91,14.99-15.33c3.16-0.35,6.41,0.7,9.49-0.65c0.92-0.09,1.84-0.19,2.77-0.28
		c4.01,0.05,7.3-1.78,10.44-4.01c6.17-3.96,12.24-8.08,18.54-11.82c6.98-4.14,7.11-4.01,5.78-6.16c-1.86-2.99-2.54-6.9-6.14-8.58
		c-2.25-1.05-4.54-3.23-7.08-0.44c-0.44-0.03-0.87-0.06-1.31-0.09c-0.54-1.75,1.42-3.97-0.39-5.21c-1.53-1.05-2.92,1.9-4.87,1.35
		c0.43-2.62,3.11-3.18,4.08-5.14c-3.15-1.77-27.85-6.02-32.34-4.85c13.01,3.27,20.69,10.57,23.91,21.93
		c-3.51,2.01-8.69-4.02-11.13,2.88c-2.7-1.45-3.35-5.39-6.98-5.15c-0.24-0.18-0.5-0.25-0.8-0.2c-1.29-5.65-3.25-10.98-6.34-15.97
		c-1.6-2.58-2.22-1.78-3.29,0.04c-0.6-3.83-1.37-7.86,1.4-11.07c2.28-2.64,3.3-7.21,1.59-10.16c-1.33-2.28-3.36-1.29-5-0.92
		c-0.82,0.19-1.77,0.43-2.6,2.24c-2.38,5.2,0.61,9.49,0.38,14.47c-2.69,0-5.32,0-7.96,0c-2.15-0.1-4.31-0.2-6.46-0.3
		c0.12-0.18,0.13-0.37,0.03-0.57c1.29-0.39,2.61-0.73,3.63-2.02c-3.03-1.58-6.34-1.25-9.43-1.98c2.15-2.61-1.81-2.38-1.84-3.97
		c4.95-0.65,9.71,1.92,15.56,0.83c-5.19-1.66-9.05-4.64-14.05-4.55c0.49-1.42,2.17,0.06,2.61-1.48c-3.73-1.63-6.52-4.59-9.7-7.03
		c-3.16-2.46-3.28-6.57-5.25-9.65c-3.75-5.84-6.21-12.44-7.38-18.94c-1.33-7.35-2.42-14.74-4.29-22c1.95,1.03,2.88,0.6,2.76-1.77
		c-0.12-2.18-0.02-4.38-0.02-6.57c2.08,0.11,2.88-1.61,3.85-2.9c1.84-2.47,3.75-2.14,5.96-0.61c2.65,1.84,0.8,3.67-0.16,5.18
		c-4.37,6.89-4.17,7.94,3.03,12.74c0.35,0.1,0.7,0.2,1.04,0.29c-0.15-0.31-0.29-0.62-0.44-0.93c-2.25-2.85-6.92-5.49-2.34-9.55
		c4.5-3.99,8.01-8.8,12.2-13.01c0.88-0.88,1.45-2.51,3.76-1.96c-1.96,3.62-3.3,7.34-4.56,11.11c-2.21,6.61-3.13,9.23-2.41,10.35
		c2.53-3.2,5.84-5.87,6.24-10.23c0.31-3.41,2.36-1.87,3.99-1.69c0,0.21,0.01,0.42,0.02,0.63c0.14-0.03,0.27-0.06,0.41-0.09
		c-0.18-0.16-0.36-0.31-0.54-0.47c0.17-1.81-0.56-3.74,0.96-5.35c0.89-0.94,1.39-1.83,2.98-0.7c4.17,2.97,9.15,4.84,12.18,9.33
		c0.56,0.83,1.31,2,2.64,1.28c1.38-0.75,1.25-2.23,0.88-3.35c-1.08-3.3-3.62-5.34-6.5-7.07c-2.13-1.29-4.18-2.72-6.24-4.13
		c-0.77-0.53-1.65-1.16-1.21-2.25c0.53-1.32,1.57-0.43,2.41-0.37c6.03,0.43,9.35,4.44,12.21,9.15c0.61,1.01,0.95,2.94,3.04,1.83
		c1.86-0.99,1.2-2.22,0.49-3.52c0.75,0.19,1.5,0.38,2.25,0.57c2.22,3.69,5.05,3.92,7.11,0.31c2.84-4.97,6.22-9.78,5.61-16.04
		c-0.14-1.47,0.39-3.09,1.73-4.15l0.26,0.3l0.36-0.16c-0.23,3.82-0.46,7.64-0.7,11.7c2.6-2.2,2.6-2.2,5.4-2.66
		c1.69,6.34-2.55,9.81-6.66,13.35c-0.11,0.1-0.17,0.26-0.25,0.39c-0.48,0.55-1.96,0.86-1.06,1.79c0.76,0.79,1.41-0.3,1.87-1
		c5.35-3.11,9.96-7.49,16.15-9.19c2.91-0.8,5.19-1.44,2.58,4.12c4.88-4.24,7.47-8.47,10.31-12.5c2.43-3.44,4.82-6.93,8.21-9.55
		c0.7-0.54,1.36-1.57,2.36-0.9c0.9,0.6,0.7,1.64,0.31,2.52c-0.86,1.92-1.39,3.8,0.29,5.58c2.47,2.53,4.44,3.09,5-1.34
		c0.15-1.21,1.72-0.31,1.84-1.4c0.92-0.33,1.7,1.08,2.89-0.16c2.92-3.05,6.91-3.42,10.89-3.54c1.42-0.04,2.77-0.26,3.96-1.11
		c0.67-0.41,1.34-0.81,2.01-1.22c1.15,3.51-1.15,4.44-3.77,4.49c-1.59,0.03-3.08-0.09-4.53,0.79c0.12,1.92,1.58,2.23,2.95,2.07
		c2.09-0.24,3.57,0.74,5.17,1.77c1.41,0.91,2.35,3.25,4.88,1.31c0.72-0.56,2.31,1.5,2.39,2.71c0.12,1.92-1.68,1.41-2.81,1.38
		c-1.66-0.05-2.85-1.14-4.02-2.2c-1.92-1.73-4.23-2.6-6.76-2.99c-1.38-0.21-2.88-0.44-1.94,1.64c1.19,2.64-0.3,3.11-2.26,3.08
		c-4.43-0.05-5.35,2.78-6.58,6.41c-2.33,6.87-3.27,14.25-7.17,20.58c-3.93,6.39-8.8,10.78-17.06,10.14
		c-3.99-0.31-8.09,0.34-12.11,0.83c-3.79,0.46-7.07,1.69-5.62,6.7c-1.77-2.92-4.08-4.69-7.72-3.62c-1.55-0.15-2.82-0.14-2.6,2.1
		c0.14,1.38-0.33,2.69-2.05,2.86c-0.92-1.6,1.02-2.6,0.59-4.05c-1.68-0.41-3.08,0.14-4.4,1.02c-0.96,0.04-1.92,0.09-2.88,0.13
		c-2.97,0.74-6.64-0.28-8.44,3.38c-0.6-0.01-1.21-0.02-1.81-0.04c-0.05-0.31-0.07-0.62-0.05-0.93c0.13-0.07,0.36-0.22,0.39-0.19
		c0.45,0.44,0.54-0.12-0.03-0.38c-1.16-0.52-2.26-0.56-3.12,0.59c-1.8,1.92-2.61,4.47-1.54,6.62c0.97,1.96,1.56,1.69,0.94,3.61
		c-0.33,1.04-0.82,2.03-0.11,3.23c3.53-0.68,4.39-4.55,7.18-6.09c0.34,1.5-0.33,4.05,2.78,2.72c-0.7,1.61-1.39,3.23-2.09,4.84
		c-0.69,1.14-1.38,2.28-2.07,3.42c-0.19,0.43-0.38,0.86-0.57,1.29c-1.26,1.04-2.36,2.2-2.72,3.87c-0.24,0.13-0.47,0.25-0.71,0.38
		c0.19,0.09,0.38,0.17,0.57,0.26c0.03-0.23,0.06-0.46,0.09-0.68c2.23,0.05,2.41-1.98,3.33-3.26c0.21-0.42,0.42-0.84,0.63-1.25
		c1.22-0.87,1.57-2.21,1.91-3.55c1.92-0.87,1.9,0.94,2.42,1.84c2.99,5.19,4.42,5.47,8.77,1.58l0.41,0.03l0.41-0.05
		c0.28,1.47-0.04,3.41,1.99,3.76c2.14,0.37,2.13-1.8,2.98-2.97c1.34-1.84,1.41-5.44,3.85-5.38c2.42,0.05,1.9,3.88,3.52,5.52
		c0.67,3.24-1.05,5.67-2.78,8.09c-0.25,0.12-0.43,0.31-0.54,0.56c-0.4,0.43-1.07,0.81-0.45,1.48c0.08,0.08,0.69-0.33,1.06-0.51
		c0.33-0.3,0.66-0.6,0.98-0.9c2.83-2.28,4.06-5.14,3.19-8.77c-0.32-1.97-0.83-3.94-0.9-5.92c-0.1-2.68-2.15-5.47,0.28-8.07
		c-0.16,3.97,1.37,7.61,2.32,11.34c1.57,6.14,1.09,11.69-3.6,16.38c-3.61,3.6-2.7,8.31-3.14,12.68c0.56,2.26-0.38,3.11-2.62,3
		c-1.58-0.08-3.22-0.64-5.28,0.34C303.65,267.4,307.7,267.69,311.79,267.81z M424.25,410.43c-0.3,0.43-1.31,0.69-0.8,1.27
		c0.45,0.52,1.1,0.02,1.37-0.63c0.37-0.25,0.75-0.51,1.12-0.76c2.27-1.05,4.12-2.62,5.99-4.65c-4.09-1.25-4.82,2.41-6.84,3.93
		C424.8,409.87,424.53,410.15,424.25,410.43z M298.41,260.68c-3.54,0.89-7.08-0.62-10.9-0.06c3.41,3.98,7.29,1.95,10.98,1.44
		c2.55-0.17,5.14-0.19,8.62-1.92C303.34,259.76,300.87,260.15,298.41,260.68z M250.68,208.63c-2.72,3.05-5.35,1.82-7.99-0.15
		c-1.33-0.99-2.79-1.61-4.25-0.38c-0.87,0.73-1.23,1.79-0.67,2.96c0.74,1.54,1.89,2.48,3.68,2.28c3.4-0.36,6.7-0.03,9.96,1.99
		c0.52-2.74-1.51-4.6-0.84-6.78c0.32-0.08,0.64-0.17,0.97-0.25c2.08,4.88,5.56,6.16,10.65,4.78c1.97-0.54,4.32,0.35,6.5,0.57
		c1.46,0.15,3.25,1.38,4.26-0.43c0.93-1.66,0.09-3.42-1.07-4.76c-1.58-1.81-3.16-3.8-5.93-3.51c-0.91,1.82,1.42,4.13-1.04,5.22
		c-1.33,0.59-2.34-0.68-3.02-1.72c-3.42-5.26-4.09-5.44-10.32-0.69C251.07,207.84,250.16,207.5,250.68,208.63z M373.92,366.58
		c14.78-8.88,25.76-43.88,17.05-52.68c-0.2,9.64,0.39,18.98-1.8,28.21C386.92,351.59,379.06,357.52,373.92,366.58z M336.07,325.17
		c4.79,2.65,9.46,5.22,14.89,5.77c0.96,0.1,1.58-0.18,1.88-0.92c1.86-4.62,5.82-6.67,10.19-8.31
		C353.87,321.53,345.12,323.83,336.07,325.17z M243.03,326.4c-5-3.52-28.21-1.51-31.25,1.77
		C222.33,327.57,232.68,326.98,243.03,326.4z M252.3,225.61c-3.19,0-5.7-0.16-8.18,0.07c-1.26,0.11-3.64-1.25-3.59,1.3
		c0.04,2.1,2.15,3.17,4.1,3.02C247.48,229.77,249.8,228.17,252.3,225.61z M289.65,257.38c4.68,1.72,9.4,3.38,13.3-1.22
		C298.51,256.56,294.08,256.97,289.65,257.38z M256.74,244.97c4.28-4.24,5.02-5.86,4.72-9.88
		C259.41,237.92,257.94,240.69,256.74,244.97z M275.72,192.37c0.62-3.34-1.24-4.81-2.99-6.32c-0.51-0.44-1.08-0.57-1.64-0.07
		c-0.63,0.56-0.28,1.23,0.08,1.63C272.54,189.15,274.01,190.61,275.72,192.37z M251.48,241.35c2.9-3.09,3.97-5.82,5.02-9.57
		C253.26,234.42,251.74,236.94,251.48,241.35z M385.24,397.79c1.56,1.93,3.22,2.32,5.08,1.48c0.8-0.36,1-1.4,0.24-1.92
		C388.84,396.15,387.15,396.63,385.24,397.79z M275.94,225.5c0.38-0.43,0.88-0.83,1.13-1.35c0.23-0.47-0.19-0.86-0.67-0.66
		c-0.38,0.16-0.65,0.59-0.93,0.93C275.09,224.9,275.41,225.19,275.94,225.5z M171.18,399.59c-0.3,0.15-0.65,0.33-0.99,0.5
		c0.28,0.08,0.57,0.27,0.83,0.23c0.36-0.05,0.7-0.27,1.04-0.41C171.8,399.82,171.52,399.72,171.18,399.59z M285.54,227.79
		c-0.21-0.34-0.43-0.81-0.48-0.79c-0.41,0.14-0.9,0.28-1.14,0.6c-0.38,0.51,0.22,0.74,0.53,0.71
		C284.82,228.28,285.17,227.98,285.54,227.79z M305.78,246.86l0.16-0.23l-0.3-0.02L305.78,246.86z M300.2,187.73
		c0.11-0.11,0.2-0.21,0.29-0.3c-0.18-0.1-0.36-0.23-0.56-0.27c-0.07-0.02-0.18,0.17-0.28,0.26
		C299.83,187.52,300.01,187.62,300.2,187.73z M375.33,168.08c-0.1,0.1-0.31,0.23-0.29,0.31c0.05,0.22,0.19,0.42,0.29,0.63
		c0.1-0.1,0.31-0.23,0.29-0.31C375.58,168.48,375.44,168.28,375.33,168.08z"/>
	<path class="st2" d="M404.93,458.66c-1.73,0.82-3.17,2.24-5.08-0.39c-0.75-1.04-3.84-0.62-3.92,2.35c0,0,0.1-0.11,0.1-0.11
		c-1.52-2.28-2.74-0.06-3.78,0.47c-6.69,3.42-13.17,7.27-20.22,9.98c-0.32,0.12-0.65,0.23-0.97,0.35
		c-7.82,3.35-15.99,5.77-23.84,9.32c5.04-0.82,10.08-1.64,15.13-2.46c0.35,0.34,0.7,0.68,1.04,1.01c-16.59,6.3-26.1,7.58-38.59,6.19
		c2.28-1.88,4.92-2.29,7.3-3.18c23.41-8.78,46.84-17.49,69.39-28.35c4.37-2.1,8.59-4.49,12.44-7.47c0.11,1.01,0.21,2.03,0.32,3.04
		c-0.52,0-1.26-0.27-0.95,0.76c0,0,0.09-0.08,0.09-0.08c-4.35,0.14-5.62,5.16-9.56,6.03c-0.76,0.17-1.99,0.9-1.36,1.94
		c0.31,0.52,1.63,0.44,2.49,0.64L404.93,458.66z"/>
	<path class="st3" d="M272.12,171.43c-8.9-1.4-17.76-2.41-26.74-0.33c-2.95,0.68-5.93,2.18-9.14,1.06
		c-0.83-4.62,3.27-4.09,5.55-4.79c2.8-0.86,3.38-1.98,2.1-4.4c1.93-2.79-2.1-5.02-0.72-7.81c2.53,0.49,3.53,2.9,5.34,4.28
		c0.92,3.25,3.16,5.27,6.16,6.56c1.64,0.7,3.14,0.71,4.13-1.11l-0.14,0.09c6.26-0.18,12.86,0.8,17.35-5.23
		c0.36,2.8-0.7,5.46-2.44,7.19C272.07,168.46,272.46,169.92,272.12,171.43z"/>
	<path class="st4" d="M200.45,28.96c26.95-9.72,54.59-15.48,83.42-14.37c-29.7,2.13-58.69,7.78-86.94,17.2
		c-0.01-0.49-0.02-0.97-0.03-1.46c0.45-0.36,0.89-0.72,1.33-1.08C199.04,29.59,199.81,29.76,200.45,28.96z"/>
	<path class="st3" d="M15.51,224.26c-2.34-2.62-1.55-5.69-0.95-8.55c1.93-9.12,2.94-18.54,8.06-26.71c0.25-0.39,0.49-0.84,0.56-1.29
		c0.61-4.23,4.23-6.75,5.76-10.51c-0.5,6.31-3.01,12.01-4.56,17.96c-1.53,5.88-3.16,11.74-4.82,17.58
		c-1.12,3.96-0.76,8.49-4.39,11.5C15.17,224.26,15.51,224.26,15.51,224.26z"/>
	<path class="st1" d="M125.05,400.4c0.76-0.37,1.53-0.74,2.29-1.12c1.19,0.07,2.38,0.15,3.57,0.22c-1.18,1.81-3.23,2.33-4.97,3.27
		c-2.29,1.24-4.34,2.52-4.09,5.57c-2.85,1.62-5.76,2.7-9.15,1.7c-1.71-0.5-3.6-1.13-5.2,0.45c-2.84-1.67-6.82-0.31-9.17-3.55
		c-0.39-0.54-2.34-0.6-3.06-0.12c-2.53,1.69-3-0.32-3.85-1.81c0.21-0.22,0.41-0.43,0.62-0.65c2.37,1.13,4.87,0.38,7.3,0.4
		c3.56,0.03,0.17-1.72,0.53-2.56c0.16-0.16,0.33-0.32,0.48-0.49c1.15,0.62,2.81-0.06,3.6,1.45c-0.75,0.03-1.17,0.49-0.86,1.12
		c0.29,0.6,0.99,0.5,1.58,0.25c0.95-0.07,1.9-0.13,2.85-0.2c1.01-0.75,1.93-1.26,3.33-1.59C115.55,401.63,120.68,403.2,125.05,400.4
		z"/>
	<path class="st4" d="M159.5,434.48c6.18,0.74,10.34,5.01,14.82,8.61c8.5,6.83,18.54,9.31,28.98,10.72c2.33,0.31,4.6,0.72,6.91,1.7
		c-0.05-0.14,0-0.01,0.04,0.12c-0.15-0.06-0.29-0.17-0.44-0.17c-3.83-0.01-7.66-0.01-12.78-0.01c1.94,1.49,2.73,2.09,3.55,2.72
		C197.51,460.75,162.71,440.49,159.5,434.48z"/>
	<path class="st3" d="M335.24,30.83c0-0.46,0.01-0.92,0.01-1.39c6.04,0.7,12.14,1.06,17.8,3.64c1.86,0.85,3.52,1.55,5.6-0.15
		c2.06-1.68,0.6,3.97,3.62,2.13c1.42-0.86,2.57-3.12,4.83-1.87c0.72,0.4,0.95,1.03,0.62,1.98c-0.9,2.57-6.04,5.8-8.72,5.06
		c-5.52-1.52-11.18-2.25-16.47-5.1C340.06,33.79,338.21,31.26,335.24,30.83z"/>
	<path class="st2" d="M384.66,476.17c2.21-2.34,4.65-3.05,7.02-3.4c7.28-1.07,13.58-4.39,19.79-8.02c1.34-0.79,2.71-1.98,4.13-2.08
		c1.91-0.12,4.28-0.81,5.75,0.86c0.65,0.74-1.7,2.27-0.17,3.61c-1.7,1.04-3.22,2.97-5.28,2.67c-6.34-0.92-11.71,1.76-17.2,4.1
		c-1.42,0.61-2.68,1.58-4.05,2.3c-0.74,0.39-0.84,0.34-1.83-1.41c-0.63-1.11-1.29-0.38-1.89-0.15
		C389.1,475.37,387.56,477.03,384.66,476.17z"/>
	<path class="st5" d="M107.49,410.5c1.6-1.58,3.49-0.96,5.2-0.45c3.4,1,6.3-0.08,9.15-1.7c1.17-0.21,1.77,0.7,2.54,1.28
		c0,0.61,0,1.22,0,1.83c-4.68-0.71-6.37,1.23-3.98,5.34c1.7,2.92-1.82,6,0.73,8.6c-4.62,1.16-6.01-3.41-8.93-5.35
		C114.74,414.84,107.99,414.21,107.49,410.5z M118.12,413.98c0.29-1.85-1.07-2-2.61-1.9c-1.17,0.08-3.18-0.14-2.95,1.26
		c0.27,1.64,2.3,2.62,3.9,3.13C117.27,416.73,118.22,415.51,118.12,413.98z M120.43,421.78c-0.16-1.23-0.25-2.5-1.92-2.64
		c-1.28-0.1-2.28,0.46-2.02,1.72c0.19,0.94-0.03,2.53,1.96,2.48C119.74,423.31,120.51,423.25,120.43,421.78z"/>
	<path class="st3" d="M419.01,446.35c-0.72-3.99,2.23-5.25,4.55-7.66c2.53-2.63,4.49-5.92,7.58-8.28c1.81-1.38,3.26-1.55,4.61,0.1
		c1.48,1.8-0.24,2.57-1.41,3.61c-5.09,4.54-10.1,9.18-15.14,13.78C419.14,447.38,419.08,446.86,419.01,446.35z"/>
	<path class="st5" d="M282.57,461.56c0.01,0.36,0.02,0.72,0.02,1.08c-2.12,1.36-5.05-0.02-7.31,2.43c3.99,0,7.64,0,11.3,0
		c0,0.4,0,0.81,0,1.21c-8.69-0.15-17.36,1.23-27.11-0.65C267.62,463.26,275.21,463.02,282.57,461.56z"/>
	<path d="M367.29,159.24c-3.27-1.55-6.88-1.96-10.31-1.77c-7.89,0.44-15.69-1.14-23.72,0.1c-4.46,0.69-8.9,1.73-13.39,2.37
		c-1.38,0.2-2.92,0.75-3.13-1.49c13.46-3.49,27.12-3.17,40.81-2.15c3.95,0.29,7.93,0.47,11.75,1.73
		C368.63,158.43,367.96,158.83,367.29,159.24z"/>
	<path class="st4" d="M396.04,460.5c0,0-0.1,0.11-0.1,0.11c3.12,0.83,1.29,1.98,0.13,2.91c-3.82,3.06-8.31,4.97-12.64,7.13
		c-3.07,1.53-6.29,2.76-9.44,4.12c-0.97-0.74-0.65-2.4-2.02-2.85C381.32,470.92,389.06,466.51,396.04,460.5z"/>
	<path class="st4" d="M428.84,333.37c-3.52,9.45-6.66,19.02-14.91,25.5C419.32,350.58,424.79,342.34,428.84,333.37z"/>
	<path d="M338.34,33.75c-2.1,2.83-4.11,2.77-5.84,2.86c-4.68,0.26-9.41-0.06-13.94,1.59c-1.38,0.5-2.68,0.06-2.96-1.37
		c-0.3-1.5,1.28-1.67,2.22-1.75c2.95-0.26,5.93-0.48,8.89-0.34C330.29,34.9,333.83,34.84,338.34,33.75z"/>
	<path class="st4" d="M15.51,224.26c0,0-0.34-0.01-0.34,0c2.83,4.13,2.32,11.11-1.06,13.76c-1.07,0.84-1.89,0.18-1.85-0.91
		C12.41,232.61,11.23,227.73,15.51,224.26z"/>
	<path class="st4" d="M413.79,389.8c3.79-5.98,8.24-11.45,12.83-16.82c0.52,0.05,1.04,0.09,1.55,0.14
		c-3.34,6.25-8.27,11.26-12.81,16.58C414.84,389.73,414.32,389.77,413.79,389.8z"/>
	<path d="M52.93,377.64c0.32-0.34,0.64-0.69,0.96-1.03c1.49,2.71,2.85,5.51,4.51,8.11c0.86,1.35,0.71,3.8,3.58,3.46
		c0.95-0.11,1.6,1.69,1.23,2.69c-0.79,2.17,0.43,3.89,0.68,5.93C59.19,390.99,55.99,384.35,52.93,377.64z"/>
	<path class="st4" d="M276.2,146.81c-1.65-4.8,2.76-7.03,4.43-10.43c3.67,3.53-0.24,7-0.08,10.51
		C279.1,146.87,277.65,146.84,276.2,146.81z"/>
	<path class="st5" d="M299.49,459.98c0.12-0.53,0.46-0.57,0.89-0.41c-0.1,2.08,1.37,1.01,2.14,0.96c4.45-0.3,8.85-1.35,13.42-0.44
		c-6.15,1.72-12.62,1.99-18.73,3.95c-2.43,0.78,0.19-2.46-1.52-2.76c0,0-0.01,0.1-0.01,0.11
		C297.7,462.96,298.77,461.94,299.49,459.98z"/>
	<path class="st5" d="M218.12,459.12c6.85-1.93,13.8-1.95,20.8-0.89C232.07,460.24,225.08,459.4,218.12,459.12z"/>
	<path class="st5" d="M429.81,332.01c0.08-6.06,2.76-10.23,4.59-14.91c1.5,0.98,0.4,2.67,1.49,3.68c1.16,1.06,2.26,2.4-0.96,1.67
		c-1.83-0.41-2.08,1.86-2.41,3.31C432.08,327.63,432.73,329.82,429.81,332.01z"/>
	<path class="st6" d="M276.47,116.24c6.17-0.82,12.22-0.65,17.98,1.96C288.32,118.7,282.52,116.36,276.47,116.24z"/>
	<path class="st4" d="M276.41,137.55c-0.99,1.41-2.42,1.59-3.6,0.63c-1.08-0.87-1.55-2.19-0.8-3.76c0.95-1.99,1.28-4.13,0.42-6.26
		c1.41-0.44,2.18,1.06,3.3,0.39C275.96,131.56,276.18,134.56,276.41,137.55z"/>
	<path class="st5" d="M200.45,28.96c-0.65,0.79-1.42,0.63-2.21,0.29c-1.22-0.09-2.52-0.42-3.3,0.98l0.1-0.08
		c-3.81-0.52-6.92,2.27-11.84,2.44c6.35-3.91,12.73-4.38,18.26-7.15C202.35,27.29,199.89,27.59,200.45,28.96z"/>
	<path class="st5" d="M153.6,457.82c4.52,1.45,7.82,4.69,11.09,7.99C160.22,464.31,156.63,461.51,153.6,457.82z"/>
	<path class="st5" d="M161.45,432.48c-4.6,1.34-7.53,0.34-10.04-2.14c-0.71-0.7-1.07-1.61-0.11-2.42c0.72-0.61,1.62-0.45,2.07,0.23
		C155.07,430.68,158.15,430.72,161.45,432.48z"/>
	<path class="st5" d="M419.01,446.35c0.07,0.52,0.13,1.04,0.2,1.55c-2.87,3.4-6.39,6.03-10,8.56c-0.23-0.27-0.46-0.55-0.69-0.82
		c1.17-2.25,4.22-2.84,4.88-5.54l-0.09,0.08c0.61,0.11,0.82-0.28,0.95-0.76c-0.11-1.01-0.21-2.03-0.32-3.04c0,0-0.01,0.01-0.01,0.01
		c0.45,0.32,0.9,0.65,1.34,0.97c0.23,0.28,0.5,0.83,0.69,0.8c0.49-0.07,0.51-0.49,0.22-0.89l-0.05,0.04
		c1.29,0.95,1.69,0.1,1.98-0.98l-0.08,0.09C418.37,446.4,418.69,446.37,419.01,446.35z"/>
	<path d="M363.39,291.12c-6.52,1.52-8.78,0.3-9.81-5.3C357.73,285.95,359.54,290.43,363.39,291.12z"/>
	<path class="st5" d="M73.01,412.82c-3.53-2.71-5.93-6.34-7.69-10.43C68.95,405.01,71.46,408.51,73.01,412.82z"/>
	<path class="st5" d="M117.4,97.4c-0.42,1-1.04,1.44-1.9,1.17c-1.33-0.42-2.38-0.2-3.37,0.82c-0.68,0.7-1.48,2.12-2.52,0.66
		c-0.79-1.11-0.57-2.31,1.02-2.94c0.97-0.38,1.75-1.23,2.71-1.63C115.44,94.6,116.42,96.08,117.4,97.4z"/>
	<path d="M276.2,146.81c1.45,0.03,2.9,0.05,4.35,0.08c-0.02,0.76,0.29,1.9-0.1,2.22c-3.35,2.8-3.47,6.89-4.52,10.62
		C276.02,155.43,276.11,151.12,276.2,146.81z"/>
	<path class="st5" d="M89.51,406.89c-2.68-0.28-2.92-3.11-4.63-4.41c-0.96-2.08,1.75-2.09,1.98-3.5c2.08,0.38,2.89,2.04,3.72,3.68
		c-0.05,0.49-0.1,0.98-0.15,1.47C89.15,404.73,89.94,406.01,89.51,406.89z"/>
	<path class="st5" d="M371.96,471.93c1.37,0.46,1.05,2.11,2.02,2.85c-3.26,2.11-6.93,3.23-10.58,4.39c-0.35-0.34-0.7-0.68-1.04-1.01
		c2.71-2.54,8.84-0.73,8.72-6.86c0.32-0.12,0.65-0.23,0.97-0.35C372.02,471.28,371.99,471.6,371.96,471.93z"/>
	<path class="st5" d="M160.45,47.28c3.71-1.9,7.46-2.96,12.67-2.92C168.66,47.3,164.67,47.31,160.45,47.28z"/>
	<path d="M265.37,112.16c-5.06-0.62-9.9-2.51-15.07-2.49c0.43-0.89,1.04-1.48,2.13-1.29c2.69,1.72,5.36,1.57,8.02-0.07
		c0.53,0.09,1.07,0.18,1.6,0.28C261.28,111.52,264.84,110.45,265.37,112.16z"/>
	<path class="st5" d="M352.94,455.16c-2.24,2.93-5.33,4.03-8.28,5.36c-0.58,0.26-1.56,0.84-1.89-0.31
		c-0.24-0.85,0.29-1.31,1.18-1.62C346.97,457.51,349.94,456.31,352.94,455.16z"/>
	<path d="M363.38,68.94c-3.37,1-6.63,0.35-11.12-0.56C356.86,67.08,360.12,67.67,363.38,68.94z"/>
	<path d="M181.06,415.17c-0.17-0.6-0.34-1.45,0.43-1.49c5.52-0.31,10.99,0.1,16.33,1.64C192.23,415.27,186.64,415.22,181.06,415.17z
		"/>
	<path d="M337.16,64.1c-1.66,0.2-3.37,0.72-4.71-0.85c3.24-1.89,6.6-2.6,10.55-1.26C341.3,64.27,338.52,62.11,337.16,64.1z"/>
	<path class="st5" d="M391.84,430.58c-1.3-2.37-2.28,0.52-3.46,0.21c-0.16-0.16-0.32-0.32-0.48-0.47c2.84-2.81,5.69-5.62,8.53-8.42
		c0.02,0.4,0.04,0.8,0.06,1.2c-0.36,2.5-2.45,3.64-4.02,5.2c-0.61,0.6-2.11,1.05-0.54,2.22
		C391.92,430.52,391.84,430.58,391.84,430.58z"/>
	<path class="st5" d="M428.18,373.12c-0.52-0.05-1.04-0.09-1.55-0.14c2.26-3.48,4.51-6.95,6.77-10.43c0.53,0.01,1.06,0.02,1.59,0.03
		C433.13,366.37,430.65,369.74,428.18,373.12z"/>
	<path class="st6" d="M50.01,142.25c-0.28,3.97-3.91,5.78-5.65,8.81c1.16-3.41,2.26-6.86,5.75-8.73L50.01,142.25z"/>
	<path class="st6" d="M349.59,493.62c2.79-1.85,5.73-2.29,8.85-1.13C355.63,493.84,352.78,494.84,349.59,493.62z"/>
	<path d="M428.53,396.1c2.56,0.87,5.7,0.63,7.08,3.74c-0.26,0.21-0.51,0.42-0.76,0.62c-2.48-0.49-5.13-0.39-7.22-2.19
		C427.42,397.33,427.65,396.58,428.53,396.1z"/>
	<path class="st5" d="M349.57,444.02c2.87-2.55,6.13-4.16,10.9-5.56C356.75,442.05,353.19,443.16,349.57,444.02z"/>
	<path class="st4" d="M357.63,456.56c1.75-3.03,4.13-3.11,6.41-3.33c0.19-0.02,0.73,0.9,0.63,1.02
		C362.96,456.47,360.52,456.53,357.63,456.56z"/>
	<path class="st5" d="M250.52,453.82c-3.72,0.32-7.44,0.63-11.15,0.95c3.44-2.36,7.33-1.73,11.09-1.97
		C250.48,453.14,250.5,453.48,250.52,453.82z"/>
	<path class="st5" d="M331.45,421.69c-0.09-0.24-0.08-0.47,0.05-0.69c4.41-0.11,7.98-2.18,11.34-4.78l-0.11,0.08
		c0.31-0.02,0.61-0.03,0.92-0.04c0.41,0.05,0.83,0.09,1.24,0.14C341.12,419.98,336.95,422.53,331.45,421.69z"/>
	<path class="st5" d="M305.1,449.76c-1.28,2.44-2.98,3.79-5.48,3.6c-0.6-0.05-1.24-0.75-0.89-1.32
		C300.23,449.59,303.09,450.76,305.1,449.76z"/>
	<path class="st5" d="M371.86,413.06c0.01-0.42,0.03-0.85,0.04-1.27c2.08,0.13,4.16,0.25,6.97,0.43c-2.16,1.79-3.7,3.07-5.46,4.52
		C372.59,415.44,375.43,412.71,371.86,413.06z"/>
	<path d="M314.32,160.5c-3.46,0.91-7.54-0.59-10.41,2.66l-0.36,0.16c0,0-0.26-0.3-0.26-0.3c0-0.95-0.01-1.9-0.01-2.85
		C306.95,160.56,310.71,158.28,314.32,160.5z"/>
	<path class="st5" d="M257.21,458.09c-3.54,0.91-7.18,0.71-11.05,0.38C249.83,456.16,253.49,457.2,257.21,458.09z"/>
	<path d="M328.03,271.47c-2.33-1.84-5.8-1.07-7.89-3.46c4.4,1.19,9.25,0.57,13.28,3.26c-1.84,0.04-3.68,0.09-5.52,0.13
		C327.9,271.41,328.03,271.47,328.03,271.47z"/>
	<path class="st5" d="M250.52,453.82c-0.02-0.34-0.04-0.68-0.06-1.02c3.4-1.09,6.88-1.63,11.84-1.74
		C257.67,453.07,254.11,453.51,250.52,453.82z"/>
	<path class="st4" d="M430.38,459.7c0.34,0.29,0.68,0.59,1.01,0.88c-2.65,1.66-4.12,5.51-8.25,4.42l0.1,0
		C424.55,461.79,427.87,461.3,430.38,459.7z"/>
	<path class="st5" d="M139.44,70.22c2.82-1.29,4.53-2.13,6.28-2.85c0.77-0.32,1.66-0.03,1.92,0.74c0.42,1.2-1,0.66-1.44,1.24
		C144.64,71.44,142.64,70.86,139.44,70.22z"/>
	<path class="st5" d="M337.15,461.31c-1.11,2.4-2.75,3.58-4.48,4.63c-0.72,0.44-1.58,0.42-1.96-0.47c-0.31-0.72-0.27-1.97,0.54-1.93
		C333.43,463.63,334.53,461.26,337.15,461.31z"/>
	<path class="st5" d="M353.76,450.96c2.72-2.5,4.98-3.48,7.68-4.28C359.59,450.01,358.95,450.4,353.76,450.96z"/>
	<path class="st5" d="M196.91,30.33c0.01,0.49,0.02,0.97,0.03,1.46c-2.11,0.81-4.22,1.63-6.79,2.62c1-2.92,4.14-2.08,4.9-4.26
		c0,0-0.1,0.08-0.1,0.08C195.6,30.27,196.25,30.3,196.91,30.33z"/>
	<path d="M428.53,396.1c-0.88,0.48-1.11,1.24-0.9,2.17c-2.35,0.26-3.69-1.84-5.68-2.43c-0.02-0.41-0.04-0.82-0.06-1.23
		C424.1,395.11,426.32,395.6,428.53,396.1z"/>
	<path d="M413.79,389.8c0.53-0.03,1.05-0.07,1.58-0.1c-0.63,1.76,1.42,1.87,1.84,2.98c-0.19,0.24-0.37,0.47-0.56,0.71
		c-1.39-0.62-2.77-1.25-4.16-1.87c-0.02-0.53-0.04-1.05-0.06-1.58C412.89,389.9,413.34,389.85,413.79,389.8z"/>
	<path d="M288.71,166.73c-2.47,2.02-5.38,0.32-8.01,0.96C283.11,165.15,286.1,167.52,288.71,166.73z"/>
	<path class="st2" d="M415.28,447.35c-0.45-0.32-0.9-0.65-1.34-0.97c1.38-1.12,2.78-3.89,4.11,0.04c0,0,0.08-0.1,0.08-0.1
		c-1.25-0.86-1.63,0.03-1.98,0.98c0,0,0.05-0.04,0.05-0.04C415.9,447.3,415.59,447.32,415.28,447.35z"/>
	<path d="M369.08,293.79c-0.3-0.66-0.59-1.31-0.89-1.97c1.92,0.27,4.1-0.88,5.7,1.07c0,0-0.01,0-0.01,0
		c-0.94,0.43-2.26-0.21-2.92,1.02C370.33,293.87,369.7,293.83,369.08,293.79z"/>
	<path d="M376.65,293.91c1.96-0.39,3.55,0.23,4.81,1.76c-0.14,0.18-0.28,0.37-0.42,0.55c-1.61-0.5-3.14-1.14-4.34-2.39
		L376.65,293.91z"/>
	<path d="M381.46,295.66c1.27,0.06,2.33,0.52,3.07,1.6c-0.18,0.21-0.35,0.42-0.53,0.62c-0.99-0.56-1.97-1.11-2.96-1.67
		C381.18,296.03,381.32,295.85,381.46,295.66z"/>
	<path class="st6" d="M128.35,412.43c0.96-0.1,1.48,0.44,1.8,1.26C128.72,414.46,128.51,413.48,128.35,412.43z"/>
	<path class="st1" d="M396.48,423.1c-0.02-0.4-0.04-0.8-0.06-1.2c0.44-0.37,0.83-0.94,1.33-1.08c0.73-0.2,0.53,0.57,0.56,0.93
		C398.45,423.17,397.42,423.1,396.48,423.1z"/>
	<path class="st5" d="M409.21,456.46c-0.78,0.44-1.56,0.88-2.33,1.32c-0.22-0.23-0.43-0.47-0.65-0.7c0.77-0.48,1.53-0.96,2.3-1.44
		C408.75,455.91,408.98,456.19,409.21,456.46z"/>
	<path d="M373.89,292.89c1.05-0.03,2.32-0.63,2.76,1.01c0,0,0.05-0.08,0.05-0.08c-1.06,0.04-2.23,0.43-2.82-0.94L373.89,292.89z"/>
	<path class="st5" d="M187.39,34.93c0.49-0.29,0.98-0.59,1.47-0.88c0.11,0.2,0.21,0.4,0.32,0.6c-0.57,0.08-1.14,0.17-1.72,0.25
		C187.45,34.9,187.39,34.93,187.39,34.93z"/>
	<path class="st1" d="M90.43,404.13c0.05-0.49,0.1-0.98,0.15-1.47c0.49,0.57,0.97,1.14,1.46,1.71c-0.21,0.22-0.41,0.43-0.62,0.65
		C91.08,404.72,90.75,404.43,90.43,404.13z"/>
	<path d="M292.87,164.93c-0.63,0.3-1.27,0.6-1.9,0.9C291.12,164.51,292.1,164.94,292.87,164.93z"/>
	<path d="M435.91,402.21c-0.7-0.05-0.97-0.45-0.88-1.12c-0.19-0.18-0.25-0.39-0.19-0.64c0.25-0.21,0.51-0.41,0.76-0.62
		C436.31,400.55,435.95,401.4,435.91,402.21z"/>
	<path d="M421.89,394.61c0.02,0.41,0.04,0.82,0.06,1.23c-0.78-0.2-1.65-0.21-2.08-1.09c0.2-0.22,0.39-0.46,0.57-0.7
		C420.92,394.24,421.41,394.43,421.89,394.61z"/>
	<path d="M418.44,393.4c0.67,0.22,1.33,0.44,2,0.66c-0.18,0.24-0.37,0.47-0.57,0.7c-0.76-0.07-1.48-0.22-1.78-1.07L418.44,393.4z"/>
	<path class="st0" d="M56.54,360.45c-0.19,0.41-0.38,0.82-0.58,1.23c-0.11-0.1-0.27-0.17-0.32-0.3
		C55.25,360.42,56.15,360.67,56.54,360.45C56.55,360.44,56.54,360.45,56.54,360.45z"/>
	<path class="st0" d="M57.52,359.84c0.65-0.39,0.75,0.1,0.79,0.54c0.01,0.19-0.2,0.4-0.32,0.6c-0.13-0.41-0.25-0.82-0.38-1.24
		C57.61,359.74,57.52,359.84,57.52,359.84z"/>
	<path d="M291.06,165.78c-0.57,0.93-1.46,1.07-2.44,0.99C289.09,165.58,290.03,165.57,291.06,165.78z"/>
	<path d="M384.53,297.26c0.56,0.4,1.12,0.8,1.68,1.2c-0.4,0.04-0.8,0.08-1.19,0.12c-0.34-0.23-0.68-0.46-1.02-0.69
		C384.17,297.68,384.35,297.47,384.53,297.26z"/>
	<path class="st6" d="M341.52,461.04c-0.29,0.08-0.57,0.19-0.87,0.21c-0.11,0.01-0.24-0.18-0.35-0.28c0.28-0.07,0.56-0.18,0.85-0.2
		C341.27,460.76,341.4,460.94,341.52,461.04z"/>
	<path class="st5" d="M406.87,457.79c-0.42,0.79-1.08,1.06-1.95,0.87c0,0,0.04,0.05,0.04,0.05c-0.66-1.37,0.87-1.05,1.25-1.62
		C406.44,457.32,406.66,457.55,406.87,457.79z"/>
	<path class="st6" d="M50.11,142.33c0.02-0.24,0.04-0.47,0.06-0.71c0.14,0.03,0.28,0.06,0.42,0.09c-0.2,0.18-0.39,0.36-0.59,0.54
		C50.01,142.25,50.11,142.33,50.11,142.33z"/>
	<path class="st1" d="M385.02,298.58c0.4-0.04,0.8-0.08,1.19-0.12c0.21,0.01,0.33,0.12,0.37,0.32c-0.22,0.3-0.44,0.6-0.66,0.89
		C385.62,299.31,385.32,298.94,385.02,298.58z"/>
	<path class="st0" d="M289.1,88.68c-0.05-0.37-0.35-0.84,0.34-0.94c0.72-0.11,1.06,0.17,0.93,0.92
		C289.94,88.67,289.52,88.67,289.1,88.68z"/>
	<path d="M417.21,392.68c0.41,0.24,0.82,0.48,1.23,0.72c0,0-0.34,0.28-0.34,0.28c-0.48-0.1-0.96-0.2-1.44-0.3
		C416.84,393.15,417.02,392.92,417.21,392.68z"/>
	<path class="st5" d="M187.45,34.9l-0.1,0.15c0,0,0.05-0.13,0.04-0.13C187.39,34.93,187.45,34.9,187.45,34.9z"/>
	<path class="st4" d="M423.15,465.01c0.24,0.22,0.48,0.43,0.71,0.65c-0.1,0.05-0.2,0.11-0.31,0.16c-0.09-0.26-0.17-0.53-0.28-0.8
		C423.25,465.01,423.15,465.01,423.15,465.01z"/>
	<path class="st5" d="M388.38,430.8c-0.36,0.11-1,0.38-1.04,0.3c-0.32-0.55,0.15-0.66,0.56-0.77
		C388.06,430.48,388.22,430.64,388.38,430.8z"/>
	<path class="st5" d="M101,373.66c3.17,7.9,7.34,15.4,9.4,23.74c-2.68-1.82-2.9-5.12-4.55-7.57c-1.03-1.54-1.72-3.24-4.03-2.77
		c-0.74-4.12-3.49-7.77-2.86-12.21C99.79,374.7,100.57,374.47,101,373.66z"/>
	<path class="st4" d="M64.96,201.56c2.12-3.03,2.71-7.01,5.83-9.43c-1.85,6.74-5.18,12.81-8.49,18.89c-0.35-0.02-0.7-0.04-1.06-0.05
		c0.04-0.79,0.07-1.59,0.11-2.38c0,0-0.08,0.12-0.08,0.12C63.32,206.74,63.88,204.01,64.96,201.56z"/>
	<path class="st5" d="M116.77,230.76c-0.85,4.17-1.16,8.5-3.6,12.3c-4.11-5.18,1.85-8.19,2.09-12.33
		C115.76,230.73,116.27,230.74,116.77,230.76z"/>
	<path class="st5" d="M94.24,246.28c2.37-0.18,1.8-2.63,2.93-3.78c0.73-0.74,1.21-1.95,2.51-1.72c0.92,0.16,1.22,1.06,0.99,1.83
		c-0.38,1.24-0.56,3.82-1.39,3.45c-3.37-1.49-2,2.12-3.3,2.64C94.06,248.85,93.68,247.9,94.24,246.28z"/>
	<path class="st5" d="M110.46,222.96c-0.57,4.16-1.95,0.65-2.99,0.31c-0.2-1.37,0.57-2.07,1.76-2.2
		C110.66,220.91,110.36,222.12,110.46,222.96z"/>
	<path class="st5" d="M110.35,216.53c2.29,0,3.2,0.79,1.69,2.96C109.98,219.36,110.25,217.9,110.35,216.53z"/>
	<path class="st5" d="M75.46,183.67c-1.07-1.31-0.23-2.08,0.79-2.79c0.39,0.03,0.78,0.06,1.16,0.08
		C76.84,181.92,77.02,183.43,75.46,183.67z"/>
	<path class="st3" d="M318.2,284.45c-0.69,4.36-0.78,9.34-2.57,12.87c-2.19,4.31-4.23,9.42-8.73,12.39c-2.44,1.13-4.2,4-7.5,2.95
		c0.6-3.02,0.79-6.18,4.08-7.91c1.05-0.55,1.78-1.86,1.74-3.15c-0.16-5.1,3.5-8.07,6.99-10.06c3.23-1.85,4.29-4.03,4.68-7.19
		C317.33,284.38,317.77,284.41,318.2,284.45z"/>
	<path d="M257.15,334.3c2.1,2.35,3.92,0.1,5.06-0.88c2.26-1.94,4.35-2.98,7.2-1.7c0.29,0.59,0.58,1.17,0.87,1.76
		c-2.82-0.78-4.48,1.6-6.68,2.48c-4.48,1.8-8.63,5.05-14.75,3.21C251.85,336.94,253.59,334.17,257.15,334.3z"/>
	<path class="st7" d="M296.75,236.45c0.72-7.77,4.07-14.87,5.68-22.41c0.28,4.5,2.46,8.99-1.37,13.33
		c-2.09,2.37-1.61,6.28-3.49,9.05l-0.41,0.05L296.75,236.45z"/>
	<path d="M229.98,196.94c-0.74-3.58-0.76-7.24,0.7-10.55c1.61-3.64,0.37-7.95,2.94-11.27c1.16,4.59-1.38,8.93-0.9,13.48
		c0,2.19-0.1,4.39,0.02,6.57C232.86,197.54,231.93,197.96,229.98,196.94z"/>
	<path d="M289.09,402.25c-0.28-1.69,1.1-1.01,1.67-0.99c8.57,0.3,17.15,0.68,25.72,1.04c-0.26,2.07-1.7,1.78-3.11,1.56
		c-1.51-1.12-3.27-0.64-4.93-0.77C302,402.58,295.48,404.07,289.09,402.25z"/>
	<path d="M289.18,290.16c1.31,7.06-0.48,13.82-1.98,20.61c-0.27,0.12-0.54,0.11-0.8-0.03c-1.02-4.36,2.39-8.09,1.78-12.4
		c-0.01-0.97-0.03-1.93-0.04-2.9c0.08-1.83,0.16-3.66,0.24-5.49C288.67,289.9,288.94,289.97,289.18,290.16z"/>
	<path d="M350.29,399.68c-2.53,1.02-5.09,0.19-8.17,0.33c2.52-3.36,5.57-2.41,8.43-2.23C350.46,398.42,350.37,399.05,350.29,399.68z
		"/>
	<path d="M260.09,268.29c-2.41,0.18-4.83,0.58-7.83-0.29c2.99-1.01,5.45-0.14,7.87-0.28C260.22,267.92,260.21,268.11,260.09,268.29z
		"/>
	<path class="st5" d="M287.45,218.91c-0.2-0.05-0.48,0.16-0.73,0.26c0.18,0.29,0.36,0.58,0.55,0.87c0.19-0.16,0.38-0.32,0.58-0.5
		C287.72,219.31,287.62,218.95,287.45,218.91z"/>
	<path class="st5" d="M285.81,222.66c-0.69,0-1.19,0.61-0.63,1.37c0.07,0.02,0.13,0.04,0.21,0.07c0,0.02,0,0.05-0.01,0.07
		c0.3-0.02,0.6-0.03,0.9-0.05C286.13,223.61,286.73,222.65,285.81,222.66z"/>
	<path class="st5" d="M296.99,218.27c-0.36,0.16-0.65,0.46-0.97,0.71c0.24,0.15,0.47,0.3,0.57,0.37c0.75,0.18,0.94-0.24,1-0.69
		C297.61,218.54,297.12,218.21,296.99,218.27z"/>
	<path class="st5" d="M285.17,224.03c0.04,0.05,0.06,0.1,0.11,0.15l0.1-0.08C285.3,224.06,285.24,224.05,285.17,224.03z"/>
	<path class="st5" d="M284.4,224.99c-0.02,0.01-0.03,0.02-0.05,0.03c0,0.03,0,0.05,0,0.08L284.4,224.99z"/>
	<path class="st5" d="M284.34,225.1c0.03,0.01,0.05,0.02,0.08,0.03c-0.01-0.05-0.02-0.09-0.03-0.14
		C284.4,224.99,284.34,225.1,284.34,225.1z"/>
	<path class="st5" d="M285.28,224.18c0.03,0,0.06,0,0.09,0c0-0.02,0-0.05,0.01-0.07L285.28,224.18z"/>
	<path d="M280.59,220.58c1.74,0.68,1.72-0.92,1.95-2.02c-0.6-0.01-1.21-0.02-1.81-0.04C279.71,219.16,279.61,220.2,280.59,220.58z"
		/>
	<path class="st3" d="M235.44,155.62c-1.98-0.9-2.87-2.74-3.96-4.46c-0.88-1.41-1.54-2.79-0.85-4.37c0.93-2.13,2.82,0.15,4.06-0.72
		c0.01-0.18,0.08-0.37,0.02-0.47c-0.64-0.96-1.02-2.2-2.45-2.3c-0.07,0-0.2,0.34-0.22,0.53c-0.01,0.08,0.25,0.29,0.32,0.26
		c2.23-0.78,0.92-2.14,0.56-3.37c-0.56-1.94-1.37-3.83-1.18-5.92c0.37,0.28,0.73,0.56,1.1,0.84c1.94-3.84,3.21-1.55,4.49,0.49
		c1.45,2.33,2.74,4.9,4.62,0.18c0.88-2.2,2.04-0.58,2.61,0.39c1.49,2.49,3.67,2.95,6.36,3.01c3.1,0.07,6.39-0.4,8.09,3.82
		c0.52,1.29,3.8,3.61,6.66,0.87c1.5-1.44,3.74-2.19,6.47-1.79c-1.38,1.12-2.5,2.02-4.1,3.33c1.92,0,3.22,0,4.8,0
		c-1.08,2.62-4.64,2.74-4.67,6.21c-0.01,1.35-2.8,0.16-3.91-0.69c-2.78-2.13-4.75-1.37-6.69,1.16c-2.22,2.89-4.77,5.41-8.82,5.36
		c0.5-2.94-1.83-3.15-3.68-3.85c-3.52-1.33-2.62-3.6-0.7-5.32c1.74-1.56,4.07-2.21,6.56-1.19c1.33,0.54,2.82,1.09,3.97-0.34
		c-0.64-1.55-1.68-1.02-2.55-1.11c-3.39-0.33-7.8,1.34-9.86,0.22c-5.57-3.02-4.71,0.76-3.97,3.19
		C239.58,153.05,238.44,154.62,235.44,155.62z M236.11,146.24c-0.35,0.38-0.6,0.65-0.85,0.93c0.32,0.24,0.62,0.66,0.95,0.67
		c0.3,0.01,0.62-0.41,0.93-0.64C236.84,146.92,236.55,146.65,236.11,146.24z"/>
	<path class="st4" d="M258.8,164.9c-2.56-0.79-1.94-3.15-2.4-4.96c-0.06-0.22,0.32-0.55,0.5-0.83c0.27,0.34,0.59,1.02,0.79,0.98
		c2.08-0.36,4.15-1.16,6.2-1.11c0.91,0.02,1.62-1.74,2.31-0.36c0.73,1.44,0.23,2.75-1.35,3.43c-2.1,0.9-4.6,0.94-6.19,2.94
		C258.66,164.99,258.8,164.9,258.8,164.9z"/>
	<g>
		<path d="M287.52,181.57c-0.37,0.22-0.73,0.44-1.1,0.67l0.17,0.09c0.75,0.19,1.5,0.38,2.25,0.57
			C289.3,181.56,288.28,181.69,287.52,181.57z"/>
		<path d="M282.4,168.9c-0.14,5.51,2.02,9.4,4.02,13.34c0.37-0.22,0.73-0.44,1.1-0.67C284.62,178.15,285.59,173.2,282.4,168.9z"/>
	</g>
	<path d="M246.46,181.32c1.89-2.74,4.77-3.43,7.66-4.07C252.04,179.59,249.25,180.45,246.46,181.32z"/>
	<path d="M235.26,182.45c-0.51-1.01-0.82-1.33-0.75-1.53c0.69-2.04,1.44-4.07,2.5-7.02C239.21,178.01,236.41,179.67,235.26,182.45z"
		/>
	<path d="M295.3,171.97c0.29-1.22,0.84-2.27,1.88-3.03c0.22,0.29,0.44,0.57,0.66,0.86c-0.27,1.19-0.9,2.13-1.96,2.76
		C295.69,172.36,295.5,172.16,295.3,171.97z"/>
	<path d="M292.76,177.57c-0.33,0.3-0.53,0.23-0.68-0.2c-0.25-0.72,0.07-1.17,0.7-1.41c0.18-0.07,0.61,0.05,0.67,0.19
		C293.76,176.84,293.31,177.24,292.76,177.57z"/>
	<path class="st1" d="M260.96,176.22c-0.21,0.46-0.28,1.38-1.04,0.75c-0.68-0.57,0.12-0.95,0.51-1.32
		C260.59,175.86,260.77,176.05,260.96,176.22z"/>
	<path class="st1" d="M260.43,175.66c0.38-0.1,1.04-0.38,1.09-0.29c0.31,0.53-0.09,0.74-0.56,0.85
		C260.77,176.05,260.59,175.86,260.43,175.66z"/>
	<g>
		<path d="M295.31,171.97c-0.23,0.4-0.46,0.8-0.69,1.2c-0.68,0.36-1.57,1.02-0.87,1.63c0.91,0.79,1.07-0.5,1.44-1.04c0,0,0,0,0,0
			c0.23-0.4,0.47-0.79,0.7-1.19C295.69,172.36,295.5,172.16,295.31,171.97z"/>
		<path d="M297.18,168.94c0.22,0.29,0.44,0.57,0.66,0.86c0.18-0.24,0.58-0.57,0.52-0.7C298.09,168.53,297.62,168.71,297.18,168.94z"
			/>
	</g>
	<path class="st4" d="M320.16,167.37c-3.33,4.11-6.62,8.28-11.56,10.63C311.75,173.72,315.43,169.98,320.16,167.37z"/>
	<path class="st4" d="M323.07,164.94c-0.35-0.4-0.31-0.74,0.18-0.96c0.11-0.05,0.29,0.07,0.43,0.11c-0.22,0.26-0.44,0.52-0.66,0.78
		L323.07,164.94z"/>
	<path class="st4" d="M323.02,164.86c0.05,0.62-0.29,0.92-0.84,1.04c-0.27-0.19-0.53-0.38-0.8-0.57c0.5-0.4,0.91-1.16,1.69-0.4
		C323.07,164.94,323.02,164.86,323.02,164.86z"/>
	<path class="st4" d="M322.18,165.91c-0.23,0.44-0.35,1.22-1.07,0.71c-0.66-0.47-0.11-0.91,0.28-1.28
		C321.64,165.53,321.91,165.72,322.18,165.91z"/>
	<path d="M248.22,257.95c-0.36,1.37-0.18,2.92-1.28,4.06c-0.43,0.77,0.76,2.47-1.2,2.31c-4.57-0.36-5.86,2.49-6.34,6.23
		c-0.64-1.01-1.31-0.79-2.32-0.38c-3.22,1.32-5.59,3.77-8.23,5.85c-1.24,0.98-2.41,1.99-3.62-0.01c2.76-7.33,7.87-12.8,13.78-17.69
		c2.28-1.89,4.88-2.54,7.73-2.5C247.74,256.2,248.01,257.06,248.22,257.95z"/>
	<path d="M225.24,276.03c1.21,1.99,2.38,0.99,3.62,0.01c2.64-2.09,5.01-4.53,8.23-5.85c1.01-0.41,1.68-0.63,2.32,0.38
		c-4.77,3.48-7.11,9.98-13.81,11.05c-1.19,0.07-1.48,0.81-1.4,1.84c-4.61,2.46-8.13,5.72-7.99,11.46c0.03,1.44-1.05,1.23-1.81,1.47
		c-1.45,0.47-2.93,0.85-4.39,1.28c0.96-5.92,4.46-10.51,8.17-14.88C220.26,280.3,222.86,278.26,225.24,276.03z"/>
	<path class="st4" d="M109.32,270.87c-1.73-8.4-0.42-16.36,3.65-23.95C110.21,254.73,112.23,263.11,109.32,270.87z"/>
	<path class="st4" d="M120.63,342.75c2.04,4.3,0.84,9.62,4.23,13.48c0.6,0.68,1.58,1.23,0.39,2.15c-0.76,0.58-1.41,0.14-2.07-0.34
		c-2.54-1.84-6.95-16.55-5.81-19.71c0.07-0.19,0.86-0.12,1.32-0.17l-0.01-0.05c-0.28,1.19-0.23,2.26,1.01,2.92l-0.07-0.12
		c-0.13,0.92-0.51,1.97,1.05,1.99L120.63,342.75z"/>
	<path d="M184.65,319.24c0.08,0.49,0.16,0.97,0.24,1.46c-1.52,1.12-3.04,2.23-4.56,3.35c-3.15-0.51-5.04,2.6-7.96,2.75
		C175.59,322.86,180.18,321.15,184.65,319.24z"/>
	<path class="st4" d="M143.2,381.37c4.65-1.39,5.46,2.87,7.6,5.17c-0.41-0.19-1.01-0.67-1.21-0.54c-3.73,2.42-4.8-0.7-6.3-2.95
		c-0.11-0.35-0.23-0.7-0.34-1.05C142.99,381.78,143.07,381.57,143.2,381.37z"/>
	<path class="st4" d="M104.66,245.76c1.4,0.11,1.89,0.98,2.04,2.15c0.21,1.56-0.2,2.77-1.91,3.12c-1.47,0.3-2.02-0.67-1.86-1.85
		C103.12,247.9,103.11,246.36,104.66,245.76z"/>
	<path class="st5" d="M118.69,338.16c1.88-0.72-0.16-2.12,0.74-3.29c2.08,2.3,2.62,5.25,2.9,7.94c0.2,1.91-1.07-0.3-1.69-0.06
		c0,0,0.04,0.16,0.04,0.16c-0.17-0.76,0.44-1.93-1.05-1.99c0,0,0.07,0.12,0.07,0.12c0.13-1.14,0.84-2.48-1.01-2.92L118.69,338.16z"
		/>
	<path d="M141.36,383.26c-2.1,2.67-1,6.69-3.79,9.07C137.22,388.63,137.06,385.01,141.36,383.26z"/>
	<path class="st5" d="M128.56,245.07c-1.74-3.42-0.68-5.54,1.23-8.34C130.42,240.03,129.93,242.32,128.56,245.07z"/>
	<path class="st5" d="M196.89,313.49c-0.39,3.93-3.55,2.5-5.73,2.98C191.9,313.23,195.2,314.9,196.89,313.49z"/>
	<path d="M189.83,316.76c-0.26,3.91-3.1,2.49-5.23,2.53C185.61,316.94,188.64,318.76,189.83,316.76z"/>
	<path d="M207.21,302.29c-1.09,1.85-2.63,2.56-4.73,1.91C203.68,302.65,205.16,301.78,207.21,302.29z"/>
	<path d="M209.09,298.53c0.07,1.61,0.18,3.25-1.9,3.78C206.66,300.47,207.67,299.4,209.09,298.53z"/>
	<path d="M167.68,331.48c0.73,2.22-0.47,3.26-2.38,3.85C165.96,333.97,166.05,332.25,167.68,331.48z"/>
	<path d="M201.57,305.12c1.1,2.15-0.7,2.84-1.91,3.83C199.27,307.16,200.4,306.13,201.57,305.12z"/>
	<path class="st8" d="M137.16,392.73c-0.65,0.66-1.34,1.25-2.38,0.94C135.34,392.74,135.8,391.61,137.16,392.73z"/>
	<path class="st8" d="M142.94,382c0.11,0.35,0.23,0.7,0.34,1.05c-0.67,0.09-1.34,0.18-2.01,0.28
		C141.52,382.5,142.23,382.25,142.94,382z"/>
	<path d="M199.7,308.88c0.37,1-0.04,1.62-0.98,1.97C197.83,309.59,198.39,309.05,199.7,308.88z"/>
	<path d="M198.79,310.77c-0.11,0.91-0.7,1.12-1.5,1.01C197.65,311.23,197.62,310.1,198.79,310.77z"/>
	<path d="M202.53,304.17c0.29,0.95,0.34,1.67-1,1C201.61,304.58,201.89,304.2,202.53,304.17z"/>
	<path d="M172.37,326.78c0.2,0.83-0.2,1.07-0.95,0.96C170.9,326.59,171.45,326.5,172.37,326.78z"/>
	<path d="M171.45,327.72c0.09,0.74-0.31,0.99-0.97,0.99C169.96,327.55,170.31,327.25,171.45,327.72z"/>
	<path d="M170.52,328.66c0.02,0.68-0.22,1.09-0.99,0.97C169.16,328.58,169.42,328.18,170.52,328.66z"/>
	<path d="M169.56,329.6c0.14,0.78-0.19,1.1-0.97,0.98C168.41,329.76,168.37,329.08,169.56,329.6z"/>
	<path d="M168.63,330.54c-0.02,0.64,0.25,1.56-0.99,0.99C167.7,330.92,167.61,330.18,168.63,330.54z"/>
	<path class="st2" d="M210.09,297.57c0.08,0.78-0.3,1.1-1.04,1.06C209.04,297.93,208.82,297.02,210.09,297.57z"/>
	<path class="st5" d="M82.23,342.64c2.93,5.52,6.19,10.92,6.29,17.44c-2.59-5.65-6.26-10.93-6.2-17.5L82.23,342.64z"/>
	<path d="M77.03,384.36c3.93,2.44,4.51,7.14,8.18,9.56c0.46,0.3,0.67,1.07-0.04,1.55c-0.56,0.38-1.11,0.3-1.72-0.02
		c-2.05-1.07-2.62-3.13-3.48-5.01C79.02,388.39,78.01,386.38,77.03,384.36z"/>
	<path class="st4" d="M104.55,391.75c1.77,2.83,3.54,5.65,5.35,8.53c1.3-0.92-0.11-2.04,0.42-2.92c2.62,2.35,2.72,3.83,1.31,3.41
		c-1.73-0.52-2.72,1.47-4.21,0.59C106.57,398.12,104.03,395.39,104.55,391.75z"/>
	<path class="st5" d="M86.5,386.19c3.93,2.4,5.92,5.01,7.37,9.6C91.03,392.9,87.92,390.24,86.5,386.19z"/>
	<path class="st5" d="M79.03,302.16c0.11-1.86,0.23-3.71,0.34-5.57c0.05-0.82-0.49-2.02,1.15-1.78c1.14,0.17,1.68,0.98,1.44,1.99
		c-0.49,2.07-0.55,4.35-2.42,5.86C79.36,302.49,79.19,302.32,79.03,302.16z"/>
	<path class="st2" d="M83.26,286.98c-1.62,0.36-2.74,0.61-4.02,0.9c0-2.18,0-4.26,0-6.33C80,283.65,82.22,284.62,83.26,286.98z"/>
	<path class="st5" d="M74.72,378.41c1.49,1.32,2.16,3.06,2.64,4.94c-2-0.79-2.58-2.62-3.39-4.27
		C74.22,378.85,74.47,378.63,74.72,378.41z"/>
	<path class="st5" d="M73.45,377.78c-0.74-0.39-1.01-0.92-0.51-1.69c0.34,0.39,0.68,0.77,1.02,1.16
		C73.79,377.43,73.62,377.61,73.45,377.78z"/>
	<path class="st0" d="M59.27,272.25c0.15,0.23,0.42,0.46,0.41,0.67c-0.01,0.27-0.2,0.71-0.39,0.75c-0.58,0.14-0.65-0.32-0.53-0.73
		C58.84,272.69,59.09,272.49,59.27,272.25z"/>
	<path class="st6" d="M79.53,302.66c-0.36,0.53-0.76,0.89-1.36,0.28c0.29-0.26,0.57-0.52,0.86-0.78
		C79.19,302.32,79.36,302.49,79.53,302.66z"/>
	<path class="st6" d="M82.31,342.57c-0.11,0.05-0.22,0.09-0.33,0.14c0.08-0.02,0.15-0.03,0.23-0.06
		C82.23,342.64,82.31,342.57,82.31,342.57z"/>
	<path class="st5" d="M73.97,379.08c-0.18-0.43-0.35-0.86-0.53-1.29c0.17-0.18,0.35-0.35,0.52-0.53c0.25,0.38,0.5,0.77,0.75,1.15
		C74.47,378.63,74.22,378.85,73.97,379.08z"/>
	<path class="st4" d="M103.45,390.83c1.2-0.56,1.02,0.46,1.2,1.06C103.51,392.36,103.73,391.31,103.45,390.83z"/>
	<path class="st5" d="M95.05,396.9c-0.11,0.1-0.22,0.19-0.32,0.29c-0.09-0.12-0.25-0.24-0.24-0.35c0.01-0.11,0.2-0.2,0.3-0.29
		C94.88,396.67,94.96,396.78,95.05,396.9z"/>
	<path class="st5" d="M86.47,397.83c0,0.1,0.04,0.23-0.01,0.3c-0.06,0.08-0.22,0.18-0.28,0.15c-0.4-0.18-0.4-0.41,0-0.59
		C86.24,397.66,86.37,397.78,86.47,397.83z"/>
	<path class="st1" d="M99.86,402.21c-0.28-0.21-0.55-0.42-0.83-0.63c0.51-0.61,0.91-0.22,1.31,0.14
		C100.19,401.89,100.03,402.05,99.86,402.21z"/>
	<path class="st0" d="M38.64,221.2c-1.59-1-1.29-1.87,0.19-2.66C38.76,219.42,38.7,220.31,38.64,221.2z"/>
	<path class="st0" d="M38.78,218.62c-0.43-1.23-0.61-2.37,1-2.9C40.61,217.09,39.89,217.92,38.78,218.62z"/>
	<path class="st0" d="M39.75,215.78c-0.63-1.28-0.32-2.25,0.97-2.89C42.08,214.41,40.93,215.1,39.75,215.78z"/>
	<path class="st4" d="M70.72,192.24c-0.74-1.35,0.4-2.07,0.98-2.97C71.87,190.42,72.27,191.65,70.72,192.24z"/>
	<path class="st5" d="M71.65,189.38c-0.13-0.89,0.29-1.51,1-1.97C72.63,188.23,73.3,189.4,71.65,189.38z"/>
	<path class="st5" d="M73.54,186.57c-0.29-0.95-0.33-1.76,0.96-1.92C75.08,185.74,74.48,186.24,73.54,186.57z"/>
	<path class="st0" d="M58.31,220.23c0.28-0.58,0.68-0.82,1.19-0.3c0.05,0.05-0.38,0.58-0.59,0.89
		C58.71,220.62,58.51,220.43,58.31,220.23z"/>
	<path class="st5" d="M72.58,187.5c0.08-0.6,0.08-1.29,1.02-1C73.56,187.13,73.55,187.81,72.58,187.5z"/>
	<path class="st5" d="M74.52,184.63c-0.12-0.73-0.26-1.47,0.91-0.91C75.47,184.38,75.61,185.11,74.52,184.63z"/>
	<path class="st0" d="M308.64,34.28c-0.46-0.29-0.91-0.57-1.37-0.86c0.69-0.51,1.39-0.38,2.08,0
		C309.11,33.71,308.88,33.99,308.64,34.28z"/>
	<path d="M258.05,332.28c1.82,1.69-0.32,1.57-0.97,2.14C256.06,333.09,257.83,333.04,258.05,332.28z"/>
	<path class="st2" d="M266.64,269.57c4.7-0.79,9.2-1.33,9.87,5.41c0.09,0.87,1.27,1.64,1.95,2.46c-0.13,2.96,1.93,4.82,3.46,6.95
		c1.68,2.34,3.96,4.34,4.14,7.63c-5.78-4.98-10.03-11.3-14.92-17.15c0.31,3.2,0.95,6.14,0.38,9.35c-5.81-2.26-7.79,4.38-13.04,5.61
		C261.84,282.89,265.13,276.56,266.64,269.57z"/>
	<path class="st4" d="M248.82,281.51c0.45,2.02,2.21,5.12,0.07,5.81c-2.6,0.84-2.48-2.81-3.14-4.62c-1.74-4.79-3.03-9.71-2.59-14.95
		c1.8,3,1.02,7.15,4.36,9.38c0,0,0.04-0.16,0.04-0.16c-0.83,0.69,0.02,1.24,0.15,1.84C248.08,279.71,248.45,280.61,248.82,281.51z"
		/>
	<path class="st2" d="M288.14,295.44c0.01,0.97,0.03,1.93,0.04,2.9c-2.24,1.77-4.9,1.15-7.43,1.28c-0.18-0.2-0.38-0.39-0.58-0.56
		C281.8,295.58,284.01,293.4,288.14,295.44z"/>
	<path class="st2" d="M180.33,324.04c1.52-1.12,3.04-2.23,4.56-3.35c2.15-0.41,3.83,0.77,5.66,2.01
		C187.14,323.23,184.25,326.75,180.33,324.04z"/>
	<path d="M241.14,297.61c-2.46-4.27-1.33-8.38,0.66-12.45c-0.59,4.16-0.68,8.34-0.73,12.53L241.14,297.61z"/>
	<path d="M224.2,283.45c-0.08-1.03,0.21-1.78,1.4-1.84c1.19,0.31,3.07-0.52,3.24,1.55c0.11,1.25-1.19,1.71-2.17,2.03
		C225.2,285.67,223.82,285.73,224.2,283.45z"/>
	<path d="M248.82,281.51c-0.37-0.9-0.74-1.8-1.11-2.71c1.17-0.71,1.16-1.33-0.15-1.84c0,0-0.04,0.16-0.04,0.16
		c0.09-1.28,0.17-2.56,0.26-3.85C248.41,276.02,252.7,278.34,248.82,281.51z"/>
	<path class="st5" d="M207.32,313.37c-2.55,2.35-5.53,2.55-9.79,1.75C201.54,314.4,204.43,313.89,207.32,313.37z"/>
	<path class="st5" d="M211.43,312.92c-0.27,0.31-0.39,0.58-0.57,0.63c-0.27,0.07-0.62,0.05-0.87-0.07
		c-0.43-0.19-0.42-0.53,0.04-0.62C210.43,312.78,210.87,312.89,211.43,312.92z"/>
	<path d="M251.36,267.36c-0.52-0.02-0.9,0.02-1.25-0.07c-0.44-0.11-0.45-0.37-0.02-0.54c0.24-0.09,0.54-0.17,0.78-0.11
		C251.02,266.68,251.11,266.98,251.36,267.36z"/>
	<path d="M247.71,271.5c-0.16,0.22-0.32,0.43-0.48,0.64c-0.14-0.23-0.43-0.49-0.39-0.69c0.06-0.27,0.36-0.49,0.56-0.73
		C247.51,270.98,247.61,271.24,247.71,271.5z"/>
	<path class="st8" d="M241.07,297.69c0.23,0.09,0.46,0.18,0.69,0.28c-0.11,0.15-0.22,0.31-0.33,0.46c-0.1-0.27-0.19-0.54-0.29-0.82
		C241.14,297.61,241.07,297.69,241.07,297.69z"/>
	<path class="st5" d="M213.77,312.68c-0.11-0.21-0.22-0.4-0.32-0.6c0.25-0.05,0.51-0.13,0.76-0.12c0.09,0,0.18,0.21,0.27,0.33
		C214.24,312.42,214.01,312.55,213.77,312.68z"/>
	<path class="st2" d="M280.75,299.62c-0.2,0.18-0.51,0.55-0.58,0.51c-0.58-0.32-0.25-0.71,0-1.08
		C280.38,299.23,280.57,299.42,280.75,299.62z"/>
	<path class="st3" d="M299.48,312.62c-0.02,0.22,0.03,0.59-0.06,0.62c-0.45,0.18-0.79,0.05-0.82-0.51
		C298.9,312.71,299.19,312.68,299.48,312.62z"/>
	<path class="st1" d="M342.95,300.32c0.68,0.17,1.63,0.13,1.98,0.56c0.44,0.54-0.5,0.41-0.66,0.39c-0.59-0.07-2.06,0.68-1.2-1.06
		C343.08,300.21,342.95,300.32,342.95,300.32z"/>
	<path class="st1" d="M296.6,219.34c-0.1-0.06-0.33-0.21-0.57-0.37c0.32-0.25,0.61-0.56,0.97-0.71c0.13-0.06,0.61,0.28,0.6,0.39
		C297.54,219.1,297.35,219.52,296.6,219.34z"/>
	<path class="st1" d="M286.27,224.13c-0.33,0.02-0.66,0.03-0.99,0.05c-0.75-0.84-0.21-1.52,0.52-1.52
		C286.73,222.65,286.13,223.61,286.27,224.13z"/>
	<path class="st1" d="M285.38,224.1c-0.11,0.58,0.2,1.59-1.04,1C284.41,224.47,284.21,223.58,285.38,224.1z"/>
	<path class="st1" d="M252.5,259.89c-1.46,0.54-2.47,0.15-2.92-1.41C250.48,259.11,251.94,258.56,252.5,259.89z"/>
	<path class="st9" d="M247.56,276.96c1.31,0.51,1.32,1.13,0.15,1.84C247.58,278.2,246.73,277.65,247.56,276.96z"/>
</g>
</svg>
